<?xml version="1.0" encoding="UTF-8" standalone="no"?>
<!DOCTYPE svg PUBLIC "-//W3C//DTD SVG 1.1//EN" "http://www.w3.org/Graphics/SVG/1.1/DTD/svg11.dtd">
<svg width="100%" height="100%" viewBox="0 0 640 480" version="1.1" xmlns="http://www.w3.org/2000/svg" xmlns:xlink="http://www.w3.org/1999/xlink" xml:space="preserve" xmlns:serif="http://www.serif.com/" style="fill-rule:evenodd;clip-rule:evenodd;stroke-linejoin:round;stroke-miterlimit:2;">
    <g transform="matrix(0.9376,0,0,0.9375,0,0)">
        <clipPath id="_clip1">
            <rect x="0" y="0" width="682.6" height="512"/>
        </clipPath>
        <g clip-path="url(#_clip1)">
            <rect x="0" y="0" width="1024" height="340.11" style="fill:rgb(178,0,0);"/>
            <rect x="0" y="340.11" width="1024" height="171.89" style="fill:rgb(66,159,0);"/>
            <rect x="0" y="0" width="113.37" height="512" style="fill:white;"/>
            <g>
                <path d="M5.394,8.682L10.792,8.682L10.792,17.362L5.394,17.362L5.394,8.682ZM21.59,8.682L37.786,8.682L37.786,17.362L21.59,17.362L21.59,8.682ZM26.983,0L32.381,0L32.381,8.68L26.984,8.68L26.983,0ZM53.98,0L59.38,0L59.38,8.68L53.98,8.68L53.98,0ZM75.57,8.682L91.767,8.682L91.767,17.362L75.57,17.362L75.57,8.682ZM80.98,0L86.378,0L86.378,8.68L80.98,8.68L80.98,0Z" style="fill:rgb(178,0,0);"/>
                <path d="M16.196,17.36L26.994,17.36L26.994,26.04L16.196,26.04L16.196,17.36ZM32.392,17.36L43.19,17.36L43.19,26.04L32.392,26.04L32.392,17.36ZM70.177,17.36L80.975,17.36L80.975,26.04L70.177,26.04L70.177,17.36ZM86.373,17.36L97.17,17.36L97.17,26.04L86.374,26.04L86.373,17.36ZM10.787,26.04L21.585,26.04L21.585,34.718L10.787,34.718L10.787,26.04ZM37.786,26.04L48.583,26.04L48.583,34.718L37.786,34.718L37.786,26.04ZM64.784,26.04L75.58,26.04L75.58,34.718L64.785,34.718L64.784,26.04ZM91.767,26.04L102.564,26.04L102.564,34.718L91.767,34.718L91.767,26.04ZM102.57,8.682L107.967,8.682L107.967,17.362L102.569,17.362L102.57,8.682ZM5.394,34.718L16.192,34.718L16.192,43.396L5.394,43.396L5.394,34.718ZM43.18,34.718L53.977,34.718L53.977,43.396L43.18,43.396L43.18,34.718ZM97.175,34.718L107.973,34.718L107.973,43.396L97.175,43.396L97.175,34.718ZM10.787,60.75L21.585,60.75L21.585,69.43L10.787,69.43L10.787,60.75ZM16.196,69.43L26.994,69.43L26.994,78.107L16.196,78.107L16.196,69.43ZM37.786,60.75L48.583,60.75L48.583,69.43L37.786,69.43L37.786,60.75ZM32.392,69.43L43.19,69.43L43.19,78.107L32.392,78.107L32.392,69.43ZM21.59,78.107L37.786,78.107L37.786,86.785L21.59,86.785L21.59,78.107Z" style="fill:rgb(178,0,0);"/>
                <path d="M26.983,86.784L32.381,86.784L32.381,95.464L26.984,95.464L26.983,86.784ZM64.784,60.752L75.58,60.752L75.58,69.43L64.785,69.43L64.784,60.752ZM70.177,69.43L80.975,69.43L80.975,78.107L70.177,78.107L70.177,69.43ZM91.767,60.75L102.564,60.75L102.564,69.43L91.767,69.43L91.767,60.75ZM86.373,69.43L97.17,69.43L97.17,78.107L86.374,78.107L86.373,69.43ZM75.57,78.107L91.767,78.107L91.767,86.785L75.57,86.785L75.57,78.107Z" style="fill:rgb(178,0,0);"/>
                <path d="M80.98,86.784L86.378,86.784L86.378,95.464L80.98,95.464L80.98,86.784ZM53.98,78.107L59.38,78.107L59.38,86.785L53.98,86.785L53.98,78.107ZM0,78.107L5.398,78.107L5.398,86.785L0,86.785L0,78.107ZM107.963,78.107L113.361,78.107L113.361,86.785L107.964,86.785L107.963,78.107ZM26.983,121.497L32.381,121.497L32.381,130.175L26.984,130.175L26.983,121.497Z" style="fill:rgb(178,0,0);"/>
                <path d="M21.59,130.174L37.786,130.174L37.786,138.852L21.59,138.852L21.59,130.174ZM16.196,138.852L43.19,138.852L43.19,147.53L16.196,147.53L16.196,138.852ZM80.98,121.497L86.378,121.497L86.378,130.175L80.98,130.175L80.98,121.497Z" style="fill:rgb(178,0,0);"/>
                <path d="M75.57,130.174L91.767,130.174L91.767,138.852L75.57,138.852L75.57,130.174ZM70.177,138.852L97.17,138.852L97.17,147.53L70.178,147.53L70.177,138.852ZM75.57,182.242L102.564,182.242L102.564,190.92L75.57,190.92L75.57,182.242ZM64.784,147.53L102.574,147.53L102.574,156.21L64.784,156.21L64.784,147.53ZM10.787,147.53L48.577,147.53L48.577,156.21L10.787,156.21L10.787,147.53ZM16.196,190.92L32.392,190.92L32.392,199.598L16.196,199.598L16.196,190.92ZM10.787,182.242L37.78,182.242L37.78,190.92L10.788,190.92L10.787,182.242ZM86.373,164.886L113.367,164.886L113.367,173.564L86.373,173.564L86.373,164.886ZM80.98,190.92L97.175,190.92L97.175,199.598L80.98,199.598L80.98,190.92Z" style="fill:rgb(178,0,0);"/>
                <path d="M21.59,199.597L26.988,199.597L26.988,208.277L21.59,208.277L21.59,199.597ZM86.373,199.597L91.771,199.597L91.771,208.277L86.374,208.277L86.373,199.597ZM0,164.886L26.994,164.886L26.994,173.564L0,173.564L0,164.886ZM48.588,182.242L64.784,182.242L64.784,190.92L48.588,190.92L48.588,182.242ZM53.98,190.92L59.38,190.92L59.38,199.598L53.98,199.598L53.98,190.92ZM37.786,164.886L75.576,164.886L75.576,173.564L37.786,173.564L37.786,164.886ZM59.375,34.718L70.173,34.718L70.173,43.396L59.375,43.396L59.375,34.718Z" style="fill:rgb(178,0,0);"/>
                <rect x="48.588" y="43.395" width="16.196" height="8.678" style="fill:rgb(178,0,0);"/>
                <path d="M43.18,52.073L53.977,52.073L53.977,60.753L43.18,60.753L43.18,52.073ZM59.375,52.073L70.173,52.073L70.173,60.753L59.375,60.753L59.375,52.073ZM0,43.395L10.798,43.395L10.798,52.073L0,52.073L0,43.395Z" style="fill:rgb(178,0,0);"/>
                <path d="M5.394,52.073L16.192,52.073L16.192,60.753L5.394,60.753L5.394,52.073ZM102.57,43.395L113.367,43.395L113.367,52.073L102.57,52.073L102.57,43.395ZM97.175,52.073L107.973,52.073L107.973,60.753L97.175,60.753L97.175,52.073ZM0,130.174L5.398,130.174L5.398,138.852L0,138.852L0,130.174ZM107.963,130.174L113.361,130.174L113.361,138.852L107.964,138.852L107.963,130.174ZM48.588,199.597L64.784,199.597L64.784,208.277L48.588,208.277L48.588,199.597Z" style="fill:rgb(178,0,0);"/>
                <path d="M43.18,208.276L53.977,208.276L53.977,216.954L43.18,216.954L43.18,208.276ZM59.375,208.276L70.173,208.276L70.173,216.954L59.375,216.954L59.375,208.276ZM37.786,216.954L48.583,216.954L48.583,225.632L37.786,225.632L37.786,216.954ZM64.784,216.954L75.58,216.954L75.58,225.632L64.785,225.632L64.784,216.954Z" style="fill:rgb(178,0,0);"/>
                <path d="M32.392,225.63L43.19,225.63L43.19,234.31L32.392,234.31L32.392,225.63ZM70.177,225.63L80.975,225.63L80.975,234.31L70.177,234.31L70.177,225.63ZM26.983,234.31L37.78,234.31L37.78,242.988L26.984,242.988L26.983,234.31ZM75.57,234.31L86.37,234.31L86.37,242.988L75.57,242.988L75.57,234.31Z" style="fill:rgb(178,0,0);"/>
                <path d="M16.196,242.987L32.392,242.987L32.392,251.665L16.196,251.665L16.196,242.987ZM80.98,242.987L97.175,242.987L97.175,251.665L80.98,251.665L80.98,242.987Z" style="fill:rgb(178,0,0);"/>
                <path d="M91.767,234.31L102.564,234.31L102.564,242.988L91.767,242.988L91.767,234.31ZM97.175,225.63L107.973,225.63L107.973,234.31L97.175,234.31L97.175,225.63Z" style="fill:rgb(178,0,0);"/>
                <path d="M102.57,216.954L113.367,216.954L113.367,225.632L102.57,225.632L102.57,216.954ZM10.787,234.31L21.585,234.31L21.585,242.988L10.787,242.988L10.787,234.31ZM5.394,225.63L16.192,225.63L16.192,234.31L5.394,234.31L5.394,225.63Z" style="fill:rgb(178,0,0);"/>
                <path d="M0,216.954L10.798,216.954L10.798,225.632L0,225.632L0,216.954ZM21.59,251.665L26.988,251.665L26.988,260.343L21.59,260.343L21.59,251.665ZM86.373,251.665L91.771,251.665L91.771,260.343L86.374,260.343L86.373,251.665ZM53.98,225.63L59.38,225.63L59.38,234.31L53.98,234.31L53.98,225.63ZM37.786,251.665L43.184,251.665L43.184,260.343L37.786,260.343L37.786,251.665ZM70.177,251.665L75.575,251.665L75.575,260.343L70.177,260.343L70.177,251.665ZM53.98,251.665L59.38,251.665L59.38,260.343L53.98,260.343L53.98,251.665ZM-0,251.665L5.398,251.665L5.398,260.343L0,260.343L-0,251.665ZM107.963,251.665L113.361,251.665L113.361,260.343L107.964,260.343L107.963,251.665ZM53.98,130.174L59.38,130.174L59.38,138.852L53.98,138.852L53.98,130.174ZM26.983,43.395L32.381,43.395L32.381,52.073L26.984,52.073L26.983,43.395ZM80.98,43.395L86.378,43.395L86.378,52.073L80.98,52.073L80.98,43.395ZM48.588,104.14L64.784,104.14L64.784,112.82L48.588,112.82L48.588,104.14Z" style="fill:rgb(178,0,0);"/>
                <path d="M37.786,112.818L53.98,112.818L53.98,121.498L37.787,121.498L37.786,112.818Z" style="fill:rgb(178,0,0);"/>
                <path d="M43.18,121.497L48.577,121.497L48.577,130.175L43.18,130.175L43.18,121.497ZM32.392,104.14L43.19,104.14L43.19,112.82L32.392,112.82L32.392,104.14Z" style="fill:rgb(178,0,0);"/>
                <path d="M37.786,95.463L53.98,95.463L53.98,104.141L37.787,104.141L37.786,95.463Z" style="fill:rgb(178,0,0);"/>
                <path d="M43.18,86.784L48.577,86.784L48.577,95.464L43.18,95.464L43.18,86.784ZM59.375,95.463L75.57,95.463L75.57,104.141L59.376,104.141L59.375,95.463Z" style="fill:rgb(178,0,0);"/>
                <path d="M64.784,86.784L70.182,86.784L70.182,95.464L64.784,95.464L64.784,86.784ZM70.177,104.14L80.975,104.14L80.975,112.82L70.177,112.82L70.177,104.14Z" style="fill:rgb(178,0,0);"/>
                <path d="M59.375,112.818L75.57,112.818L75.57,121.498L59.376,121.498L59.375,112.818Z" style="fill:rgb(178,0,0);"/>
                <path d="M64.784,121.497L70.182,121.497L70.182,130.175L64.784,130.175L64.784,121.497ZM86.373,104.14L97.17,104.14L97.17,112.82L86.374,112.82L86.373,104.14Z" style="fill:rgb(178,0,0);"/>
                <rect x="91.767" y="95.463" width="16.196" height="8.678" style="fill:rgb(178,0,0);"/>
                <rect x="102.57" y="104.14" width="10.797" height="8.68" style="fill:rgb(178,0,0);"/>
                <rect x="91.767" y="112.818" width="16.196" height="8.68" style="fill:rgb(178,0,0);"/>
                <path d="M97.175,121.497L102.575,121.497L102.575,130.175L97.175,130.175L97.175,121.497ZM97.175,86.784L102.575,86.784L102.575,95.464L97.175,95.464L97.175,86.784ZM0,104.14L10.798,104.14L10.798,112.82L0,112.82L0,104.14Z" style="fill:rgb(178,0,0);"/>
                <rect x="5.394" y="95.463" width="16.196" height="8.678" style="fill:rgb(178,0,0);"/>
                <rect x="16.196" y="104.14" width="10.798" height="8.68" style="fill:rgb(178,0,0);"/>
                <rect x="5.394" y="112.818" width="16.196" height="8.68" style="fill:rgb(178,0,0);"/>
                <path d="M10.787,121.497L16.185,121.497L16.185,130.175L10.787,130.175L10.787,121.497ZM10.787,86.784L16.185,86.784L16.185,95.464L10.787,95.464L10.787,86.784ZM5.394,156.208L26.988,156.208L26.988,164.886L5.394,164.886L5.394,156.208ZM32.392,156.208L53.986,156.208L53.986,164.886L32.392,164.886L32.392,156.208ZM59.375,156.208L80.97,156.208L80.97,164.886L59.374,164.886L59.375,156.208ZM86.373,156.208L107.967,156.208L107.967,164.886L86.373,164.886L86.373,156.208ZM43.18,173.563L70.173,173.563L70.173,182.243L43.18,182.243L43.18,173.563ZM5.394,173.563L32.387,173.563L32.387,182.243L5.394,182.243L5.394,173.563ZM80.98,173.563L107.973,173.563L107.973,182.243L80.98,182.243L80.98,173.563ZM107.963,208.276L113.361,208.276L113.361,216.954L107.964,216.954L107.963,208.276ZM0,208.276L5.398,208.276L5.398,216.954L0,216.954L0,208.276ZM5.394,503.327L10.792,503.327L10.792,494.649L5.394,494.649L5.394,503.327ZM21.59,503.327L37.786,503.327L37.786,494.649L21.59,494.649L21.59,503.327Z" style="fill:rgb(178,0,0);"/>
                <path d="M26.983,511.997L32.381,511.997L32.381,503.319L26.984,503.319L26.983,511.997ZM53.98,511.997L59.38,511.997L59.38,503.319L53.98,503.319L53.98,511.997ZM75.57,503.327L91.767,503.327L91.767,494.649L75.57,494.649L75.57,503.327Z" style="fill:rgb(178,0,0);"/>
                <path d="M80.98,511.997L86.378,511.997L86.378,503.319L80.98,503.319L80.98,511.997ZM16.196,494.645L26.994,494.645L26.994,485.967L16.196,485.967L16.196,494.645ZM32.392,494.645L43.19,494.645L43.19,485.967L32.392,485.967L32.392,494.645ZM70.177,494.645L80.975,494.645L80.975,485.967L70.177,485.967L70.177,494.645ZM86.373,494.645L97.17,494.645L97.17,485.967L86.374,485.967L86.373,494.645ZM37.786,485.963L48.583,485.963L48.583,477.285L37.786,477.285L37.786,485.963ZM64.784,485.963L75.58,485.963L75.58,477.285L64.785,477.285L64.784,485.963ZM91.767,485.963L102.564,485.963L102.564,477.285L91.767,477.285L91.767,485.963ZM102.57,503.327L107.967,503.327L107.967,494.649L102.569,494.649L102.57,503.327ZM5.394,477.293L16.192,477.293L16.192,468.615L5.394,468.615L5.394,477.293Z" style="fill:rgb(178,0,0);"/>
                <path d="M43.18,477.293L53.977,477.293L53.977,468.615L43.18,468.615L43.18,477.293ZM97.175,477.293L107.973,477.293L107.973,468.615L97.175,468.615L97.175,477.293ZM10.787,451.26L21.585,451.26L21.585,442.58L10.787,442.58L10.787,451.26ZM16.196,442.577L26.994,442.577L26.994,433.9L16.196,433.9L16.196,442.577ZM37.786,451.26L48.583,451.26L48.583,442.58L37.786,442.58L37.786,451.26ZM32.392,442.577L43.19,442.577L43.19,433.9L32.392,433.9L32.392,442.577ZM21.59,433.895L37.786,433.895L37.786,425.217L21.59,425.217L21.59,433.895Z" style="fill:rgb(178,0,0);"/>
                <path d="M26.983,425.225L32.381,425.225L32.381,416.547L26.984,416.547L26.983,425.225ZM64.784,451.26L75.58,451.26L75.58,442.58L64.785,442.58L64.784,451.26ZM70.177,442.577L80.975,442.577L80.975,433.9L70.177,433.9L70.177,442.577ZM91.767,451.26L102.564,451.26L102.564,442.58L91.767,442.58L91.767,451.26ZM86.373,442.577L97.17,442.577L97.17,433.9L86.374,433.9L86.373,442.577ZM75.57,433.895L91.767,433.895L91.767,425.217L75.57,425.217L75.57,433.895Z" style="fill:rgb(178,0,0);"/>
                <path d="M80.98,425.225L86.378,425.225L86.378,416.547L80.98,416.547L80.98,425.225ZM53.98,433.895L59.38,433.895L59.38,425.217L53.98,425.217L53.98,433.895ZM0,433.895L5.398,433.895L5.398,425.217L0,425.217L0,433.895ZM107.963,433.895L113.361,433.895L113.361,425.217L107.964,425.217L107.963,433.895ZM26.983,390.51L32.381,390.51L32.381,381.83L26.984,381.83L26.983,390.51Z" style="fill:rgb(178,0,0);"/>
                <path d="M21.59,381.84L37.786,381.84L37.786,373.16L21.59,373.16L21.59,381.84ZM16.196,373.158L43.19,373.158L43.19,364.478L16.196,364.478L16.196,373.158ZM80.98,390.51L86.378,390.51L86.378,381.83L80.98,381.83L80.98,390.51Z" style="fill:rgb(178,0,0);"/>
                <path d="M75.57,381.84L91.767,381.84L91.767,373.16L75.57,373.16L75.57,381.84ZM70.177,373.158L97.17,373.158L97.17,364.478L70.178,364.478L70.177,373.158ZM75.57,329.772L102.564,329.772L102.564,321.092L75.57,321.092L75.57,329.772ZM64.784,364.475L102.574,364.475L102.574,355.797L64.784,355.797L64.784,364.475ZM10.787,364.475L48.577,364.475L48.577,355.797L10.787,355.797L10.787,364.475ZM16.196,321.09L32.392,321.09L32.392,312.408L16.196,312.408L16.196,321.09ZM10.787,329.772L37.78,329.772L37.78,321.092L10.788,321.092L10.787,329.772ZM86.373,347.124L113.367,347.124L113.367,338.444L86.373,338.444L86.373,347.124ZM80.98,321.09L97.175,321.09L97.175,312.41L80.98,312.41L80.98,321.09ZM0,347.124L26.994,347.124L26.994,338.444L0,338.444L0,347.124ZM48.588,329.772L64.784,329.772L64.784,321.092L48.588,321.092L48.588,329.772ZM53.98,321.09L59.38,321.09L59.38,312.41L53.98,312.41L53.98,321.09ZM37.786,347.124L75.576,347.124L75.576,338.444L37.786,338.444L37.786,347.124ZM59.375,477.293L70.173,477.293L70.173,468.615L59.375,468.615L59.375,477.293ZM48.588,468.61L64.784,468.61L64.784,459.933L48.588,459.933L48.588,468.61ZM43.18,459.93L53.977,459.93L53.977,451.25L43.18,451.25L43.18,459.93ZM59.375,459.93L70.173,459.93L70.173,451.25L59.375,451.25L59.375,459.93ZM0,468.61L10.798,468.61L10.798,459.933L0,459.933L0,468.61ZM5.394,459.93L16.192,459.93L16.192,451.25L5.394,451.25L5.394,459.93ZM102.57,468.61L113.367,468.61L113.367,459.933L102.57,459.933L102.57,468.61ZM97.175,459.93L107.973,459.93L107.973,451.25L97.175,451.25L97.175,459.93ZM0,381.84L5.398,381.84L5.398,373.16L0,373.16L0,381.84ZM107.963,381.84L113.361,381.84L113.361,373.16L107.964,373.16L107.963,381.84ZM43.18,303.738L53.977,303.738L53.977,295.058L43.18,295.058L43.18,303.738ZM59.375,303.738L70.173,303.738L70.173,295.058L59.375,295.058L59.375,303.738ZM37.786,295.056L48.583,295.056L48.583,286.376L37.786,286.376L37.786,295.056ZM64.784,295.056L75.58,295.056L75.58,286.376L64.785,286.376L64.784,295.056ZM32.392,286.374L43.19,286.374L43.19,277.694L32.392,277.694L32.392,286.374ZM70.177,286.374L80.975,286.374L80.975,277.694L70.177,277.694L70.177,286.374Z" style="fill:rgb(178,0,0);"/>
                <path d="M26.983,277.704L37.78,277.704L37.78,269.024L26.984,269.024L26.983,277.704ZM75.57,277.704L86.37,277.704L86.37,269.024L75.57,269.024L75.57,277.704ZM16.196,269.022L32.392,269.022L32.392,260.342L16.196,260.342L16.196,269.022ZM80.98,269.022L97.175,269.022L97.175,260.342L80.98,260.342L80.98,269.022ZM91.767,277.704L102.564,277.704L102.564,269.024L91.767,269.024L91.767,277.704Z" style="fill:rgb(178,0,0);"/>
                <path d="M97.175,286.374L107.973,286.374L107.973,277.694L97.175,277.694L97.175,286.374ZM102.57,295.056L113.367,295.056L113.367,286.376L102.57,286.376L102.57,295.056ZM10.787,277.704L21.585,277.704L21.585,269.024L10.787,269.024L10.787,277.704Z" style="fill:rgb(178,0,0);"/>
                <path d="M5.394,286.374L16.192,286.374L16.192,277.694L5.394,277.694L5.394,286.374ZM0,295.056L10.798,295.056L10.798,286.376L0,286.376L0,295.056ZM21.59,260.343L26.988,260.343L26.988,251.665L21.59,251.665L21.59,260.343ZM53.98,286.374L59.38,286.374L59.38,277.694L53.98,277.694L53.98,286.374ZM53.98,381.84L59.38,381.84L59.38,373.16L53.98,373.16L53.98,381.84ZM26.983,468.61L32.381,468.61L32.381,459.933L26.984,459.933L26.983,468.61ZM80.98,468.61L86.378,468.61L86.378,459.933L80.98,459.933L80.98,468.61ZM48.588,407.873L64.784,407.873L64.784,399.195L48.588,399.195L48.588,407.873ZM37.786,399.19L53.98,399.19L53.98,390.513L37.787,390.513L37.786,399.19ZM43.18,390.51L48.577,390.51L48.577,381.83L43.18,381.83L43.18,390.51ZM32.392,407.873L43.19,407.873L43.19,399.195L32.392,399.195L32.392,407.873Z" style="fill:rgb(178,0,0);"/>
                <path d="M37.786,416.543L53.98,416.543L53.98,407.865L37.787,407.865L37.786,416.543ZM43.18,425.225L48.577,425.225L48.577,416.547L43.18,416.547L43.18,425.225ZM59.375,416.543L75.57,416.543L75.57,407.865L59.376,407.865L59.375,416.543ZM64.784,425.225L70.182,425.225L70.182,416.547L64.784,416.547L64.784,425.225Z" style="fill:rgb(178,0,0);"/>
                <path d="M70.177,407.873L80.975,407.873L80.975,399.195L70.177,399.195L70.177,407.873ZM59.375,399.19L75.57,399.19L75.57,390.513L59.376,390.513L59.375,399.19ZM64.784,390.51L70.182,390.51L70.182,381.83L64.784,381.83L64.784,390.51ZM86.373,407.873L97.17,407.873L97.17,399.195L86.374,399.195L86.373,407.873Z" style="fill:rgb(178,0,0);"/>
                <rect x="91.767" y="407.865" width="16.196" height="8.678" style="fill:rgb(178,0,0);"/>
                <path d="M102.57,407.873L113.367,407.873L113.367,399.195L102.57,399.195L102.57,407.873ZM91.767,399.19L107.963,399.19L107.963,390.513L91.767,390.513L91.767,399.19ZM97.175,390.51L102.575,390.51L102.575,381.83L97.175,381.83L97.175,390.51ZM97.175,425.225L102.575,425.225L102.575,416.547L97.175,416.547L97.175,425.225ZM0,407.873L10.798,407.873L10.798,399.195L0,399.195L0,407.873Z" style="fill:rgb(178,0,0);"/>
                <rect x="5.394" y="407.865" width="16.196" height="8.678" style="fill:rgb(178,0,0);"/>
                <path d="M16.196,407.873L26.994,407.873L26.994,399.195L16.196,399.195L16.196,407.873ZM5.394,399.19L21.59,399.19L21.59,390.513L5.394,390.513L5.394,399.19ZM10.787,390.51L16.185,390.51L16.185,381.83L10.787,381.83L10.787,390.51ZM10.787,425.225L16.185,425.225L16.185,416.547L10.787,416.547L10.787,425.225ZM5.394,355.806L26.988,355.806L26.988,347.126L5.394,347.126L5.394,355.806ZM32.392,355.806L53.986,355.806L53.986,347.126L32.392,347.126L32.392,355.806ZM59.375,355.806L80.97,355.806L80.97,347.126L59.374,347.126L59.375,355.806ZM86.373,355.806L107.967,355.806L107.967,347.126L86.373,347.126L86.373,355.806ZM43.18,338.442L70.173,338.442L70.173,329.762L43.18,329.762L43.18,338.442ZM5.394,338.442L32.387,338.442L32.387,329.762L5.394,329.762L5.394,338.442ZM80.98,338.442L107.973,338.442L107.973,329.762L80.98,329.762L80.98,338.442ZM107.963,303.738L113.361,303.738L113.361,295.058L107.964,295.058L107.963,303.738ZM0,303.738L5.398,303.738L5.398,295.058L0,295.058L0,303.738ZM48.588,260.343L53.986,260.343L53.986,269.023L48.588,269.023L48.588,260.343ZM59.375,260.343L64.773,260.343L64.773,269.023L59.375,269.023L59.375,260.343ZM59.375,242.987L64.773,242.987L64.773,251.665L59.375,251.665L59.375,242.987ZM48.588,242.987L53.986,242.987L53.986,251.665L48.588,251.665L48.588,242.987ZM10.787,477.293L21.585,477.293L21.585,485.973L10.787,485.973L10.787,477.293ZM86.373,312.408L91.771,312.408L91.771,303.728L86.374,303.728L86.373,312.408ZM21.59,312.408L26.988,312.408L26.988,303.728L21.59,303.728L21.59,312.408ZM48.585,303.734L64.78,303.734L64.78,312.411L48.585,312.411L48.585,303.734Z" style="fill:rgb(178,0,0);"/>
            </g>
        </g>
    </g>
</svg>
