<?xml version="1.0" encoding="UTF-8" standalone="no"?>
<!DOCTYPE svg PUBLIC "-//W3C//DTD SVG 1.1//EN" "http://www.w3.org/Graphics/SVG/1.1/DTD/svg11.dtd">
<svg width="100%" height="100%" viewBox="0 0 640 480" version="1.1" xmlns="http://www.w3.org/2000/svg" xmlns:xlink="http://www.w3.org/1999/xlink" xml:space="preserve" xmlns:serif="http://www.serif.com/" style="fill-rule:evenodd;clip-rule:evenodd;stroke-linecap:round;stroke-linejoin:round;">
    <g transform="matrix(0.9375,0,0,0.9375,80,0)">
        <clipPath id="_clip1">
            <rect x="-85.333" y="0" width="682.67" height="512"/>
        </clipPath>
        <g clip-path="url(#_clip1)">
            <g>
                <path d="M-128,383.993L639.975,383.993L639.975,511.993L-128,511.993L-128,383.993ZM-128,0L639.975,0L639.975,128.001L-128,128.001L-128,0Z" style="fill:rgb(255,0,0);"/>
                <rect x="-128" y="128.001" width="767.975" height="255.992" style="fill:white;"/>
            </g>
            <path d="M252.1,129.95C244.29,145.543 239.082,145.543 226.066,155.94C220.86,161.138 213.05,163.737 223.463,168.936C213.05,174.133 207.843,176.733 202.636,187.128L205.239,189.727C205.239,189.727 215.134,184.877 215.653,187.128C217.383,189.206 202.629,197.179 200.724,198.391C198.82,199.603 189.618,205.321 189.618,205.321C176.602,215.718 168.791,213.117 160.981,228.711L187.015,226.114C192.222,244.306 173.998,246.904 160.981,254.702L140.154,267.698C145.362,285.89 160.981,275.494 173.998,270.296L176.602,272.896L176.602,278.093L150.568,291.089C150.568,291.089 119.835,308.673 119.328,309.281C119.118,310.223 119.328,314.479 119.328,314.479C129.741,317.079 145.362,319.678 155.776,314.479C168.792,309.281 171.395,304.083 187.016,304.083C168.792,317.077 155.776,322.276 134.948,324.874L134.948,335.271C150.568,335.271 160.981,335.271 173.999,332.672L207.843,322.276C215.653,322.276 223.463,330.073 220.86,337.869C213.05,366.457 181.808,361.26 171.394,384.65L213.05,369.057C223.463,363.859 233.876,358.661 246.893,361.261C262.513,366.457 262.513,376.855 283.341,382.051L278.135,369.058C283.341,371.656 288.548,371.656 293.754,374.255C306.772,379.455 309.375,384.651 324.994,382.052C311.978,366.458 309.375,369.058 298.961,358.662C288.548,343.068 283.341,319.678 298.961,317.078L317.185,322.277C335.408,324.875 335.408,319.678 361.442,330.074C377.063,335.271 382.27,343.068 400.494,337.87C392.684,319.678 364.046,306.682 345.823,301.484C366.649,288.488 361.442,306.682 390.08,298.884L390.08,293.688C369.254,278.094 361.443,265.098 332.805,265.098L377.064,259.9L377.064,254.702C377.064,254.702 333.415,243.251 332.4,242.844C332.704,241.524 333.772,239.478 336.67,238.347C344.959,243.713 370.027,243.087 371.45,242.987C370.718,236.591 358.84,231.311 348.427,226.114C348.427,226.114 303.837,198.631 303.616,196.198C304.5,189.233 321.93,197.305 340.616,202.722C335.41,192.326 324.996,187.129 314.583,184.53L330.203,181.932C319.79,158.541 293.755,161.14 278.136,150.744C267.721,142.947 267.721,137.748 252.102,129.952L252.1,129.95Z" style="fill:rgb(0,121,0);fill-rule:nonzero;"/>
            <path d="M223.96,303.07C225.892,296.876 228.436,291.396 216.843,286.116C205.25,280.838 222.638,307.23 223.96,303.07ZM237.69,290.68C235.353,290.984 234.13,299.515 238.807,301.849C243.995,302.659 239.724,290.783 237.69,290.68ZM251.22,289.77C248.778,290.482 248.677,302.461 257.22,300.33C265.763,298.2 257.117,288.757 251.22,289.77ZM266.98,259.01C268.81,256.065 266.879,243.985 259.555,249.06C252.234,254.137 264.64,259.822 266.98,259.01ZM251.01,248.96C253.249,248.148 253.452,240.737 247.046,242.666C240.641,244.596 249.284,250.483 251.01,248.96ZM236.58,251.9C236.58,251.9 232.105,245.707 228.647,247.026C224.274,251.189 236.885,252.001 236.58,251.9ZM186.99,271.69C188.895,271.863 203.017,269.361 207.898,263.88C212.778,258.397 182.771,266.226 182.771,266.327C182.771,266.428 185.606,271.171 186.991,271.69L186.99,271.69ZM328.1,236.73C328.828,235.435 320.583,229.558 315.684,231.874C314.423,236.213 328.059,237.622 328.1,236.73ZM300.34,222.76C301.866,220.527 296.782,211.39 286.613,216.466C276.443,221.542 297.289,226.314 300.34,222.76ZM268.2,217.38C268.2,217.38 270.741,209.157 276.844,210.78C283.76,216.061 268.504,217.685 268.2,217.38ZM262.2,211.19C261.283,208.855 254.877,210.277 247.556,215.048C240.232,219.82 264.436,216.47 262.2,211.19ZM280.91,189.06C280.91,189.06 287.433,186.14 289.35,189.06C292.097,193.426 280.809,189.162 280.91,189.06ZM275.44,186.2C274.118,183.56 266.9,183.31 267.085,187.125C265.875,190.114 276.465,189.557 275.44,186.2ZM258.24,186.21C257.529,184.687 247.26,186.239 244.208,192.403C249.107,194.785 260.479,190.068 258.24,186.21ZM236.27,192.51C236.27,192.51 222.76,200.77 221.931,206.825C222.341,212.054 238.709,197.383 238.709,197.383C238.709,197.383 240.133,191.596 236.27,192.51ZM221.32,185C221.698,183.32 227.995,179.428 228.54,179.72C229.05,181.414 223.397,186 221.32,185ZM225.59,216.57C225.894,214.133 209.522,214.335 215.726,221.848C220.892,228.149 226.71,217.687 225.59,216.57ZM210.69,227.35C209.836,225.703 208.608,221.312 206.366,220.908C204.539,220.805 194.694,222.836 193.941,224.502C193.535,225.822 198.016,233.937 199.543,234.14C201.272,234.85 210.385,228.162 210.69,227.35ZM299.02,282.46C299.528,280.735 316.259,274.953 322.035,280.484C328.847,289.824 298.614,285.406 299.02,282.46ZM345,293.39C348.666,287.186 333.743,279.831 327.408,286.92C329.573,295.437 342.036,298.52 345,293.39Z" style="fill:white;stroke:white;stroke-width:3.22px;"/>
        </g>
    </g>
</svg>
