<?xml version="1.0" encoding="UTF-8" standalone="no"?>
<!DOCTYPE svg PUBLIC "-//W3C//DTD SVG 1.1//EN" "http://www.w3.org/Graphics/SVG/1.1/DTD/svg11.dtd">
<svg width="100%" height="100%" viewBox="0 0 640 480" version="1.1" xmlns="http://www.w3.org/2000/svg" xmlns:xlink="http://www.w3.org/1999/xlink" xml:space="preserve" xmlns:serif="http://www.serif.com/" style="fill-rule:evenodd;clip-rule:evenodd;">
    <g transform="matrix(0.9375,0,0,0.9375,80,0)">
        <clipPath id="_clip1">
            <rect x="-85.333" y="0" width="682.67" height="512"/>
        </clipPath>
        <g clip-path="url(#_clip1)">
            <rect x="-128" y="341.36" width="768" height="85.321" style="fill:rgb(255,231,0);"/>
            <rect x="-128" y="256" width="768" height="85.321"/>
            <rect x="-128" y="170.68" width="768" height="85.321" style="fill:rgb(222,57,8);"/>
            <rect x="-128" y="85.358" width="768" height="85.321" style="fill:rgb(255,231,0);"/>
            <rect x="-128" y="0" width="768" height="85.321"/>
            <path d="M335.71,255.997C335.71,300.02 300.022,335.707 256,335.707C211.978,335.707 176.29,300.02 176.29,255.997C176.29,211.974 211.977,176.287 256,176.287C300.023,176.287 335.71,211.974 335.71,255.997Z" style="fill:rgb(255,253,255);stroke:black;stroke-width:0.99px;"/>
            <path d="M241.936,194.89L236.761,185.359C238.758,183.362 242.117,181.819 247.473,181.819C247.473,182.182 246.928,192.259 246.928,192.259L241.936,194.891L241.936,194.89Z" style="fill:rgb(222,49,8);stroke:black;stroke-width:0.99px;"/>
            <path d="M246.926,192.354L247.653,181.824C247.653,181.824 258.365,181.188 264.175,188.178C264.265,188.088 258.455,196.348 258.455,196.348L246.926,192.354Z" style="fill:rgb(255,231,0);stroke:black;stroke-width:0.99px;"/>
            <path d="M258.64,196.256L263.905,188.086C267.445,191.809 268.898,194.441 269.443,198.436C269.533,198.526 261.091,200.523 261.091,200.432C261.091,200.341 258.731,196.347 258.641,196.256L258.64,196.256Z" style="fill:rgb(222,49,8);stroke:black;stroke-width:0.99px;"/>
            <path d="M244.57,331.153C244.57,331.153 254.465,319.805 273.71,322.257C270.805,317.537 261.455,318.081 261.455,318.081C261.455,318.081 258.55,296.021 260.819,294.931C263.088,293.841 272.711,295.023 272.711,295.023C273.981,295.023 276.161,291.573 274.437,289.394C272.711,287.215 267.628,278.864 269.716,277.229C271.804,275.595 283.151,278.137 283.151,278.137L251.106,237.105C251.106,237.105 247.838,221.672 254.374,214.228C262.272,207.692 261.455,200.611 261.183,200.701C260.093,193.53 249.2,188.355 241.846,194.982C237.489,200.247 240.394,204.242 240.394,204.242C240.394,204.242 228.955,207.328 228.501,209.325C228.047,211.323 241.392,208.963 241.392,208.963L240.122,218.132C240.122,218.132 214.158,241.734 234.039,262.16C234.221,262.069 234.675,261.252 234.675,261.252C234.675,261.252 241.665,269.876 249.017,271.782C255.917,278.864 255.282,277.774 255.282,277.774C255.282,277.774 256.643,288.94 255.372,291.119C253.648,290.574 236.037,289.939 233.403,290.937C231.043,291.664 221.965,291.21 224.235,306.007C225.959,302.013 227.503,298.472 227.503,298.472C227.503,298.472 227.23,303.828 229.409,305.735C229.046,300.105 231.497,296.294 231.497,296.294C231.497,296.294 231.951,302.467 233.313,303.374C234.675,304.282 234.675,293.388 242.21,294.296C249.744,295.204 255.191,294.932 255.191,294.932C255.191,294.932 257.733,316.265 256.916,318.262C251.468,316.992 238.487,318.807 237.67,322.075C245.295,321.621 248.837,322.529 248.837,322.529C248.837,322.529 242.664,327.976 244.57,331.153Z" style="stroke:black;stroke-width:0.92px;stroke-linecap:round;stroke-linejoin:round;"/>
            <path d="M247.626,214.749C247.626,214.749 228.734,235.572 236.885,251.506C237.319,249.284 237.13,247.888 237.402,247.979C236.948,247.707 239.745,249.896 239.532,249.47C239.592,248.318 238.68,245.85 238.68,245.85L241.236,246.488L239.745,243.719L243.366,244.145C243.366,244.145 242.088,240.737 242.515,240.737C242.94,240.737 245.496,240.949 245.496,240.949C240.124,231.308 245.192,223.301 247.626,214.749Z" style="fill:rgb(156,166,156);stroke:rgb(156,166,156);stroke-width:0.92px;stroke-linecap:round;stroke-linejoin:round;"/>
            <path d="M254.19,196.887C254.19,196.887 255.19,204.059 251.285,206.147C250.65,206.601 248.199,207.417 248.562,208.871C249.016,210.868 250.105,210.504 251.649,210.141C255.733,209.415 260.454,200.7 254.19,196.887Z" style="fill:rgb(156,166,156);stroke:rgb(156,166,156);stroke-width:0.99px;"/>
            <path d="M247.204,203.063C247.204,203.91 246.507,204.607 245.661,204.607C244.814,204.607 244.117,203.91 244.117,203.063C244.117,202.216 244.814,201.52 245.661,201.52C246.507,201.52 247.204,202.216 247.204,203.063Z" style="fill:white;"/>
            <path d="M241.118,209.052C240.119,209.869 234.854,215.316 240.028,217.312C245.385,215.86 243.932,214.862 245.112,213.682C245.142,211.231 242.449,210.595 241.118,209.052Z" style="fill:rgb(222,49,8);stroke:black;stroke-width:0.99px;"/>
            <path d="M252.554,260.53C252.282,261.71 251.102,266.068 252.736,269.427C257.276,267.52 259.363,268.065 260.906,269.063C257.186,266.068 255.732,264.796 252.554,260.53Z" style="fill:rgb(156,166,156);stroke:rgb(156,166,156);stroke-width:0.92px;stroke-linecap:round;stroke-linejoin:round;"/>
            <path d="M260.366,281.137L260.638,291.305C260.638,291.305 264.179,291.94 265.813,291.305C267.447,290.669 265.722,284.224 260.366,281.137Z" style="fill:white;stroke:white;stroke-width:0.92px;stroke-linecap:round;stroke-linejoin:round;"/>
            <path d="M286.053,282.405C286.053,282.405 279.517,266.61 262.813,262.615C246.109,258.62 248.288,240.828 249.65,239.738C250.377,238.195 250.921,235.835 255.732,238.105C260.544,240.375 282.695,251.54 285.872,252.085C289.049,252.63 286.326,282.769 286.053,282.405Z" style="fill:rgb(156,166,156);stroke:black;stroke-width:0.99px;"/>
            <path d="M270.167,262.526C269.895,262.708 292.499,275.871 285.69,287.219C292.136,282.952 290.048,275.509 290.048,275.509C290.048,275.509 295.313,289.216 282.513,295.934C283.875,297.114 284.783,296.841 284.783,296.841L282.603,299.021C282.603,299.021 281.605,300.654 290.23,296.478C287.869,298.385 287.688,299.746 287.688,299.746C287.688,299.746 288.323,301.562 293.952,296.66C289.412,301.562 288.414,304.104 288.414,304.013C300.669,302.923 327.358,263.071 279.971,251.269C282.514,253.903 282.15,253.539 282.15,253.539L270.167,262.526Z" style="fill:rgb(222,49,8);stroke:black;stroke-width:0.92px;stroke-linejoin:round;"/>
            <path d="M271.165,258.624C274.252,260.803 275.34,261.529 275.704,262.619C272.89,261.984 270.348,262.165 270.348,262.165C270.348,262.165 264.266,256.355 263.176,255.901C262.359,255.901 257.639,252.905 257.639,252.905C255.279,251.725 253.1,243.555 261.815,245.915C270.801,250.181 272.072,250.545 272.072,250.545L282.785,253.904L288.958,260.804C288.958,260.804 277.974,255.356 276.612,255.265C279.607,257.716 281.332,261.075 281.332,261.075C277.852,260.076 274.827,259.169 271.165,258.625L271.165,258.624Z" style="fill:white;stroke:black;stroke-width:0.92px;stroke-linecap:round;stroke-linejoin:round;"/>
            <path d="M228.413,209.87C228.413,209.87 238.943,207.328 240.214,207.69" style="fill:none;fill-rule:nonzero;stroke:white;stroke-width:0.92px;stroke-linecap:round;"/>
            <rect x="-128" y="426.68" width="768" height="85.321" style="fill:rgb(222,57,8);"/>
        </g>
    </g>
</svg>
