<?xml version="1.0" encoding="UTF-8" standalone="no"?>
<!DOCTYPE svg PUBLIC "-//W3C//DTD SVG 1.1//EN" "http://www.w3.org/Graphics/SVG/1.1/DTD/svg11.dtd">
<svg width="100%" height="100%" viewBox="0 0 640 480" version="1.1" xmlns="http://www.w3.org/2000/svg" xmlns:xlink="http://www.w3.org/1999/xlink" xml:space="preserve" xmlns:serif="http://www.serif.com/" style="fill-rule:evenodd;clip-rule:evenodd;stroke-linejoin:round;stroke-miterlimit:2;">
    <g transform="matrix(0.4,0,0,0.4,-40,288)">
        <clipPath id="_clip1">
            <rect x="100" y="-720" width="1600" height="1200"/>
        </clipPath>
        <g clip-path="url(#_clip1)">
            <rect x="0" y="-720" width="1800" height="600" style="fill:rgb(254,203,0);fill-rule:nonzero;"/>
            <rect x="0" y="-120" width="1800" height="600" style="fill:rgb(234,40,57);fill-rule:nonzero;"/>
            <rect x="0" y="-320" width="1800" height="400" style="fill:rgb(52,178,51);fill-rule:nonzero;"/>
            <g id="c" transform="matrix(1,0,0,1,900,-77.8)">
                <g id="a" transform="matrix(-7.15495,-5.19837,5.19837,-7.15495,0,0)">
                    <path d="M0,-50L16.2,0L-16.2,0L0,-50Z" style="fill:white;fill-rule:nonzero;"/>
                </g>
                <g id="a1" serif:id="a" transform="matrix(2.73295,-8.41114,8.41114,2.73295,0,0)">
                    <path d="M0,-50L16.2,0L-16.2,0L0,-50Z" style="fill:white;fill-rule:nonzero;"/>
                </g>
                <g id="a2" serif:id="a" transform="matrix(8.844,0,0,8.844,0,0)">
                    <path d="M0,-50L16.2,0L-16.2,0L0,-50Z" style="fill:white;fill-rule:nonzero;"/>
                </g>
                <g id="a3" serif:id="a" transform="matrix(2.73295,8.41114,-8.41114,2.73295,0,0)">
                    <path d="M0,-50L16.2,0L-16.2,0L0,-50Z" style="fill:white;fill-rule:nonzero;"/>
                </g>
                <g id="a4" serif:id="a" transform="matrix(-7.15495,5.19837,-5.19837,-7.15495,0,0)">
                    <path d="M0,-50L16.2,0L-16.2,0L0,-50Z" style="fill:white;fill-rule:nonzero;"/>
                </g>
            </g>
        </g>
    </g>
</svg>
