<?xml version="1.0" encoding="UTF-8" standalone="no"?>
<!DOCTYPE svg PUBLIC "-//W3C//DTD SVG 1.1//EN" "http://www.w3.org/Graphics/SVG/1.1/DTD/svg11.dtd">
<svg width="100%" height="100%" viewBox="0 0 640 480" version="1.1" xmlns="http://www.w3.org/2000/svg" xmlns:xlink="http://www.w3.org/1999/xlink" xml:space="preserve" xmlns:serif="http://www.serif.com/" style="fill-rule:evenodd;clip-rule:evenodd;stroke-linejoin:round;stroke-miterlimit:2;">
    <g transform="matrix(0.9375,0,0,0.9375,0,0)">
        <clipPath id="_clip1">
            <rect x="0" y="0" width="682.67" height="512"/>
        </clipPath>
        <g clip-path="url(#_clip1)">
            <rect x="0" y="0" width="768" height="512" style="fill:rgb(222,33,16);"/>
            <rect x="0" y="0" width="385.69" height="256" style="fill:rgb(8,57,156);"/>
            <path d="M282.098,178.555L234.766,168.822L244.849,216.082L208.716,183.994L193.812,229.964L178.568,184.097L142.682,216.464L152.415,169.132L105.155,179.205L137.243,143.082L91.274,128.178L137.129,112.934L104.773,77.044L152.105,86.774L142.032,39.512L178.155,71.605L193.059,25.635L208.303,71.494L244.189,39.134L234.456,86.469L281.716,76.389L249.628,112.521L295.598,127.414L249.742,142.658L282.098,178.555Z" style="fill:white;"/>
            <path d="M238.47,174.924L223.535,182.856L208.965,191.464L192.047,190.881L175.128,191.079L160.768,182.138L146.009,173.863L138.056,158.957L129.425,144.437L129.999,127.563L129.811,110.68L138.776,96.36L147.074,81.644L162.009,73.71L176.579,65.103L193.498,65.683L210.426,65.49L224.788,74.43L239.535,82.705L247.488,97.606L256.12,112.126L255.546,129L255.733,145.883L246.768,160.206L238.47,174.924Z" style="fill:rgb(0,83,135);"/>
            <path d="M244.637,128.28C244.637,156.926 221.415,180.147 192.771,180.147C164.127,180.147 140.904,156.926 140.904,128.281C140.904,99.636 164.126,76.415 192.771,76.415C221.416,76.415 244.637,99.636 244.637,128.281L244.637,128.28Z" style="fill:white;"/>
        </g>
    </g>
</svg>
