<?xml version="1.0" encoding="UTF-8" standalone="no"?>
<!DOCTYPE svg PUBLIC "-//W3C//DTD SVG 1.1//EN" "http://www.w3.org/Graphics/SVG/1.1/DTD/svg11.dtd">
<svg width="100%" height="100%" viewBox="0 0 640 480" version="1.1" xmlns="http://www.w3.org/2000/svg" xmlns:xlink="http://www.w3.org/1999/xlink" xml:space="preserve" xmlns:serif="http://www.serif.com/" style="fill-rule:evenodd;clip-rule:evenodd;stroke-linejoin:round;stroke-miterlimit:2;">
    <g transform="matrix(0.9375,0,0,0.9375,89.82,0.412)">
        <clipPath id="_clip1">
            <rect x="-95.808" y="-0.44" width="682.67" height="512"/>
        </clipPath>
        <g clip-path="url(#_clip1)">
            <rect x="-119.56" y="-0.44" width="730.17" height="512" style="fill:white;"/>
            <path d="M251.871,256.021C251.871,318.158 201.499,368.529 139.364,368.529C77.227,368.529 26.857,318.157 26.857,256.021C26.857,193.884 77.228,143.514 139.364,143.514C201.501,143.514 251.871,193.886 251.871,256.021Z" style="fill:white;"/>
            <path d="M393.011,262.55C393.011,343.629 327.977,409.353 247.75,409.353C167.523,409.353 102.488,343.63 102.488,262.55C102.488,181.47 167.522,115.746 247.75,115.746C327.978,115.746 393.01,181.471 393.01,262.55L393.011,262.55Z" style="fill:rgb(199,0,0);"/>
            <path d="M-49.417,126.44L34.243,29.67L54.064,46.805L-29.596,143.576L-49.417,126.44ZM-22.018,150.127L61.642,53.357L81.462,70.492L-2.198,167.262L-22.018,150.127Z"/>
            <path d="M-49.417,126.44L34.243,29.67L54.064,46.805L-29.596,143.576L-49.417,126.44Z"/>
            <path d="M-49.417,126.44L34.243,29.67L54.064,46.805L-29.596,143.576L-49.417,126.44ZM5.967,174.32L89.627,77.55L109.447,94.686L25.787,191.456L5.967,174.32Z"/>
            <path d="M-49.417,126.44L34.243,29.67L54.064,46.805L-29.596,143.576L-49.417,126.44Z"/>
            <path d="M-49.417,126.44L34.243,29.67L54.064,46.805L-29.596,143.576L-49.417,126.44ZM459.413,29.638L542.415,126.973L522.478,143.973L439.476,46.639L459.413,29.638ZM403.707,77.141L486.709,174.476L466.773,191.476L383.771,94.142L403.707,77.141Z"/>
            <path d="M417.55,133.19L496.152,65.376L510.793,82.329L426.797,157.848L417.55,133.189L417.55,133.19Z" style="fill:white;"/>
            <path d="M514.228,372.013L433.812,467.842L414.096,451.442L494.513,355.614L514.228,372.013ZM431.853,53.14L514.855,150.474L494.919,167.475L411.917,70.141L431.853,53.14ZM541.475,394.676L461.058,490.505L441.343,474.106L521.76,378.277L541.475,394.676ZM486.39,348.857L405.973,444.687L386.258,428.287L466.674,332.458L486.39,348.857Z"/>
            <path d="M104.6,236.68C109.192,273.654 115.897,314.855 172.799,319.135C194.127,320.413 235.616,314.061 249.86,255.945C268.548,200.116 324.835,184.065 363.14,214.332C384.858,228.498 390.867,250.998 392.423,267.889C390.684,322.132 359.549,369.089 319.6,390.029C273.67,417.329 210.04,417.899 154.3,376.539C129.18,352.969 94.081,309.519 104.6,236.679L104.6,236.68Z" style="fill:rgb(61,88,151);"/>
            <path d="M435.91,370.59L514.644,438.251L500.053,455.248L412.897,383.397L435.91,370.59Z" style="fill:white;"/>
            <path d="M-1.887,357.197L81.115,454.532L61.178,471.532L-21.824,374.198L-1.887,357.197Z"/>
            <path d="M-16.188,437.25L62.414,369.436L77.055,386.389L-6.941,461.908L-16.188,437.249L-16.188,437.25Z" style="fill:white;"/>
            <path d="M25.672,333.696L108.675,431.03L88.738,448.03L5.736,350.696L25.672,333.696ZM-30.033,381.199L52.969,478.533L33.033,495.533L-49.97,398.2L-30.033,381.199Z"/>
        </g>
    </g>
</svg>
