<?xml version="1.0" encoding="UTF-8" standalone="no"?>
<!DOCTYPE svg PUBLIC "-//W3C//DTD SVG 1.1//EN" "http://www.w3.org/Graphics/SVG/1.1/DTD/svg11.dtd">
<svg width="100%" height="100%" viewBox="0 0 640 480" version="1.1" xmlns="http://www.w3.org/2000/svg" xmlns:xlink="http://www.w3.org/1999/xlink" xml:space="preserve" xmlns:serif="http://www.serif.com/" style="fill-rule:evenodd;clip-rule:evenodd;">
    <rect x="0" y="0" width="640" height="480" style="fill:rgb(210,16,52);fill-rule:nonzero;"/>
    <rect x="0" y="0" width="640" height="240" style="fill:rgb(0,32,159);fill-rule:nonzero;"/>
    <g>
        <rect x="244.286" y="179.654" width="151.428" height="120.546" style="fill:white;fill-rule:nonzero;"/>
        <path d="M350.475,266.826L319.573,267.723L288.809,268.073C288.809,268.073 273.003,273.918 266.543,275.23C260.101,276.538 260.938,278.654 255.953,279.768C251.961,280.66 251.5,280.942 249.157,281.096C247.74,281.189 245.994,282.279 244.287,283.481L244.287,300.201L395.712,300.201L395.712,284.299C394.072,283.404 392.507,282.789 390.906,282.245C388.682,281.488 387.182,280.661 383.19,279.769C378.206,278.655 379.043,276.539 372.602,275.231C366.142,273.919 350.475,266.827 350.475,266.827L350.475,266.826Z" style="fill:rgb(1,106,22);fill-rule:nonzero;stroke:rgb(1,106,22);stroke-width:0.29px;"/>
        <g transform="matrix(1.6,0,0,1.6,-80,0)">
            <g id="a">
                <path d="M244.53,143.512L245.926,143.479L248.481,154.227L247.937,157.613L244.53,143.511L244.53,143.512Z" style="fill:rgb(241,181,23);fill-rule:nonzero;stroke:black;stroke-width:0.18px;"/>
                <path d="M243.064,136.346L244.018,144.63L245.04,144.564L243.064,136.346Z" style="fill:white;fill-rule:nonzero;stroke:black;stroke-width:0.18px;"/>
                <path d="M245.722,154.59L241.429,143.05L243.029,142.952L248.039,157.054L245.721,154.589L245.722,154.59Z" style="fill:rgb(241,181,23);fill-rule:nonzero;stroke:black;stroke-width:0.18px;"/>
                <path d="M239.42,136.477L241.19,144.497L242.622,144.497L239.419,136.477L239.42,136.477Z" style="fill:white;fill-rule:nonzero;stroke:black;stroke-width:0.18px;"/>
                <path d="M241.906,150.546L239.386,145.122L240.476,144.892L245.076,153.899L241.906,150.545L241.906,150.546Z" style="fill:rgb(241,181,23);fill-rule:nonzero;stroke:black;stroke-width:0.18px;"/>
                <path d="M236.08,138.778L238.874,146.404L240.304,146.404L236.08,138.778Z" style="fill:white;fill-rule:nonzero;stroke:black;stroke-width:0.18px;"/>
                <path d="M242.25,151.364L230.813,138.88C227.243,141.708 227.905,146.9 227.905,146.9L240.862,157.067L242.249,151.364L242.25,151.364Z" style="fill:rgb(10,50,140);fill-rule:nonzero;stroke:black;stroke-width:0.18px;"/>
                <path d="M248.86,158.235L240.378,149.641C236.791,149.767 239.638,155.121 239.818,155.794L248.861,163.528L248.861,158.236L248.86,158.235Z" style="fill:rgb(210,0,20);fill-rule:nonzero;stroke:black;stroke-width:0.18px;"/>
                <path d="M248.14,156.757L230.6,137.977L229.915,138.46L248.475,159.082L248.139,156.757L248.14,156.757ZM229.586,136.772L229.201,136.326L229.241,135.436L225.621,133.132L227.238,136.772L228.47,136.995L228.854,137.441L229.586,136.773L229.586,136.772Z" style="fill:rgb(241,181,23);fill-rule:nonzero;stroke:black;stroke-width:0.18px;"/>
                <path d="M227.738,138.11C228.354,137.367 229.086,136.624 230.395,135.918L231.395,137.368L229.24,139.188L227.738,138.11Z" style="fill:rgb(241,181,23);fill-rule:nonzero;stroke:black;stroke-width:0.18px;"/>
                <path d="M225.81,141.278L226.4,142.304C226.763,142.169 230.43,138.847 230.43,138.847L233.062,138.767L233.818,137.929C231.886,135.849 230.066,138.225 230.066,138.225L225.811,141.277L225.81,141.278Z" style="fill:rgb(10,50,140);fill-rule:nonzero;stroke:rgb(10,50,140);stroke-width:0.18px;"/>
                <path d="M227.91,143.007C228.05,142.089 229.787,139.793 230.04,139.712C231.342,140.102 232.554,140.852 233.874,137.875C232.726,139.335 230.404,137.848 230.404,137.848L229.394,138.686L229.424,139.091L226.371,141.928L227.911,143.008L227.91,143.007Z" style="fill:rgb(210,0,20);fill-rule:nonzero;stroke:rgb(210,0,20);stroke-width:0.18px;"/>
                <g>
                    <path d="M237.252,154.672L222.885,143.262C220.425,145.764 222.47,153.492 222.47,153.492L236.513,161.1L237.253,154.672L237.252,154.672Z" style="fill:rgb(10,50,140);fill-rule:nonzero;stroke:black;stroke-width:0.18px;"/>
                    <path d="M249.166,163.917L237.348,154.45C233.312,155.016 236.484,160.956 236.725,161.61L249.205,168.38L249.165,163.917L249.166,163.917Z" style="fill:rgb(210,0,20);fill-rule:nonzero;stroke:black;stroke-width:0.18px;"/>
                    <path d="M248.697,162.005L223.143,142.823L222.556,143.413L249.393,164.369L248.697,162.004L248.697,162.005ZM221.928,141.807L221.468,141.433L221.346,140.548L217.366,138.886L219.616,142.2L220.869,142.214L221.327,142.588L221.927,141.808L221.928,141.807Z" style="fill:rgb(241,181,23);fill-rule:nonzero;stroke:black;stroke-width:0.18px;"/>
                    <path d="M220.35,143.433C220.822,142.598 221.41,141.743 222.57,140.83L223.817,142.09L222.022,144.242L220.349,143.432L220.35,143.433Z" style="fill:rgb(241,181,23);fill-rule:nonzero;stroke:black;stroke-width:0.18px;"/>
                    <path d="M218.925,146.64L219.085,147.7C219.422,147.513 222.645,143.975 222.645,143.975L225.231,143.498L225.759,142.665C223.962,140.551 222.046,143.363 222.046,143.363L218.926,146.641L218.925,146.64Z" style="fill:rgb(10,50,140);fill-rule:nonzero;stroke:rgb(10,50,140);stroke-width:0.18px;"/>
                    <path d="M220.97,148.545C220.848,147.563 222.19,144.682 222.426,144.565C223.973,145.025 225.32,145.717 225.888,142.495C224.991,144.109 222.428,142.858 222.428,142.858L221.568,143.838L221.688,144.368L219.078,147.738L220.971,148.545L220.97,148.545Z" style="fill:rgb(210,0,20);fill-rule:nonzero;stroke:rgb(210,0,20);stroke-width:0.18px;"/>
                </g>
                <g>
                    <path d="M236.224,161.65C236.034,161.605 217.707,151.21 217.707,151.21C216.373,153.46 217.579,156.73 218.164,157.238C218.198,158.738 217.562,159.544 218.871,162.678C219.258,164.713 220.201,166.59 221.571,167.704C223.243,174.121 229.794,174.552 232.318,169.328L236.225,161.651L236.224,161.65Z" style="fill:rgb(10,50,140);fill-rule:nonzero;stroke:black;stroke-width:0.18px;"/>
                    <path d="M248.352,168.512L235.804,161.157C231.768,161.724 235.889,169.213 236.13,169.867L248.246,174.171L248.352,168.513L248.352,168.512Z" style="fill:rgb(210,0,20);fill-rule:nonzero;stroke:black;stroke-width:0.18px;"/>
                    <path d="M246.243,165.846L217.893,150.756L217.409,151.429L247.313,168.075L246.243,165.845L246.243,165.846ZM216.528,149.937L216.014,149.637L215.749,148.781L211.549,147.741L214.306,150.676L215.546,150.499L216.061,150.799L216.527,149.939L216.528,149.937Z" style="fill:rgb(241,181,23);fill-rule:nonzero;stroke:black;stroke-width:0.18px;"/>
                    <path d="M215.232,151.782C215.564,150.886 216.005,149.954 217.004,148.875L218.44,149.931L217.015,152.331L215.232,151.783L215.232,151.782Z" style="fill:rgb(241,181,23);fill-rule:nonzero;stroke:black;stroke-width:0.18px;"/>
                    <path d="M214.1,155.18L214.693,156.348C215,156.116 217.697,151.77 217.697,151.77L220.189,150.95L220.657,149.936C218.655,148.086 217.159,151.278 217.159,151.278L214.099,155.181L214.1,155.18Z" style="fill:rgb(10,50,140);fill-rule:nonzero;stroke:rgb(10,50,140);stroke-width:0.18px;"/>
                    <path d="M216.772,156.836C216.572,155.836 217.256,152.639 217.472,152.491C219.032,152.957 220.335,153.089 220.695,149.871C219.788,151.399 217.367,150.823 217.367,150.823L216.657,151.908L216.807,152.288L214.747,156.238L216.772,156.838L216.772,156.836Z" style="fill:rgb(210,0,20);fill-rule:nonzero;stroke:rgb(210,0,20);stroke-width:0.18px;"/>
                </g>
            </g>
            <g id="a1" serif:id="a" transform="matrix(-1,0,0,1,499.86,0)">
                <path d="M244.53,143.512L245.926,143.479L248.481,154.227L247.937,157.613L244.53,143.511L244.53,143.512Z" style="fill:rgb(241,181,23);fill-rule:nonzero;stroke:black;stroke-width:0.18px;"/>
                <path d="M243.064,136.346L244.018,144.63L245.04,144.564L243.064,136.346Z" style="fill:white;fill-rule:nonzero;stroke:black;stroke-width:0.18px;"/>
                <path d="M245.722,154.59L241.429,143.05L243.029,142.952L248.039,157.054L245.721,154.589L245.722,154.59Z" style="fill:rgb(241,181,23);fill-rule:nonzero;stroke:black;stroke-width:0.18px;"/>
                <path d="M239.42,136.477L241.19,144.497L242.622,144.497L239.419,136.477L239.42,136.477Z" style="fill:white;fill-rule:nonzero;stroke:black;stroke-width:0.18px;"/>
                <path d="M241.906,150.546L239.386,145.122L240.476,144.892L245.076,153.899L241.906,150.545L241.906,150.546Z" style="fill:rgb(241,181,23);fill-rule:nonzero;stroke:black;stroke-width:0.18px;"/>
                <path d="M236.08,138.778L238.874,146.404L240.304,146.404L236.08,138.778Z" style="fill:white;fill-rule:nonzero;stroke:black;stroke-width:0.18px;"/>
                <path d="M242.25,151.364L230.813,138.88C227.243,141.708 227.905,146.9 227.905,146.9L240.862,157.067L242.249,151.364L242.25,151.364Z" style="fill:rgb(10,50,140);fill-rule:nonzero;stroke:black;stroke-width:0.18px;"/>
                <path d="M248.86,158.235L240.378,149.641C236.791,149.767 239.638,155.121 239.818,155.794L248.861,163.528L248.861,158.236L248.86,158.235Z" style="fill:rgb(210,0,20);fill-rule:nonzero;stroke:black;stroke-width:0.18px;"/>
                <path d="M248.14,156.757L230.6,137.977L229.915,138.46L248.475,159.082L248.139,156.757L248.14,156.757ZM229.586,136.772L229.201,136.326L229.241,135.436L225.621,133.132L227.238,136.772L228.47,136.995L228.854,137.441L229.586,136.773L229.586,136.772Z" style="fill:rgb(241,181,23);fill-rule:nonzero;stroke:black;stroke-width:0.18px;"/>
                <path d="M227.738,138.11C228.354,137.367 229.086,136.624 230.395,135.918L231.395,137.368L229.24,139.188L227.738,138.11Z" style="fill:rgb(241,181,23);fill-rule:nonzero;stroke:black;stroke-width:0.18px;"/>
                <path d="M225.81,141.278L226.4,142.304C226.763,142.169 230.43,138.847 230.43,138.847L233.062,138.767L233.818,137.929C231.886,135.849 230.066,138.225 230.066,138.225L225.811,141.277L225.81,141.278Z" style="fill:rgb(10,50,140);fill-rule:nonzero;stroke:rgb(10,50,140);stroke-width:0.18px;"/>
                <path d="M227.91,143.007C228.05,142.089 229.787,139.793 230.04,139.712C231.342,140.102 232.554,140.852 233.874,137.875C232.726,139.335 230.404,137.848 230.404,137.848L229.394,138.686L229.424,139.091L226.371,141.928L227.911,143.008L227.91,143.007Z" style="fill:rgb(210,0,20);fill-rule:nonzero;stroke:rgb(210,0,20);stroke-width:0.18px;"/>
                <g>
                    <path d="M237.252,154.672L222.885,143.262C220.425,145.764 222.47,153.492 222.47,153.492L236.513,161.1L237.253,154.672L237.252,154.672Z" style="fill:rgb(10,50,140);fill-rule:nonzero;stroke:black;stroke-width:0.18px;"/>
                    <path d="M249.166,163.917L237.348,154.45C233.312,155.016 236.484,160.956 236.725,161.61L249.205,168.38L249.165,163.917L249.166,163.917Z" style="fill:rgb(210,0,20);fill-rule:nonzero;stroke:black;stroke-width:0.18px;"/>
                    <path d="M248.697,162.005L223.143,142.823L222.556,143.413L249.393,164.369L248.697,162.004L248.697,162.005ZM221.928,141.807L221.468,141.433L221.346,140.548L217.366,138.886L219.616,142.2L220.869,142.214L221.327,142.588L221.927,141.808L221.928,141.807Z" style="fill:rgb(241,181,23);fill-rule:nonzero;stroke:black;stroke-width:0.18px;"/>
                    <path d="M220.35,143.433C220.822,142.598 221.41,141.743 222.57,140.83L223.817,142.09L222.022,144.242L220.349,143.432L220.35,143.433Z" style="fill:rgb(241,181,23);fill-rule:nonzero;stroke:black;stroke-width:0.18px;"/>
                    <path d="M218.925,146.64L219.085,147.7C219.422,147.513 222.645,143.975 222.645,143.975L225.231,143.498L225.759,142.665C223.962,140.551 222.046,143.363 222.046,143.363L218.926,146.641L218.925,146.64Z" style="fill:rgb(10,50,140);fill-rule:nonzero;stroke:rgb(10,50,140);stroke-width:0.18px;"/>
                    <path d="M220.97,148.545C220.848,147.563 222.19,144.682 222.426,144.565C223.973,145.025 225.32,145.717 225.888,142.495C224.991,144.109 222.428,142.858 222.428,142.858L221.568,143.838L221.688,144.368L219.078,147.738L220.971,148.545L220.97,148.545Z" style="fill:rgb(210,0,20);fill-rule:nonzero;stroke:rgb(210,0,20);stroke-width:0.18px;"/>
                </g>
                <g>
                    <path d="M236.224,161.65C236.034,161.605 217.707,151.21 217.707,151.21C216.373,153.46 217.579,156.73 218.164,157.238C218.198,158.738 217.562,159.544 218.871,162.678C219.258,164.713 220.201,166.59 221.571,167.704C223.243,174.121 229.794,174.552 232.318,169.328L236.225,161.651L236.224,161.65Z" style="fill:rgb(10,50,140);fill-rule:nonzero;stroke:black;stroke-width:0.18px;"/>
                    <path d="M248.352,168.512L235.804,161.157C231.768,161.724 235.889,169.213 236.13,169.867L248.246,174.171L248.352,168.513L248.352,168.512Z" style="fill:rgb(210,0,20);fill-rule:nonzero;stroke:black;stroke-width:0.18px;"/>
                    <path d="M246.243,165.846L217.893,150.756L217.409,151.429L247.313,168.075L246.243,165.845L246.243,165.846ZM216.528,149.937L216.014,149.637L215.749,148.781L211.549,147.741L214.306,150.676L215.546,150.499L216.061,150.799L216.527,149.939L216.528,149.937Z" style="fill:rgb(241,181,23);fill-rule:nonzero;stroke:black;stroke-width:0.18px;"/>
                    <path d="M215.232,151.782C215.564,150.886 216.005,149.954 217.004,148.875L218.44,149.931L217.015,152.331L215.232,151.783L215.232,151.782Z" style="fill:rgb(241,181,23);fill-rule:nonzero;stroke:black;stroke-width:0.18px;"/>
                    <path d="M214.1,155.18L214.693,156.348C215,156.116 217.697,151.77 217.697,151.77L220.189,150.95L220.657,149.936C218.655,148.086 217.159,151.278 217.159,151.278L214.099,155.181L214.1,155.18Z" style="fill:rgb(10,50,140);fill-rule:nonzero;stroke:rgb(10,50,140);stroke-width:0.18px;"/>
                    <path d="M216.772,156.836C216.572,155.836 217.256,152.639 217.472,152.491C219.032,152.957 220.335,153.089 220.695,149.871C219.788,151.399 217.367,150.823 217.367,150.823L216.657,151.908L216.807,152.288L214.747,156.238L216.772,156.838L216.772,156.836Z" style="fill:rgb(210,0,20);fill-rule:nonzero;stroke:rgb(210,0,20);stroke-width:0.18px;"/>
                </g>
            </g>
        </g>
        <g transform="matrix(1.6,0,0,1.6,-80,0)">
            <path d="M248.757,125.603L248.292,134.673L251.192,134.673L250.767,125.681L253.79,125.258L253.455,121.676L245.945,121.966L245.985,125.219L248.757,125.604L248.757,125.603Z" style="fill:rgb(1,106,22);fill-rule:nonzero;stroke:rgb(1,106,22);stroke-width:0.18px;"/>
            <g id="b">
                <path d="M249.817,121.898C242.053,114.128 235.939,117.918 234.483,118.996C235.446,119.183 236.309,118.584 236.756,118.516C236.476,118.869 235.891,119.746 235.891,119.746C235.891,119.746 238.291,118.611 238.561,118.716C238.214,118.991 237.833,119.651 237.833,119.651C238.011,119.721 239.361,118.595 239.628,118.575C239.218,119.041 239.088,120.103 239.088,120.103L240.258,119.558C240.563,119.774 240.174,120.188 240.438,120.168C242.383,120.008 245.116,121.944 245.492,122.538" style="fill:rgb(1,106,22);fill-rule:nonzero;stroke:black;stroke-width:0.18px;"/>
                <path d="M247.895,123.32C247.085,121.467 232.307,118.316 229.335,123.565C230.499,123.858 231.611,122.589 231.611,122.589L231.511,123.759L233.483,122.247L232.775,123.807L234.343,122.539L234.293,123.809L236.213,121.709L235.961,122.929L237.681,122.199L237.478,123.222" style="fill:rgb(1,106,22);fill-rule:nonzero;stroke:black;stroke-width:0.18px;"/>
                <path d="M247.238,123.614C243.445,121.077 237.578,122.784 237.578,122.784C233.838,124.884 231.842,124.504 231.358,128.394C231.713,128.249 232.724,127.029 232.724,127.029L233.484,128.541L233.734,126.394L234.342,128.054L235.252,125.321L235.455,127.175L236.871,125.321L237.529,125.857L238.136,124.442L238.692,125.369C238.692,125.369 239.654,124.784 240.212,125.125L241.272,123.905L241.525,124.785L242.435,123.711L242.79,124.491L243.7,123.661L243.65,124.247L246.785,124.297" style="fill:rgb(1,106,22);fill-rule:nonzero;stroke:black;stroke-width:0.18px;"/>
                <path d="M246.38,124.053C243.737,124.003 236.154,126.865 234.192,129.859C234.601,129.625 235.023,129.412 235.455,129.223L235.842,130.426L236.315,129.223L236.415,130.15C236.705,129.427 237.033,129.345 237.579,130.102L237.779,128.98L238.084,130.053L238.589,128.883C238.589,128.883 238.907,130.153 239.095,130.103C239.095,130.103 239.933,127.908 240.309,127.809L240.409,129.174L240.915,127.808L241.371,128.832L241.471,127.368L241.977,128.49C241.977,128.49 242.243,127.387 242.635,127.173L243.393,127.856L246.771,125.429" style="fill:rgb(1,106,22);fill-rule:nonzero;stroke:black;stroke-width:0.18px;"/>
                <path d="M246.888,124.678C243.368,126.028 240.218,130.858 240.458,132.904C242.023,130.964 241.688,131.23 242.386,133.464C242.386,133.464 242.65,131.509 242.916,131.277L243.376,132.723L243.546,130.831L244.016,130.854L243.896,129.667L244.594,130.202C244.431,129.525 244.256,129.296 244.98,128.714C244.98,128.714 244.063,128.831 244.787,127.179L245.462,127.829C245.462,127.829 245.342,127.109 245.582,126.829L248.067,125.969" style="fill:rgb(1,106,22);fill-rule:nonzero;stroke:black;stroke-width:0.18px;"/>
                <path d="M247.23,125.04L245.9,127.574L246.58,127.771L245.046,128.924L246.342,128.792C246.342,128.792 244.364,129.517 244.125,131.458L246.138,130.57C246.138,130.57 244.432,132.314 244.193,133.367L245.353,132.347C245.353,132.347 244.228,133.564 244.398,135.407L245.251,134.453C245.047,136.691 245.115,136.889 246.139,138.6C246.139,138.6 245.866,135.967 246.173,135.638L248.423,137.975L247.163,134.651C247.163,134.651 248.56,136.757 249.413,136.561L247.639,133.861L249.379,135.276L247.401,132.316L249.241,132.874C249.241,132.874 247.911,131.197 248.014,130.144L249.276,131.526C249.276,131.526 248.799,129.946 248.936,129.486L249.583,129.618L248.321,128.17L249.174,128.005L249.072,127.052L249.687,126.855L249.653,125.802M248.56,125.797C246.376,128.757 247.502,133.332 246.206,135.667" style="fill:rgb(1,106,22);fill-rule:nonzero;stroke:black;stroke-width:0.18px;"/>
            </g>
            <g id="b1" serif:id="b" transform="matrix(-1,0,0,1,499.86,0)">
                <path d="M249.817,121.898C242.053,114.128 235.939,117.918 234.483,118.996C235.446,119.183 236.309,118.584 236.756,118.516C236.476,118.869 235.891,119.746 235.891,119.746C235.891,119.746 238.291,118.611 238.561,118.716C238.214,118.991 237.833,119.651 237.833,119.651C238.011,119.721 239.361,118.595 239.628,118.575C239.218,119.041 239.088,120.103 239.088,120.103L240.258,119.558C240.563,119.774 240.174,120.188 240.438,120.168C242.383,120.008 245.116,121.944 245.492,122.538" style="fill:rgb(1,106,22);fill-rule:nonzero;stroke:black;stroke-width:0.18px;"/>
                <path d="M247.895,123.32C247.085,121.467 232.307,118.316 229.335,123.565C230.499,123.858 231.611,122.589 231.611,122.589L231.511,123.759L233.483,122.247L232.775,123.807L234.343,122.539L234.293,123.809L236.213,121.709L235.961,122.929L237.681,122.199L237.478,123.222" style="fill:rgb(1,106,22);fill-rule:nonzero;stroke:black;stroke-width:0.18px;"/>
                <path d="M247.238,123.614C243.445,121.077 237.578,122.784 237.578,122.784C233.838,124.884 231.842,124.504 231.358,128.394C231.713,128.249 232.724,127.029 232.724,127.029L233.484,128.541L233.734,126.394L234.342,128.054L235.252,125.321L235.455,127.175L236.871,125.321L237.529,125.857L238.136,124.442L238.692,125.369C238.692,125.369 239.654,124.784 240.212,125.125L241.272,123.905L241.525,124.785L242.435,123.711L242.79,124.491L243.7,123.661L243.65,124.247L246.785,124.297" style="fill:rgb(1,106,22);fill-rule:nonzero;stroke:black;stroke-width:0.18px;"/>
                <path d="M246.38,124.053C243.737,124.003 236.154,126.865 234.192,129.859C234.601,129.625 235.023,129.412 235.455,129.223L235.842,130.426L236.315,129.223L236.415,130.15C236.705,129.427 237.033,129.345 237.579,130.102L237.779,128.98L238.084,130.053L238.589,128.883C238.589,128.883 238.907,130.153 239.095,130.103C239.095,130.103 239.933,127.908 240.309,127.809L240.409,129.174L240.915,127.808L241.371,128.832L241.471,127.368L241.977,128.49C241.977,128.49 242.243,127.387 242.635,127.173L243.393,127.856L246.771,125.429" style="fill:rgb(1,106,22);fill-rule:nonzero;stroke:black;stroke-width:0.18px;"/>
                <path d="M246.888,124.678C243.368,126.028 240.218,130.858 240.458,132.904C242.023,130.964 241.688,131.23 242.386,133.464C242.386,133.464 242.65,131.509 242.916,131.277L243.376,132.723L243.546,130.831L244.016,130.854L243.896,129.667L244.594,130.202C244.431,129.525 244.256,129.296 244.98,128.714C244.98,128.714 244.063,128.831 244.787,127.179L245.462,127.829C245.462,127.829 245.342,127.109 245.582,126.829L248.067,125.969" style="fill:rgb(1,106,22);fill-rule:nonzero;stroke:black;stroke-width:0.18px;"/>
                <path d="M247.23,125.04L245.9,127.574L246.58,127.771L245.046,128.924L246.342,128.792C246.342,128.792 244.364,129.517 244.125,131.458L246.138,130.57C246.138,130.57 244.432,132.314 244.193,133.367L245.353,132.347C245.353,132.347 244.228,133.564 244.398,135.407L245.251,134.453C245.047,136.691 245.115,136.889 246.139,138.6C246.139,138.6 245.866,135.967 246.173,135.638L248.423,137.975L247.163,134.651C247.163,134.651 248.56,136.757 249.413,136.561L247.639,133.861L249.379,135.276L247.401,132.316L249.241,132.874C249.241,132.874 247.911,131.197 248.014,130.144L249.276,131.526C249.276,131.526 248.799,129.946 248.936,129.486L249.583,129.618L248.321,128.17L249.174,128.005L249.072,127.052L249.687,126.855L249.653,125.802M248.56,125.797C246.376,128.757 247.502,133.332 246.206,135.667" style="fill:rgb(1,106,22);fill-rule:nonzero;stroke:black;stroke-width:0.18px;"/>
            </g>
            <path d="M250.945,166.535C250.945,166.535 252.135,156.59 252.131,152.31C252.131,148.94 251.318,141.475 251.318,141.475L247.9,141.475C247.9,141.475 247.38,148.905 247.458,152.265C247.558,156.545 248.644,166.535 248.644,166.535L250.945,166.535Z" style="fill:rgb(241,181,23);fill-rule:nonzero;stroke:black;stroke-width:0.18px;"/>
            <path d="M247.673,141.953L251.634,141.953L251.169,139.287L248.299,139.287L247.673,141.953Z" style="fill:rgb(241,181,23);fill-rule:nonzero;stroke:black;stroke-width:0.18px;"/>
            <path d="M247.926,139.816L251.467,139.816L250.799,137.15L248.619,137.15L247.926,139.816Z" style="fill:rgb(241,181,23);fill-rule:nonzero;stroke:black;stroke-width:0.18px;"/>
            <path d="M248.155,137.655L251.105,137.655L250.605,134.989L248.729,134.989L248.154,137.654L248.155,137.655Z" style="fill:rgb(241,181,23);fill-rule:nonzero;stroke:black;stroke-width:0.18px;"/>
            <path d="M250.71,134.673L248.646,134.673L248.436,135.637L250.878,135.637L250.708,134.673L250.71,134.673ZM251.132,164.367L248.512,164.367M251.275,162.42L248.335,162.42M251.664,160.444L247.937,160.444M251.856,158.29L247.956,158.29M251.883,156.14L247.781,156.14M252.043,154.17L247.593,154.17M252.053,152.38L247.403,152.38M252.025,150.22L247.375,150.22M251.87,148.084L247.375,148.084M251.664,145.914L247.6,145.914M251.467,143.955L247.795,143.955" style="fill:rgb(241,181,23);fill-rule:nonzero;stroke:black;stroke-width:0.18px;"/>
            <path d="M249.91,119.044C249.22,118.72 247.664,117.731 248.126,117.141L248.839,115.928C249.849,113.651 248.819,114.533 248.712,113.822C248.609,113.142 252.577,113.674 252.636,115.22C252.652,115.646 252.341,115.396 252.384,117.83L251.629,119.29C251.064,119.342 250.395,119.275 249.909,119.046L249.91,119.044Z" style="fill:rgb(10,50,140);fill-rule:nonzero;stroke:rgb(10,50,140);stroke-width:0.18px;"/>
            <path d="M250.392,124.934L249.406,124.104L249.679,116.999L250.643,117.281L250.391,124.933L250.392,124.934Z" style="fill:rgb(241,181,23);fill-rule:nonzero;stroke:black;stroke-width:0.18px;"/>
            <path d="M251.672,119.246C252.292,118.884 252.696,117.803 252.322,117.161C251.306,115.875 250.649,116.406 248.944,115.826C248.604,116.188 247.889,116.886 248.042,117.406C250.284,118.461 249.414,117.561 250.156,117.693C250.556,117.763 250.814,118.238 251.672,119.247L251.672,119.246Z" style="fill:rgb(210,0,20);fill-rule:nonzero;stroke:rgb(210,0,20);stroke-width:0.18px;"/>
        </g>
        <g transform="matrix(1.6,0,0,1.6,-80,0)">
            <g id="c" transform="matrix(1,0,0,-1,-0.002,320.37)">
                <path d="M238.538,160.118C238.273,160.611 237.478,160.97 236.538,160.97C235.601,160.97 234.811,160.61 234.546,160.118C234.483,160.228 234.449,160.352 234.446,160.478C234.446,161.146 235.384,161.688 236.539,161.688C237.693,161.688 238.629,161.146 238.629,160.478C238.629,160.352 238.597,160.228 238.537,160.118L238.538,160.118Z" style="fill:rgb(1,106,22);fill-rule:nonzero;stroke:white;stroke-width:0.24px;stroke-linecap:round;"/>
            </g>
            <path d="M238.358,161.75C238.358,163.05 237.543,164.103 236.54,164.103C235.536,164.103 234.72,163.049 234.72,161.75L234.72,160.474L238.358,160.474L238.358,161.75Z" style="fill:rgb(1,106,22);fill-rule:nonzero;stroke:white;stroke-width:0.18px;stroke-linecap:round;"/>
            <ellipse cx="236.539" cy="160.063" rx="1.806" ry="0.898" style="fill:white;"/>
            <path d="M236.126,161.075L235.816,157.778L237.198,157.778L236.972,161.075L236.126,161.075Z" style="fill:rgb(1,106,22);fill-rule:nonzero;stroke:rgb(241,181,23);stroke-width:0.18px;"/>
            <path id="c1" serif:id="c" d="M238.538,160.118C238.273,160.611 237.478,160.97 236.538,160.97C235.601,160.97 234.811,160.61 234.546,160.118C234.483,160.228 234.449,160.352 234.446,160.478C234.446,161.146 235.384,161.688 236.539,161.688C237.693,161.688 238.629,161.146 238.629,160.478C238.629,160.352 238.597,160.228 238.537,160.118L238.538,160.118Z" style="fill:rgb(1,106,22);fill-rule:nonzero;stroke:white;stroke-width:0.24px;stroke-linecap:round;"/>
            <g id="d">
                <path d="M246.035,172.786L238.975,170.596L235.899,165.342L225.005,164.807L225.383,168.747L234.663,170.524L235.545,172.104L246.211,175.074L246.034,172.786L246.035,172.786Z" style="fill:rgb(241,181,23);fill-rule:nonzero;stroke:black;stroke-width:0.18px;"/>
                <path d="M238.662,174.254L227.513,157.856L226.966,158.266L238.026,174.734L238.662,174.254Z" style="fill:rgb(80,50,0);fill-rule:nonzero;stroke:black;stroke-width:0.18px;"/>
                <path d="M228.55,158.5L227.36,156.508C227.138,156.14 226.8,156.018 226.302,156.28C225.818,156.535 225.865,157.04 226.062,157.403L227.162,159.255L228.552,158.5L228.55,158.5Z" style="fill:white;fill-rule:nonzero;stroke:black;stroke-width:0.18px;"/>
                <path d="M239.986,164.127L217.49,161.841L216.943,165.113L239.33,167.363L239.986,164.128L239.986,164.127Z" style="fill:rgb(241,181,23);fill-rule:nonzero;stroke:black;stroke-width:0.18px;"/>
                <path d="M217.09,160.997L216.506,165.535L217.454,165.535L218.11,161.385L217.09,160.997ZM220.844,161.735L220.589,165.815L221.171,165.885L221.645,162.263L220.843,161.735L220.844,161.735ZM236.085,163.494L235.538,167.328L236.632,167.293L237.069,163.493L236.084,163.493L236.085,163.494ZM239.436,163.6L238.656,168.033L239.896,168.213L240.249,165.881C240.349,166.351 240.779,166.706 241.294,166.706C241.884,166.706 242.364,166.242 242.364,165.674C242.364,165.106 241.884,164.648 241.294,164.648C240.884,164.648 240.514,164.888 240.354,165.335L240.584,163.673L239.434,163.6L239.436,163.6ZM231.317,164.32L228.223,167.8L228.583,168.224L232.555,165.514L231.317,164.319L231.317,164.32ZM224.124,173L227.218,169.518L226.858,169.095L222.886,171.805L224.124,173ZM232.22,172.13L228.456,169.22L228.069,169.492L231.033,173.248L232.219,172.128L232.22,172.13ZM222.938,165.413L226.754,168.223L227.218,167.875L224.228,164.12L222.938,165.413ZM227.09,163.094L227.455,167.667L227.968,167.645L229.175,163.193L227.09,163.093L227.09,163.094ZM228.34,174.19L227.976,169.616L227.411,169.563L226.721,174.189L228.341,174.189L228.34,174.19ZM233.4,168.026L228.606,168.536L228.533,168.993L233.383,169.627L233.401,168.027L233.4,168.026ZM221.993,169.61L226.673,168.87L226.773,168.505L221.931,167.965L221.994,169.609L221.993,169.61Z" style="fill:rgb(241,181,23);fill-rule:nonzero;stroke:black;stroke-width:0.18px;"/>
                <ellipse cx="227.693" cy="168.548" rx="1.27" ry="1.225" style="fill:rgb(241,181,23);stroke:black;stroke-width:0.18px;"/>
                <path d="M234.438,168.548C234.438,172.14 231.416,175.055 227.693,175.055C223.97,175.055 220.948,172.14 220.948,168.548C220.948,164.956 223.97,162.041 227.693,162.041C231.416,162.041 234.438,164.957 234.438,168.549L234.438,168.548ZM233.091,168.548C233.091,171.422 230.673,173.755 227.694,173.755C224.714,173.755 222.296,171.422 222.296,168.548C222.296,165.674 224.716,163.341 227.694,163.341C230.674,163.341 233.092,165.675 233.092,168.549L233.091,168.548Z" style="fill:rgb(241,181,23);stroke:black;stroke-width:0.18px;stroke-linecap:round;"/>
                <path d="M223.48,165.264L222.423,164.468M231.034,164.493L231.936,163.573M232.967,172.7L231.857,171.83M223.48,173.696L224.434,172.676M246.196,162.122L247.351,168.008L246.411,168.505L245.396,162.205L246.196,162.122Z" style="fill:rgb(241,181,23);fill-rule:nonzero;stroke:black;stroke-width:0.18px;"/>
                <path d="M245.592,161.364C245.057,161.14 244.36,161.519 243.218,160.072C241.34,161.795 243.111,162.052 243.398,163.758C243.928,163.976 244.255,162.435 245.698,162.278C245.878,162.258 247.998,162.074 247.998,162.074L247.465,161.348C247.465,161.348 245.991,161.388 245.592,161.364Z" style="fill:white;fill-rule:nonzero;stroke:black;stroke-width:0.18px;"/>
                <path d="M246.36,162.518L246.145,160.762C245.913,160.142 245.145,160.675 245.145,161.037L245.342,162.657L246.359,162.517L246.36,162.518Z" style="fill:white;fill-rule:nonzero;stroke:black;stroke-width:0.18px;"/>
                <path d="M240.765,167.372L240.785,169.009C240.248,169.191 240.33,169.593 240.347,170.176L240.367,174.948C240.177,175.263 239.587,175.278 239.312,175.526C239.035,175.774 239.07,176.256 240.332,176.573L241.307,176.608C242.793,176.283 243.1,175.79 242.355,175.513C241.958,175.365 241.435,175.189 241.238,174.956L241.271,173.819L242.236,173.855C242.496,173.855 242.989,173.203 243.006,172.67L243.011,170.2C242.976,168.8 241.926,168.642 241.631,168.66L241.651,167.37L240.766,167.372L240.765,167.372ZM242.395,170.102C242.413,169.702 241.84,169.345 241.609,169.335C241.379,169.325 240.874,169.802 240.857,170.202L240.857,171.202C240.891,171.569 241.184,172.812 241.772,172.902C242.052,172.946 242.412,172.502 242.412,172.136L242.395,170.102Z" style="fill:rgb(241,181,23);stroke:black;stroke-width:0.18px;"/>
                <path d="M234.275,172.328C233.639,172.071 233.645,173.5 233.645,173.5L234.647,173.51C235.087,173.71 235.439,174.353 235.159,174.67C234.927,174.93 232.981,174.228 232.849,174.632C233.194,176.572 235.767,177.32 236.699,176.472C237.609,175.64 237.839,173.422 234.881,172.842L234.274,172.328L234.275,172.328ZM234.87,172.856L234.578,173.496" style="fill:white;fill-rule:nonzero;stroke:black;stroke-width:0.18px;"/>
                <path d="M214.943,173.055L213.98,169.005M216.112,172.822L214.632,169.669M218.658,171.993L215.321,170.201M220.103,171.628L213.911,168.94" style="fill:rgb(241,181,23);fill-rule:nonzero;stroke:black;stroke-width:0.18px;"/>
                <path d="M210.215,166.013C210.215,166.013 207.961,165.977 207.559,166.135C207.396,166.199 208.125,166.96 207.974,167.25C207.411,168.333 203.58,168.184 203.277,167.948C202.757,167.543 206.845,167.195 206.872,166.918C206.902,166.603 206.267,165.773 206.366,165.264C206.494,164.604 208.154,164.357 208.154,164.357L210.214,166.013L210.215,166.013Z" style="fill:rgb(210,0,20);fill-rule:nonzero;stroke:rgb(210,0,20);stroke-width:0.18px;"/>
                <path d="M213.233,168.05L208.131,163.828C208.131,163.828 207.907,163.59 207.719,163.795C207.535,163.995 207.789,164.225 207.789,164.225L213.051,168.575L213.234,168.05L213.233,168.05Z" style="fill:rgb(80,50,0);fill-rule:nonzero;stroke:black;stroke-width:0.18px;"/>
                <path d="M218.146,172.217C218.056,172.13 213.991,168.609 213.991,168.609L213.721,167.579C213.721,167.579 213.093,168.005 212.863,168.225C212.633,168.445 212.276,169.045 212.276,169.045L213.414,169.095L217.009,172.39L218.147,172.217L218.146,172.217Z" style="fill:rgb(241,181,23);fill-rule:nonzero;stroke:black;stroke-width:0.18px;"/>
                <g>
                    <ellipse cx="232.534" cy="177.056" rx="0.74" ry="0.715" style="fill:rgb(241,181,23);stroke:black;stroke-width:0.18px;"/>
                    <ellipse cx="230.641" cy="175.716" rx="0.74" ry="0.715" style="fill:rgb(241,181,23);stroke:black;stroke-width:0.18px;"/>
                    <ellipse cx="228.091" cy="176.593" rx="0.74" ry="0.715" style="fill:rgb(241,181,23);stroke:black;stroke-width:0.18px;"/>
                    <ellipse cx="224.153" cy="177.445" rx="0.74" ry="0.715" style="fill:rgb(241,181,23);stroke:black;stroke-width:0.18px;"/>
                    <ellipse cx="222.487" cy="177.64" rx="0.74" ry="0.715" style="fill:rgb(241,181,23);stroke:black;stroke-width:0.18px;"/>
                    <ellipse cx="220.846" cy="177.64" rx="0.74" ry="0.715" style="fill:rgb(241,181,23);stroke:black;stroke-width:0.18px;"/>
                    <ellipse cx="219.18" cy="177.591" rx="0.74" ry="0.715" style="fill:rgb(241,181,23);stroke:black;stroke-width:0.18px;"/>
                    <ellipse cx="219.988" cy="176.325" rx="0.74" ry="0.715" style="fill:rgb(241,181,23);stroke:black;stroke-width:0.18px;"/>
                    <ellipse cx="221.604" cy="176.398" rx="0.74" ry="0.715" style="fill:rgb(241,181,23);stroke:black;stroke-width:0.18px;"/>
                    <ellipse cx="223.144" cy="176.203" rx="0.74" ry="0.715" style="fill:rgb(241,181,23);stroke:black;stroke-width:0.18px;"/>
                    <ellipse cx="222.361" cy="174.961" rx="0.74" ry="0.715" style="fill:rgb(241,181,23);stroke:black;stroke-width:0.18px;"/>
                    <ellipse cx="220.846" cy="174.937" rx="0.74" ry="0.715" style="fill:rgb(241,181,23);stroke:black;stroke-width:0.18px;"/>
                </g>
                <path d="M236.47,177.99C236.47,177.675 235.7,177.81 235.7,177.44C235.7,177.03 236.874,177.33 237.036,177.693C237.696,177.097 237.98,177.533 238.384,177.713C238.959,176.858 239.671,176.89 240.364,177.516C240.766,177.073 241.774,177.219 242.122,177.713C242.786,177.053 243.377,177.216 243.837,177.693C244.023,177.347 244.295,177.423 244.491,177.673C244.846,177.045 245.734,177.233 246.108,177.649C246.44,177.282 246.781,177.569 247.222,177.839C247.52,177.559 248.002,177.611 248.002,177.889C248.002,178.177 247.372,178.076 247.372,178.362C247.372,178.618 247.832,178.489 247.832,178.812C247.832,179.067 247.152,179.162 247.046,178.756C246.816,179.196 245.984,179.026 245.902,178.618C245.626,178.952 245.005,179.053 244.656,178.558C244.37,178.792 244.026,178.825 243.869,178.588C243.352,179.145 242.481,179.031 242.181,178.418L241.886,178.431C241.378,179.121 240.584,178.801 240.366,178.421C239.513,179.036 239.004,178.841 238.528,178.441C237.98,179.107 237.148,179.061 236.955,178.441C236.587,178.708 235.818,178.771 235.818,178.458C235.818,178.158 236.471,178.266 236.471,177.988L236.47,177.99ZM238.125,178.14C238.125,178.284 237.93,178.4 237.689,178.4C237.449,178.4 237.253,178.284 237.253,178.14C237.253,177.998 237.448,177.88 237.688,177.88C237.928,177.88 238.123,177.998 238.123,178.14L238.125,178.14ZM239.945,177.923C239.945,178.095 239.71,178.235 239.421,178.235C239.133,178.235 238.898,178.095 238.898,177.923C238.898,177.75 239.133,177.611 239.422,177.611C239.712,177.611 239.947,177.751 239.947,177.924L239.945,177.923ZM243.52,178.12C243.52,178.295 243.308,178.436 243.046,178.436C242.784,178.436 242.572,178.296 242.572,178.12C242.572,177.946 242.784,177.804 243.046,177.804C243.308,177.804 243.52,177.946 243.52,178.12ZM241.616,178.037C241.616,178.257 241.409,178.437 241.153,178.437C240.897,178.437 240.689,178.257 240.689,178.037C240.689,177.817 240.896,177.637 241.152,177.637C241.408,177.637 241.615,177.817 241.615,178.037L241.616,178.037ZM245.676,178.047C245.676,178.245 245.49,178.405 245.262,178.405C245.032,178.405 244.847,178.245 244.847,178.047C244.847,177.85 245.033,177.69 245.262,177.69C245.49,177.69 245.676,177.85 245.676,178.047ZM244.432,178.13C244.432,178.258 244.312,178.36 244.165,178.36C244.017,178.36 243.897,178.258 243.897,178.13C243.897,178.003 244.017,177.9 244.165,177.9C244.312,177.9 244.432,178.003 244.432,178.13ZM246.854,178.224C246.854,178.407 246.719,178.554 246.552,178.554C246.386,178.554 246.252,178.407 246.252,178.224C246.252,178.041 246.386,177.892 246.552,177.892C246.719,177.892 246.854,178.042 246.854,178.224Z" style="fill:rgb(241,181,23);stroke:black;stroke-width:0.18px;"/>
            </g>
            <g id="d1" serif:id="d" transform="matrix(-1,0,0,1,499.86,0)">
                <path d="M246.035,172.786L238.975,170.596L235.899,165.342L225.005,164.807L225.383,168.747L234.663,170.524L235.545,172.104L246.211,175.074L246.034,172.786L246.035,172.786Z" style="fill:rgb(241,181,23);fill-rule:nonzero;stroke:black;stroke-width:0.18px;"/>
                <path d="M238.662,174.254L227.513,157.856L226.966,158.266L238.026,174.734L238.662,174.254Z" style="fill:rgb(80,50,0);fill-rule:nonzero;stroke:black;stroke-width:0.18px;"/>
                <path d="M228.55,158.5L227.36,156.508C227.138,156.14 226.8,156.018 226.302,156.28C225.818,156.535 225.865,157.04 226.062,157.403L227.162,159.255L228.552,158.5L228.55,158.5Z" style="fill:white;fill-rule:nonzero;stroke:black;stroke-width:0.18px;"/>
                <path d="M239.986,164.127L217.49,161.841L216.943,165.113L239.33,167.363L239.986,164.128L239.986,164.127Z" style="fill:rgb(241,181,23);fill-rule:nonzero;stroke:black;stroke-width:0.18px;"/>
                <path d="M217.09,160.997L216.506,165.535L217.454,165.535L218.11,161.385L217.09,160.997ZM220.844,161.735L220.589,165.815L221.171,165.885L221.645,162.263L220.843,161.735L220.844,161.735ZM236.085,163.494L235.538,167.328L236.632,167.293L237.069,163.493L236.084,163.493L236.085,163.494ZM239.436,163.6L238.656,168.033L239.896,168.213L240.249,165.881C240.349,166.351 240.779,166.706 241.294,166.706C241.884,166.706 242.364,166.242 242.364,165.674C242.364,165.106 241.884,164.648 241.294,164.648C240.884,164.648 240.514,164.888 240.354,165.335L240.584,163.673L239.434,163.6L239.436,163.6ZM231.317,164.32L228.223,167.8L228.583,168.224L232.555,165.514L231.317,164.319L231.317,164.32ZM224.124,173L227.218,169.518L226.858,169.095L222.886,171.805L224.124,173ZM232.22,172.13L228.456,169.22L228.069,169.492L231.033,173.248L232.219,172.128L232.22,172.13ZM222.938,165.413L226.754,168.223L227.218,167.875L224.228,164.12L222.938,165.413ZM227.09,163.094L227.455,167.667L227.968,167.645L229.175,163.193L227.09,163.093L227.09,163.094ZM228.34,174.19L227.976,169.616L227.411,169.563L226.721,174.189L228.341,174.189L228.34,174.19ZM233.4,168.026L228.606,168.536L228.533,168.993L233.383,169.627L233.401,168.027L233.4,168.026ZM221.993,169.61L226.673,168.87L226.773,168.505L221.931,167.965L221.994,169.609L221.993,169.61Z" style="fill:rgb(241,181,23);fill-rule:nonzero;stroke:black;stroke-width:0.18px;"/>
                <ellipse cx="227.693" cy="168.548" rx="1.27" ry="1.225" style="fill:rgb(241,181,23);stroke:black;stroke-width:0.18px;"/>
                <path d="M234.438,168.548C234.438,172.14 231.416,175.055 227.693,175.055C223.97,175.055 220.948,172.14 220.948,168.548C220.948,164.956 223.97,162.041 227.693,162.041C231.416,162.041 234.438,164.957 234.438,168.549L234.438,168.548ZM233.091,168.548C233.091,171.422 230.673,173.755 227.694,173.755C224.714,173.755 222.296,171.422 222.296,168.548C222.296,165.674 224.716,163.341 227.694,163.341C230.674,163.341 233.092,165.675 233.092,168.549L233.091,168.548Z" style="fill:rgb(241,181,23);stroke:black;stroke-width:0.18px;stroke-linecap:round;"/>
                <path d="M223.48,165.264L222.423,164.468M231.034,164.493L231.936,163.573M232.967,172.7L231.857,171.83M223.48,173.696L224.434,172.676M246.196,162.122L247.351,168.008L246.411,168.505L245.396,162.205L246.196,162.122Z" style="fill:rgb(241,181,23);fill-rule:nonzero;stroke:black;stroke-width:0.18px;"/>
                <path d="M245.592,161.364C245.057,161.14 244.36,161.519 243.218,160.072C241.34,161.795 243.111,162.052 243.398,163.758C243.928,163.976 244.255,162.435 245.698,162.278C245.878,162.258 247.998,162.074 247.998,162.074L247.465,161.348C247.465,161.348 245.991,161.388 245.592,161.364Z" style="fill:white;fill-rule:nonzero;stroke:black;stroke-width:0.18px;"/>
                <path d="M246.36,162.518L246.145,160.762C245.913,160.142 245.145,160.675 245.145,161.037L245.342,162.657L246.359,162.517L246.36,162.518Z" style="fill:white;fill-rule:nonzero;stroke:black;stroke-width:0.18px;"/>
                <path d="M240.765,167.372L240.785,169.009C240.248,169.191 240.33,169.593 240.347,170.176L240.367,174.948C240.177,175.263 239.587,175.278 239.312,175.526C239.035,175.774 239.07,176.256 240.332,176.573L241.307,176.608C242.793,176.283 243.1,175.79 242.355,175.513C241.958,175.365 241.435,175.189 241.238,174.956L241.271,173.819L242.236,173.855C242.496,173.855 242.989,173.203 243.006,172.67L243.011,170.2C242.976,168.8 241.926,168.642 241.631,168.66L241.651,167.37L240.766,167.372L240.765,167.372ZM242.395,170.102C242.413,169.702 241.84,169.345 241.609,169.335C241.379,169.325 240.874,169.802 240.857,170.202L240.857,171.202C240.891,171.569 241.184,172.812 241.772,172.902C242.052,172.946 242.412,172.502 242.412,172.136L242.395,170.102Z" style="fill:rgb(241,181,23);stroke:black;stroke-width:0.18px;"/>
                <path d="M234.275,172.328C233.639,172.071 233.645,173.5 233.645,173.5L234.647,173.51C235.087,173.71 235.439,174.353 235.159,174.67C234.927,174.93 232.981,174.228 232.849,174.632C233.194,176.572 235.767,177.32 236.699,176.472C237.609,175.64 237.839,173.422 234.881,172.842L234.274,172.328L234.275,172.328ZM234.87,172.856L234.578,173.496" style="fill:white;fill-rule:nonzero;stroke:black;stroke-width:0.18px;"/>
                <path d="M214.943,173.055L213.98,169.005M216.112,172.822L214.632,169.669M218.658,171.993L215.321,170.201M220.103,171.628L213.911,168.94" style="fill:rgb(241,181,23);fill-rule:nonzero;stroke:black;stroke-width:0.18px;"/>
                <path d="M210.215,166.013C210.215,166.013 207.961,165.977 207.559,166.135C207.396,166.199 208.125,166.96 207.974,167.25C207.411,168.333 203.58,168.184 203.277,167.948C202.757,167.543 206.845,167.195 206.872,166.918C206.902,166.603 206.267,165.773 206.366,165.264C206.494,164.604 208.154,164.357 208.154,164.357L210.214,166.013L210.215,166.013Z" style="fill:rgb(210,0,20);fill-rule:nonzero;stroke:rgb(210,0,20);stroke-width:0.18px;"/>
                <path d="M213.233,168.05L208.131,163.828C208.131,163.828 207.907,163.59 207.719,163.795C207.535,163.995 207.789,164.225 207.789,164.225L213.051,168.575L213.234,168.05L213.233,168.05Z" style="fill:rgb(80,50,0);fill-rule:nonzero;stroke:black;stroke-width:0.18px;"/>
                <path d="M218.146,172.217C218.056,172.13 213.991,168.609 213.991,168.609L213.721,167.579C213.721,167.579 213.093,168.005 212.863,168.225C212.633,168.445 212.276,169.045 212.276,169.045L213.414,169.095L217.009,172.39L218.147,172.217L218.146,172.217Z" style="fill:rgb(241,181,23);fill-rule:nonzero;stroke:black;stroke-width:0.18px;"/>
                <g>
                    <ellipse cx="232.534" cy="177.056" rx="0.74" ry="0.715" style="fill:rgb(241,181,23);stroke:black;stroke-width:0.18px;"/>
                    <ellipse cx="230.641" cy="175.716" rx="0.74" ry="0.715" style="fill:rgb(241,181,23);stroke:black;stroke-width:0.18px;"/>
                    <ellipse cx="228.091" cy="176.593" rx="0.74" ry="0.715" style="fill:rgb(241,181,23);stroke:black;stroke-width:0.18px;"/>
                    <ellipse cx="224.153" cy="177.445" rx="0.74" ry="0.715" style="fill:rgb(241,181,23);stroke:black;stroke-width:0.18px;"/>
                    <ellipse cx="222.487" cy="177.64" rx="0.74" ry="0.715" style="fill:rgb(241,181,23);stroke:black;stroke-width:0.18px;"/>
                    <ellipse cx="220.846" cy="177.64" rx="0.74" ry="0.715" style="fill:rgb(241,181,23);stroke:black;stroke-width:0.18px;"/>
                    <ellipse cx="219.18" cy="177.591" rx="0.74" ry="0.715" style="fill:rgb(241,181,23);stroke:black;stroke-width:0.18px;"/>
                    <ellipse cx="219.988" cy="176.325" rx="0.74" ry="0.715" style="fill:rgb(241,181,23);stroke:black;stroke-width:0.18px;"/>
                    <ellipse cx="221.604" cy="176.398" rx="0.74" ry="0.715" style="fill:rgb(241,181,23);stroke:black;stroke-width:0.18px;"/>
                    <ellipse cx="223.144" cy="176.203" rx="0.74" ry="0.715" style="fill:rgb(241,181,23);stroke:black;stroke-width:0.18px;"/>
                    <ellipse cx="222.361" cy="174.961" rx="0.74" ry="0.715" style="fill:rgb(241,181,23);stroke:black;stroke-width:0.18px;"/>
                    <ellipse cx="220.846" cy="174.937" rx="0.74" ry="0.715" style="fill:rgb(241,181,23);stroke:black;stroke-width:0.18px;"/>
                </g>
                <path d="M236.47,177.99C236.47,177.675 235.7,177.81 235.7,177.44C235.7,177.03 236.874,177.33 237.036,177.693C237.696,177.097 237.98,177.533 238.384,177.713C238.959,176.858 239.671,176.89 240.364,177.516C240.766,177.073 241.774,177.219 242.122,177.713C242.786,177.053 243.377,177.216 243.837,177.693C244.023,177.347 244.295,177.423 244.491,177.673C244.846,177.045 245.734,177.233 246.108,177.649C246.44,177.282 246.781,177.569 247.222,177.839C247.52,177.559 248.002,177.611 248.002,177.889C248.002,178.177 247.372,178.076 247.372,178.362C247.372,178.618 247.832,178.489 247.832,178.812C247.832,179.067 247.152,179.162 247.046,178.756C246.816,179.196 245.984,179.026 245.902,178.618C245.626,178.952 245.005,179.053 244.656,178.558C244.37,178.792 244.026,178.825 243.869,178.588C243.352,179.145 242.481,179.031 242.181,178.418L241.886,178.431C241.378,179.121 240.584,178.801 240.366,178.421C239.513,179.036 239.004,178.841 238.528,178.441C237.98,179.107 237.148,179.061 236.955,178.441C236.587,178.708 235.818,178.771 235.818,178.458C235.818,178.158 236.471,178.266 236.471,177.988L236.47,177.99ZM238.125,178.14C238.125,178.284 237.93,178.4 237.689,178.4C237.449,178.4 237.253,178.284 237.253,178.14C237.253,177.998 237.448,177.88 237.688,177.88C237.928,177.88 238.123,177.998 238.123,178.14L238.125,178.14ZM239.945,177.923C239.945,178.095 239.71,178.235 239.421,178.235C239.133,178.235 238.898,178.095 238.898,177.923C238.898,177.75 239.133,177.611 239.422,177.611C239.712,177.611 239.947,177.751 239.947,177.924L239.945,177.923ZM243.52,178.12C243.52,178.295 243.308,178.436 243.046,178.436C242.784,178.436 242.572,178.296 242.572,178.12C242.572,177.946 242.784,177.804 243.046,177.804C243.308,177.804 243.52,177.946 243.52,178.12ZM241.616,178.037C241.616,178.257 241.409,178.437 241.153,178.437C240.897,178.437 240.689,178.257 240.689,178.037C240.689,177.817 240.896,177.637 241.152,177.637C241.408,177.637 241.615,177.817 241.615,178.037L241.616,178.037ZM245.676,178.047C245.676,178.245 245.49,178.405 245.262,178.405C245.032,178.405 244.847,178.245 244.847,178.047C244.847,177.85 245.033,177.69 245.262,177.69C245.49,177.69 245.676,177.85 245.676,178.047ZM244.432,178.13C244.432,178.258 244.312,178.36 244.165,178.36C244.017,178.36 243.897,178.258 243.897,178.13C243.897,178.003 244.017,177.9 244.165,177.9C244.312,177.9 244.432,178.003 244.432,178.13ZM246.854,178.224C246.854,178.407 246.719,178.554 246.552,178.554C246.386,178.554 246.252,178.407 246.252,178.224C246.252,178.041 246.386,177.892 246.552,177.892C246.719,177.892 246.854,178.042 246.854,178.224Z" style="fill:rgb(241,181,23);stroke:black;stroke-width:0.18px;"/>
            </g>
            <g>
                <path d="M249.837,165.718C247.325,165.718 245.287,166.662 245.287,167.82C245.287,168.02 245.344,168.21 245.457,168.392C245.999,169.022 247.763,169.479 249.854,169.479C251.811,169.479 253.479,169.076 254.131,168.509C254.296,168.292 254.388,168.062 254.388,167.819C254.388,166.661 252.35,165.717 249.838,165.717L249.837,165.718Z" style="fill:rgb(10,50,140);fill-rule:nonzero;stroke:rgb(10,50,140);stroke-width:0.23px;"/>
                <path d="M254.427,167.98L254.427,175.04C254.427,175.867 252.379,176.538 249.855,176.538C247.331,176.538 245.282,175.868 245.282,175.038L245.282,167.981C245.282,168.811 247.332,169.481 249.855,169.481C252.379,169.481 254.427,168.811 254.427,167.981L254.427,167.98Z" style="fill:rgb(241,181,23);fill-rule:nonzero;stroke:black;stroke-width:0.19px;"/>
                <path d="M245.282,167.982L245.282,169.064L247.502,175.909L249.274,170.644L251.22,176.109L252.645,170.949L254.428,174.419L254.428,172.499L252.772,169.136C252.576,169.188 252.378,169.233 252.179,169.27L251.149,173.083L249.703,169.479C249.465,169.477 249.226,169.469 248.988,169.455L247.534,173.082L245.874,168.715C245.497,168.498 245.28,168.249 245.28,167.981L245.282,167.982Z" style="fill:rgb(210,0,20);fill-rule:nonzero;stroke:rgb(210,0,20);stroke-width:0.18px;"/>
                <path d="M254.427,173.72L254.427,175.04C254.427,175.866 252.379,176.538 249.855,176.538C247.331,176.538 245.282,175.866 245.282,175.038L245.282,173.721C245.282,174.551 247.332,175.221 249.855,175.221C252.379,175.221 254.427,174.551 254.427,173.721L254.427,173.72Z" style="fill:rgb(10,50,140);fill-rule:nonzero;stroke:rgb(10,50,140);stroke-width:0.19px;"/>
                <path d="M251.737,175.085C251.365,175.14 250.967,175.182 250.552,175.203L250.562,176.52C250.98,176.5 251.377,176.458 251.749,176.402L251.736,175.085L251.737,175.085ZM246.868,174.855L246.856,176.167C247.209,176.267 247.606,176.352 248.042,176.413L248.042,175.096C247.646,175.042 247.254,174.962 246.868,174.856L246.868,174.855ZM245.282,173.723L245.282,175.04C245.282,175.286 245.467,175.514 245.788,175.72L245.811,174.418C245.476,174.208 245.283,173.975 245.283,173.723L245.282,173.723ZM254.428,173.863L254.405,173.869C254.325,174.135 254.025,174.384 253.575,174.591L253.58,175.903C254.11,175.658 254.428,175.363 254.428,175.04L254.428,173.863Z" style="fill:rgb(241,181,23);fill-rule:nonzero;stroke:black;stroke-width:0.19px;"/>
                <path d="M254.427,168.027L254.427,175.039C254.427,175.866 252.379,176.537 249.855,176.537C247.331,176.537 245.282,175.867 245.282,175.037L245.282,168.027" style="fill:none;fill-rule:nonzero;stroke:black;stroke-width:0.19px;"/>
                <path d="M253.392,167.52C253.392,168.02 251.808,168.427 249.855,168.427C247.901,168.427 246.317,168.021 246.317,167.52C246.317,167.02 247.901,166.613 249.855,166.613C251.808,166.613 253.392,167.019 253.392,167.52Z" style="fill:white;fill-rule:nonzero;stroke:white;stroke-width:0.19px;"/>
                <path d="M248.698,168.19L248.855,169.44C249.162,169.462 249.481,169.478 249.808,169.48L250.04,168.19L248.698,168.19ZM252.8,167.887L251.89,168.134L251.947,169.311C252.257,169.259 252.549,169.195 252.813,169.121L252.801,167.888L252.8,167.887ZM247.397,165.98C247.137,166.055 246.897,166.144 246.677,166.242L246.804,167.187L247.384,167.002L247.397,165.979L247.397,165.98ZM249.837,165.606C249.715,165.606 249.597,165.613 249.477,165.616L249.674,166.8L250.279,166.788L250.516,165.634C250.29,165.617 250.063,165.607 249.836,165.606L249.837,165.606ZM252.51,166.024L252.388,167.058L253.078,167.302L253.155,166.287C252.946,166.185 252.731,166.097 252.51,166.024Z" style="fill:rgb(241,181,23);fill-rule:nonzero;stroke:black;stroke-width:0.23px;"/>
                <path d="M245.993,168.8L246.177,167.512L245.242,167.006L245.27,168.471L245.993,168.801L245.993,168.8ZM254.396,168.522L254.438,167.234L253.562,167.496L254.396,168.522Z" style="fill:rgb(241,181,23);fill-rule:nonzero;stroke:black;stroke-width:0.18px;"/>
            </g>
            <path d="M263.686,160.03C264.516,159.914 265.748,161.053 265.822,162.462C265.882,163.58 264.132,163.522 264.132,163.522C264.042,163.98 263.077,164.402 262.292,164.438C261.529,164.471 262.499,163.006 262.499,163.006C262.023,161.746 262.646,160.258 262.646,160.258L263.686,160.028L263.686,160.03Z" style="fill:rgb(241,181,23);fill-rule:nonzero;stroke:black;stroke-width:0.18px;"/>
            <path d="M262.5,162.948L263.3,162.918C263.3,162.918 263.36,163.333 263.508,163.348C263.665,163.366 263.834,162.948 263.834,162.948L265.051,162.918" style="fill:rgb(241,181,23);fill-rule:nonzero;stroke:black;stroke-width:0.18px;"/>
            <path d="M264.13,160.86C264.81,160.368 264.215,159.38 263.745,159.37L262.647,159.4C262.13,159.41 261.255,159.972 261.371,160.458C261.474,160.882 261.759,161.076 262.203,161.002C262.405,160.969 262.829,160.439 263.033,160.43C263.309,160.417 263.913,161.018 264.133,160.86L264.13,160.86Z" style="fill:rgb(210,0,20);fill-rule:nonzero;stroke:rgb(241,181,23);stroke-width:0.18px;"/>
            <path d="M214.242,174.855C213.625,174.933 213.512,175.643 213.742,176.295C211.056,177.051 208.656,178.035 206.287,178.701C206.192,178.228 207.461,176.857 207.461,176.857C207.798,177.019 208.049,177.787 208.049,177.787C208.133,176.209 209.689,175.159 209.689,175.159C208.764,175.037 205.956,176.126 205.619,176.571C205.619,176.571 206.707,176.451 206.875,176.571C206.875,176.571 204.735,178.883 204.638,179.571C204.971,180.321 208.665,180.881 208.665,180.881C208.607,181.077 207.578,181.813 207.578,181.813C209.048,182.135 211.263,181.095 211.925,180.463C211.925,180.463 210.197,180.319 208.851,179.228C208.851,179.228 209.128,179.908 208.961,180.232C208.961,180.232 206.861,179.628 206.643,179.28C206.649,179.25 211.609,177.965 214.011,177.28C214.099,177.708 214.576,178.518 215.149,178.327C215.523,178.202 215.405,177.461 215.266,176.937C215.407,177.057 215.586,177.123 215.771,177.122C216.193,177.122 216.538,176.795 216.538,176.387C216.538,175.98 216.193,175.647 215.771,175.647C215.448,175.644 215.158,175.848 215.051,176.152C214.955,175.699 214.706,174.798 214.243,174.857L214.242,174.855ZM216.132,176.383C216.132,176.573 215.97,176.728 215.772,176.728C215.58,176.731 215.419,176.575 215.415,176.383C215.415,176.193 215.575,176.038 215.773,176.038C215.97,176.038 216.131,176.192 216.131,176.383L216.132,176.383Z" style="fill:rgb(241,181,23);stroke:black;stroke-width:0.18px;"/>
            <g>
                <path d="M293.068,177.884C293.251,177.517 292.906,175.672 292.906,175.672C292.533,175.714 292.024,176.352 292.024,176.352C292.504,174.842 291.159,172.316 291.159,172.316C292.069,172.506 295.103,175.444 295.261,175.973C295.261,175.973 293.931,175.499 293.731,175.558C293.948,177.064 294.989,177.763 295.381,178.546C295.381,178.546 293.655,178.926 293.828,180.368L292.7,180.388C292.31,179.908 292.852,179.113 292.852,179.113L285.112,175.873C284.614,175.663 283.492,175.153 283.662,174.553C283.83,173.95 285.677,174.805 286.132,174.953L293.066,177.883L293.068,177.884Z" style="fill:rgb(241,181,23);fill-rule:nonzero;stroke:black;stroke-width:0.18px;"/>
                <path d="M285.635,176.54L286.545,174.868C286.871,174.428 286.199,173.948 285.722,174.512L284.702,176.039C284.248,176.875 285.202,177.105 285.635,176.539L285.635,176.54Z" style="fill:rgb(241,181,23);fill-rule:nonzero;stroke:black;stroke-width:0.18px;"/>
            </g>
        </g>
        <g>
            <path d="M290.187,288.586L290.087,285.666L286.555,285.861L286.355,289.041L290.187,288.587L290.187,288.586Z" style="fill:white;fill-rule:nonzero;stroke:black;stroke-width:0.29px;"/>
            <path d="M264.38,292.678L259.658,290.03C279.128,291.814 283.104,285.024 287.808,284.66C290.701,284.434 291.152,287.863 285.548,286.232L286.998,289.818C286.998,289.818 273.176,297.594 259.591,294.382L264.381,292.678L264.38,292.678ZM349.198,288.586L349.298,285.666L353.618,285.766L353.82,288.946L349.198,288.586Z" style="fill:white;fill-rule:nonzero;stroke:black;stroke-width:0.29px;"/>
            <path d="M375.902,291.963L380.345,289.539C358.043,290.202 363.121,285.875 351.962,284.661C349.079,284.348 346.912,288.054 354.222,286.233L352.774,289.819L356.281,289.822C363.879,294.825 374.131,295.272 380.924,293.665L375.904,291.962L375.902,291.963Z" style="fill:white;fill-rule:nonzero;stroke:black;stroke-width:0.29px;"/>
            <path d="M285.47,286.253L285.47,291.3C285.47,291.3 297.834,295.887 319.9,295.887C342.06,295.887 354.33,291.3 354.33,291.3L354.33,286.253C354.33,286.253 344.97,290.565 319.9,290.565C294.922,290.565 285.47,286.253 285.47,286.253Z" style="fill:white;fill-rule:nonzero;stroke:black;stroke-width:0.29px;"/>
        </g>
        <path d="M287.317,291.328L288.407,287.633L288.915,287.773L287.952,291.031L289.839,291.551L289.709,291.987L287.316,291.329L287.317,291.328ZM290.895,289.703L290.955,288.977L291.119,288.355L291.659,288.485L291.495,289.109L291.185,289.773L290.895,289.703ZM296.215,289.453L296.732,289.555L296.272,291.73C296.192,292.11 296.085,292.4 295.95,292.606C295.806,292.817 295.597,292.974 295.354,293.054C295.094,293.148 294.774,293.158 294.399,293.084C294.032,293.014 293.746,292.894 293.539,292.726C293.34,292.571 293.203,292.349 293.153,292.101C293.103,291.851 293.119,291.527 293.203,291.129L293.663,288.953L294.178,289.055L293.718,291.227C293.65,291.554 293.63,291.802 293.661,291.969C293.691,292.135 293.78,292.285 293.911,292.391C294.046,292.505 294.224,292.584 294.446,292.627C294.826,292.702 295.114,292.672 295.311,292.537C295.507,292.403 295.655,292.1 295.755,291.627L296.213,289.455L296.215,289.453ZM296.797,293.47L297.439,289.678L297.972,289.763L299.532,293.065L300.036,290.088L300.536,290.168L299.892,293.958L299.358,293.874L297.798,290.569L297.293,293.549L296.795,293.469L296.797,293.47ZM300.862,294.084L301.409,290.278L301.929,290.348L301.383,294.154L300.861,294.084L300.862,294.084ZM302.362,292.404C302.437,291.772 302.672,291.294 303.068,290.976C303.463,290.656 303.938,290.526 304.498,290.588C304.862,290.628 305.181,290.748 305.455,290.95C305.728,291.15 305.925,291.41 306.042,291.728C306.16,292.046 306.197,292.396 306.152,292.778C306.115,293.14 305.989,293.488 305.785,293.79C305.597,294.069 305.328,294.285 305.015,294.408C304.701,294.532 304.361,294.577 304.025,294.538C303.675,294.505 303.341,294.377 303.059,294.168C302.791,293.97 302.588,293.696 302.475,293.383C302.36,293.071 302.321,292.735 302.361,292.405L302.362,292.404ZM302.902,292.474C302.847,292.934 302.932,293.309 303.157,293.602C303.382,293.895 303.687,294.062 304.075,294.106C304.469,294.149 304.809,294.051 305.095,293.812C305.381,293.572 305.555,293.207 305.612,292.716C305.649,292.406 305.626,292.128 305.545,291.884C305.465,291.641 305.325,291.444 305.131,291.294C304.933,291.142 304.697,291.048 304.449,291.024C304.079,290.984 303.745,291.071 303.449,291.287C303.152,291.503 302.969,291.897 302.902,292.473L302.902,292.474ZM306.595,294.739L306.919,290.909L307.457,290.951L309.287,294.121L309.542,291.115L310.045,291.155L309.721,294.985L309.181,294.942L307.351,291.768L307.097,294.776L306.594,294.736L306.595,294.739ZM312.177,295.126L312.351,291.288L315.036,291.4L315.016,291.853L312.858,291.763L312.805,292.95L314.672,293.03L314.652,293.482L312.785,293.402L312.705,295.147L312.18,295.124L312.177,295.126ZM315.111,295.251L316.718,291.438L317.286,291.448L318.838,295.32L318.238,295.31L317.798,294.137L316.132,294.105L315.672,295.26L315.112,295.25L315.111,295.251ZM316.293,293.695L317.643,293.72L317.248,292.65C317.148,292.387 317.059,292.119 316.982,291.848C316.927,292.093 316.852,292.336 316.752,292.578L316.294,293.696L316.293,293.695ZM319.353,295.312L319.363,291.47L319.889,291.472L319.881,295.314L319.354,295.314L319.353,295.312ZM321.823,295.302L321.773,291.912L320.46,291.932L320.452,291.478L323.608,291.433L323.615,291.887L322.298,291.904L322.348,295.292L321.821,295.3L321.823,295.302ZM325.729,295.209L325.543,291.371L326.069,291.347L326.234,294.732L328.194,294.644L328.214,295.097L325.729,295.209ZM328.409,295.092L329.651,291.155L330.218,291.115L332.126,294.835L331.528,294.878L330.978,293.748L329.318,293.862L328.968,295.052L328.408,295.092L328.409,295.092ZM329.439,293.44L330.785,293.348L330.292,292.315C330.142,292.001 330.03,291.743 329.952,291.54C329.919,291.793 329.865,292.042 329.792,292.286L329.44,293.44L329.439,293.44ZM334.114,294.653L333.677,290.835L336.347,290.55L336.399,291L334.252,291.23L334.388,292.412L336.246,292.214L336.298,292.664L334.44,292.864L334.638,294.598L334.114,294.654L334.114,294.653ZM337.034,292.461C336.94,291.831 337.044,291.311 337.341,290.907C337.641,290.501 338.067,290.26 338.623,290.184C338.987,290.134 339.327,290.174 339.643,290.3C339.961,290.426 340.219,290.63 340.416,290.91C340.614,291.188 340.741,291.517 340.796,291.898C340.856,292.284 340.826,292.64 340.708,292.966C340.592,293.293 340.398,293.556 340.125,293.752C339.853,293.949 339.535,294.075 339.202,294.119C338.832,294.169 338.488,294.127 338.17,293.995C337.859,293.868 337.592,293.654 337.4,293.379C337.208,293.105 337.083,292.79 337.035,292.459L337.034,292.461ZM337.574,292.396C337.641,292.854 337.822,293.198 338.116,293.426C338.411,293.656 338.751,293.743 339.136,293.69C339.529,293.634 339.832,293.457 340.046,293.156C340.261,292.854 340.332,292.459 340.259,291.969C340.224,291.688 340.128,291.418 339.977,291.179C339.842,290.971 339.649,290.807 339.421,290.709C339.191,290.611 338.938,290.578 338.691,290.615C338.321,290.665 338.021,290.832 337.791,291.113C337.561,291.393 337.488,291.821 337.573,292.393L337.574,292.396ZM341.754,293.686L341.044,289.906L342.781,289.601C343.131,289.541 343.401,289.527 343.596,289.563C343.791,289.599 343.959,289.693 344.1,289.847C344.24,290 344.33,290.18 344.37,290.387C344.42,290.657 344.372,290.897 344.227,291.114C344.081,291.329 343.825,291.494 343.459,291.61C343.58,291.639 343.697,291.683 343.806,291.743C343.983,291.85 344.156,291.993 344.331,292.17L345.206,293.08L344.554,293.194L343.887,292.498C343.736,292.339 343.579,292.188 343.415,292.043C343.323,291.958 343.218,291.888 343.105,291.836C343.023,291.802 342.937,291.782 342.849,291.776C342.789,291.776 342.689,291.786 342.557,291.81L341.955,291.915L342.271,293.595L341.753,293.685L341.754,293.686ZM341.876,291.483L342.99,291.288C343.179,291.261 343.362,291.204 343.532,291.118C343.762,290.997 343.885,290.737 343.834,290.482C343.805,290.311 343.701,290.162 343.55,290.077C343.394,289.987 343.17,289.965 342.88,290.017L341.64,290.233L341.875,291.485L341.876,291.483ZM348.166,291.063L348.709,291.079C348.696,291.509 348.575,291.862 348.345,292.137C348.115,292.412 347.797,292.593 347.393,292.681C346.973,292.771 346.613,292.763 346.313,292.656C346.005,292.543 345.738,292.339 345.548,292.071C345.336,291.785 345.187,291.458 345.108,291.111C345.018,290.721 345.015,290.364 345.102,290.039C345.189,289.715 345.358,289.447 345.608,289.234C345.858,289.021 346.155,288.877 346.498,288.804C346.886,288.719 347.235,288.744 347.545,288.877C347.855,289.01 348.102,289.237 348.285,289.562L347.807,289.788C347.653,289.534 347.477,289.364 347.277,289.278C347.058,289.188 346.816,289.172 346.587,289.231C346.287,289.295 346.054,289.418 345.885,289.599C345.719,289.777 345.616,290.005 345.593,290.247C345.566,290.497 345.583,290.747 345.64,290.994C345.701,291.281 345.817,291.553 345.98,291.797C346.13,292.014 346.322,292.159 346.552,292.232C346.782,292.307 347.016,292.318 347.252,292.267C347.518,292.218 347.757,292.076 347.928,291.867C348.09,291.664 348.17,291.397 348.168,291.067L348.166,291.063ZM349.629,292.109L348.559,288.409L351.332,287.661L351.459,288.098L349.194,288.708L349.522,289.842L351.642,289.272L351.769,289.705L349.647,290.277L350.012,291.537L352.366,290.902L352.493,291.339L349.633,292.109L349.629,292.109Z" style="fill-rule:nonzero;"/>
    </g>
</svg>
