<?xml version="1.0" encoding="UTF-8" standalone="no"?>
<!DOCTYPE svg PUBLIC "-//W3C//DTD SVG 1.1//EN" "http://www.w3.org/Graphics/SVG/1.1/DTD/svg11.dtd">
<svg width="100%" height="100%" viewBox="0 0 640 480" version="1.1" xmlns="http://www.w3.org/2000/svg" xmlns:xlink="http://www.w3.org/1999/xlink" xml:space="preserve" xmlns:serif="http://www.serif.com/" style="fill-rule:evenodd;clip-rule:evenodd;">
    <g transform="matrix(0.9375,0,0,0.9375,0,0)">
        <clipPath id="_clip1">
            <rect x="0" y="0" width="682.67" height="512"/>
        </clipPath>
        <g clip-path="url(#_clip1)">
            <rect x="0" y="438.86" width="1024" height="73.143" style="fill:rgb(49,146,8);"/>
            <rect x="0" y="292.57" width="1024" height="73.143" style="fill:rgb(222,32,16);"/>
            <rect x="0" y="365.71" width="1024" height="73.143" style="fill:rgb(255,210,0);"/>
            <rect x="0" y="146.29" width="1024" height="73.143" style="fill:rgb(222,32,16);"/>
            <rect x="0" y="73.143" width="1024" height="73.143" style="fill:rgb(255,210,0);"/>
            <rect x="0" y="0" width="1024" height="73.143" style="fill:rgb(49,146,8);"/>
            <path d="M28.891,0L28.891,512L372.661,256L28.891,0Z"/>
            <rect x="0" y="0" width="29.257" height="512"/>
            <path d="M0,0L0,512L373.03,256L0,0Z"/>
            <rect x="0" y="219.43" width="1024" height="73.143"/>
            <path d="M0,0L0,512L343.77,256L0,0Z" style="fill:white;"/>
            <path d="M131.957,114.662L159.228,205.028L256.633,205.882L179.11,259.745L208.406,352.631L133.228,295.551L53.932,352.117L84.986,262.975L6.677,205.044L101.064,207.029L131.957,114.662Z" style="fill:rgb(214,36,25);"/>
            <path d="M50.042,166.226C51.699,163.241 52.03,161.583 60.654,157.934C71.929,125.102 100.783,138.036 116.702,183.471C131.294,189.772 218.516,254.774 217.19,258.422C216.527,261.739 205.582,259.086 205.582,259.086C205.582,259.086 188.337,332.711 188.006,332.711C155.835,328.4 105.757,327.736 71.595,328.4C71.926,322.761 62.309,285.949 62.309,285.949C62.309,285.949 54.017,283.296 67.947,255.106C82.871,219.621 85.856,161.914 50.039,166.226L50.042,166.226Z" style="fill:rgb(247,223,0);stroke:black;stroke-width:1.47px;"/>
            <path d="M79.55,152.953C79.55,154.955 77.903,156.601 75.902,156.601C73.9,156.601 72.253,154.955 72.253,152.953C72.253,150.952 73.9,149.305 75.901,149.305C77.902,149.305 79.549,150.952 79.549,152.953L79.55,152.953ZM115.704,183.472C115.704,183.472 87.182,199.722 78.891,199.39M205.58,259.084C203.59,257.425 99.789,252.451 104.096,217.296M120.679,259.745C120.679,259.745 131.954,266.378 141.571,249.132M133.28,259.414C133.28,259.414 141.24,266.71 152.848,250.792M62.644,285.95C62.644,285.95 69.939,286.945 71.267,282.633M97.126,328.73C97.126,328.399 89.83,281.636 89.83,281.636C125.869,284.842 163.234,285.064 197.943,291.255" style="fill:none;fill-rule:nonzero;stroke:black;stroke-width:1.47px;"/>
            <path d="M93.483,282.296L103.431,293.903L113.713,283.953L122.335,293.24M124.993,293.577L133.615,285.949L142.902,294.903M144.551,294.898L154.169,286.276L161.465,294.899M165.451,295.238L174.074,289.268L181.701,296.565M187.672,296.23L193.973,290.26" style="fill:none;fill-rule:nonzero;stroke:black;stroke-width:1.47px;"/>
            <path d="M91.821,292.906L102.434,305.178L113.046,295.559L122.332,305.509L132.945,296.223L141.9,306.835L152.844,297.549C152.844,297.549 161.134,307.83 162.13,307.83C163.126,307.83 173.074,299.208 173.074,299.208L182.692,309.82L195.957,299.208M93.483,304.847C93.483,304.847 179.047,308.164 192.975,311.481M107.746,266.05C107.746,266.05 188.998,270.362 201.933,275.336" style="fill:none;fill-rule:nonzero;stroke:black;stroke-width:1.47px;"/>
            <path d="M91.16,232.218C91.824,237.193 85.854,254.438 79.554,260.408C70.93,267.373 71.925,281.965 71.925,281.965C72.92,287.935 85.855,287.271 87.513,284.287C88.839,270.689 103.431,267.704 103.431,267.704C103.431,267.704 123.662,262.067 132.285,245.153M131.95,275.33C131.95,277.695 130.003,279.642 127.638,279.642C125.273,279.642 123.326,277.695 123.326,275.33C123.326,272.965 125.272,271.019 127.637,271.019C130.003,271.019 131.949,272.965 131.949,275.33L131.95,275.33ZM151.187,276.99C151.187,276.99 151.187,276.99 151.187,276.991C151.187,279.355 149.241,281.302 146.876,281.302C144.511,281.302 142.565,279.356 142.565,276.991C142.565,274.626 144.511,272.68 146.876,272.68C149.241,272.68 151.187,274.626 151.187,276.991L151.187,276.99Z" style="fill:none;fill-rule:nonzero;stroke:black;stroke-width:1.47px;"/>
        </g>
    </g>
</svg>
