<?xml version="1.0" encoding="UTF-8" standalone="no"?>
<!DOCTYPE svg PUBLIC "-//W3C//DTD SVG 1.1//EN" "http://www.w3.org/Graphics/SVG/1.1/DTD/svg11.dtd">
<svg width="100%" height="100%" viewBox="0 0 640 480" version="1.1" xmlns="http://www.w3.org/2000/svg" xmlns:xlink="http://www.w3.org/1999/xlink" xml:space="preserve" xmlns:serif="http://www.serif.com/" style="fill-rule:evenodd;clip-rule:evenodd;">
    <g transform="matrix(0.94,0,0,0.94,83.48,0)">
        <clipPath id="_clip1">
            <rect x="-89.048" y="0" width="682.67" height="512"/>
        </clipPath>
        <g clip-path="url(#_clip1)">
            <rect x="-113.43" y="0" width="731.43" height="512" style="fill:rgb(186,0,0);"/>
            <path d="M241.874,247.803C241.874,247.803 190.254,225.577 197.661,167.986C204.833,140.263 217.498,121.384 240.441,111.108C251.194,107.762 262.189,106.328 273.421,105.372C270.471,108.16 268.004,110.949 266.729,114.454C264.259,120.747 266.091,126.801 269.357,132.854C273.499,139.864 275.967,147.114 276.765,156.514C278.278,169.737 272.623,182.484 262.187,190.211C255.575,195.311 247.769,197.063 241.395,202.878C236.457,207.738 233.43,212.598 232.315,221.04C232.155,237.13 236.538,239.362 241.875,247.806L241.874,247.803Z" style="fill:white;"/>
            <path d="M232.076,164.476L232.076,164.238" style="fill:none;stroke:black;stroke-width:2.15px;"/>
            <path d="M235.337,241.823C215.259,224.057 217.014,179.373 232.31,164.476" style="fill:none;fill-rule:nonzero;stroke:rgb(186,0,0);stroke-width:2.15px;"/>
            <path d="M244.634,154.48L247.934,159.998L241.814,157.505L237.24,162.415L238.04,155.97L231.914,153.486L238.528,151.996L239.315,145.55L242.605,151.075L249.215,149.575" style="fill:rgb(186,0,0);"/>
            <path d="M246.26,243.992C246.26,243.992 252.385,188.126 309.62,178.332C338.227,177.065 359.988,183.642 376.536,202.566C382.886,211.868 387.478,221.959 391.683,232.418C388.153,230.416 384.765,228.873 381.04,228.682C374.3,228.164 369.048,231.69 364.216,236.586C358.728,242.601 352.52,247.084 343.766,250.601C331.566,255.924 317.722,254.251 307.276,246.538C300.466,241.71 296.502,234.761 289.076,230.37C282.981,227.072 277.446,225.602 269.048,227.01C253.616,231.572 252.768,236.416 246.258,243.993L246.26,243.992Z" style="fill:white;"/>
            <path d="M323.06,210.208L323.287,210.138" style="fill:none;stroke:black;stroke-width:2.15px;"/>
            <path d="M250.062,235.99C261.166,211.588 304.402,200.172 323.128,210.43" style="fill:none;fill-rule:nonzero;stroke:rgb(186,0,0);stroke-width:2.15px;"/>
            <path d="M336.298,219.285L331.988,224.055L332.578,217.475L326.543,214.541L332.939,213.418L333.519,206.834L336.881,212.721L343.274,211.584L338.956,216.348L342.328,222.228" style="fill:rgb(186,0,0);"/>
            <path d="M250.118,248.027C250.118,248.027 305.038,236.092 332.5,287.252C342.787,313.975 343.462,336.699 330.773,358.4C323.97,367.375 315.859,374.935 307.278,382.244C308.055,378.261 308.442,374.557 307.44,370.964C305.79,364.409 300.78,360.549 294.602,357.524C287.156,354.228 280.932,349.766 274.818,342.584C265.898,332.704 263.086,319.046 267.082,306.692C269.497,298.699 274.829,292.735 276.632,284.298C277.824,277.472 277.46,271.758 273.458,264.241C264.231,251.058 259.368,251.791 250.116,248.026L250.118,248.027Z" style="fill:white;"/>
            <path d="M306.543,310.12L306.683,310.313" style="fill:none;stroke:black;stroke-width:2.15px;"/>
            <path d="M258.913,249.09C285.578,251.87 310.133,289.24 306.353,310.255" style="fill:none;fill-rule:nonzero;stroke:rgb(186,0,0);stroke-width:2.15px;"/>
            <path d="M302.14,325.555L296.247,322.983L302.677,321.453L303.541,314.799L306.639,320.505L313.067,318.965L308.552,324.023L311.662,329.723L305.774,327.143L301.267,332.207" style="fill:rgb(186,0,0);"/>
            <g>
                <path d="M248.88,253.69C248.88,253.69 275.76,303.048 234.37,343.773C211.612,361.153 189.992,368.18 165.6,362.096C155.076,358.086 145.543,352.426 136.118,346.243C140.158,345.87 143.822,345.201 146.988,343.231C152.818,339.808 155.115,333.914 156.285,327.136C157.355,319.064 159.89,311.838 165.067,303.952C172.042,292.617 184.362,286.082 197.342,286.449C205.692,286.523 212.912,289.964 221.517,289.326C228.402,288.553 233.784,286.599 239.875,280.646C249.937,268.089 247.867,263.626 248.883,253.69L248.88,253.69Z" style="fill:white;"/>
                <path d="M205.134,325.283L204.987,325.471" style="fill:none;stroke:black;stroke-width:2.15px;"/>
                <path d="M250.33,262.43C255.153,288.803 226.18,322.866 204.95,325.138" style="fill:none;fill-rule:nonzero;stroke:rgb(186,0,0);stroke-width:2.15px;"/>
                <path d="M189.083,325.392L189.896,319.014L193.171,324.754L199.801,323.714L195.191,328.291L198.475,334.028L192.355,331.116L187.755,335.7L188.579,329.323L182.452,326.421" style="fill:rgb(186,0,0);"/>
            </g>
            <g>
                <path d="M242.792,252.62C242.792,252.62 205.17,294.37 153.006,268.865C129.053,253.173 115.24,235.117 112.876,210.091C113.159,198.833 115.33,187.961 118.031,177.017C119.726,180.703 121.574,183.937 124.485,186.269C129.651,190.629 135.975,190.837 142.755,189.689C150.725,188.016 158.382,188.006 167.54,190.269C180.548,193.082 190.804,202.529 194.772,214.894C197.477,222.794 196.63,230.748 200.092,238.651C203.108,244.888 206.739,249.315 214.376,253.081C229.564,258.401 233.086,254.966 242.796,252.621L242.792,252.62Z" style="fill:white;"/>
                <path d="M160.732,235.146L160.506,235.07" style="fill:none;stroke:black;stroke-width:2.15px;"/>
                <path d="M235.03,256.89C211.76,270.202 170.004,254.194 160.807,234.925" style="fill:none;fill-rule:nonzero;stroke:rgb(186,0,0);stroke-width:2.15px;"/>
                <path d="M155.296,220.043L161.582,218.691L157.255,223.688L160.438,229.595L154.591,226.769L150.271,231.771L150.985,225.031L145.133,222.215L151.421,220.875L152.123,214.131" style="fill:rgb(186,0,0);"/>
            </g>
        </g>
    </g>
</svg>
