<?xml version="1.0" encoding="UTF-8" standalone="no"?>
<!DOCTYPE svg PUBLIC "-//W3C//DTD SVG 1.1//EN" "http://www.w3.org/Graphics/SVG/1.1/DTD/svg11.dtd">
<svg width="100%" height="100%" viewBox="0 0 640 480" version="1.1" xmlns="http://www.w3.org/2000/svg" xmlns:xlink="http://www.w3.org/1999/xlink" xml:space="preserve" xmlns:serif="http://www.serif.com/" style="fill-rule:evenodd;clip-rule:evenodd;stroke-linejoin:round;stroke-miterlimit:2;">
    <g transform="matrix(0.9375,0,0,0.9375,110.46,0)">
        <clipPath id="_clip1">
            <rect x="-117.82" y="0" width="682.67" height="512"/>
        </clipPath>
        <g clip-path="url(#_clip1)">
            <g>
                <rect x="-117.82" y="0" width="1024" height="170.667"/>
                <rect x="-117.82" y="170.667" width="1024" height="170.667" style="fill:white;"/>
                <rect x="-117.82" y="341.334" width="1024" height="170.667" style="fill:rgb(0,153,0);"/>
                <path d="M-117.82,512.001L394.181,256.001L-117.82,0L-117.82,512.001Z" style="fill:rgb(255,0,0);"/>
                <path d="M24.528,288.964L30.192,264.144L4.743,264.144L27.671,253.099L11.804,233.199L34.734,244.249L40.398,219.429L46.059,244.249L68.989,233.199L53.123,253.099L76.053,264.144L50.602,264.144L56.265,288.964L40.398,269.044L24.528,288.964Z" style="fill:white;"/>
            </g>
        </g>
    </g>
</svg>
