<?xml version="1.0" encoding="UTF-8" standalone="no"?>
<!DOCTYPE svg PUBLIC "-//W3C//DTD SVG 1.1//EN" "http://www.w3.org/Graphics/SVG/1.1/DTD/svg11.dtd">
<svg width="100%" height="100%" viewBox="0 0 640 480" version="1.1" xmlns="http://www.w3.org/2000/svg" xmlns:xlink="http://www.w3.org/1999/xlink" xml:space="preserve" xmlns:serif="http://www.serif.com/" style="fill-rule:evenodd;clip-rule:evenodd;">
    <g transform="matrix(0.9375,0,0,0.9375,-40,0)">
        <clipPath id="_clip1">
            <rect x="42.666" y="0" width="682.67" height="512"/>
        </clipPath>
        <g clip-path="url(#_clip1)">
            <rect x="0" y="0" width="768" height="512" style="fill:rgb(0,78,0);"/>
            <g>
                <path d="M260.573,171.885L274.693,171.885" style="fill:none;"/>
                <path d="M263.306,137.494C291.206,150.947 324.426,137.43 336.445,118.857C348.768,101.525 350.281,72.42 328.977,45.717C362.047,73.142 369.356,104.23 352.904,129.83C330.96,159.084 282.277,158.237 263.306,137.494Z" style="fill:white;"/>
                <path d="M312.835,69.431L318.449,69.503L314.006,73.031L315.672,78.551L311.039,75.288L306.452,78.627L308.035,73.084L303.536,69.631L309.146,69.464L310.946,63.991L312.835,69.431ZM285.123,104.173L290.738,104.244L286.294,107.773L287.96,113.292L283.327,110.03L278.74,113.368L280.323,107.825L275.824,104.373L281.434,104.206L283.234,98.732L285.123,104.173ZM286.95,76.753L292.564,76.824L288.121,80.353L289.787,85.873L285.154,82.61L280.567,85.948L282.15,80.405L277.651,76.953L283.261,76.786L285.061,71.312L286.95,76.753ZM286.95,49.317L292.564,49.389L288.121,52.917L289.787,58.437L285.154,55.174L280.567,58.513L282.15,52.97L277.651,49.517L283.261,49.351L285.061,43.877L286.95,49.317ZM256.152,84.066L261.767,84.138L257.323,87.666L258.989,93.186L254.356,89.924L249.769,93.262L251.352,87.719L246.853,84.266L252.463,84.1L254.263,78.626L256.152,84.066Z" style="fill:rgb(254,255,255);"/>
            </g>
            <rect x="47.542" y="0" width="164.568" height="511.984" style="fill:rgb(152,0,0);"/>
            <g>
                <path d="M47.542,133.481L47.542,129.824L54.345,120.681L52.974,118.853L57.088,113.367L55.717,111.539L52.974,115.196L51.602,113.367L61.202,100.567L62.573,102.397L61.203,104.225L64.029,107.919L70.802,98.739L63.915,89.843L61.202,93.253L62.573,95.083L61.203,96.911L51.603,84.111L52.973,82.283L55.717,85.94L57.087,84.111L52.974,78.625L54.345,76.797L47.542,67.655L47.542,63.997L57.088,76.797L55.717,78.625L59.831,84.111L57.088,87.768L59.831,91.425L63.945,85.94L73.599,98.957L63.945,111.539L59.831,106.053L57.088,109.711L59.831,113.367L55.717,118.853L57.087,120.681L47.542,133.481Z" style="fill:rgb(230,153,0);"/>
                <path d="M47.541,87.77L48.913,91.426L48.913,96.912L53.027,96.912L55.77,98.74L53.027,100.569L48.913,100.569L48.913,106.054L47.541,109.712L47.541,87.769L47.541,87.77Z" style="fill:rgb(230,153,0);"/>
            </g>
            <g>
                <path d="M47.542,221.25L47.542,217.593L54.345,208.45L52.974,206.622L57.088,201.136L55.717,199.308L52.974,202.965L51.602,201.136L61.202,188.336L62.573,190.165L61.203,191.994L64.029,195.688L70.802,186.508L63.915,177.612L61.202,181.022L62.573,182.851L61.203,184.679L51.603,171.879L52.973,170.051L55.717,173.709L57.087,171.879L52.974,166.394L54.345,164.566L47.542,155.423L47.542,151.766L57.088,164.566L55.717,166.394L59.831,171.88L57.088,175.537L59.831,179.194L63.945,173.709L73.599,186.726L63.945,199.308L59.831,193.822L57.088,197.479L59.831,201.136L55.717,206.622L57.087,208.45L47.542,221.25Z" style="fill:rgb(230,153,0);"/>
                <path d="M47.541,175.538L48.913,179.195L48.913,184.68L53.027,184.68L55.77,186.51L53.027,188.338L48.913,188.338L48.913,193.823L47.541,197.48L47.541,175.538Z" style="fill:rgb(230,153,0);"/>
            </g>
            <g>
                <path d="M47.543,309.02L47.543,305.363L54.346,296.22L52.975,294.392L57.089,288.906L55.718,287.078L52.975,290.734L51.603,288.906L61.203,276.106L62.574,277.935L61.204,279.764L64.03,283.458L70.803,274.278L63.916,265.381L61.203,268.792L62.574,270.621L61.204,272.449L51.604,259.649L52.974,257.821L55.718,261.478L57.088,259.65L52.975,254.164L54.346,252.336L47.543,243.193L47.543,239.536L57.089,252.336L55.718,254.164L59.832,259.65L57.089,263.307L59.832,266.964L63.946,261.478L73.6,274.496L63.946,287.078L59.832,281.592L57.089,285.249L59.832,288.906L55.718,294.392L57.088,296.22L47.543,309.02Z" style="fill:rgb(230,153,0);"/>
                <path d="M47.542,263.308L48.914,266.965L48.914,272.45L53.028,272.45L55.771,274.279L53.028,276.107L48.914,276.107L48.914,281.593L47.542,285.25L47.542,263.308Z" style="fill:rgb(230,153,0);"/>
            </g>
            <g>
                <path d="M47.543,391.3L47.543,387.643L54.346,378.5L52.975,376.672L57.089,371.186L55.718,369.358L52.975,373.014L51.603,371.186L61.203,358.386L62.574,360.215L61.204,362.044L64.03,365.738L70.803,356.558L63.916,347.661L61.203,351.072L62.574,352.901L61.204,354.729L51.604,341.929L52.974,340.101L55.718,343.758L57.088,341.93L52.975,336.444L54.346,334.616L47.543,325.473L47.543,321.816L57.089,334.616L55.718,336.444L59.832,341.93L57.089,345.587L59.832,349.244L63.946,343.758L73.6,356.776L63.946,369.358L59.832,363.872L57.089,367.529L59.832,371.186L55.718,376.672L57.088,378.5L47.543,391.3Z" style="fill:rgb(230,153,0);"/>
                <path d="M47.542,345.588L48.914,349.245L48.914,354.73L53.028,354.73L55.771,356.56L53.028,358.387L48.914,358.387L48.914,363.873L47.542,367.53L47.542,345.588Z" style="fill:rgb(230,153,0);"/>
            </g>
            <g>
                <path d="M212.106,133.481L212.106,129.824L205.303,120.681L206.675,118.853L202.561,113.367L203.931,111.539L206.675,115.196L208.046,113.367L198.446,100.567L197.076,102.397L198.446,104.225L195.619,107.919L188.847,98.739L195.733,89.843L198.446,93.253L197.076,95.083L198.446,96.911L208.046,84.111L206.675,82.283L203.932,85.94L202.561,84.111L206.675,78.625L205.303,76.797L212.106,67.655L212.106,63.997L202.561,76.797L203.931,78.625L199.818,84.111L202.561,87.768L199.818,91.425L195.703,85.94L186.05,98.957L195.703,111.539L199.818,106.053L202.561,109.711L199.818,113.367L203.932,118.853L202.561,120.681L212.106,133.481Z" style="fill:rgb(230,153,0);"/>
                <path d="M212.107,87.77L210.736,91.426L210.736,96.912L206.622,96.912L203.879,98.74L206.622,100.569L210.736,100.569L210.736,106.054L212.107,109.712L212.107,87.769L212.107,87.77Z" style="fill:rgb(230,153,0);"/>
            </g>
            <g>
                <path d="M212.56,221.251L212.56,217.594L205.757,208.451L207.129,206.623L203.015,201.137L204.386,199.309L207.129,202.966L208.5,201.137L198.9,188.337L197.53,190.166L198.9,191.995L196.074,195.689L189.301,186.509L196.187,177.613L198.901,181.023L197.529,182.852L198.901,184.68L208.501,171.88L207.129,170.052L204.386,173.71L203.015,171.88L207.129,166.395L205.757,164.567L212.56,155.424L212.56,151.767L203.015,164.567L204.386,166.395L200.272,171.881L203.015,175.538L200.272,179.195L196.158,173.71L186.504,186.727L196.158,199.309L200.272,193.823L203.015,197.48L200.272,201.137L204.386,206.623L203.015,208.451L212.56,221.251Z" style="fill:rgb(230,153,0);"/>
                <path d="M212.561,175.54L211.19,179.196L211.19,184.681L207.076,184.681L204.333,186.511L207.076,188.339L211.19,188.339L211.19,193.824L212.561,197.482L212.561,175.539L212.561,175.54Z" style="fill:rgb(230,153,0);"/>
            </g>
            <g>
                <path d="M212.106,309.02L212.106,305.363L205.303,296.22L206.675,294.392L202.561,288.906L203.931,287.078L206.675,290.734L208.046,288.906L198.446,276.106L197.076,277.935L198.446,279.764L195.619,283.458L188.847,274.278L195.733,265.381L198.446,268.792L197.076,270.621L198.446,272.449L208.046,259.649L206.675,257.821L203.932,261.478L202.561,259.65L206.675,254.164L205.303,252.336L212.106,243.193L212.106,239.536L202.561,252.336L203.931,254.164L199.818,259.65L202.561,263.307L199.818,266.964L195.703,261.478L186.05,274.496L195.703,287.078L199.818,281.592L202.561,285.249L199.818,288.906L203.932,294.392L202.561,296.22L212.106,309.02Z" style="fill:rgb(230,153,0);"/>
                <path d="M212.107,263.308L210.736,266.965L210.736,272.45L206.622,272.45L203.879,274.279L206.622,276.107L210.736,276.107L210.736,281.593L212.107,285.25L212.107,263.308Z" style="fill:rgb(230,153,0);"/>
            </g>
            <g>
                <path d="M212.106,391.3L212.106,387.643L205.303,378.5L206.675,376.672L202.561,371.186L203.931,369.358L206.675,373.014L208.046,371.186L198.446,358.386L197.076,360.215L198.446,362.044L195.619,365.738L188.847,356.558L195.733,347.661L198.446,351.072L197.076,352.901L198.446,354.729L208.046,341.929L206.675,340.101L203.932,343.758L202.561,341.93L206.675,336.444L205.303,334.616L212.106,325.473L212.106,321.816L202.561,334.616L203.931,336.444L199.818,341.93L202.561,345.587L199.818,349.244L195.703,343.758L186.05,356.776L195.703,369.358L199.818,363.872L202.561,367.529L199.818,371.186L203.932,376.672L202.561,378.5L212.106,391.3Z" style="fill:rgb(230,153,0);"/>
                <path d="M212.107,345.588L210.736,349.245L210.736,354.73L206.622,354.73L203.879,356.56L206.622,358.387L210.736,358.387L210.736,363.873L212.107,367.53L212.107,345.588Z" style="fill:rgb(230,153,0);"/>
            </g>
            <g>
                <path d="M47.545,34.742L47.545,31.084L54.348,21.941L52.977,20.113L57.091,14.627L55.72,12.8L52.977,16.457L51.606,14.628L61.206,1.828L62.576,3.657L61.206,5.486L64.032,9.18L70.805,0L73.602,0L63.948,12.8L59.834,7.314L57.091,10.971L59.834,14.628L55.72,20.114L57.091,21.942L47.545,34.742ZM47.545,0L55.774,0L53.03,1.83L48.916,1.83L48.916,7.315L47.544,10.972L47.544,0.001L47.545,0Z" style="fill:rgb(230,153,0);"/>
            </g>
            <g>
                <path d="M212.103,34.742L212.103,31.084L205.3,21.941L206.672,20.113L202.557,14.627L203.929,12.799L206.672,16.456L208.043,14.627L198.443,1.827L197.072,3.656L198.443,5.485L195.616,9.179L188.844,0L186.046,0L195.7,12.8L199.815,7.314L202.557,10.971L199.815,14.628L203.929,20.114L202.557,21.942L212.103,34.742ZM212.103,0L203.875,0L206.617,1.829L210.731,1.829L210.731,7.314L212.103,10.971L212.103,0Z" style="fill:rgb(230,153,0);"/>
            </g>
            <path d="M116.122,504.693C116.122,504.693 122.026,494.327 136.904,491.186C151.783,488.044 154.381,498.096 162.882,498.096C171.384,498.096 184.846,491.186 184.846,491.186C184.846,491.186 171.384,504.379 160.993,504.065C150.602,503.751 147.059,497.155 136.432,498.097C125.804,499.039 116.122,505.007 116.122,504.693Z" style="fill:rgb(230,153,0);"/>
            <path d="M144.845,504.693C144.845,504.693 138.941,494.327 124.062,491.186C109.184,488.044 106.586,498.096 98.084,498.096C89.582,498.096 76.121,491.186 76.121,491.186C76.121,491.186 89.582,504.379 99.973,504.065C110.365,503.751 113.907,497.155 124.534,498.097C135.162,499.039 144.844,505.007 144.844,504.693L144.845,504.693Z" style="fill:rgb(230,153,0);"/>
            <g>
                <path d="M96.193,487.544C94.883,484.801 91.608,472.834 93.354,471.338C95.974,470.342 102.961,482.558 102.306,493.528C97.721,496.021 82.22,492.53 82.438,489.288C83.53,484.801 92.263,486.298 96.193,487.544Z" style="fill:rgb(230,153,0);"/>
                <path d="M86.824,477.085C85.967,474.041 84.616,461.431 86.556,460.447C89.274,460.193 94.219,474.069 91.88,484.623C87.008,485.8 72.38,478.118 73.096,475.007C74.859,470.917 83.172,474.784 86.824,477.085Z" style="fill:rgb(230,153,0);"/>
                <path d="M79.212,465.383C78.632,462.225 78.412,449.49 80.426,448.821C83.148,448.999 86.823,463.559 83.561,473.668C78.618,474.066 64.779,464.124 65.765,461.148C67.88,457.365 75.791,462.521 79.212,465.383Z" style="fill:rgb(230,153,0);"/>
                <path d="M73.21,452.922C73.004,449.682 74.267,437.055 76.335,436.81C79.003,437.548 80.94,452.692 76.543,462.005C71.614,461.377 59.097,448.695 60.418,445.958C62.947,442.658 70.162,449.387 73.21,452.922Z" style="fill:rgb(230,153,0);"/>
                <path d="M69.036,439.868C69.181,436.622 71.791,424.368 73.863,424.522C76.424,425.763 76.711,441.122 71.356,449.495C66.546,447.93 55.524,432.982 57.126,430.527C59.984,427.746 66.4,435.786 69.036,439.868Z" style="fill:rgb(230,153,0);"/>
                <path d="M70.2,425.014C69.846,438.012 67.484,438.164 63.171,428.557C61.263,424.927 61.027,409.853 62.747,409.291C65.233,409.24 70.133,419.99 70.201,425.014L70.2,425.014Z" style="fill:rgb(230,153,0);"/>
            </g>
            <g>
                <path d="M164.034,488.912C165.344,486.17 168.619,474.202 166.872,472.707C164.252,471.71 157.266,483.927 157.92,494.897C162.505,497.389 178.006,493.899 177.789,490.657C176.697,486.17 167.964,487.666 164.034,488.912Z" style="fill:rgb(230,153,0);"/>
                <path d="M173.402,478.453C174.259,475.409 175.611,462.799 173.671,461.816C170.952,461.562 166.008,475.438 168.347,485.991C173.219,487.168 187.846,479.487 187.131,476.375C185.368,472.285 177.054,476.152 173.402,478.453Z" style="fill:rgb(230,153,0);"/>
                <path d="M181.014,466.752C181.594,463.594 181.814,450.859 179.8,450.19C177.078,450.367 173.404,464.927 176.665,475.036C181.608,475.434 195.448,465.493 194.461,462.516C192.346,458.734 184.436,463.889 181.014,466.752Z" style="fill:rgb(230,153,0);"/>
                <path d="M187.016,454.29C187.223,451.05 185.959,438.424 183.892,438.179C181.224,438.917 179.286,454.061 183.683,463.373C188.613,462.745 201.129,450.063 199.808,447.327C197.28,444.027 190.064,450.755 187.016,454.29Z" style="fill:rgb(230,153,0);"/>
                <path d="M191.19,441.236C191.046,437.991 188.436,425.737 186.363,425.891C183.803,427.131 183.516,442.49 188.871,450.864C193.681,449.298 204.702,434.351 203.1,431.896C200.242,429.114 193.826,437.154 191.19,441.236Z" style="fill:rgb(230,153,0);"/>
                <path d="M190.026,426.383C190.38,439.381 192.743,439.533 197.055,429.925C198.964,426.295 199.199,411.222 197.479,410.66C194.994,410.608 190.094,421.358 190.026,426.383Z" style="fill:rgb(230,153,0);"/>
            </g>
            <g transform="matrix(0.99985,0,0,1.26515,188.276,-77.035)">
                <g transform="matrix(1.4884,0,0,1.24,3.502,-39.474)">
                    <path d="M-3.543,290.55L-8.858,290.55L-8.858,294.093L-14.173,294.093L-14.173,297.636L-35.433,297.636L-38.976,301.18L-37.205,302.951L-28.347,302.951L-26.575,301.18L-35.433,301.18L-33.661,299.408L-21.259,299.408L-26.574,304.723L-38.976,304.723L-42.52,302.951L-46.063,304.722L-58.465,304.723L-63.78,299.406L-51.378,299.408L-49.607,301.18L-58.465,301.178L-56.693,302.951L-47.835,302.951L-46.063,301.18L-49.607,297.636L-69.095,297.636L-69.095,294.093L-74.41,294.093L-74.41,290.55L-79.725,290.55L-79.725,274.605L-74.41,274.605L-74.41,271.062L-69.095,271.062L-69.095,267.519L-49.607,267.519L-46.063,263.975L-47.835,262.204L-56.693,262.204L-58.465,263.977L-49.607,263.975L-51.378,265.747L-63.78,265.749L-58.465,260.432L-46.063,260.433L-42.52,262.204L-38.976,260.432L-26.574,260.432L-21.259,265.747L-33.661,265.747L-35.433,263.975L-26.575,263.975L-28.347,262.204L-37.205,262.204L-38.976,263.975L-35.433,267.519L-14.173,267.519L-14.173,271.062L-8.858,271.062L-8.858,274.605L-3.543,274.605L-3.543,290.55Z" style="fill:rgb(152,0,0);stroke:black;stroke-width:0.13px;"/>
                </g>
                <g transform="matrix(0.74419,0,0,0.62,-392.03,-6.521)">
                    <path d="M375.59,499.67L375.59,524.473L386.219,524.473L386.219,531.492L396.849,531.492L396.849,538.579L432.282,538.579L446.456,549.209L460.629,538.579L499.605,538.579L499.605,531.56L510.235,531.492L510.235,524.405L520.865,524.405L520.865,499.602L510.235,499.602L510.235,492.516L499.605,492.584L499.605,485.429L460.629,485.429L446.456,474.799L432.282,485.429L396.849,485.429L396.849,492.584L386.219,492.584L386.219,499.67L375.59,499.67Z" style="fill:rgb(0,78,0);stroke:rgb(230,153,0);stroke-width:1.42px;"/>
                </g>
                <path d="M-75.6,296.644L-91.422,307.628L-91.422,296.644L-75.6,296.644ZM-43.97,296.644L-28.148,307.629L-28.148,296.644L-43.97,296.644ZM-75.6,325.208L-91.422,314.224L-91.422,325.208L-75.6,325.208ZM-43.965,325.208L-28.145,314.223L-28.145,325.208L-43.965,325.208ZM-38.689,303.233L-43.962,307.627L-33.415,307.627L-38.689,303.233ZM-80.877,303.233L-86.15,307.627L-75.603,307.627L-80.877,303.233ZM-80.877,318.622L-86.15,314.228L-75.603,314.228L-80.877,318.622ZM-38.687,318.622L-43.96,314.228L-33.413,314.228L-38.687,318.622Z" style="fill:rgb(152,0,0);"/>
                <path d="M-59.787,329.602L-65.06,325.208L-54.513,325.208L-59.787,329.602ZM-59.787,307.632L-65.06,303.238L-54.513,303.238L-59.787,307.632ZM-59.787,292.249L-65.06,296.643L-54.513,296.643L-59.787,292.249ZM-59.787,314.217L-65.06,318.611L-54.513,318.611L-59.787,314.217Z" style="fill:rgb(230,153,0);"/>
                <g transform="matrix(0.74419,0,0,0.62,-392.03,-6.521)">
                    <rect x="467.72" y="506.69" width="14.173" height="3.543" style="fill:rgb(230,153,0);stroke:black;stroke-width:0.13px;"/>
                </g>
                <g transform="matrix(0.74419,0,0,0.62,-392.03,-6.521)">
                    <path d="M414.57,510.24L421.657,510.24L421.657,513.783L414.57,513.783L414.57,510.24ZM471.26,510.24L478.347,510.24L478.347,513.783L471.26,513.783L471.26,510.24Z" style="fill:rgb(204,0,0);stroke:black;stroke-width:0.13px;"/>
                </g>
                <g transform="matrix(0.74419,0,0,0.62,-392.03,-6.521)">
                    <path d="M439.37,488.98L453.543,488.98L453.543,492.523L439.37,492.523L439.37,488.98ZM439.37,496.06L453.543,496.06L453.543,499.603L439.37,499.603L439.37,496.06Z" style="fill:rgb(153,0,0);stroke:black;stroke-width:0.13px;"/>
                </g>
                <g transform="matrix(0.74419,0,0,0.62,-392.03,-6.521)">
                    <path d="M435.83,492.52L457.09,492.52L457.09,496.063L435.83,496.063L435.83,492.52ZM439.37,524.41L453.543,524.41L453.543,527.953L439.37,527.953L439.37,524.41ZM439.37,531.5L453.543,531.5L453.543,535.043L439.37,535.043L439.37,531.5Z" style="fill:rgb(153,0,0);stroke:black;stroke-width:0.13px;"/>
                </g>
                <g transform="matrix(0.74419,0,0,0.62,-392.03,-6.521)">
                    <rect x="435.83" y="527.95" width="21.26" height="3.543" style="fill:rgb(153,0,0);stroke:black;stroke-width:0.13px;"/>
                </g>
                <g transform="matrix(0.74419,0,0,0.62,-392.03,-6.521)">
                    <path d="M467.72,513.78L481.893,513.78L481.893,517.323L467.72,517.323L467.72,513.78ZM411.02,506.69L425.193,506.69L425.193,510.233L411.02,510.233L411.02,506.69ZM411.02,513.78L425.193,513.78L425.193,517.323L411.02,517.323L411.02,513.78Z" style="fill:rgb(230,153,0);stroke:black;stroke-width:0.13px;"/>
                </g>
                <g transform="matrix(0.74419,0,0,0.62,-392.03,-6.521)">
                    <path d="M407.48,510.24L414.567,510.24L414.567,513.783L407.48,513.783L407.48,510.24ZM421.65,510.24L428.737,510.24L428.737,513.783L421.65,513.783L421.65,510.24ZM464.17,510.24L471.257,510.24L471.257,513.783L464.17,513.783L464.17,510.24ZM478.35,510.24L485.437,510.24L485.437,513.783L478.35,513.783L478.35,510.24Z" style="fill:rgb(230,153,0);stroke:black;stroke-width:0.13px;"/>
                </g>
                <g transform="matrix(0.74419,0,0,0.62,-374.14,-38.912)">
                    <circle cx="413.68" cy="581.99" r="0.886" style="fill:white;"/>
                </g>
                <g transform="matrix(0.74419,0,0,0.62,-367.57,-38.912)">
                    <circle cx="413.68" cy="581.99" r="0.886" style="fill:white;"/>
                </g>
                <g transform="matrix(0.74419,0,0,0.62,-361,-38.958)">
                    <circle cx="413.68" cy="581.99" r="0.886" style="fill:white;"/>
                </g>
                <g transform="matrix(0.74419,0,0,0.62,-371.51,-41.102)">
                    <circle cx="413.68" cy="581.99" r="0.886" style="fill:white;"/>
                </g>
                <g transform="matrix(0.74419,0,0,0.62,-363.68,-41.148)">
                    <circle cx="413.68" cy="581.99" r="0.886" style="fill:white;"/>
                </g>
                <g transform="matrix(0.74419,0,0,0.62,-371.57,-36.768)">
                    <circle cx="413.68" cy="581.99" r="0.886" style="fill:white;"/>
                </g>
                <g transform="matrix(0.74419,0,0,0.62,-363.68,-36.677)">
                    <circle cx="413.68" cy="581.99" r="0.886" style="fill:white;"/>
                </g>
                <g transform="matrix(0.74419,0,0,0.62,-353.17,-49.999)">
                    <circle cx="413.68" cy="581.99" r="0.886" style="fill:white;"/>
                </g>
                <g transform="matrix(0.74419,0,0,0.62,-346.59,-49.999)">
                    <circle cx="413.68" cy="581.99" r="0.886" style="fill:white;"/>
                </g>
                <g transform="matrix(0.74419,0,0,0.62,-340.02,-50.045)">
                    <circle cx="413.68" cy="581.99" r="0.886" style="fill:white;"/>
                </g>
                <g transform="matrix(0.74419,0,0,0.62,-350.54,-52.189)">
                    <circle cx="413.68" cy="581.99" r="0.886" style="fill:white;"/>
                </g>
                <g transform="matrix(0.74419,0,0,0.62,-342.71,-52.235)">
                    <circle cx="413.68" cy="581.99" r="0.886" style="fill:white;"/>
                </g>
                <g transform="matrix(0.74419,0,0,0.62,-350.59,-47.855)">
                    <circle cx="413.68" cy="581.99" r="0.886" style="fill:white;"/>
                </g>
                <g transform="matrix(0.74419,0,0,0.62,-342.71,-47.764)">
                    <circle cx="413.68" cy="581.99" r="0.886" style="fill:white;"/>
                </g>
                <g transform="matrix(0.74419,0,0,0.62,-374.2,-60.904)">
                    <circle cx="413.68" cy="581.99" r="0.886" style="fill:white;"/>
                </g>
                <g transform="matrix(0.74419,0,0,0.62,-367.62,-60.904)">
                    <circle cx="413.68" cy="581.99" r="0.886" style="fill:white;"/>
                </g>
                <g transform="matrix(0.74419,0,0,0.62,-361.05,-60.949)">
                    <circle cx="413.68" cy="581.99" r="0.886" style="fill:white;"/>
                </g>
                <g transform="matrix(0.74419,0,0,0.62,-371.57,-63.094)">
                    <circle cx="413.68" cy="581.99" r="0.886" style="fill:white;"/>
                </g>
                <g transform="matrix(0.74419,0,0,0.62,-363.74,-63.139)">
                    <circle cx="413.68" cy="581.99" r="0.886" style="fill:white;"/>
                </g>
                <g transform="matrix(0.74419,0,0,0.62,-371.62,-58.759)">
                    <circle cx="413.68" cy="581.99" r="0.886" style="fill:white;"/>
                </g>
                <g transform="matrix(0.74419,0,0,0.62,-363.74,-58.668)">
                    <circle cx="413.68" cy="581.99" r="0.886" style="fill:white;"/>
                </g>
                <g transform="matrix(0.74419,0,0,0.62,-395.28,-49.817)">
                    <circle cx="413.68" cy="581.99" r="0.886" style="fill:white;"/>
                </g>
                <g transform="matrix(0.74419,0,0,0.62,-388.71,-49.817)">
                    <circle cx="413.68" cy="581.99" r="0.886" style="fill:white;"/>
                </g>
                <g transform="matrix(0.74419,0,0,0.62,-382.14,-49.862)">
                    <circle cx="413.68" cy="581.99" r="0.886" style="fill:white;"/>
                </g>
                <g transform="matrix(0.74419,0,0,0.62,-392.65,-52.007)">
                    <circle cx="413.68" cy="581.99" r="0.886" style="fill:white;"/>
                </g>
                <g transform="matrix(0.74419,0,0,0.62,-384.82,-52.052)">
                    <circle cx="413.68" cy="581.99" r="0.886" style="fill:white;"/>
                </g>
                <g transform="matrix(0.74419,0,0,0.62,-392.71,-47.672)">
                    <circle cx="413.68" cy="581.99" r="0.886" style="fill:white;"/>
                </g>
                <g transform="matrix(0.74419,0,0,0.62,-384.82,-47.581)">
                    <circle cx="413.68" cy="581.99" r="0.886" style="fill:white;"/>
                </g>
            </g>
            <path d="M138.895,255.755L143.43,253.63L147.965,255.755L138.895,255.755ZM125.291,255.755L129.826,253.63L134.36,255.755L125.291,255.755ZM111.687,255.755L116.222,253.63L120.756,255.755L111.686,255.755L111.687,255.755ZM138.895,206.885L143.43,209.01L147.965,206.885L138.895,206.885ZM125.291,206.885L129.826,209.01L134.36,206.885L125.291,206.885ZM111.687,206.885L116.222,209.01L120.756,206.885L111.686,206.885L111.687,206.885Z" style="fill:white;"/>
            <path d="M135.115,262.133L129.825,266.383L124.533,262.133L119.243,266.383L113.953,262.133L113.953,264.257L117.479,266.384L115.716,268.508L115.716,270.633L117.479,270.633L119.243,268.508L121.006,270.633L122.77,270.633L122.77,268.508L121.006,266.384L124.533,264.258L128.061,266.384L126.297,268.508L126.297,270.633L128.061,270.633L129.824,268.508L131.587,270.633L133.351,270.633L133.351,268.508L131.587,266.384L135.115,264.258L138.642,266.383L136.878,268.508L136.878,270.633L138.642,270.633L140.405,268.508L142.169,270.633L143.933,270.633L143.933,268.508L142.169,266.383L145.696,264.257L145.696,262.133L140.406,266.383L135.115,262.133ZM135.116,200.497L129.826,196.247L124.534,200.497L119.244,196.247L113.954,200.497L113.954,198.373L117.481,196.246L115.717,194.122L115.717,191.997L117.481,191.997L119.244,194.122L121.007,191.997L122.771,191.997L122.771,194.122L121.007,196.246L124.534,198.372L128.062,196.246L126.298,194.122L126.298,191.997L128.062,191.997L129.825,194.122L131.588,191.997L133.352,191.997L133.352,194.122L131.588,196.246L135.116,198.372L138.643,196.247L136.879,194.122L136.879,191.997L138.643,191.997L140.407,194.122L142.17,191.997L143.934,191.997L143.934,194.122L142.17,196.247L145.697,198.373L145.697,200.497L140.407,196.247L135.116,200.497ZM175.187,235.92L180.856,231.316L175.186,226.711L180.856,222.107L175.186,217.503L178.02,217.503L180.856,220.573L183.689,219.037L186.523,219.037L186.523,220.572L183.689,222.107L186.523,223.642L186.523,225.177L183.689,225.177L180.856,223.642L178.021,226.712L180.856,229.782L183.689,228.246L186.523,228.246L186.523,229.781L183.689,231.316L186.523,232.851L186.523,234.386L183.689,234.386L180.856,232.851L178.021,235.921L180.854,238.991L183.689,237.455L186.523,237.455L186.523,238.991L183.689,240.525L186.523,242.06L186.523,243.595L183.689,243.595L180.854,242.06L178.02,245.13L175.187,245.13L180.854,240.525L175.187,235.921L175.187,235.92ZM84.47,235.92L78.8,231.316L84.47,226.711L78.8,222.107L84.47,217.503L81.636,217.503L78.8,220.573L75.967,219.037L73.132,219.037L73.132,220.572L75.967,222.107L73.132,223.642L73.132,225.177L75.967,225.177L78.8,223.642L81.635,226.712L78.8,229.782L75.967,228.246L73.132,228.246L73.132,229.781L75.967,231.316L73.132,232.851L73.132,234.386L75.967,234.386L78.8,232.851L81.635,235.921L78.802,238.991L75.967,237.455L73.132,237.455L73.132,238.991L75.967,240.525L73.132,242.06L73.132,243.595L75.967,243.595L78.802,242.06L81.636,245.13L84.469,245.13L78.802,240.525L84.469,235.921L84.47,235.92Z" style="fill:rgb(0,78,0);"/>
            <g transform="matrix(1.2798,0,0,1.1995,211.45,-5.633)">
                <rect x="-26.575" y="214.37" width="1.772" height="1.772" style="fill:rgb(0,78,0);stroke:black;stroke-width:0.27px;"/>
            </g>
            <g transform="matrix(1.2798,0,0,1.1995,211.45,-5.633)">
                <path d="M-28.346,216.14L-26.574,216.14L-26.574,217.912L-28.346,217.912L-28.346,216.14ZM-37.205,225L-35.433,225L-35.433,226.772L-37.205,226.772L-37.205,225ZM-35.433,223.23L-33.661,223.23L-33.661,225.002L-35.433,225.002L-35.433,223.23ZM-93.898,223.23L-92.126,223.23L-92.126,225.002L-93.898,225.002L-93.898,223.23ZM-102.76,214.37L-100.988,214.37L-100.988,216.142L-102.76,216.142L-102.76,214.37ZM-100.98,216.14L-99.208,216.14L-99.208,217.912L-100.98,217.912L-100.98,216.14ZM-100.98,177.17L-99.208,177.17L-99.208,178.942L-100.98,178.942L-100.98,177.17ZM-102.76,178.94L-100.988,178.94L-100.988,180.712L-102.76,180.712L-102.76,178.94ZM-92.126,168.31L-90.354,168.31L-90.354,170.082L-92.126,170.082L-92.126,168.31Z" style="fill:rgb(0,78,0);stroke:black;stroke-width:0.27px;"/>
            </g>
            <g transform="matrix(1.2798,0,0,1.1995,211.45,-5.633)">
                <path d="M-93.898,170.08L-92.126,170.08L-92.126,171.852L-93.898,171.852L-93.898,170.08ZM-37.205,168.31L-35.433,168.31L-35.433,170.082L-37.205,170.082L-37.205,168.31ZM-35.433,170.08L-33.661,170.08L-33.661,171.852L-35.433,171.852L-35.433,170.08ZM-28.346,177.17L-26.574,177.17L-26.574,178.942L-28.346,178.942L-28.346,177.17Z" style="fill:rgb(0,78,0);stroke:black;stroke-width:0.27px;"/>
            </g>
            <g transform="matrix(1.2798,0,0,1.1995,211.45,-5.633)">
                <path d="M-26.575,178.94L-24.803,178.94L-24.803,180.712L-26.575,180.712L-26.575,178.94ZM-92.126,225L-90.354,225L-90.354,226.772L-92.126,226.772L-92.126,225Z" style="fill:rgb(0,78,0);stroke:black;stroke-width:0.27px;"/>
            </g>
            <path d="M122.907,231.314L116.224,231.313L116.223,227.136L120.679,227.139L120.679,223.222L125.136,223.222L125.136,219.626L129.592,219.626L129.592,224.121C125.902,224.121 122.907,227.167 122.907,231.314Z" style="fill:white;"/>
            <path d="M136.274,231.314L142.957,231.313L142.958,227.136L138.502,227.139L138.502,223.222L134.045,223.222L134.045,219.626L129.589,219.626L129.589,224.121C133.279,224.121 136.274,227.167 136.274,231.314Z" style="fill:rgb(230,153,0);"/>
            <path d="M136.274,231.314L142.957,231.314L142.958,235.491L138.502,235.489L138.502,239.405L134.045,239.405L134.045,243.002L129.589,243.002L129.589,238.506C133.279,238.506 136.274,235.461 136.274,231.314Z" style="fill:white;"/>
            <path d="M122.907,231.314L116.224,231.314L116.223,235.491L120.679,235.489L120.679,239.405L125.136,239.405L125.136,243.002L129.592,243.002L129.592,238.506C125.902,238.506 122.907,235.461 122.907,231.314Z" style="fill:rgb(230,153,0);"/>
            <path d="M136.273,231.317L129.589,231.317L129.589,224.124C133.279,224.124 136.273,227.347 136.273,231.317Z" style="fill:rgb(0,78,0);"/>
            <path d="M136.273,231.31L129.589,231.31L129.589,238.503C133.279,238.503 136.273,235.281 136.273,231.311L136.273,231.31Z" style="fill:rgb(152,0,0);"/>
            <path d="M122.908,231.31L129.592,231.31L129.592,238.503C125.902,238.503 122.908,235.281 122.908,231.311L122.908,231.31Z" style="fill:rgb(0,78,0);"/>
            <path d="M122.908,231.317L129.592,231.317L129.592,224.124C125.902,224.124 122.908,227.347 122.908,231.317Z" style="fill:rgb(152,0,0);"/>
            <path d="M136.627,257.876L129.825,253.625L123.023,257.875L116.221,253.625L109.419,257.875L109.419,255.751L113.954,253.625L111.686,251.5L111.686,249.375L113.954,249.375L116.221,251.5L118.488,249.375L120.756,249.375L120.756,251.5L118.488,253.625L123.023,255.75L127.558,253.625L125.29,251.5L125.29,249.375L127.558,249.375L129.825,251.5L132.092,249.375L134.36,249.375L134.36,251.5L132.092,253.625L136.627,255.75L141.162,253.626L138.895,251.5L138.895,249.375L141.162,249.375L143.429,251.5L145.696,249.375L147.964,249.375L147.964,251.5L145.696,253.626L150.231,255.751L150.231,257.876L143.429,253.626L136.627,257.876ZM136.627,204.757L129.825,209.007L123.023,204.757L116.221,209.007L109.419,204.757L109.419,206.881L113.954,209.008L111.686,211.132L111.686,213.258L113.954,213.258L116.221,211.132L118.488,213.258L120.756,213.258L120.756,211.132L118.488,209.008L123.023,206.882L127.558,209.008L125.29,211.132L125.29,213.258L127.558,213.258L129.825,211.132L132.092,213.258L134.36,213.258L134.36,211.132L132.092,209.008L136.627,206.882L141.162,209.007L138.895,211.132L138.895,213.258L141.162,213.258L143.429,211.132L145.696,213.258L147.964,213.258L147.964,211.132L145.696,209.007L150.231,206.881L150.231,204.757L143.429,209.007L136.627,204.757ZM161.562,236.626L158.16,231.313L161.562,226L158.16,220.687L161.562,215.375L159.862,215.375L158.16,218.917L156.46,217.145L154.759,217.145L154.759,218.917L156.459,220.687L154.759,222.458L154.759,224.229L156.459,224.229L158.159,222.459L159.861,226L158.16,229.542L156.46,227.772L154.759,227.772L154.759,229.542L156.459,231.313L154.759,233.083L154.759,234.855L156.459,234.855L158.159,233.084L159.861,236.626L158.161,240.168L156.46,238.397L154.759,238.397L154.759,240.168L156.459,241.939L154.759,243.709L154.759,245.481L156.459,245.481L158.161,243.71L159.861,247.252L161.561,247.252L158.161,241.939L161.561,236.626L161.562,236.626Z" style="fill:rgb(0,78,0);"/>
            <g transform="matrix(1.2798,0,0,1.1995,238.66,-5.632)">
                <path d="M-100.98,177.17L-108.067,184.256L-108.067,210.831L-100.98,217.918L-69.091,217.918L-62.004,210.831L-62.004,184.256L-69.091,177.17L-100.98,177.17ZM-102.752,171.854L-120.469,189.57L-120.469,205.515L-102.752,223.232L-67.319,223.232L-49.603,205.515L-49.603,189.57L-67.319,171.854L-102.752,171.854Z" style="fill:rgb(0,78,0);stroke:black;stroke-width:0.43px;"/>
            </g>
            <g transform="matrix(1.02384,0,0,0.79966,215.078,140.295)">
                <path d="M-93.898,147.05L-90.355,152.365L-86.811,147.05L-93.898,147.05Z" style="fill:rgb(230,153,0);stroke:black;stroke-width:0.27px;"/>
            </g>
            <g transform="matrix(1.02384,0,0,-0.79966,215.078,322.344)">
                <path d="M-93.898,147.05L-90.355,152.365L-86.811,147.05L-93.898,147.05Z" style="fill:rgb(230,153,0);stroke:black;stroke-width:0.27px;"/>
            </g>
            <g transform="matrix(1.02384,0,0,-0.79966,229.59,322.344)">
                <path d="M-93.898,147.05L-90.355,152.365L-86.811,147.05L-93.898,147.05Z" style="fill:rgb(230,153,0);stroke:black;stroke-width:0.27px;"/>
            </g>
            <g transform="matrix(1.02384,0,0,0.79966,229.59,140.295)">
                <path d="M-93.898,147.05L-90.355,152.365L-86.811,147.05L-93.898,147.05Z" style="fill:rgb(230,153,0);stroke:black;stroke-width:0.27px;"/>
            </g>
            <g transform="matrix(1.02384,0,0,-0.79966,207.823,322.344)">
                <path d="M-93.898,147.05L-90.355,152.365L-86.811,147.05L-93.898,147.05Z" style="fill:rgb(152,0,0);stroke:black;stroke-width:0.27px;"/>
            </g>
            <g transform="matrix(1.02384,0,0,-0.79966,222.334,322.344)">
                <path d="M-93.898,147.05L-90.355,152.365L-86.811,147.05L-93.898,147.05Z" style="fill:rgb(152,0,0);stroke:black;stroke-width:0.27px;"/>
            </g>
            <g transform="matrix(1.02384,0,0,-0.79966,236.845,322.344)">
                <path d="M-93.898,147.05L-90.355,152.365L-86.811,147.05L-93.898,147.05Z" style="fill:rgb(152,0,0);stroke:black;stroke-width:0.27px;"/>
            </g>
            <g transform="matrix(1.9196,0,0,-1.7991,303.262,576.628)">
                <path d="M-104.53,180.71L-100.986,177.166L-104.53,177.166L-104.53,180.71Z" style="fill:rgb(152,0,0);stroke:black;stroke-width:0.27px;"/>
            </g>
            <path d="M98.084,236.626L101.486,231.313L98.084,226L101.486,220.687L98.084,215.375L99.784,215.375L101.486,218.917L103.186,217.145L104.886,217.145L104.886,218.917L103.186,220.687L104.886,222.458L104.886,224.229L103.186,224.229L101.486,222.459L99.785,226L101.485,229.542L103.185,227.772L104.886,227.772L104.886,229.542L103.186,231.313L104.886,233.083L104.886,234.855L103.186,234.855L101.486,233.084L99.785,236.626L101.485,240.168L103.185,238.397L104.886,238.397L104.886,240.168L103.186,241.939L104.886,243.709L104.886,245.481L103.186,245.481L101.485,243.71L99.784,247.252L98.084,247.252L101.484,241.939L98.084,236.626Z" style="fill:rgb(0,78,0);"/>
            <g transform="matrix(1.2798,0,0,1.07958,261.333,59.18)">
                <path d="M-76.181,154.13L-69.094,154.13L-67.323,155.902L-69.094,157.673L-76.181,157.673L-76.181,154.13Z" style="fill:rgb(152,0,0);stroke:black;stroke-width:0.27px;"/>
            </g>
            <g transform="matrix(1.2798,0,0,1.1995,229.59,-5.632)">
                <path d="M-99.213,180.71L-102.756,184.254L-102.756,210.829L-99.213,214.372L-104.529,214.372L-104.528,180.71L-99.213,180.71Z" style="fill:rgb(152,0,0);stroke:black;stroke-width:0.4px;"/>
            </g>
            <g transform="matrix(1.02384,0,0,0.79966,207.823,140.295)">
                <path d="M-93.898,147.05L-90.355,152.365L-86.811,147.05L-93.898,147.05Z" style="fill:rgb(152,0,0);stroke:black;stroke-width:0.27px;"/>
            </g>
            <g transform="matrix(1.02384,0,0,0.79966,222.334,140.295)">
                <path d="M-93.898,147.05L-90.355,152.365L-86.811,147.05L-93.898,147.05Z" style="fill:rgb(152,0,0);stroke:black;stroke-width:0.27px;"/>
            </g>
            <g transform="matrix(1.02384,0,0,0.79966,236.845,140.295)">
                <path d="M-93.898,147.05L-90.355,152.365L-86.811,147.05L-93.898,147.05Z" style="fill:rgb(152,0,0);stroke:black;stroke-width:0.27px;"/>
            </g>
            <g transform="matrix(-1.2798,0,0,1.1995,30.065,-5.632)">
                <path d="M-99.212,180.71L-102.756,184.254L-102.756,210.829L-99.212,214.372L-104.527,214.372L-104.527,180.71L-99.212,180.71Z" style="fill:rgb(152,0,0);stroke:black;stroke-width:0.4px;"/>
            </g>
            <g transform="matrix(-1.9196,0,0,-1.7991,-43.617,576.628)">
                <path d="M-104.53,180.71L-100.986,177.166L-104.53,177.166L-104.53,180.71Z" style="fill:rgb(152,0,0);stroke:black;stroke-width:0.27px;"/>
            </g>
            <g transform="matrix(-1.9196,0,0,1.7991,-43.617,-113.993)">
                <path d="M-104.53,180.71L-100.986,177.166L-104.53,177.166L-104.53,180.71Z" style="fill:rgb(152,0,0);stroke:black;stroke-width:0.27px;"/>
            </g>
            <g transform="matrix(1.9196,0,0,1.7991,303.262,-113.993)">
                <path d="M-104.53,180.71L-100.986,177.166L-104.53,177.166L-104.53,180.71Z" style="fill:rgb(152,0,0);stroke:black;stroke-width:0.27px;"/>
            </g>
            <g transform="matrix(1.2798,0,0,1.1995,238.66,-5.632)">
                <path d="M-100.98,177.17L-108.067,184.256L-108.067,210.831L-100.98,217.918L-69.091,217.918L-62.004,210.831L-62.004,184.256L-69.091,177.17L-100.98,177.17ZM-100.981,175.397L-109.839,184.255L-109.839,210.83L-100.98,219.688L-69.091,219.688L-60.233,210.83L-60.233,184.255L-69.092,175.397L-100.981,175.397Z" style="fill:rgb(0,78,0);stroke:black;stroke-width:0.43px;"/>
            </g>
            <g transform="matrix(1.2798,0,0,1.07965,261.332,62.992)">
                <path d="M-76.181,154.13L-69.094,154.13L-67.323,155.902L-69.094,157.673L-76.181,157.673L-76.181,154.13Z" style="fill:rgb(230,153,0);stroke:black;stroke-width:0.27px;"/>
            </g>
            <g transform="matrix(1.2798,0,0,1.07958,261.333,66.83)">
                <path d="M-76.181,154.13L-69.094,154.13L-67.323,155.902L-69.094,157.673L-76.181,157.673L-76.181,154.13Z" style="fill:rgb(152,0,0);stroke:black;stroke-width:0.27px;"/>
            </g>
            <g transform="matrix(1.2798,0,0,1.07965,261.333,70.642)">
                <path d="M-76.181,154.13L-69.094,154.13L-67.323,155.902L-69.094,157.673L-76.181,157.673L-76.181,154.13Z" style="fill:rgb(230,153,0);stroke:black;stroke-width:0.27px;"/>
            </g>
            <g transform="matrix(1.2798,0,0,1.07965,261.333,55.341)">
                <path d="M-76.181,154.13L-69.094,154.13L-67.323,155.902L-69.094,157.673L-76.181,157.673L-76.181,154.13Z" style="fill:rgb(230,153,0);stroke:black;stroke-width:0.27px;"/>
            </g>
            <g transform="matrix(-1.2798,0,0,1.07958,-1.682,59.18)">
                <path d="M-76.181,154.13L-69.094,154.13L-67.323,155.902L-69.094,157.673L-76.181,157.673L-76.181,154.13Z" style="fill:rgb(152,0,0);stroke:black;stroke-width:0.27px;"/>
            </g>
            <g transform="matrix(-1.2798,0,0,1.07965,-1.682,62.993)">
                <path d="M-76.181,154.13L-69.094,154.13L-67.323,155.902L-69.094,157.673L-76.181,157.673L-76.181,154.13Z" style="fill:rgb(230,153,0);stroke:black;stroke-width:0.27px;"/>
            </g>
            <g transform="matrix(-1.2798,0,0,1.07958,-1.682,66.83)">
                <path d="M-76.181,154.13L-69.094,154.13L-67.323,155.902L-69.094,157.673L-76.181,157.673L-76.181,154.13Z" style="fill:rgb(152,0,0);stroke:black;stroke-width:0.27px;"/>
            </g>
            <g transform="matrix(-1.2798,0,0,1.07965,-1.682,70.643)">
                <path d="M-76.181,154.13L-69.094,154.13L-67.323,155.902L-69.094,157.673L-76.181,157.673L-76.181,154.13Z" style="fill:rgb(230,153,0);stroke:black;stroke-width:0.27px;"/>
            </g>
            <g transform="matrix(-1.2798,0,0,1.07965,-1.682,55.343)">
                <path d="M-76.181,154.13L-69.094,154.13L-67.323,155.902L-69.094,157.673L-76.181,157.673L-76.181,154.13Z" style="fill:rgb(230,153,0);stroke:black;stroke-width:0.27px;"/>
            </g>
            <g transform="matrix(1.2798,0,0,1.1995,211.45,-5.633)">
                <path d="M-100.98,178.94L-100.98,216.145L-92.122,216.145L-92.122,225.003L-35.429,225.003L-35.429,216.145L-26.571,216.145L-26.571,178.94L-35.429,178.94L-35.429,170.082L-92.122,170.082L-92.122,178.94L-100.98,178.94ZM-99.209,180.712L-99.209,214.373L-90.35,214.373L-90.35,223.231L-37.2,223.231L-37.2,214.373L-28.342,214.373L-28.342,180.712L-37.2,180.712L-37.2,171.853L-90.35,171.853L-90.35,180.712L-99.209,180.712Z" style="fill:rgb(151,0,0);stroke:black;stroke-width:0.27px;"/>
            </g>
            <g>
                <g transform="matrix(1.2798,0,0,1.1535,222.785,-36.677)">
                    <path d="M-28.347,69.094L-33.662,62.007L-33.662,56.692L-38.977,51.378L-49.607,51.378L-58.465,46.063L-86.811,46.063L-95.67,51.378L-106.3,51.378L-111.615,56.693L-111.615,62.008L-116.93,69.094L-116.93,83.267L-111.615,90.354L-111.615,95.669L-106.3,100.984L-95.67,100.984L-86.811,106.299L-58.465,106.299L-49.607,100.983L-38.977,100.983L-33.662,95.669L-33.662,90.354L-28.347,83.267L-28.347,69.093L-28.347,69.094Z" style="fill:rgb(152,0,0);stroke:black;stroke-width:0.27px;"/>
                </g>
                <path d="M75.427,51.199L75.427,57.329L82.229,65.503L82.229,71.633L89.031,77.764L102.635,77.764L113.972,83.895L129.844,83.895L129.842,51.199L75.427,51.199Z" style="fill:rgb(230,153,0);"/>
                <path d="M110.69,65.498L102.409,70.753L97.462,70.753L99.112,72.504L95.814,76.008L97.462,77.759L102.409,76.008L104.058,77.759L104.82,73.079L113.951,67.539L110.691,65.498L110.69,65.498Z" style="fill:rgb(152,0,0);"/>
                <path d="M101.625,61.411L93.344,66.666L88.397,66.666L90.047,68.417L86.749,71.921L88.397,73.673L93.344,71.921L94.993,73.673L95.755,68.993L104.887,63.452L101.625,61.412L101.625,61.411ZM97.087,53.241L88.805,58.496L83.86,58.496L85.509,60.247L82.211,63.751L83.86,65.503L88.806,63.751L90.456,65.503L91.217,60.823L100.349,55.282L97.089,53.242L97.087,53.241Z" style="fill:rgb(152,0,0);"/>
                <path d="M184.224,51.199L184.224,45.068L177.422,36.894L177.422,30.764L170.62,24.633L157.016,24.633L145.679,18.503L129.807,18.503L129.809,51.199L184.224,51.199Z" style="fill:rgb(230,153,0);"/>
                <path d="M129.83,83.894L125.632,83.894L120.762,79.807L113.036,79.807L108.837,77.763L110.937,75.72L115.135,77.763L119.334,77.763L123.532,71.633L129.83,73.676L129.83,77.763L123.532,77.763L129.83,83.893L129.83,83.894Z" style="fill:rgb(152,0,0);"/>
                <path d="M75.427,51.199L75.427,45.068L82.229,36.894L82.229,30.764L89.031,24.633L102.635,24.633L113.972,18.503L129.844,18.503L129.842,51.199L75.427,51.199Z" style="fill:white;"/>
                <path d="M129.83,18.499L125.632,18.499L120.762,22.586L113.036,22.586L108.837,24.629L110.937,26.673L115.135,24.629L119.334,24.629L123.532,30.76L129.83,28.716L129.83,24.63L123.532,24.63L129.83,18.5L129.83,18.499Z" style="fill:rgb(152,0,0);"/>
                <path d="M129.826,18.499L134.025,18.499L138.895,22.586L146.621,22.586L150.819,24.629L148.72,26.673L144.521,24.629L140.323,24.629L136.124,30.76L129.826,28.716L129.826,24.63L136.124,24.63L129.826,18.5L129.826,18.499Z" style="fill:rgb(152,0,0);"/>
                <path d="M184.224,51.199L184.224,57.329L177.422,65.503L177.422,71.633L170.62,77.764L157.016,77.764L145.679,83.895L129.807,83.895L129.809,51.199L184.224,51.199Z" style="fill:white;"/>
                <path d="M129.826,83.894L134.025,83.894L138.895,79.807L146.621,79.807L150.819,77.763L148.72,75.72L144.521,77.763L140.323,77.763L136.124,71.633L129.826,73.676L129.826,77.763L136.124,77.763L129.826,83.893L129.826,83.894ZM101.625,40.978L93.344,35.723L88.397,35.723L90.047,33.972L86.749,30.468L88.397,28.716L93.344,30.468L94.993,28.716L95.755,33.396L104.887,38.937L101.625,40.977L101.625,40.978ZM148.96,36.895L157.242,31.639L162.189,31.639L160.539,29.889L163.837,26.385L162.189,24.633L157.242,26.385L155.593,24.633L154.831,29.313L145.7,34.853L148.96,36.895Z" style="fill:rgb(152,0,0);"/>
                <path d="M110.69,36.895L102.409,31.639L97.462,31.639L99.112,29.889L95.814,26.385L97.462,24.633L102.409,26.385L104.058,24.633L104.82,29.313L113.951,34.853L110.691,36.895L110.69,36.895ZM97.087,49.156L88.805,43.901L83.86,43.901L85.509,42.15L82.211,38.646L83.86,36.894L88.806,38.646L90.456,36.894L91.217,41.575L100.349,47.115L97.089,49.156L97.087,49.156Z" style="fill:rgb(152,0,0);"/>
                <path d="M79.453,51.209L81.553,51.209L83.653,53.252L85.753,51.209L129.838,51.207L129.838,79.82L127.739,79.82L129.839,81.864L129.839,83.907L123.541,77.777L123.541,75.733L125.64,75.733L125.64,77.777L127.74,77.777L127.74,75.733L110.693,66.707L96.333,66.707L96.333,57.85L89.951,53.253L85.752,53.253L83.652,55.296L85.752,57.341L83.652,57.341L79.453,51.21L79.453,51.209Z" style="fill:white;"/>
                <path d="M79.453,51.188L81.553,51.188L83.653,49.145L85.753,51.188L129.838,51.19L129.838,22.578L127.739,22.578L129.839,20.534L129.839,18.49L123.541,24.62L123.541,26.664L125.64,26.664L125.64,24.621L127.74,24.621L127.74,26.664L110.693,35.69L96.333,35.69L96.333,44.547L89.951,49.144L85.752,49.144L83.652,47.101L85.752,45.057L83.652,45.057L79.453,51.187L79.453,51.188Z" style="fill:rgb(230,153,0);"/>
                <path d="M89.025,51.187L129.836,51.187L129.836,75.71L111.698,65.492L98.095,65.492L98.095,57.318L89.025,51.187Z" style="fill:rgb(0,78,0);"/>
                <path d="M158.026,40.978L166.307,35.723L171.254,35.723L169.604,33.972L172.902,30.468L171.254,28.716L166.307,30.468L164.658,28.716L163.896,33.396L154.764,38.937L158.026,40.977L158.026,40.978ZM162.564,49.156L170.846,43.901L175.792,43.901L174.143,42.15L177.441,38.646L175.792,36.894L170.846,38.646L169.196,36.894L168.435,41.575L159.303,47.115L162.563,49.156L162.564,49.156Z" style="fill:rgb(152,0,0);"/>
                <path d="M180.198,51.188L178.098,51.188L175.998,49.145L173.898,51.188L129.813,51.19L129.813,22.578L131.912,22.578L129.812,20.534L129.812,18.49L136.11,24.62L136.11,26.664L134.011,26.664L134.011,24.621L131.911,24.621L131.911,26.664L148.958,35.69L163.318,35.69L163.318,44.547L169.7,49.144L173.899,49.144L175.999,47.101L173.899,45.057L175.999,45.057L180.198,51.187L180.198,51.188Z" style="fill:white;"/>
                <path d="M170.626,51.21L129.815,51.21L129.815,26.687L147.953,36.905L161.556,36.905L161.556,45.079L170.626,51.21Z" style="fill:rgb(0,78,0);"/>
                <path d="M148.96,65.498L157.242,70.753L162.189,70.753L160.539,72.504L163.837,76.008L162.189,77.759L157.242,76.008L155.593,77.759L154.831,73.079L145.7,67.539L148.96,65.498Z" style="fill:rgb(152,0,0);"/>
                <path d="M158.026,61.411L166.307,66.666L171.254,66.666L169.604,68.417L172.902,71.921L171.254,73.673L166.307,71.921L164.658,73.673L163.896,68.993L154.764,63.452L158.026,61.412L158.026,61.411ZM162.564,53.241L170.846,58.496L175.792,58.496L174.143,60.247L177.441,63.751L175.792,65.503L170.846,63.751L169.196,65.503L168.435,60.823L159.303,55.282L162.563,53.242L162.564,53.241Z" style="fill:rgb(152,0,0);"/>
                <path d="M180.198,51.209L178.098,51.209L175.998,53.252L173.898,51.209L129.813,51.207L129.813,79.82L131.912,79.82L129.812,81.864L129.812,83.907L136.11,77.777L136.11,75.733L134.011,75.733L134.011,77.777L131.911,77.777L131.911,75.733L148.958,66.707L163.318,66.707L163.318,57.85L169.7,53.253L173.899,53.253L175.999,55.296L173.899,57.341L175.999,57.341L180.198,51.21L180.198,51.209Z" style="fill:rgb(230,153,0);"/>
                <path d="M170.626,51.187L129.815,51.187L129.815,75.71L147.953,65.492L161.556,65.492L161.556,57.318L170.626,51.187Z" style="fill:rgb(152,0,0);"/>
                <path d="M89.025,51.21L129.836,51.21L129.836,26.687L111.698,36.905L98.095,36.905L98.095,45.079L89.025,51.21Z" style="fill:rgb(152,0,0);"/>
                <path d="M134.305,51.198L145.693,45.067L152.495,45.067L150.227,43.024L154.762,38.936L152.495,36.893L145.693,38.936L143.425,36.893L142.378,42.353L129.821,48.817L134.305,51.198ZM125.346,51.187L113.958,57.319L107.156,57.319L109.424,59.362L104.889,63.449L107.156,65.493L113.958,63.449L116.226,65.493L117.273,60.033L129.83,53.568L125.346,51.188L125.346,51.187Z" style="fill:rgb(152,0,0);"/>
                <path d="M125.346,51.198L113.958,45.067L107.156,45.067L109.424,43.024L104.889,38.936L107.156,36.893L113.958,38.936L116.226,36.893L117.273,42.353L129.83,48.817L125.346,51.198ZM134.305,51.187L145.693,57.319L152.495,57.319L150.227,59.362L154.762,63.449L152.495,65.493L145.693,63.449L143.425,65.493L142.378,60.033L129.821,53.568L134.305,51.188L134.305,51.187Z" style="fill:rgb(0,78,0);"/>
                <path d="M116.223,51.2L129.826,40.981L143.431,51.2L129.826,61.418L116.223,51.2Z" style="fill:white;"/>
                <path d="M85.742,55.282L87.842,57.325L85.742,59.369L83.642,59.369L77.344,51.195L79.444,51.195L83.642,57.325L85.742,57.325L83.642,55.282L85.742,53.238L89.94,53.238L89.94,55.282L85.742,55.282Z" style="fill:rgb(152,0,0);"/>
                <path d="M85.742,47.109L87.842,45.066L85.742,43.022L83.642,43.022L77.344,51.196L79.444,51.196L83.642,45.066L85.742,45.066L83.642,47.109L85.742,49.153L89.94,49.153L89.94,47.109L85.742,47.109ZM173.913,55.282L171.813,57.325L173.913,59.369L176.013,59.369L182.31,51.195L180.21,51.195L176.012,57.325L173.912,57.325L176.012,55.282L173.912,53.238L169.714,53.238L169.714,55.282L173.913,55.282Z" style="fill:rgb(152,0,0);"/>
                <path d="M173.913,47.109L171.813,45.066L173.913,43.022L176.013,43.022L182.31,51.196L180.21,51.196L176.012,45.066L173.912,45.066L176.012,47.109L173.912,49.153L169.714,49.153L169.714,47.109L173.913,47.109ZM127.727,43.022L131.925,43.022L131.925,59.37L127.727,59.37L127.727,43.022Z" style="fill:rgb(152,0,0);"/>
                <path d="M121.429,47.11L138.223,47.11L138.223,55.284L121.43,55.284L121.429,47.11Z" style="fill:rgb(152,0,0);"/>
            </g>
            <g>
                <g transform="matrix(3.555,0,0,3.847,-1073.16,-292.234)">
                    <path d="M333.07,170.08L322.44,175.395L322.44,184.253L333.07,189.568L343.7,189.568L354.33,184.253L354.33,175.395L343.7,170.08L333.07,170.08Z" style="fill:rgb(0,78,0);stroke:black;stroke-width:0.07px;"/>
                </g>
                <path d="M87.169,396.271L89.454,396.271L89.454,392.081L94.026,392.081L94.026,396.271L96.311,396.271L96.311,386.493L94.026,386.493L94.026,390.683L89.454,390.683L89.454,386.493L87.169,386.493L87.169,396.271ZM145.07,428.865L147.355,428.865L147.355,424.674L151.927,424.674L151.927,428.864L154.212,428.864L154.212,419.086L151.927,419.086L151.927,423.277L147.355,423.277L147.355,419.087L145.07,419.087L145.07,428.865ZM108.502,379.974L110.787,379.974L110.787,375.784L115.36,375.784L115.36,379.974L117.645,379.974L117.645,370.196L115.36,370.196L115.36,374.386L110.787,374.386L110.787,370.196L108.502,370.196L108.502,379.974ZM142.025,379.974L144.31,379.974L144.31,375.784L148.883,375.784L148.883,379.974L151.168,379.974L151.168,370.196L148.883,370.196L148.883,374.386L144.31,374.386L144.31,370.196L142.025,370.196L142.025,379.974ZM163.348,396.271L165.633,396.271L165.633,392.081L170.206,392.081L170.206,396.271L172.491,396.271L172.491,386.493L170.206,386.493L170.206,390.683L165.633,390.683L165.633,386.493L163.348,386.493L163.348,396.271ZM163.348,412.568L165.633,412.568L165.633,408.377L170.206,408.377L170.206,412.568L172.491,412.568L172.491,402.789L170.206,402.789L170.206,406.98L165.633,406.98L165.633,402.79L163.348,402.79L163.348,412.568Z" style="fill:rgb(204,0,0);"/>
                <path d="M129.827,435.389L129.827,399.534L184.683,399.534L184.683,415.832L148.113,435.389L129.827,435.389ZM129.828,363.672L129.828,399.529L74.972,399.529L74.972,383.23L111.542,363.672L129.828,363.672Z" style="fill:rgb(230,153,0);"/>
                <path d="M129.827,363.672L129.827,399.529L184.683,399.529L184.683,383.23L148.113,363.672L129.827,363.672ZM129.828,435.389L129.827,399.535L74.972,399.534L74.972,415.832L111.542,435.389L129.828,435.389Z" style="fill:white;"/>
                <g transform="matrix(1.0321,0,0,0.92,341.934,45.873)">
                    <path d="M-177.16,368.5L-155.901,368.5L-177.16,357.87L-177.16,368.5ZM-152.357,366.728L-152.358,384.445L-186.019,384.445L-186.019,370.272L-193.105,370.272L-201.963,364.957L-201.963,352.555L-196.649,347.24L-203.735,347.24L-203.735,364.957L-205.507,364.957L-205.507,345.468L-187.79,345.468L-152.357,366.728Z" style="fill:rgb(230,153,0);stroke:black;stroke-width:0.13px;"/>
                </g>
                <path d="M111.51,388.116L111.51,410.93L116.994,410.93L129.796,417.45L142.596,410.93L148.081,410.93L148.081,388.116L142.597,388.116L129.796,381.596L116.994,388.116L111.51,388.116Z" style="fill:rgb(152,0,0);"/>
                <g transform="matrix(-1.0321,0,0,-0.92,-82.279,753.19)">
                    <path d="M-177.16,368.5L-155.901,368.5L-177.16,357.87L-177.16,368.5ZM-152.357,366.728L-152.358,384.445L-186.019,384.445L-186.019,370.272L-193.105,370.272L-201.963,364.957L-201.963,352.555L-196.649,347.24L-203.735,347.24L-203.735,364.957L-205.507,364.957L-205.507,345.468L-187.79,345.468L-152.357,366.728Z" style="fill:rgb(230,153,0);stroke:black;stroke-width:0.13px;"/>
                </g>
                <g transform="matrix(-1.0321,0,0,0.92,-82.279,45.873)">
                    <path d="M-177.16,368.5L-155.901,368.5L-177.16,357.87L-177.16,368.5ZM-152.357,366.728L-152.358,384.445L-186.019,384.445L-186.019,370.272L-193.105,370.272L-201.963,364.957L-201.963,352.555L-196.649,347.24L-203.735,347.24L-203.735,364.957L-205.507,364.957L-205.507,345.468L-187.79,345.468L-152.357,366.728Z" style="fill:white;stroke:black;stroke-width:0.13px;"/>
                </g>
                <g transform="matrix(1.0321,0,0,-0.92,341.935,753.19)">
                    <path d="M-177.16,368.5L-155.901,368.5L-177.16,357.87L-177.16,368.5ZM-152.357,366.728L-152.358,384.445L-186.019,384.445L-186.019,370.272L-193.105,370.272L-201.963,364.957L-201.963,352.555L-196.649,347.24L-203.735,347.24L-203.735,364.957L-205.507,364.957L-205.507,345.468L-187.79,345.468L-152.357,366.728Z" style="fill:white;stroke:black;stroke-width:0.13px;"/>
                </g>
                <path d="M85.951,412.578L88.236,412.578L88.236,407.688L92.809,407.688L92.809,412.578L95.094,412.578L95.094,401.17L92.809,401.17L92.809,406.06L88.236,406.06L88.236,401.17L85.951,401.17L85.951,412.578ZM107.883,428.875L110.168,428.875L110.168,423.985L114.741,423.985L114.741,428.875L117.026,428.875L117.026,417.466L114.741,417.466L114.741,422.356L110.168,422.356L110.168,417.466L107.883,417.466L107.883,428.875ZM85.951,386.497L88.236,386.497L88.236,391.387L92.809,391.387L92.809,386.497L95.094,386.497L95.094,397.905L92.809,397.905L92.809,393.015L88.236,393.015L88.236,397.905L85.951,397.905L85.951,386.497ZM107.883,370.198L110.168,370.198L110.168,375.088L114.741,375.088L114.741,370.198L117.026,370.198L117.026,381.606L114.741,381.606L114.741,376.716L110.168,376.716L110.168,381.606L107.883,381.606L107.883,370.198ZM142.634,428.875L144.919,428.875L144.919,423.985L149.492,423.985L149.492,428.875L151.777,428.875L151.777,417.466L149.492,417.466L149.492,422.356L144.919,422.356L144.919,417.466L142.634,417.466L142.634,428.875ZM164.576,397.902L166.861,397.902L166.861,393.012L171.434,393.012L171.434,397.902L173.719,397.902L173.719,386.493L171.434,386.493L171.434,391.383L166.861,391.383L166.861,386.493L164.576,386.493L164.576,397.902Z" style="fill:rgb(152,0,0);"/>
                <path d="M142.634,428.875L144.919,428.875L144.919,423.985L149.492,423.985L149.492,428.875L151.777,428.875L151.777,417.466L149.492,417.466L149.492,422.356L144.919,422.356L144.919,417.466L142.634,417.466L142.634,428.875Z" style="fill:rgb(152,0,0);"/>
                <path d="M142.634,428.875L144.919,428.875L144.919,423.985L149.492,423.985L149.492,428.875L151.777,428.875L151.777,417.466L149.492,417.466L149.492,422.356L144.919,422.356L144.919,417.466L142.634,417.466L142.634,428.875ZM164.576,412.568L166.861,412.568L166.861,407.678L171.434,407.678L171.434,412.568L173.719,412.568L173.719,401.159L171.434,401.159L171.434,406.049L166.861,406.049L166.861,401.159L164.576,401.159L164.576,412.568ZM142.634,381.605L144.919,381.605L144.919,376.715L149.492,376.715L149.492,381.605L151.777,381.605L151.777,370.196L149.492,370.196L149.492,375.086L144.919,375.086L144.919,370.196L142.634,370.196L142.634,381.605Z" style="fill:rgb(152,0,0);"/>
                <path d="M131.658,399.532L138.972,393.588L142.629,393.588L142.629,396.559L138.972,396.559L138.972,398.045L144.457,398.045L144.457,392.103L138.972,392.103L138.972,387.646L131.658,387.646L131.658,392.102L133.487,392.102L133.487,389.13L137.143,389.13L137.143,392.102L129.83,398.045L122.515,392.103L122.515,389.133L126.172,389.133L126.172,392.103L128.001,392.103L128.001,387.646L120.687,387.647L120.687,392.103L115.2,392.103L115.2,398.047L120.686,398.047L120.686,396.561L117.028,396.561L117.028,393.589L120.686,393.589L128,399.531L120.686,405.473L117.029,405.473L117.029,402.503L120.686,402.503L120.686,401.016L115.201,401.016L115.201,406.959L120.686,406.959L120.686,411.415L128,411.417L128,406.959L126.172,406.959L126.172,409.931L122.515,409.931L122.515,406.959L129.828,401.017L137.143,406.961L137.143,409.931L133.487,409.931L133.487,406.961L131.657,406.961L131.657,411.417L138.971,411.417L138.971,406.961L144.457,406.959L144.457,401.017L138.971,401.017L138.971,402.503L142.629,402.503L142.629,405.475L138.971,405.475L131.657,399.532L131.658,399.532Z" style="fill:rgb(0,78,0);"/>
            </g>
            <g transform="matrix(1.0321,0,0,0.95838,204.8,18.155)">
                <path d="M-122.352,134.285L-118.922,130.555L-98.349,130.555L-82.919,113.771L-62.345,113.771L-46.915,130.555L-26.34,130.555L-22.911,134.284L-26.34,138.014L-46.914,138.014L-62.344,154.798L-82.92,154.798L-98.35,138.014L-118.924,138.014L-122.354,134.285L-122.352,134.285Z" style="fill:rgb(152,0,0);"/>
                <g transform="matrix(0.93104,0,0,0.90908,-466.86,-221.29)">
                    <path d="M372.05,391.54L373.953,389.591L396.787,389.591L413.913,370.102L432.942,370.102L450.068,389.591L472.903,389.591L474.806,391.54L472.903,393.488L450.068,393.488L434.845,411.028L412.011,411.028L396.787,393.488L373.953,393.488L372.05,391.54Z" style="fill:rgb(152,0,0);stroke:black;stroke-width:0.29px;"/>
                </g>
                <path d="M-64.071,136.148L-57.213,143.606L-60.641,147.336L-62.356,145.471L-64.07,145.471L-64.07,147.336L-62.356,149.201L-58.926,149.201L-55.498,145.471L-55.498,141.741L-62.355,134.283L-55.498,126.823L-55.498,123.093L-58.927,119.364L-62.355,119.364L-64.07,121.228L-64.07,123.093L-62.355,123.093L-60.641,121.228L-57.213,124.958L-64.07,132.418L-70.929,124.958L-64.07,117.498L-64.07,115.635L-65.785,115.635L-72.642,123.093L-79.501,115.633L-81.216,115.633L-81.216,117.498L-74.357,124.958L-81.216,132.418L-88.074,124.958L-84.645,121.228L-82.93,123.093L-81.216,123.093L-81.216,121.228L-82.93,119.364L-86.36,119.364L-89.789,123.094L-89.789,126.823L-82.93,134.283L-89.789,141.743L-89.789,145.472L-86.359,149.202L-82.93,149.202L-81.216,147.337L-81.216,145.472L-82.93,145.472L-84.645,147.337L-88.074,143.607L-81.216,136.147L-74.358,143.607L-81.216,151.067L-81.216,152.931L-79.502,152.931L-72.643,145.471L-65.785,152.931L-64.071,152.931L-64.071,151.066L-70.929,143.606L-64.071,136.148ZM-72.643,126.823L-79.502,134.283L-72.643,141.743L-65.785,134.283L-72.643,126.823ZM-82.917,154.79L-82.917,169.708L-81.202,167.843L-79.487,169.708L-77.773,167.843L-76.059,169.708L-74.344,167.843L-72.63,169.708L-70.915,167.843L-69.2,169.708L-67.486,167.843L-65.771,169.708L-64.058,167.843L-62.343,169.708L-62.343,154.79L-82.917,154.79ZM-62.353,113.79L-62.353,98.872L-64.068,100.737L-65.783,98.872L-67.497,100.737L-69.211,98.872L-70.926,100.737L-72.64,98.872L-74.355,100.737L-76.07,98.872L-77.784,100.737L-79.499,98.872L-81.212,100.737L-82.927,98.872L-82.927,113.79L-62.353,113.79ZM-33.205,130.58L-33.205,115.662L-34.92,117.527L-36.633,115.662L-38.348,117.527L-40.063,115.662L-41.777,117.527L-43.492,115.662L-45.206,117.527L-46.92,115.662L-46.92,130.58L-33.205,130.58ZM-98.355,130.58L-98.355,115.662L-100.07,117.527L-101.783,115.662L-103.498,117.527L-105.213,115.662L-106.927,117.527L-108.642,115.662L-110.356,117.527L-112.07,115.662L-112.07,130.58L-98.355,130.58ZM-33.205,138.01L-33.205,152.928L-34.92,151.063L-36.633,152.928L-38.348,151.063L-40.063,152.928L-41.777,151.063L-43.492,152.928L-45.206,151.063L-46.92,152.928L-46.92,138.01L-33.205,138.01ZM-98.355,138.01L-98.355,152.928L-100.07,151.063L-101.783,152.928L-103.498,151.063L-105.213,152.928L-106.927,151.063L-108.642,152.928L-110.356,151.063L-112.07,152.928L-112.07,138.01L-98.355,138.01Z" style="fill:rgb(230,153,0);"/>
                <path d="M-62.347,154.79L-62.347,164.114L-60.633,162.248L-58.918,164.114L-57.204,162.248L-55.49,164.114L-53.775,162.248L-52.061,164.114L-50.346,162.248L-48.632,164.114L-46.917,162.248L-46.917,138.006L-62.347,154.79ZM-82.933,154.79L-82.933,164.115L-84.648,162.249L-86.363,164.115L-88.077,162.249L-89.791,164.115L-91.506,162.249L-93.22,164.115L-94.935,162.249L-96.649,164.115L-98.364,162.249L-98.363,138.006L-82.933,154.79ZM-82.933,113.79L-82.933,104.466L-84.647,106.332L-86.362,104.466L-88.076,106.332L-89.79,104.466L-91.505,106.332L-93.219,104.466L-94.934,106.332L-96.648,104.466L-98.363,106.332L-98.363,130.574L-82.933,113.79ZM-62.347,113.79L-62.347,104.466L-60.633,106.332L-58.918,104.466L-57.204,106.332L-55.49,104.466L-53.775,106.332L-52.061,104.466L-50.346,106.332L-48.632,104.466L-46.917,106.332L-46.917,130.574L-62.347,113.79ZM-112.078,149.206L-113.793,147.341L-115.506,149.206L-117.22,147.341L-118.935,149.206L-120.65,147.341L-122.365,149.206L-124.078,147.341L-125.793,149.206L-125.793,119.368L-124.079,121.234L-122.365,119.368L-120.65,121.234L-118.936,119.368L-117.221,121.234L-115.507,119.368L-113.793,121.234L-112.078,119.368L-112.078,130.558L-118.935,130.558L-122.365,134.288L-118.935,138.018L-112.078,138.018L-112.078,149.206ZM-33.202,149.206L-31.487,147.341L-29.774,149.206L-28.06,147.341L-26.345,149.206L-24.63,147.341L-22.915,149.206L-21.202,147.341L-19.487,149.206L-19.487,119.368L-21.201,121.234L-22.915,119.368L-24.63,121.234L-26.344,119.368L-28.059,121.234L-29.773,119.368L-31.487,121.234L-33.202,119.368L-33.202,130.558L-26.345,130.558L-22.915,134.288L-26.345,138.018L-33.202,138.018L-33.202,149.206Z" style="fill:rgb(0,78,0);"/>
                <path d="M-91.36,155.978C-91.36,155.978 -92.788,157.452 -92.788,158.188C-92.816,158.875 -91.264,160.415 -90.645,160.399C-89.835,160.415 -88.502,158.925 -88.502,158.189C-88.502,157.452 -89.932,155.978 -89.932,155.978L-89.932,153.03C-89.932,153.03 -86.828,158.098 -86.828,155.887C-86.828,154.301 -89.931,151.556 -89.931,151.556L-91.36,151.556C-91.36,151.556 -94.463,154.77 -94.463,155.886C-94.463,158.098 -91.36,153.03 -91.36,153.03L-91.36,155.978Z" style="fill:white;"/>
                <path d="M-73.497,161.669C-73.497,161.669 -75.212,163.732 -75.212,164.764C-75.246,165.726 -73.383,167.882 -72.64,167.859C-71.669,167.882 -70.068,165.796 -70.068,164.764C-70.068,163.732 -71.783,161.669 -71.783,161.669L-71.783,157.542C-71.783,157.542 -68.746,164.293 -68.746,161.198C-68.746,159.197 -71.783,155.478 -71.783,155.478L-73.497,155.478C-73.497,155.478 -77.003,160.134 -76.534,161.198C-76.534,164.293 -73.497,157.542 -73.497,157.542L-73.497,161.669Z" style="fill:rgb(152,0,0);"/>
                <g transform="matrix(0.96774,0,0,1.0526,-482.4,-277.85)">
                    <ellipse cx="403.94" cy="391.54" rx="3.543" ry="1.772" style="fill:rgb(0,78,0);"/>
                </g>
                <g transform="matrix(0.96774,0,0,1.0526,-463.54,-277.85)">
                    <ellipse cx="403.94" cy="391.54" rx="3.543" ry="1.772" style="fill:rgb(0,78,0);"/>
                </g>
                <g transform="matrix(0.96774,0,0,1.0526,-444.69,-277.85)">
                    <ellipse cx="403.94" cy="391.54" rx="3.543" ry="1.772" style="fill:rgb(0,78,0);"/>
                </g>
                <path d="M-91.72,112.76C-91.72,112.76 -93.148,111.286 -93.148,110.55C-93.176,109.862 -91.624,108.322 -91.005,108.339C-90.195,108.322 -88.862,109.812 -88.862,110.549C-88.862,111.286 -90.292,112.76 -90.292,112.76L-90.292,115.708C-90.292,115.708 -87.188,110.64 -87.188,112.851C-87.188,114.437 -90.291,117.181 -90.291,117.181L-91.72,117.181C-91.72,117.181 -94.823,113.968 -94.823,112.851C-94.823,110.641 -91.72,115.708 -91.72,115.708L-91.72,112.76Z" style="fill:white;"/>
                <path d="M-73.857,107.062C-73.857,107.062 -75.572,104.999 -75.572,103.967C-75.606,103.005 -73.743,100.849 -73,100.872C-72.029,100.849 -70.428,102.935 -70.428,103.967C-70.428,104.999 -72.143,107.062 -72.143,107.062L-72.143,111.189C-72.143,111.189 -69.106,104.438 -69.106,107.533C-69.106,109.534 -72.143,113.253 -72.143,113.253L-73.857,113.253C-73.857,113.253 -77.363,108.597 -76.894,107.533C-76.894,104.438 -73.857,111.189 -73.857,111.189L-73.857,107.062Z" style="fill:rgb(152,0,0);"/>
                <path d="M-54.86,155.978C-54.86,155.978 -56.288,157.452 -56.288,158.188C-56.316,158.875 -54.764,160.415 -54.145,160.399C-53.335,160.415 -52.002,158.925 -52.002,158.189C-52.002,157.452 -53.432,155.978 -53.432,155.978L-53.432,153.03C-53.432,153.03 -50.328,158.098 -50.328,155.887C-50.328,154.301 -53.431,151.556 -53.431,151.556L-54.86,151.556C-54.86,151.556 -57.963,154.77 -57.963,155.886C-57.963,158.098 -54.86,153.03 -54.86,153.03L-54.86,155.978ZM-55.22,112.76C-55.22,112.76 -56.648,111.286 -56.648,110.55C-56.676,109.862 -55.124,108.322 -54.505,108.339C-53.695,108.322 -52.362,109.812 -52.362,110.549C-52.362,111.286 -53.792,112.76 -53.792,112.76L-53.792,115.708C-53.792,115.708 -50.688,110.64 -50.688,112.851C-50.688,114.437 -53.791,117.181 -53.791,117.181L-55.22,117.181C-55.22,117.181 -58.323,113.968 -58.323,112.851C-58.323,110.641 -55.22,115.708 -55.22,115.708L-55.22,112.76Z" style="fill:white;"/>
                <path d="M-106.273,145.593C-106.273,145.593 -108.173,146.976 -108.173,147.667C-108.21,148.311 -106.147,149.756 -105.323,149.741C-104.247,149.756 -102.473,148.358 -102.473,147.667C-102.473,146.976 -104.373,145.593 -104.373,145.593L-104.373,142.828C-104.373,142.828 -101.009,147.351 -101.009,145.278C-101.009,143.936 -104.374,141.445 -104.374,141.445L-106.274,141.445C-106.274,141.445 -110.156,144.564 -109.637,145.277C-109.637,147.351 -106.273,142.827 -106.273,142.827L-106.273,145.593ZM-106.673,124.471C-106.673,124.471 -108.573,123.088 -108.573,122.397C-108.61,121.753 -106.547,120.307 -105.723,120.323C-104.647,120.308 -102.873,121.706 -102.873,122.397C-102.873,123.088 -104.773,124.471 -104.773,124.471L-104.773,127.236C-104.773,127.236 -101.409,122.712 -101.409,124.786C-101.409,126.128 -104.774,128.619 -104.774,128.619L-106.674,128.619C-106.674,128.619 -110.556,125.499 -110.037,124.787C-110.037,122.713 -106.673,127.237 -106.673,127.237L-106.673,124.471ZM-40.423,145.15C-40.423,145.15 -42.323,146.534 -42.323,147.225C-42.36,147.869 -40.297,149.314 -39.473,149.299C-38.397,149.314 -36.623,147.916 -36.623,147.225C-36.623,146.534 -38.523,145.151 -38.523,145.151L-38.523,142.386C-38.523,142.386 -35.159,146.909 -35.159,144.836C-35.159,143.494 -38.524,141.003 -38.524,141.003L-40.424,141.003C-40.424,141.003 -44.306,144.122 -43.787,144.835C-43.787,146.909 -40.423,142.385 -40.423,142.385L-40.423,145.151L-40.423,145.15ZM-40.823,124.031C-40.823,124.031 -42.723,122.648 -42.723,121.957C-42.76,121.313 -40.697,119.867 -39.873,119.883C-38.797,119.868 -37.023,121.266 -37.023,121.957C-37.023,122.648 -38.923,124.031 -38.923,124.031L-38.923,126.796C-38.923,126.796 -35.559,122.272 -35.559,124.346C-35.559,125.688 -38.924,128.179 -38.924,128.179L-40.824,128.179C-40.824,128.179 -44.706,125.059 -44.187,124.347C-44.187,122.273 -40.823,126.797 -40.823,126.797L-40.823,124.031Z" style="fill:rgb(152,0,0);"/>
                <path d="M-120.285,145.363C-120.9,144.086 -120.738,143.503 -120.738,142.766C-120.766,142.079 -119.022,140.741 -118.402,140.757C-117.593,140.741 -116.259,142.231 -116.259,142.967C-116.259,143.704 -116.225,144.341 -116.557,145.611L-117.45,143.457C-118.534,146.513 -118.593,146.584 -119.237,143.383L-120.285,145.363ZM-120.225,123.93C-120.84,125.208 -120.678,125.792 -120.678,126.528C-120.706,127.215 -118.962,128.553 -118.342,128.537C-117.533,128.553 -116.199,127.063 -116.199,126.327C-116.199,125.59 -116.165,124.953 -116.497,123.683L-117.39,125.837C-118.474,122.781 -118.533,122.71 -119.177,125.911L-120.225,123.931L-120.225,123.93ZM-27.805,145.093C-28.42,143.816 -28.258,143.233 -28.258,142.496C-28.286,141.809 -26.542,140.471 -25.922,140.487C-25.113,140.471 -23.779,141.961 -23.779,142.697C-23.779,143.434 -23.745,144.071 -24.077,145.341L-24.97,143.187C-26.054,146.243 -26.113,146.314 -26.757,143.113L-27.805,145.093ZM-27.755,123.655C-28.37,124.932 -28.208,125.515 -28.208,126.252C-28.236,126.939 -26.492,128.277 -25.872,128.261C-25.063,128.277 -23.729,126.787 -23.729,126.051C-23.729,125.314 -23.695,124.677 -24.027,123.407L-24.92,125.561C-26.004,122.505 -26.063,122.434 -26.707,125.635L-27.755,123.655Z" style="fill:white;"/>
                <g transform="matrix(1,0,0,0.99999,-198.43,-7.085)">
                    <path d="M115.16,177.16L115.16,171.845L99.216,171.845L99.216,161.215L85.043,161.215L85.043,157.672L72.641,157.672L72.641,125.782L85.043,125.782L85.043,122.239L99.216,122.239L99.216,111.609L115.16,111.609L115.16,106.294L136.42,106.294L136.42,111.609L152.365,111.609L152.365,122.239L166.538,122.239L166.538,125.782L178.94,125.782L178.94,157.672L166.538,157.672L166.538,161.215L152.365,161.215L152.365,171.845L136.42,171.845L136.42,177.16L115.16,177.16ZM113.388,178.932L113.388,173.617L97.444,173.617L97.444,162.987L83.271,162.987L83.271,159.444L70.869,159.444L70.869,124.011L83.271,124.011L83.271,120.467L97.444,120.467L97.444,109.837L113.389,109.837L113.389,104.522L138.192,104.522L138.192,109.837L154.137,109.837L154.137,120.467L168.31,120.467L168.31,124.011L180.712,124.011L180.712,159.444L168.31,159.444L168.31,162.987L154.137,162.987L154.137,173.617L138.192,173.617L138.192,178.932L113.388,178.932Z" style="fill:rgb(152,0,0);stroke:black;stroke-width:0.13px;"/>
                </g>
            </g>
        </g>
    </g>
</svg>
