<?xml version="1.0" encoding="UTF-8" standalone="no"?>
<!DOCTYPE svg PUBLIC "-//W3C//DTD SVG 1.1//EN" "http://www.w3.org/Graphics/SVG/1.1/DTD/svg11.dtd">
<svg width="100%" height="100%" viewBox="0 0 640 480" version="1.1" xmlns="http://www.w3.org/2000/svg" xmlns:xlink="http://www.w3.org/1999/xlink" xml:space="preserve" xmlns:serif="http://www.serif.com/" style="fill-rule:evenodd;clip-rule:evenodd;">
    <g transform="matrix(0.9375,0,0,0.9375,84.875,0)">
        <clipPath id="_clip1">
            <rect x="-90.533" y="0" width="682.67" height="512"/>
        </clipPath>
        <g clip-path="url(#_clip1)">
            <path d="M-178,0L250.8,256L-178,512L-178,0ZM679.6,0L250.8,256L679.6,512L679.6,0Z" style="fill:rgb(0,207,0);"/>
            <path d="M-178,0L250.8,256L679.6,0L-178,0ZM-178,512L250.8,256L679.6,512L-178,512Z" style="fill:rgb(255,0,0);"/>
            <path d="M679.6,0L599.698,0L-178.002,464.3L-178.002,512.003L-98.1,512.003L679.6,47.703L679.6,0Z" style="fill:white;"/>
            <path d="M398.855,256C398.855,337.767 332.57,404.05 250.803,404.05C169.036,404.05 102.75,337.768 102.75,256C102.75,174.232 169.035,107.947 250.803,107.947C332.571,107.947 398.855,174.232 398.855,256Z" style="fill:white;"/>
            <path d="M-178,0L-178,47.703L599.7,512.003L679.602,512.003L679.602,464.3L-98.098,0L-178,0Z" style="fill:white;"/>
            <path d="M279.943,200.164L260.693,200.486L250.745,216.928L240.825,200.456L221.605,200.046L230.908,183.224L221.663,166.349L240.885,166.017L250.862,149.56L260.78,166.056L280.002,166.466L270.669,183.283L279.943,200.164ZM215.443,311.784L196.193,312.106L186.245,328.548L176.325,312.078L157.105,311.668L166.408,294.844L157.163,277.969L176.385,277.637L186.362,261.18L196.28,277.676L215.502,278.086L206.169,294.903L215.443,311.784ZM346.013,311.784L326.763,312.106L316.815,328.548L306.895,312.078L287.675,311.668L296.978,294.844L287.733,277.969L306.955,277.637L316.932,261.18L326.85,277.676L346.072,278.086L336.739,294.903L346.013,311.784Z" style="fill:rgb(255,0,0);stroke:rgb(0,222,0);stroke-width:3.9px;"/>
        </g>
    </g>
</svg>
