<?xml version="1.0" encoding="UTF-8" standalone="no"?>
<!DOCTYPE svg PUBLIC "-//W3C//DTD SVG 1.1//EN" "http://www.w3.org/Graphics/SVG/1.1/DTD/svg11.dtd">
<svg width="100%" height="100%" viewBox="0 0 640 480" version="1.1" xmlns="http://www.w3.org/2000/svg" xmlns:xlink="http://www.w3.org/1999/xlink" xml:space="preserve" xmlns:serif="http://www.serif.com/" style="fill-rule:evenodd;clip-rule:evenodd;stroke-linejoin:round;stroke-miterlimit:2;">
    <g transform="matrix(0.9375,0,0,0.9375,0,0)">
        <clipPath id="_clip1">
            <rect x="0" y="0" width="682.67" height="512"/>
        </clipPath>
        <g clip-path="url(#_clip1)">
            <g>
                <g>
                    <path d="M0,0L972.81,0L972.81,39.385L0,39.385L0,0ZM0,78.77L972.81,78.77L972.81,118.155L0,118.155L0,78.77ZM0,157.54L972.81,157.54L972.81,196.925L0,196.925L0,157.54ZM0,236.31L972.81,236.31L972.81,275.695L0,275.695L0,236.31ZM0,315.08L972.81,315.08L972.81,354.465L0,354.465L0,315.08ZM0,393.85L972.81,393.85L972.81,433.235L0,433.235L0,393.85ZM0,472.62L972.81,472.62L972.81,512.005L0,512.005L0,472.62Z" style="fill:rgb(189,61,68);"/>
                </g>
                <g>
                    <path d="M0,39.385L972.81,39.385L972.81,78.77L0,78.77L0,39.385ZM0,118.155L972.81,118.155L972.81,157.54L0,157.54L0,118.155ZM0,196.925L972.81,196.925L972.81,236.31L0,236.31L0,196.925ZM0,275.695L972.81,275.695L972.81,315.08L0,315.08L0,275.695ZM0,354.465L972.81,354.465L972.81,393.85L0,393.85L0,354.465ZM0,433.235L972.81,433.235L972.81,472.62L0,472.62L0,433.235Z" style="fill:white;"/>
                </g>
            </g>
            <rect x="0" y="0" width="389.12" height="275.69" style="fill:rgb(25,47,93);"/>
            <g>
                <path d="M32.427,11.8L35.967,22.696L47.425,22.696L38.155,29.431L41.696,40.327L32.426,33.593L23.158,40.327L26.698,29.431L17.429,22.696L28.886,22.696L32.427,11.8ZM97.28,11.8L100.821,22.696L112.279,22.696L103.009,29.431L106.55,40.327L97.28,33.593L88.012,40.327L91.552,29.431L82.283,22.696L93.74,22.696L97.28,11.8ZM162.136,11.8L165.676,22.696L177.134,22.696L167.864,29.431L171.405,40.327L162.136,33.593L152.867,40.327L156.407,29.431L147.138,22.696L158.596,22.696L162.136,11.8ZM226.988,11.8L230.528,22.696L241.985,22.696L232.716,29.431L236.256,40.327L226.988,33.593L217.718,40.327L221.259,29.431L211.989,22.696L223.447,22.696L226.988,11.8ZM291.843,11.8L295.383,22.696L306.841,22.696L297.571,29.431L301.112,40.327L291.842,33.593L282.574,40.327L286.114,29.431L276.845,22.696L288.302,22.696L291.843,11.8ZM356.698,11.8L360.238,22.696L371.696,22.696L362.426,29.431L365.967,40.327L356.698,33.593L347.428,40.327L350.97,29.431L341.7,22.696L353.158,22.696L356.698,11.8Z" style="fill:white;"/>
                <g>
                    <path d="M64.855,39.37L68.395,50.266L79.853,50.266L70.583,57L74.125,67.897L64.855,61.163L55.586,67.897L59.126,57L49.857,50.266L61.315,50.266L64.855,39.37ZM129.707,39.37L133.247,50.266L144.704,50.266L135.435,57L138.975,67.897L129.707,61.163L120.437,67.897L123.978,57L114.708,50.266L126.166,50.266L129.707,39.37ZM194.562,39.37L198.102,50.266L209.56,50.266L200.29,57L203.831,67.897L194.561,61.163L185.293,67.897L188.833,57L179.564,50.266L191.021,50.266L194.562,39.37ZM259.417,39.37L262.957,50.266L274.415,50.266L265.145,57L268.686,67.897L259.417,61.163L250.147,67.897L253.69,57L244.42,50.266L255.878,50.266L259.417,39.37ZM324.269,39.37L327.809,50.266L339.266,50.266L329.997,57L333.537,67.897L324.269,61.163L314.999,67.897L318.54,57L309.27,50.266L320.728,50.266L324.269,39.37Z" style="fill:white;"/>
                </g>
                <g>
                    <path d="M32.427,66.939L35.967,77.835L47.425,77.835L38.155,84.57L41.696,95.466L32.426,88.732L23.158,95.466L26.698,84.57L17.429,77.835L28.886,77.835L32.427,66.939ZM97.28,66.939L100.821,77.835L112.279,77.835L103.009,84.57L106.55,95.466L97.28,88.732L88.012,95.466L91.552,84.57L82.283,77.835L93.74,77.835L97.28,66.939ZM162.136,66.939L165.676,77.835L177.134,77.835L167.864,84.57L171.405,95.466L162.136,88.732L152.867,95.466L156.407,84.57L147.138,77.835L158.596,77.835L162.136,66.939ZM226.988,66.939L230.528,77.835L241.985,77.835L232.716,84.57L236.256,95.466L226.988,88.732L217.718,95.466L221.259,84.57L211.989,77.835L223.447,77.835L226.988,66.939ZM291.843,66.939L295.383,77.835L306.841,77.835L297.571,84.57L301.112,95.466L291.842,88.732L282.574,95.466L286.114,84.57L276.845,77.835L288.302,77.835L291.843,66.939ZM356.698,66.939L360.238,77.835L371.696,77.835L362.426,84.57L365.967,95.466L356.698,88.732L347.428,95.466L350.97,84.57L341.7,77.835L353.158,77.835L356.698,66.939Z" style="fill:white;"/>
                    <g>
                        <path d="M64.855,94.508L68.395,105.405L79.853,105.405L70.583,112.139L74.125,123.036L64.855,116.302L55.586,123.036L59.126,112.139L49.857,105.405L61.315,105.405L64.855,94.508ZM129.707,94.508L133.247,105.405L144.704,105.405L135.435,112.139L138.975,123.036L129.707,116.302L120.437,123.036L123.978,112.139L114.708,105.405L126.166,105.405L129.707,94.508ZM194.562,94.508L198.102,105.405L209.56,105.405L200.29,112.139L203.831,123.036L194.561,116.302L185.293,123.036L188.833,112.139L179.564,105.405L191.021,105.405L194.562,94.508ZM259.417,94.508L262.957,105.405L274.415,105.405L265.145,112.139L268.686,123.036L259.417,116.302L250.147,123.036L253.689,112.139L244.419,105.405L255.877,105.405L259.417,94.508ZM324.269,94.508L327.809,105.405L339.266,105.405L329.997,112.139L333.537,123.036L324.269,116.302L314.999,123.036L318.54,112.139L309.27,105.405L320.728,105.405L324.269,94.508Z" style="fill:white;"/>
                    </g>
                </g>
                <g>
                    <path d="M32.427,122.078L35.967,132.974L47.425,132.974L38.155,139.709L41.696,150.605L32.426,143.871L23.158,150.605L26.698,139.709L17.429,132.974L28.886,132.974L32.427,122.078ZM97.28,122.078L100.821,132.974L112.279,132.974L103.009,139.709L106.55,150.605L97.28,143.871L88.012,150.605L91.552,139.709L82.283,132.974L93.74,132.974L97.28,122.078ZM162.136,122.078L165.676,132.974L177.134,132.974L167.864,139.709L171.405,150.605L162.136,143.871L152.867,150.605L156.407,139.709L147.138,132.974L158.596,132.974L162.136,122.078ZM226.988,122.078L230.528,132.974L241.985,132.974L232.716,139.709L236.256,150.605L226.988,143.871L217.718,150.605L221.259,139.709L211.989,132.974L223.447,132.974L226.988,122.078ZM291.843,122.078L295.383,132.974L306.841,132.974L297.571,139.709L301.112,150.605L291.842,143.871L282.574,150.605L286.114,139.709L276.845,132.974L288.302,132.974L291.843,122.078ZM356.698,122.078L360.238,132.974L371.696,132.974L362.426,139.709L365.967,150.605L356.698,143.871L347.428,150.605L350.97,139.709L341.7,132.974L353.158,132.974L356.698,122.078Z" style="fill:white;"/>
                    <g>
                        <path d="M64.855,149.647L68.395,160.544L79.853,160.544L70.583,167.278L74.125,178.175L64.855,171.441L55.586,178.175L59.126,167.278L49.857,160.544L61.315,160.544L64.855,149.647ZM129.707,149.647L133.247,160.544L144.704,160.544L135.435,167.278L138.975,178.175L129.707,171.441L120.437,178.175L123.978,167.278L114.708,160.544L126.166,160.544L129.707,149.647ZM194.562,149.647L198.102,160.544L209.56,160.544L200.29,167.278L203.831,178.175L194.561,171.441L185.293,178.175L188.833,167.278L179.564,160.544L191.021,160.544L194.562,149.647ZM259.417,149.647L262.957,160.544L274.415,160.544L265.145,167.278L268.686,178.175L259.417,171.441L250.147,178.175L253.689,167.278L244.419,160.544L255.877,160.544L259.417,149.647ZM324.269,149.647L327.809,160.544L339.266,160.544L329.997,167.278L333.537,178.175L324.269,171.441L314.999,178.175L318.54,167.278L309.27,160.544L320.728,160.544L324.269,149.647Z" style="fill:white;"/>
                    </g>
                </g>
                <g>
                    <path d="M32.427,177.217L35.967,188.113L47.425,188.113L38.155,194.848L41.696,205.744L32.426,199.01L23.158,205.744L26.698,194.848L17.429,188.113L28.886,188.113L32.427,177.217ZM97.28,177.217L100.821,188.113L112.279,188.113L103.009,194.848L106.55,205.744L97.28,199.01L88.012,205.744L91.552,194.848L82.283,188.113L93.74,188.113L97.28,177.217ZM162.136,177.217L165.676,188.113L177.134,188.113L167.864,194.848L171.405,205.744L162.136,199.01L152.867,205.744L156.407,194.848L147.138,188.113L158.596,188.113L162.136,177.217ZM226.988,177.217L230.528,188.113L241.985,188.113L232.716,194.848L236.256,205.744L226.988,199.01L217.718,205.744L221.259,194.848L211.989,188.113L223.447,188.113L226.988,177.217ZM291.843,177.217L295.383,188.113L306.841,188.113L297.571,194.848L301.112,205.744L291.842,199.01L282.574,205.744L286.114,194.848L276.845,188.113L288.302,188.113L291.843,177.217ZM356.698,177.217L360.238,188.113L371.696,188.113L362.426,194.848L365.967,205.744L356.698,199.01L347.428,205.744L350.97,194.848L341.7,188.113L353.158,188.113L356.698,177.217Z" style="fill:white;"/>
                    <g>
                        <path d="M64.855,204.786L68.395,215.683L79.853,215.683L70.583,222.417L74.125,233.314L64.855,226.58L55.586,233.314L59.126,222.417L49.857,215.683L61.315,215.683L64.855,204.786ZM129.707,204.786L133.247,215.683L144.704,215.683L135.435,222.417L138.975,233.314L129.707,226.58L120.437,233.314L123.978,222.417L114.708,215.683L126.166,215.683L129.707,204.786ZM194.562,204.786L198.102,215.683L209.56,215.683L200.29,222.417L203.831,233.314L194.561,226.58L185.293,233.314L188.833,222.417L179.564,215.683L191.021,215.683L194.562,204.786ZM259.417,204.786L262.957,215.683L274.415,215.683L265.145,222.417L268.686,233.314L259.417,226.58L250.147,233.314L253.689,222.417L244.419,215.683L255.877,215.683L259.417,204.786ZM324.269,204.786L327.809,215.683L339.266,215.683L329.997,222.417L333.537,233.314L324.269,226.58L314.999,233.314L318.54,222.417L309.27,215.683L320.728,215.683L324.269,204.786Z" style="fill:white;"/>
                    </g>
                </g>
                <g>
                    <path d="M32.427,232.356L35.967,243.252L47.425,243.252L38.155,249.987L41.696,260.883L32.426,254.149L23.158,260.883L26.698,249.987L17.429,243.252L28.886,243.252L32.427,232.356ZM97.28,232.356L100.821,243.252L112.279,243.252L103.009,249.987L106.55,260.883L97.28,254.149L88.012,260.883L91.552,249.987L82.283,243.252L93.74,243.252L97.28,232.356ZM162.136,232.356L165.676,243.252L177.134,243.252L167.864,249.987L171.405,260.883L162.136,254.149L152.867,260.883L156.407,249.987L147.138,243.252L158.596,243.252L162.136,232.356ZM226.988,232.356L230.528,243.252L241.985,243.252L232.716,249.987L236.256,260.883L226.988,254.149L217.718,260.883L221.259,249.987L211.989,243.252L223.447,243.252L226.988,232.356ZM291.843,232.356L295.383,243.252L306.841,243.252L297.571,249.987L301.112,260.883L291.842,254.149L282.574,260.883L286.114,249.987L276.845,243.252L288.302,243.252L291.843,232.356ZM356.698,232.356L360.238,243.252L371.696,243.252L362.426,249.987L365.967,260.883L356.698,254.149L347.428,260.883L350.97,249.987L341.7,243.252L353.158,243.252L356.698,232.356Z" style="fill:white;"/>
                </g>
            </g>
        </g>
    </g>
</svg>
