<?xml version="1.0" encoding="UTF-8" standalone="no"?>
<!DOCTYPE svg PUBLIC "-//W3C//DTD SVG 1.1//EN" "http://www.w3.org/Graphics/SVG/1.1/DTD/svg11.dtd">
<svg width="100%" height="100%" viewBox="0 0 640 480" version="1.1" xmlns="http://www.w3.org/2000/svg" xmlns:xlink="http://www.w3.org/1999/xlink" xml:space="preserve" xmlns:serif="http://www.serif.com/" style="fill-rule:evenodd;clip-rule:evenodd;stroke-linecap:square;stroke-miterlimit:20;">
    <rect x="0" y="0" width="640" height="480" style="fill:white;fill-rule:nonzero;"/>
    <path d="M266,53.333L640,53.333L640,106.666L266,106.666L266,53.333ZM266,160L640,160L640,213.333L266,213.333L266,160ZM0,266.667L640,266.667L640,320L0,320L0,266.667ZM0,373.333L640,373.333L640,426.666L0,426.666L0,373.333Z" style="fill:rgb(0,56,168);fill-rule:nonzero;"/>
    <g transform="matrix(2.93333,0,0,2.93333,133.333,133.333)">
        <g id="c">
            <g id="b">
                <g id="a">
                    <g transform="matrix(0.92388,0.382683,-0.382683,0.92388,0,0)">
                        <path d="M1.5,9L6,12C-2,25 7,27 0,33C3,26 -3,28 -3,16" style="fill:rgb(252,209,22);fill-rule:nonzero;stroke:black;stroke-width:0.6px;"/>
                    </g>
                    <g transform="matrix(0.92388,0.382683,-0.382683,0.92388,0,0)">
                        <path d="M0,11C-2,24 4.5,28 0,33" style="fill:none;fill-rule:nonzero;stroke:black;stroke-width:0.6px;stroke-linecap:butt;"/>
                    </g>
                    <path d="M0,0L6,0L0,33L-6,0L0,0L0,33" style="fill:rgb(252,209,22);fill-rule:nonzero;stroke:black;stroke-width:0.6px;stroke-linecap:butt;"/>
                </g>
                <g id="a1" serif:id="a" transform="matrix(0.707107,0.707107,-0.707107,0.707107,0,0)">
                    <g transform="matrix(0.92388,0.382683,-0.382683,0.92388,0,0)">
                        <path d="M1.5,9L6,12C-2,25 7,27 0,33C3,26 -3,28 -3,16" style="fill:rgb(252,209,22);fill-rule:nonzero;stroke:black;stroke-width:0.6px;"/>
                    </g>
                    <g transform="matrix(0.92388,0.382683,-0.382683,0.92388,0,0)">
                        <path d="M0,11C-2,24 4.5,28 0,33" style="fill:none;fill-rule:nonzero;stroke:black;stroke-width:0.6px;stroke-linecap:butt;"/>
                    </g>
                    <path d="M0,0L6,0L0,33L-6,0L0,0L0,33" style="fill:rgb(252,209,22);fill-rule:nonzero;stroke:black;stroke-width:0.6px;stroke-linecap:butt;"/>
                </g>
            </g>
            <g id="b1" serif:id="b" transform="matrix(-3.82857e-16,1,-1,-3.82857e-16,0,0)">
                <g id="a2" serif:id="a">
                    <g transform="matrix(0.92388,0.382683,-0.382683,0.92388,0,0)">
                        <path d="M1.5,9L6,12C-2,25 7,27 0,33C3,26 -3,28 -3,16" style="fill:rgb(252,209,22);fill-rule:nonzero;stroke:black;stroke-width:0.6px;"/>
                    </g>
                    <g transform="matrix(0.92388,0.382683,-0.382683,0.92388,0,0)">
                        <path d="M0,11C-2,24 4.5,28 0,33" style="fill:none;fill-rule:nonzero;stroke:black;stroke-width:0.6px;stroke-linecap:butt;"/>
                    </g>
                    <path d="M0,0L6,0L0,33L-6,0L0,0L0,33" style="fill:rgb(252,209,22);fill-rule:nonzero;stroke:black;stroke-width:0.6px;stroke-linecap:butt;"/>
                </g>
                <g id="a3" serif:id="a" transform="matrix(0.707107,0.707107,-0.707107,0.707107,0,0)">
                    <g transform="matrix(0.92388,0.382683,-0.382683,0.92388,0,0)">
                        <path d="M1.5,9L6,12C-2,25 7,27 0,33C3,26 -3,28 -3,16" style="fill:rgb(252,209,22);fill-rule:nonzero;stroke:black;stroke-width:0.6px;"/>
                    </g>
                    <g transform="matrix(0.92388,0.382683,-0.382683,0.92388,0,0)">
                        <path d="M0,11C-2,24 4.5,28 0,33" style="fill:none;fill-rule:nonzero;stroke:black;stroke-width:0.6px;stroke-linecap:butt;"/>
                    </g>
                    <path d="M0,0L6,0L0,33L-6,0L0,0L0,33" style="fill:rgb(252,209,22);fill-rule:nonzero;stroke:black;stroke-width:0.6px;stroke-linecap:butt;"/>
                </g>
            </g>
        </g>
        <g id="c1" serif:id="c" transform="matrix(-1,0,0,-1,0,0)">
            <g id="b2" serif:id="b">
                <g id="a4" serif:id="a">
                    <g transform="matrix(0.92388,0.382683,-0.382683,0.92388,0,0)">
                        <path d="M1.5,9L6,12C-2,25 7,27 0,33C3,26 -3,28 -3,16" style="fill:rgb(252,209,22);fill-rule:nonzero;stroke:black;stroke-width:0.6px;"/>
                    </g>
                    <g transform="matrix(0.92388,0.382683,-0.382683,0.92388,0,0)">
                        <path d="M0,11C-2,24 4.5,28 0,33" style="fill:none;fill-rule:nonzero;stroke:black;stroke-width:0.6px;stroke-linecap:butt;"/>
                    </g>
                    <path d="M0,0L6,0L0,33L-6,0L0,0L0,33" style="fill:rgb(252,209,22);fill-rule:nonzero;stroke:black;stroke-width:0.6px;stroke-linecap:butt;"/>
                </g>
                <g id="a5" serif:id="a" transform="matrix(0.707107,0.707107,-0.707107,0.707107,0,0)">
                    <g transform="matrix(0.92388,0.382683,-0.382683,0.92388,0,0)">
                        <path d="M1.5,9L6,12C-2,25 7,27 0,33C3,26 -3,28 -3,16" style="fill:rgb(252,209,22);fill-rule:nonzero;stroke:black;stroke-width:0.6px;"/>
                    </g>
                    <g transform="matrix(0.92388,0.382683,-0.382683,0.92388,0,0)">
                        <path d="M0,11C-2,24 4.5,28 0,33" style="fill:none;fill-rule:nonzero;stroke:black;stroke-width:0.6px;stroke-linecap:butt;"/>
                    </g>
                    <path d="M0,0L6,0L0,33L-6,0L0,0L0,33" style="fill:rgb(252,209,22);fill-rule:nonzero;stroke:black;stroke-width:0.6px;stroke-linecap:butt;"/>
                </g>
            </g>
            <g id="b3" serif:id="b" transform="matrix(-3.82857e-16,1,-1,-3.82857e-16,0,0)">
                <g id="a6" serif:id="a">
                    <g transform="matrix(0.92388,0.382683,-0.382683,0.92388,0,0)">
                        <path d="M1.5,9L6,12C-2,25 7,27 0,33C3,26 -3,28 -3,16" style="fill:rgb(252,209,22);fill-rule:nonzero;stroke:black;stroke-width:0.6px;"/>
                    </g>
                    <g transform="matrix(0.92388,0.382683,-0.382683,0.92388,0,0)">
                        <path d="M0,11C-2,24 4.5,28 0,33" style="fill:none;fill-rule:nonzero;stroke:black;stroke-width:0.6px;stroke-linecap:butt;"/>
                    </g>
                    <path d="M0,0L6,0L0,33L-6,0L0,0L0,33" style="fill:rgb(252,209,22);fill-rule:nonzero;stroke:black;stroke-width:0.6px;stroke-linecap:butt;"/>
                </g>
                <g id="a7" serif:id="a" transform="matrix(0.707107,0.707107,-0.707107,0.707107,0,0)">
                    <g transform="matrix(0.92388,0.382683,-0.382683,0.92388,0,0)">
                        <path d="M1.5,9L6,12C-2,25 7,27 0,33C3,26 -3,28 -3,16" style="fill:rgb(252,209,22);fill-rule:nonzero;stroke:black;stroke-width:0.6px;"/>
                    </g>
                    <g transform="matrix(0.92388,0.382683,-0.382683,0.92388,0,0)">
                        <path d="M0,11C-2,24 4.5,28 0,33" style="fill:none;fill-rule:nonzero;stroke:black;stroke-width:0.6px;stroke-linecap:butt;"/>
                    </g>
                    <path d="M0,0L6,0L0,33L-6,0L0,0L0,33" style="fill:rgb(252,209,22);fill-rule:nonzero;stroke:black;stroke-width:0.6px;stroke-linecap:butt;"/>
                </g>
            </g>
        </g>
        <circle cx="0" cy="0" r="11" style="fill:rgb(252,209,22);stroke:black;stroke-width:0.6px;stroke-linecap:butt;"/>
    </g>
    <g transform="matrix(0.29333,0,0,0.29333,133.333,133.333)">
        <g id="d">
            <path d="M81,-44C74,-36 70,-50 45,-50C20,-50 16,-35 12,-38C8,-41 33,-59 41,-60C49,-61 72,-53 81,-44M52,-35C59,-29 53,-16 46,-16C39,-16 26,-28 32,-36" style="fill-rule:nonzero;"/>
            <path d="M19,-26C20,-38 30,-40 46,-40C62,-40 69,-28 75,-25C68,-25 62,-35 46,-35C30,-35 30,-35 19,-25M22,-23C26,-29 31,-17 42,-17C53,-17 59,-20 66,-25C73,-30 56,-13 45,-13C34,-13 19,-19 22,-23" style="fill-rule:nonzero;"/>
            <path d="M56,-17C69,-24 61,-34 56,-36C58,-34 66,-24 56,-17M0,43C6,43 8,41 16,41C24,41 43,52 54,48C31,57 40,51 0,51L-5,51M58,57C54,50 55,52 47,41C55,47 57,50 58,57M0,67C25,67 21,62 54,48C30,51 25,59 0,59L-5,59M0,30C7,30 9,25 17,25C25,25 36,28 41,32C42,33 38,24 30,23C22,22 25,9 16,7C16,11 19,10 20,16C20,21 11,21 9,16C11,24 5,24 0,24" style="fill-rule:nonzero;"/>
        </g>
        <g id="d1" serif:id="d" transform="matrix(-1,0,0,1,0,0)">
            <path d="M81,-44C74,-36 70,-50 45,-50C20,-50 16,-35 12,-38C8,-41 33,-59 41,-60C49,-61 72,-53 81,-44M52,-35C59,-29 53,-16 46,-16C39,-16 26,-28 32,-36" style="fill-rule:nonzero;"/>
            <path d="M19,-26C20,-38 30,-40 46,-40C62,-40 69,-28 75,-25C68,-25 62,-35 46,-35C30,-35 30,-35 19,-25M22,-23C26,-29 31,-17 42,-17C53,-17 59,-20 66,-25C73,-30 56,-13 45,-13C34,-13 19,-19 22,-23" style="fill-rule:nonzero;"/>
            <path d="M56,-17C69,-24 61,-34 56,-36C58,-34 66,-24 56,-17M0,43C6,43 8,41 16,41C24,41 43,52 54,48C31,57 40,51 0,51L-5,51M58,57C54,50 55,52 47,41C55,47 57,50 58,57M0,67C25,67 21,62 54,48C30,51 25,59 0,59L-5,59M0,30C7,30 9,25 17,25C25,25 36,28 41,32C42,33 38,24 30,23C22,22 25,9 16,7C16,11 19,10 20,16C20,21 11,21 9,16C11,24 5,24 0,24" style="fill-rule:nonzero;"/>
        </g>
        <path d="M0,76C-5,76 -18,79 0,79C18,79 5,76 0,76" style="fill-rule:nonzero;"/>
    </g>
</svg>
