<?xml version="1.0" encoding="UTF-8" standalone="no"?>
<!DOCTYPE svg PUBLIC "-//W3C//DTD SVG 1.1//EN" "http://www.w3.org/Graphics/SVG/1.1/DTD/svg11.dtd">
<svg width="100%" height="100%" viewBox="0 0 640 480" version="1.1" xmlns="http://www.w3.org/2000/svg" xmlns:xlink="http://www.w3.org/1999/xlink" xml:space="preserve" xmlns:serif="http://www.serif.com/" style="fill-rule:evenodd;clip-rule:evenodd;">
    <g>
        <clipPath id="_clip1">
            <rect x="0" y="0" width="640" height="480"/>
        </clipPath>
        <g clip-path="url(#_clip1)">
            <rect x="-40" y="0" width="720" height="480" style="fill:rgb(198,0,0);"/>
            <rect x="-40" y="68.57" width="720" height="342.86" style="fill:rgb(0,59,178);"/>
            <path d="M457.137,239.998C457.137,315.741 395.734,377.141 319.995,377.141C244.252,377.141 182.853,315.739 182.853,239.999C182.853,164.256 244.255,102.857 319.995,102.857C395.738,102.857 457.137,164.26 457.137,239.999L457.137,239.998Z" style="fill:white;"/>
            <g>
                <g transform="matrix(0.199,0,0,0.1704,345.244,141.57)">
                    <path d="M0,318.04C6.927,319.06 14.39,319.246 23.312,318.04C30.717,320.034 36.175,323.687 41.629,326.366C44.685,332.031 48.967,340.366 53.284,344.682C55.158,351.554 57.924,354.437 61.61,361.334C62.53,368.129 64.793,374.951 61.61,381.314C57.815,386.06 51.853,388.83 46.625,391.306C39.723,394.994 35.688,396.352 26.643,397.966C19.199,399.296 11.613,399.632 3.331,399.632C-4.681,398.202 -10.859,396.875 -18.315,396.302C-25.729,394.978 -34.213,394.295 -41.627,392.972C-46.44,390.156 -52.653,387.845 -58.277,386.312C-62.185,382.586 -67.837,378.358 -73.264,374.655C-77.454,367.153 -81.268,364.449 -84.92,358.003C-88.238,353.127 -89.812,346.833 -89.917,338.023C-87.292,332.678 -82.957,327.493 -79.927,323.036C-74.729,319.603 -68.854,315.046 -61.61,311.38C-51.826,311.034 -48.006,308.166 -38.298,308.05L-13.321,308.05C-7.671,308.615 -4.881,313.633 -0.001,318.04L0,318.04Z" style="fill:rgb(0,51,0);stroke:black;stroke-width:3.75px;"/>
                </g>
                <g transform="matrix(0.199,0,0,0.1704,278.923,126.253)">
                    <path d="M273.08,659.39C266.42,621.092 256.428,526.18 256.428,484.55C258.093,452.91 377.988,344.68 381.318,333.02C384.648,321.364 446.258,233.11 456.248,206.47C431.272,224.786 389.643,304.713 381.318,313.04C372.992,321.366 399.634,229.783 391.308,201.48C382.983,234.783 369.662,319.7 359.671,328.03C354.677,333.026 268.089,432.93 258.101,429.6C248.111,426.27 221.469,409.62 226.465,399.628C231.46,389.638 298.065,328.028 301.395,306.38C304.725,284.732 309.722,233.114 316.382,228.12C323.044,223.123 333.035,198.146 341.36,178.164C319.714,188.154 316.383,218.128 308.058,219.794C299.732,221.458 279.75,186.49 279.75,186.49C279.75,186.49 293.07,224.788 294.736,233.114C296.402,241.44 288.076,296.389 283.08,303.05C278.085,309.71 241.452,356.334 234.79,358C228.13,359.665 209.814,281.403 209.814,266.417C209.814,251.431 223.134,193.151 209.814,189.82C201.488,189.82 199.824,258.09 194.828,258.09C189.832,258.09 178.176,189.82 178.176,189.82C178.176,189.82 171.516,221.458 174.846,243.104C164.856,244.77 138.213,203.142 138.213,203.142C138.213,203.142 188.168,289.729 198.16,293.059C208.15,298.053 218.14,361.329 216.476,364.659C214.812,367.989 166.522,348.009 156.531,341.347C146.541,334.687 126.558,261.42 126.558,261.42C126.558,261.42 136.548,333.022 124.893,323.032C113.237,313.042 94.921,304.715 84.93,289.729C74.94,274.742 79.935,213.131 79.935,213.131C79.935,213.131 63.285,268.081 56.623,268.081C49.963,268.081 28.316,194.815 28.316,194.815C28.316,194.815 31.646,274.742 41.636,279.737C51.626,284.732 201.486,384.637 203.156,394.637C204.822,404.627 223.139,442.925 233.13,454.581C231.464,476.228 239.79,616.101 243.12,649.401L273.093,659.391L273.08,659.39Z" style="fill:rgb(82,9,0);stroke:black;stroke-width:1px;"/>
                </g>
                <g transform="matrix(0.199,0,0,0.1704,343.254,135.897)">
                    <path d="M-338.02,133.21C-336.17,139.626 -335.492,145.356 -326.364,148.196C-321.31,150.121 -311.357,152.726 -306.382,154.856C-301.14,157.34 -295.242,160.45 -288.066,161.516C-282.672,163.316 -273.486,165.166 -266.419,166.513C-258.975,167.843 -251.389,168.178 -243.106,168.178C-233.549,166.471 -229.296,164.748 -223.126,159.852C-221.274,153.066 -218.782,150.02 -218.129,141.535C-217.562,133.591 -216.464,126.715 -216.464,118.225C-218.004,113.601 -218.254,102.865 -219.794,98.242C-225.371,92.776 -226.844,89.592 -236.446,86.586C-243.922,83.204 -250.753,83.256 -259.758,83.256C-266.718,85.576 -275.101,84.921 -283.068,84.921L-306.38,84.921C-313.353,86.438 -318.672,87.684 -324.697,91.581C-332.829,95.255 -334.034,97.899 -338.017,106.569C-340.951,115.369 -341.053,121.984 -338.017,133.211L-338.02,133.21Z" style="fill:rgb(0,51,0);stroke:black;stroke-width:3.75px;"/>
                </g>
                <g transform="matrix(0.199,0,0,0.1704,342.26,137.6)">
                    <path d="M-329.7,191.49C-329.7,188.71 -335.72,194.18 -338.026,196.485C-343.418,200.259 -345.673,205.3 -346.352,214.802C-348.854,219.992 -346.352,228.516 -346.352,236.448C-346.352,245.628 -346.29,252.033 -341.356,256.43C-335.758,259.875 -333.066,261.425 -323.04,261.425L-276.416,261.425C-270.52,259.46 -263.326,258.472 -256.434,256.43C-248.729,252.345 -243.364,251.913 -234.788,249.77C-229.905,245.532 -223.153,241.17 -214.806,239.78C-205.259,239.324 -199.549,235.99 -193.159,231.453C-184.942,229.399 -177.523,225.088 -171.511,221.463C-166.674,218.173 -163.201,214.047 -159.855,208.141C-156.459,200.217 -155.373,195.247 -161.52,186.495C-173.664,182.08 -167.63,177.305 -176.508,173.175C-180.57,170.721 -190.032,167.501 -194.824,164.848C-203.117,165.463 -209.016,167.528 -218.136,168.178C-222.846,170.534 -232.504,169.844 -239.783,169.844L-266.425,169.844C-274.393,169.844 -282.775,169.188 -289.737,171.509C-296.404,173.327 -299.722,176.351 -306.387,178.169C-310.781,181.156 -317.895,183.579 -323.04,186.495L-306.388,178.169C-310.781,181.156 -317.895,183.579 -329.7,191.491L-329.7,191.49Z" style="fill:rgb(0,51,0);stroke:black;stroke-width:3.75px;"/>
                </g>
                <g transform="matrix(0.199,0,0,0.1453,343.918,141.036)">
                    <path d="M-186.5,49.95C-183.186,49.95 -191.7,53.93 -194.826,56.61C-198.836,63.673 -199.3,70.032 -201.486,76.59C-204.052,82.363 -207.213,89.657 -208.146,96.573C-211.286,104.067 -213.026,106.799 -213.143,116.555C-213.143,124.232 -213.233,132.935 -211.478,138.201C-206.428,144.564 -201.578,148.178 -193.161,153.188C-185.955,155.683 -180.671,157.172 -173.181,158.184L-149.868,158.184C-144.601,159.94 -135.898,159.849 -128.222,159.849C-119.73,156.677 -116.514,152.641 -108.242,151.523C-99.126,150.695 -97.554,146.881 -93.255,139.867C-89.257,134.699 -87.581,128.854 -86.595,121.551C-86.595,113.151 -87.345,105.923 -88.26,98.239C-92.266,93.745 -95.312,87.543 -98.25,79.923C-103.396,71.103 -103.402,67.183 -111.57,63.273C-115.547,57.843 -122.42,55.203 -126.558,51.616C-135.208,50.998 -141.776,49.922 -148.204,46.621C-155.882,46.621 -164.584,46.531 -169.851,48.286C-175.881,48.286 -180.297,48.856 -186.501,49.951L-186.5,49.95Z" style="fill:rgb(0,51,0);stroke:black;stroke-width:3.75px;"/>
                </g>
                <g transform="matrix(0.199,0,0,0.1704,342.59,135.33)">
                    <path d="M-58.28,64.935C-59.267,64.935 -62.357,69.759 -64.94,74.925C-69.284,81.841 -69.865,88.241 -73.266,93.242C-74.596,100.685 -74.931,108.27 -74.931,116.554C-74.177,124.868 -71.736,127.877 -66.607,131.541C-58.894,135.921 -55.24,137.953 -46.625,139.867C-39.178,140.44 -33.825,141.532 -24.978,141.532C-17.01,141.532 -8.628,142.189 -1.666,139.868C6.617,139.868 14.204,139.532 21.646,138.203C25.469,134.963 33.686,132.063 38.296,129.879C43.779,123.237 46.403,116.634 49.953,111.562C49.953,101.739 50.031,95.997 44.958,88.249C41.336,81.861 36.996,78.929 31.635,73.263C24.917,70.927 19.255,66.068 11.653,64.938L-58.28,64.938L-58.28,64.935Z" style="fill:rgb(0,51,0);stroke:black;stroke-width:3.75px;"/>
                </g>
                <g transform="matrix(0.199,0,0,0.1704,340.602,141.854)">
                    <path d="M76.596,76.59C70.31,79.21 68.006,79.89 64.94,86.582C60.32,93.697 57.598,97.044 53.284,101.568C52.294,108.232 49.641,115.448 46.624,119.885C45.709,127.569 44.958,134.798 44.958,143.197C49.18,149.683 55.043,155.8 61.608,159.847C68.4,162.199 75.558,165.78 81.591,168.174C89.358,170.207 96.543,172.572 104.904,173.169C112.121,174.973 120.068,174.833 128.216,174.833C135.62,173.223 141.966,171.355 148.196,166.508C151.53,161.311 155.353,155.462 156.523,146.525C159.277,138.262 157.063,127.465 153.193,119.883C151.153,112.406 148.177,109.51 139.873,104.896C135.277,100.042 129.17,94.574 124.885,91.576C119.605,86.991 112.743,86.422 104.905,83.249C96.412,81.363 93.567,78.919 84.922,78.255L104.905,83.25C96.417,81.365 93.572,78.92 76.601,76.59L76.596,76.59Z" style="fill:rgb(0,51,0);stroke:black;stroke-width:3.75px;"/>
                </g>
                <g transform="matrix(0.252,0,0,0.132,337.902,146.95)">
                    <path d="M-51.62,146.53C-59.237,149.993 -62.78,154.165 -68.27,159.85C-68.27,168.697 -67.178,174.05 -66.605,181.498C-63.139,186.232 -59.461,195.748 -56.615,199.814C-54.442,206.626 -49.693,211.951 -46.623,216.466C-38.933,219.578 -31.128,221.906 -23.311,224.791C-14.114,224.791 -8.214,226.851 -0.001,228.123C6.962,230.443 15.344,229.788 23.312,229.788C31.459,229.788 39.406,229.648 46.624,231.453C54.327,232.823 60.02,235.813 68.271,236.448C73.011,235.998 81.407,235.31 88.253,234.783C95.92,231.298 99.235,229.076 103.24,223.127C106.993,218.585 106.57,211.86 106.57,203.147C108.173,194.174 108.663,188.139 104.906,179.834C104.798,170.874 103.089,166.662 101.576,158.187C98.57,152.177 95.929,149.537 89.919,146.531C84.454,142.723 77.055,140.533 71.602,136.541C64.169,135.655 55.842,134.491 49.955,133.211C43.445,128.869 38.022,126.665 28.308,126.549C18.793,125.417 14.311,124.286 6.66,128.214C-1.33,128.784 -8.49,130.384 -13.322,133.21C-19.466,133.68 -28.605,134.19 -33.304,136.54C-40.718,136.54 -43.291,137.827 -49.954,138.204L-33.304,136.539C-40.718,136.539 -43.291,137.826 -51.62,146.529L-51.62,146.53Z" style="fill:rgb(0,51,0);stroke:black;stroke-width:3.75px;"/>
                </g>
                <g transform="matrix(0.199,0,0,0.1704,344.25,138.734)">
                    <path d="M-123.22,278.07C-127.52,277.438 -140.498,276.405 -149.862,276.405C-158.609,276.405 -165.722,276.985 -173.174,279.735C-181.149,281.272 -187.057,283.782 -193.156,286.395C-198.209,288.789 -204.109,291.225 -208.142,294.721C-213.097,298.091 -217.272,301.057 -221.462,308.043C-225.939,314.465 -226.407,318.603 -229.789,326.36L-229.789,349.67C-229.201,357.304 -228.149,363.9 -224.793,371.318C-219.771,375.335 -212.816,376.6 -206.476,377.978C-200.446,379.288 -192.601,380.753 -184.829,381.308C-175.589,381.308 -170.669,381.774 -163.183,384.638C-153.436,384.278 -151.577,382.011 -143.201,377.978C-133.887,374.286 -128.341,372.918 -119.889,367.988C-114.716,363.908 -111.311,357.003 -108.233,349.671C-103.543,342.097 -100.323,334.786 -96.577,328.025C-94.773,320.807 -94.912,312.861 -94.912,304.713C-97.132,298.455 -100.664,295.808 -104.902,289.727C-109.519,284.677 -111.575,280.781 -114.894,276.407L-104.904,289.727C-109.519,284.677 -111.574,280.781 -123.219,278.071L-123.22,278.07Z" style="fill:rgb(0,51,0);stroke:black;stroke-width:3.75px;"/>
                </g>
                <g transform="matrix(0.2554,0,0,0.1425,350.637,136.542)">
                    <path d="M0,318.04C6.927,319.06 14.39,319.246 23.312,318.04C30.717,320.034 36.175,323.687 41.629,326.366C44.685,332.031 48.967,340.366 53.284,344.682C55.158,351.554 57.924,354.437 61.61,361.334C62.53,368.129 64.793,374.951 61.61,381.314C57.815,386.06 51.853,388.83 46.625,391.306C39.723,394.994 35.688,396.352 26.643,397.966C19.199,399.296 11.613,399.632 3.331,399.632C-4.681,398.202 -10.859,396.875 -18.315,396.302C-25.729,394.978 -34.213,394.295 -41.627,392.972C-46.44,390.156 -52.653,387.845 -58.277,386.312C-62.185,382.586 -67.837,378.358 -73.264,374.655C-77.454,367.153 -81.268,364.449 -84.92,358.003C-88.238,353.127 -89.812,346.833 -89.917,338.023C-87.292,332.678 -82.957,327.493 -79.927,323.036C-74.729,319.603 -68.854,315.046 -61.61,311.38C-51.826,311.034 -48.006,308.166 -38.298,308.05L-13.321,308.05C-7.671,308.615 -4.881,313.633 -0.001,318.04L0,318.04Z" style="fill:rgb(0,51,0);stroke:black;stroke-width:3.75px;"/>
                </g>
            </g>
            <g>
                <g transform="matrix(0.1647,-0.0123,0.0082,0.1518,294.243,194.227)">
                    <path d="M200.16,613.18L204.87,606.116L191.918,603.761L201.338,594.343L188.386,589.633L201.338,580.213L188.386,573.149L202.516,567.262L195.451,555.489L209.581,557.844L203.694,543.714L220.178,550.779L220.178,531.939L231.952,544.892L241.372,528.408L248.437,543.714L262.567,527.23L267.277,540.182L288.469,529.585L282.582,546.069L304.952,536.649L300.242,555.489L321.437,546.069L313.195,563.731L334.389,564.907L316.727,575.504L334.389,582.568L317.905,591.988L332.035,603.762C286.899,624.564 252.361,631.236 200.165,613.182L200.16,613.18Z" style="fill:rgb(0,106,0);stroke:black;stroke-width:3.71px;"/>
                </g>
                <g transform="matrix(0.1647,-0.0123,0.0082,0.1518,255.207,193.094)">
                    <path d="M200.16,613.18L204.87,606.116L191.918,603.761L201.338,594.343L188.386,589.633L201.338,580.213L188.386,573.149L202.516,567.262L195.451,555.489L209.581,557.844L203.694,543.714L220.178,550.779L220.178,531.939L231.952,544.892L241.372,528.408L248.437,543.714L262.567,527.23L267.277,540.182L288.469,529.585L282.582,546.069L304.952,536.649L300.242,555.489L321.437,546.069L313.195,563.731L334.389,564.907L316.727,575.504L334.389,582.568L317.905,591.988L332.035,603.762C286.899,624.564 252.361,631.236 200.165,613.182L200.16,613.18Z" style="fill:rgb(0,106,0);stroke:black;stroke-width:3.71px;"/>
                </g>
                <g transform="matrix(0.1647,-0.0123,0.0082,0.1518,315.932,193.66)">
                    <path d="M200.16,613.18L204.87,606.116L191.918,603.761L201.338,594.343L188.386,589.633L201.338,580.213L188.386,573.149L202.516,567.262L195.451,555.489L209.581,557.844L203.694,543.714L220.178,550.779L220.178,531.939L231.952,544.892L241.372,528.408L248.437,543.714L262.567,527.23L267.277,540.182L288.469,529.585L282.582,546.069L304.952,536.649L300.242,555.489L321.437,546.069L313.195,563.731L334.389,564.907L316.727,575.504L334.389,582.568L317.905,591.988L332.035,603.762C286.899,624.564 252.361,631.236 200.165,613.182L200.16,613.18Z" style="fill:rgb(0,106,0);stroke:black;stroke-width:3.71px;"/>
                </g>
                <g transform="matrix(0.1602,-0.0466,0.031,0.1476,288.976,212.412)">
                    <path d="M200.16,613.18L204.87,606.116L191.918,603.761L201.338,594.343L188.386,589.633L201.338,580.213L188.386,573.149L202.516,567.262L195.451,555.489L209.581,557.844L203.694,543.714L220.178,550.779L220.178,531.939L231.952,544.892L241.372,528.408L248.437,543.714L262.567,527.23L267.277,540.182L288.469,529.585L282.582,546.069L304.952,536.649L300.242,555.489L321.437,546.069L313.195,563.731L334.389,564.907L316.727,575.504L334.389,582.568L317.905,591.988L332.035,603.762C286.899,624.564 252.361,631.236 200.165,613.182L200.16,613.18Z" style="fill:rgb(0,106,0);stroke:black;stroke-width:3.71px;"/>
                </g>
                <g transform="matrix(0.1647,-0.0123,0.0082,0.1518,330.39,202.72)">
                    <path d="M200.16,613.18L204.87,606.116L191.918,603.761L201.338,594.343L188.386,589.633L201.338,580.213L188.386,573.149L202.516,567.262L195.451,555.489L209.581,557.844L203.694,543.714L220.178,550.779L220.178,531.939L231.952,544.892L241.372,528.408L248.437,543.714L262.567,527.23L267.277,540.182L288.469,529.585L282.582,546.069L304.952,536.649L300.242,555.489L321.437,546.069L313.195,563.731L334.389,564.907L316.727,575.504L334.389,582.568L317.905,591.988L332.035,603.762C286.899,624.564 252.361,631.236 200.165,613.182L200.16,613.18Z" style="fill:rgb(0,106,0);stroke:black;stroke-width:3.71px;"/>
                </g>
                <g transform="matrix(0.1647,-0.0123,0.0082,0.1518,314.006,204.422)">
                    <path d="M200.16,613.18L204.87,606.116L191.918,603.761L201.338,594.343L188.386,589.633L201.338,580.213L188.386,573.149L202.516,567.262L195.451,555.489L209.581,557.844L203.694,543.714L220.178,550.779L220.178,531.939L231.952,544.892L241.372,528.408L248.437,543.714L262.567,527.23L267.277,540.182L288.469,529.585L282.582,546.069L304.952,536.649L300.242,555.489L321.437,546.069L313.195,563.731L334.389,564.907L316.727,575.504L334.389,582.568L317.905,591.988L332.035,603.762C286.899,624.564 252.361,631.236 200.165,613.182L200.16,613.18Z" style="fill:rgb(0,106,0);stroke:black;stroke-width:3.71px;"/>
                </g>
                <g transform="matrix(0.1647,-0.0123,0.0082,0.1518,238.82,193.094)">
                    <path d="M200.16,613.18L204.87,606.116L191.918,603.761L201.338,594.343L188.386,589.633L201.338,580.213L188.386,573.149L202.516,567.262L195.451,555.489L209.581,557.844L203.694,543.714L220.178,550.779L220.178,531.939L231.952,544.892L241.372,528.408L248.437,543.714L262.567,527.23L267.277,540.182L288.469,529.585L282.582,546.069L304.952,536.649L300.242,555.489L321.437,546.069L313.195,563.731L334.389,564.907L316.727,575.504L334.389,582.568L317.905,591.988L332.035,603.762C286.899,624.564 252.361,631.236 200.165,613.182L200.16,613.18Z" style="fill:rgb(0,106,0);stroke:black;stroke-width:3.71px;"/>
                </g>
                <g transform="matrix(0.1602,-0.0466,0.031,0.1476,211.86,211.848)">
                    <path d="M200.16,613.18L204.87,606.116L191.918,603.761L201.338,594.343L188.386,589.633L201.338,580.213L188.386,573.149L202.516,567.262L195.451,555.489L209.581,557.844L203.694,543.714L220.178,550.779L220.178,531.939L231.952,544.892L241.372,528.408L248.437,543.714L262.567,527.23L267.277,540.182L288.469,529.585L282.582,546.069L304.952,536.649L300.242,555.489L321.437,546.069L313.195,563.731L334.389,564.907L316.727,575.504L334.389,582.568L317.905,591.988L332.035,603.762C286.899,624.564 252.361,631.236 200.165,613.182L200.16,613.18Z" style="fill:rgb(0,106,0);stroke:black;stroke-width:3.71px;"/>
                </g>
                <g transform="matrix(0.1647,-0.0123,0.0082,0.1518,253.28,202.156)">
                    <path d="M200.16,613.18L204.87,606.116L191.918,603.761L201.338,594.343L188.386,589.633L201.338,580.213L188.386,573.149L202.516,567.262L195.451,555.489L209.581,557.844L203.694,543.714L220.178,550.779L220.178,531.939L231.952,544.892L241.372,528.408L248.437,543.714L262.567,527.23L267.277,540.182L288.469,529.585L282.582,546.069L304.952,536.649L300.242,555.489L321.437,546.069L313.195,563.731L334.389,564.907L316.727,575.504L334.389,582.568L317.905,591.988L332.035,603.762C286.899,624.564 252.361,631.236 200.165,613.182L200.16,613.18Z" style="fill:rgb(0,106,0);stroke:black;stroke-width:3.71px;"/>
                </g>
                <g transform="matrix(0.1647,-0.0123,0.0082,0.1518,236.893,203.853)">
                    <path d="M200.16,613.18L204.87,606.116L191.918,603.761L201.338,594.343L188.386,589.633L201.338,580.213L188.386,573.149L202.516,567.262L195.451,555.489L209.581,557.844L203.694,543.714L220.178,550.779L220.178,531.939L231.952,544.892L241.372,528.408L248.437,543.714L262.567,527.23L267.277,540.182L288.469,529.585L282.582,546.069L304.952,536.649L300.242,555.489L321.437,546.069L313.195,563.731L334.389,564.907L316.727,575.504L334.389,582.568L317.905,591.988L332.035,603.762C286.899,624.564 252.361,631.236 200.165,613.182L200.16,613.18Z" style="fill:rgb(0,106,0);stroke:black;stroke-width:3.71px;"/>
                </g>
                <g transform="matrix(-0.3346,-0.014,0.019,-0.1517,399.813,380.192)">
                    <path d="M200.16,613.18L204.87,606.116L191.918,603.761L201.338,594.343L188.386,589.633L201.338,580.213L188.386,573.149L202.516,567.262L195.451,555.489L209.581,557.844L203.694,543.714L220.178,550.779L220.178,531.939L231.952,544.892L241.372,528.408L248.437,543.714L262.567,527.23L267.277,540.182L288.469,529.585L282.582,546.069L304.952,536.649L300.242,555.489L321.437,546.069L313.195,563.731L334.389,564.907L316.727,575.504L334.389,582.568L317.905,591.988L332.035,603.762C286.899,624.564 252.361,631.236 200.165,613.182L200.16,613.18Z" style="fill:rgb(0,106,0);stroke:black;stroke-width:3.71px;"/>
                </g>
            </g>
            <g transform="matrix(0.273,0,0,0.3008,278.558,210.98)">
                <path d="M356.34,196.48C356.34,218.992 337.345,203.14 318.042,203.14C298.74,203.14 281.41,220.657 278.08,203.14C278.08,193.95 303.735,179.828 323.037,179.828C337.345,181.494 359.671,175.632 356.34,196.48Z" style="fill:rgb(81,8,0);stroke:black;stroke-width:2.5px;"/>
            </g>
            <g transform="matrix(-0.273,0,0,0.3008,369.707,209.612)">
                <path d="M356.34,196.48C356.34,218.992 337.345,203.14 318.042,203.14C298.74,203.14 281.41,220.657 278.08,203.14C278.08,193.95 303.735,179.828 323.037,179.828C337.345,181.494 359.671,175.632 356.34,196.48Z" style="fill:rgb(255,198,0);stroke:black;stroke-width:2.5px;"/>
            </g>
            <g transform="matrix(0.3368,0,0,0.3286,277.827,205.293)">
                <path d="M349.68,188.16C349.68,201.954 342.598,213.137 333.86,213.137C325.124,213.137 318.042,201.954 318.042,188.16C318.042,174.366 325.124,163.183 333.862,163.183C342.597,163.183 349.68,174.366 349.68,188.16Z" style="fill:rgb(82,9,0);stroke:black;stroke-width:2.5px;"/>
            </g>
            <g transform="matrix(-0.6243,-0.1173,-0.3707,0.6237,523.736,93.658)">
                <g transform="matrix(-0.7233,-0.545,0.52,-0.758,322.39,677.92)">
                    <path d="M273.75,383.58C271.013,388.14 316.726,396.532 331.444,405.95C346.164,415.37 346.162,415.96 352.638,420.67L354.403,417.725C350.87,414.193 315.91,391.37 292,383.58C285.195,381.307 281.7,370.332 279.05,374.75L273.75,383.58Z" style="fill:rgb(175,128,0);stroke:black;stroke-width:1px;"/>
                </g>
                <g transform="matrix(0.8444,-0.2975,0.2838,0.885,-89.238,-64.18)">
                    <path d="M319.08,369.45L293.765,363.563C293.765,363.563 287.878,365.917 287.29,374.748C286.7,383.578 292,388.878 292,388.878L319.08,379.458L319.08,369.45Z" style="fill:rgb(128,128,128);stroke:black;stroke-width:1px;"/>
                </g>
                <g transform="matrix(0.8444,-0.2975,0.2838,0.885,-19.207,-255.61)">
                    <path d="M182.774,537.12C182.774,535.74 181.191,534.62 179.242,534.62C177.293,534.62 175.71,535.74 175.71,537.12L175.71,551.548C175.71,552.928 177.293,554.048 179.242,554.048C181.191,554.048 182.774,552.928 182.774,551.548L182.774,537.12Z" style="fill:rgb(128,128,128);stroke:black;stroke-width:1px;"/>
                </g>
            </g>
            <g transform="matrix(0.7148,0.1604,0.3327,0.529,132.425,68.156)">
                <path d="M244.77,87.42C252.092,81.472 255.927,83.7 262.42,90.52C271.742,100.335 303.737,149.375 308.732,153.539C313.727,157.703 312.972,147.121 319.076,152.151C322.108,155.878 308.639,169.177 305.339,166.721C298.927,161.699 309.253,161.345 304.984,157.076C300.059,151.943 253.769,116.579 244.702,106.506C238.782,99.928 238.388,92.536 244.769,87.418L244.77,87.42Z" style="fill:rgb(146,61,9);stroke:black;stroke-width:1.25px;"/>
            </g>
            <g>
                <g transform="matrix(-0.1285,0,0,0.2044,282.003,186.258)">
                    <path d="M193.63,88.25C209.176,92.673 236.905,134.37 247.396,134.04C264.048,133.56 330.629,56.48 319.96,45.788C312.56,37.542 252.02,86.98 248.108,89.914C247.438,81.314 232.158,38.872 219.798,29.969C205.178,20.659 187.588,25.811 171.978,23.307C164.678,20.464 153.138,9.251 148.198,-1.669C156.38,-5.213 163.521,-4.149 171.508,-12.319C177.188,-18.962 173.89,-59.233 171.878,-63.379C158.588,-77.647 177.308,-70.706 132.855,-72.461C68.587,-74.907 56.977,-22.879 101.202,-1.669C97.74,14.259 86.982,17.925 78.262,19.977C69.486,20.083 39.437,19.214 22.717,32.467C-10.686,57.017 13.792,63.37 7.365,68.267C0.192,73.91 -10.503,88.093 -14.523,96.573C-24.995,101.569 -114.008,91.578 -131.023,94.909C-147.443,95.874 -187.49,110.727 -204.173,121.549C-200.608,135.692 37.337,113.947 45.097,119.053C51.043,122.398 42.392,170.29 47.107,174.003C48.767,183.065 163.647,179.831 172.707,179.831C180.265,160.971 188.097,98.273 193.633,88.248L193.63,88.25Z" style="fill:rgb(255,198,0);stroke:black;stroke-width:4.7px;"/>
                </g>
                <g transform="matrix(-0.1542,0,0,0.1434,285.62,187.117)">
                    <path d="M174.9,-96.568C176.443,-71.111 167.782,-93.264 136.53,-93.264C75.97,-98.3 97.246,5.932 97.246,-26.24C71.018,-39.95 52.41,-126.53 126.86,-123.17C150.4,-123.17 171.82,-115.312 174.905,-96.567L174.9,-96.568Z" style="stroke:black;stroke-width:5.13px;"/>
                </g>
                <g transform="matrix(-0.202,0,0,0.2044,353.21,179.875)">
                    <path d="M387.98,96.574C387.98,98.254 387.808,104.531 387.147,108.23C386.702,111.97 385.607,116.307 384.649,119.053C384.306,123.505 382.557,124.227 382.151,129.043C380.607,131.313 379.941,134.988 379.653,139.035C379.653,143.305 380.339,146.593 380.486,150.691C380.966,154.251 382.098,157.058 382.151,161.515C382.151,165.88 382.146,169.065 380.486,171.505L380.486,177.335" style="fill:none;fill-rule:nonzero;stroke:black;stroke-width:3.75px;"/>
                </g>
                <g transform="matrix(-0.202,0,0,0.2044,353.21,179.875)">
                    <path d="M383.81,76.592C384.39,76.592 384.84,96.722 389.638,101.57C390.678,104.782 394.212,108.913 395.466,111.56C397.138,114.02 399.446,116.928 403.792,118.22L415.448,118.22C420.082,118.22 422.921,118.276 426.271,116.556C427.757,115.756 428.803,114.71 429.601,113.226M442.09,115.72L442.922,115.72C440.595,115.72 441.83,115.616 446.252,117.385C447.978,119.922 450.022,121.01 452.912,122.381C455.895,123.849 459.304,124.047 463.736,124.047C467.934,123.693 470.476,122.361 472.896,120.717C476.938,119.407 477.71,117.781 478.723,113.223L478.723,101.567C478.245,98.037 477.339,95.195 476.225,92.409C475.805,91.151 475.392,91.704 475.392,89.912M510.36,121.55C509.935,121.55 507.71,124.125 506.197,126.545C503.629,127.463 502.964,130.261 502.035,132.373C501.365,135.048 500.369,135.233 500.369,139.033C498.691,142.743 498.164,146.041 497.871,149.857L500.368,139.034C498.69,142.742 498.163,146.041 497.87,149.857M461.24,54.946L460.407,54.946C462.657,54.946 461.507,54.893 457.077,55.779C455.26,58.049 452.27,60.083 449.584,61.605C446.607,63.43 444.217,65.615 441.258,66.601L449.584,61.605C446.607,63.43 444.217,65.615 441.258,66.601M402.13,51.615L402.963,51.615C400.715,51.615 401.858,51.561 406.293,52.448C409.229,53.838 411.045,55.338 413.786,57.443C415.076,59.378 417.043,59.748 417.949,63.271C419.522,64.119 420.072,64.941 420.446,67.435M427.11,29.968L431.273,29.968C435.803,29.968 438.006,30.648 442.097,30.801C445.635,30.377 446.479,29.064 449.59,28.304M442.93,133.21C443.07,133.87 444.582,137.466 445.428,139.038C446.945,141.55 448.966,143.952 449.591,147.364C450.561,150.269 451.118,153.594 451.257,157.354C452.017,160.857 452.521,163.974 450.424,166.514C449.526,169.804 447.854,172.204 446.262,175.671C445.152,175.671 445.43,175.394 445.43,176.505M416.28,134.87L416.28,135.703C416.28,133.455 416.335,134.598 415.448,139.033C414.301,143.046 413.298,146.421 411.285,149.023C410.187,152.318 408.959,153.528 408.787,158.183C409.449,159.726 409.62,161.445 409.62,164.01M412.12,169.01L412.12,173.173C413.028,174.383 412.67,174.467 413.785,174.838M343.02,128.21L343.02,129.042C343.02,126.715 342.762,128.106 347.183,129.875C350.755,130.513 355.12,130.912 358.006,131.54C360.678,132.852 363.271,135.02 365.499,136.535C367.492,138.263 370.317,140.015 372.992,141.531C375.996,143.034 377.317,144.355 378.82,147.361C379.728,148.571 379.37,148.653 380.486,149.025" style="fill:none;fill-rule:nonzero;stroke:black;stroke-width:3.75px;"/>
                </g>
                <g transform="matrix(-0.3155,0,0,0.2044,403.227,180.598)">
                    <path d="M423.78,-16.655C423.903,-16.839 426.247,-18.569 428.776,-19.153C430.581,-20.507 433.588,-19.893 435.436,-19.153" style="fill:none;fill-rule:nonzero;stroke:black;stroke-width:3px;"/>
                </g>
                <g transform="matrix(-0.2454,0,0,0.2044,373.514,180.598)">
                    <path d="M445.42,-19.153L446.253,-19.153C444.005,-19.153 445.147,-19.099 449.583,-19.986C453.063,-21.146 457.255,-20.818 461.239,-20.818C462.412,-20.428 462.069,-20.576 462.069,-19.153M444.59,-7.497L444.59,-6.664C444.59,-8.991 444.487,-7.754 446.256,-3.334C446.899,-0.372 448.016,3.716 447.088,5.824C444.904,5.824 444.228,5.55 442.925,4.991" style="fill:none;fill-rule:nonzero;stroke:black;stroke-width:3.4px;"/>
                </g>
                <g transform="matrix(-0.2418,-0.035,-0.024,0.115,350.644,199.07)">
                    <path d="M371.33,-24.98C371.33,-21.762 367.23,-19.153 362.172,-19.153C357.114,-19.153 353.014,-21.763 353.014,-24.981C353.014,-28.199 357.114,-30.811 362.172,-30.811C367.23,-30.811 371.33,-28.201 371.33,-24.981L371.33,-24.98Z" style="stroke:black;stroke-width:4.5px;"/>
                </g>
                <g transform="matrix(-0.175,-0.023,-0.0174,0.0756,330.504,187.51)">
                    <path d="M371.33,-24.98C371.33,-21.762 367.23,-19.153 362.172,-19.153C357.114,-19.153 353.014,-21.763 353.014,-24.981C353.014,-28.199 357.114,-30.811 362.172,-30.811C367.23,-30.811 371.33,-28.201 371.33,-24.981L371.33,-24.98Z" style="stroke:black;stroke-width:6.53px;"/>
                </g>
                <g transform="matrix(-0.175,-0.023,-0.0174,0.0756,325.192,186.998)">
                    <path d="M371.33,-24.98C371.33,-21.762 367.23,-19.153 362.172,-19.153C357.114,-19.153 353.014,-21.763 353.014,-24.981C353.014,-28.199 357.114,-30.811 362.172,-30.811C367.23,-30.811 371.33,-28.201 371.33,-24.981L371.33,-24.98Z" style="stroke:black;stroke-width:6.53px;"/>
                </g>
                <g transform="matrix(-0.202,0,0,0.2044,353.21,179.875)">
                    <path d="M412.95,113.64C412.95,115.71 411.086,117.387 408.787,117.387C406.487,117.387 404.624,115.709 404.624,113.64C404.624,111.571 406.488,109.893 408.787,109.893C411.087,109.893 412.95,111.571 412.95,113.64ZM469.57,119.89C469.57,121.27 468.265,122.388 466.656,122.388C465.046,122.388 463.742,121.268 463.742,119.89C463.742,118.512 465.047,117.392 466.656,117.392C468.266,117.392 469.57,118.512 469.57,119.89Z" style="stroke:black;stroke-width:3.75px;"/>
                </g>
                <g transform="matrix(-0.202,0,0,0.2044,353.21,179.875)">
                    <path d="M447.09,31.634L447.09,32.467C447.09,29.671 447.287,31.437 442.927,35.797C439.203,37.582 437.763,39.464 436.267,42.457C434.525,46.307 433.925,49.07 433.769,53.281L433.769,59.943M419.61,30.8C420.187,30.8 421.087,33.074 422.108,35.796C423.964,37.986 425.145,41.146 425.438,44.956C425.438,49.473 426.218,51.408 426.271,55.779L426.271,59.109M504.54,129.04C504.54,129.52 501.94,130.495 500.377,132.37C497.217,132.798 494.413,133.203 490.387,133.203C489.777,132.287 488.551,131.986 487.057,131.538" style="fill:none;fill-rule:nonzero;stroke:black;stroke-width:3.75px;"/>
                </g>
            </g>
            <g>
                <g transform="matrix(-0.209,0,0,0.1326,334.435,211.382)">
                    <path d="M276.41,36.63L364.663,38.295L364.663,49.95C364.663,49.95 372.988,64.937 377.983,98.24C382.979,131.543 387.975,256.43 387.975,256.43L409.621,397.97C409.621,397.97 396.301,419.617 386.311,417.952C376.321,416.286 346.347,404.632 346.347,402.965C346.347,401.3 344.682,323.039 341.352,269.755C338.022,216.47 331.362,188.163 316.376,164.855C296.394,213.143 294.729,263.098 296.394,263.098C298.059,263.098 298.059,303.061 299.724,333.034C301.39,363.006 298.059,404.634 298.059,404.634L239.779,401.304C239.779,401.304 241.444,364.671 243.109,336.364C244.775,308.057 249.854,294.739 251.436,263.098C253.184,228.135 255.638,209.778 258.096,153.198C261.334,107.458 272.783,77.94 275.996,49.958C276.866,42.825 275.58,37.47 276.412,36.638L276.41,36.63Z" style="fill:white;stroke:black;stroke-width:3.75px;"/>
                </g>
                <g transform="matrix(-0.209,0,0,0.1326,334.435,211.382)">
                    <path d="M316.38,166.51C316.38,166.51 308.054,153.19 304.724,129.877C301.394,106.564 301.394,101.57 301.394,101.57M298.06,233.12L288.07,273.083" style="fill:white;stroke:black;stroke-width:3.75px;"/>
                </g>
                <g transform="matrix(-0.209,0,0,0.1326,321.91,211.602)">
                    <path d="M276.41,223.12L288.067,278.07" style="fill:none;stroke:black;stroke-width:3.75px;"/>
                </g>
                <g transform="matrix(-0.209,0,0,0.1326,334.435,211.382)">
                    <path d="M387.98,417.95L376.32,336.35M276.41,44.955L364.663,46.62M318.04,164.84C318.04,163.175 323.035,134.868 323.035,134.868M284.74,44.955L276.414,129.877" style="fill:white;stroke:black;stroke-width:3.75px;"/>
                </g>
            </g>
            <g transform="matrix(0.4628,0,0,0.4634,181.152,-9.53)">
                <path d="M549.21,538.58C549.21,675.56 438.16,786.61 301.18,786.61C164.2,786.61 53.15,675.56 53.15,538.58C53.15,401.6 164.2,290.55 301.18,290.55C438.16,290.55 549.21,401.6 549.21,538.58Z" style="fill:none;fill-rule:nonzero;stroke:rgb(0,106,0);stroke-width:6.25px;"/>
            </g>
            <g>
                <path d="M446.172,215.426C460.614,227.741 443.312,240.056 435.34,240.056C427.368,240.056 410.065,227.74 424.508,215.426C420.898,227.741 435.34,230.82 435.34,236.978C435.34,230.82 449.783,227.742 446.172,215.426Z" style="fill:rgb(0,106,0);"/>
                <g transform="matrix(0.2038,0,0,0.1738,377.57,140.305)">
                    <path d="M336.61,432.28C372.043,556.3 283.46,538.58 283.46,574.01C283.46,538.577 194.878,556.293 230.31,432.28" style="fill:none;fill-rule:nonzero;stroke:black;stroke-width:1px;"/>
                </g>
            </g>
            <g>
                <path d="M310.32,112.045C324.142,99.035 334.453,117.615 333.57,125.547C332.69,133.48 318.553,149.337 307.926,133.603C319.751,138.558 324.404,124.526 330.516,125.207C324.404,124.527 322.946,109.813 310.321,112.045L310.32,112.045Z" style="fill:rgb(0,106,0);"/>
                <g transform="matrix(0.0225,-0.2028,0.1725,0.0192,228.17,172.006)">
                    <path d="M336.61,432.28C372.043,556.3 283.46,538.58 283.46,574.01C283.46,538.577 194.878,556.293 230.31,432.28" style="fill:none;fill-rule:nonzero;stroke:black;stroke-width:1px;"/>
                </g>
            </g>
            <g>
                <path d="M347.045,361.822C337.035,377.956 322.295,362.662 321.107,354.768C319.919,346.875 329.502,327.908 343.817,340.373C331.117,338.633 330.227,353.391 324.147,354.309C330.227,353.389 335.421,367.231 347.045,361.821L347.045,361.822Z" style="fill:rgb(0,106,0);"/>
                <g transform="matrix(0.0304,0.2018,-0.1716,0.026,411.01,282.706)">
                    <path d="M336.61,432.28C372.043,556.3 283.46,538.58 283.46,574.01C283.46,538.577 194.878,556.293 230.31,432.28" style="fill:none;fill-rule:nonzero;stroke:black;stroke-width:1px;"/>
                </g>
            </g>
            <g>
                <path d="M194.105,247.072C180.458,233.879 198.493,222.669 206.45,223.167C214.407,223.665 230.91,237.037 215.727,248.425C220.097,236.359 205.875,232.385 206.257,226.238C205.875,232.384 191.269,234.555 194.105,247.072Z" style="fill:rgb(0,106,0);"/>
                <g transform="matrix(-0.2034,-0.0127,0.0108,-0.1734,257.893,326.33)">
                    <path d="M336.61,432.28C372.043,556.3 283.46,538.58 283.46,574.01C283.46,538.577 194.878,556.293 230.31,432.28" style="fill:none;fill-rule:nonzero;stroke:black;stroke-width:1px;"/>
                </g>
            </g>
            <g>
                <path d="M435.467,184.24C452.343,192.913 438.32,208.87 430.559,210.698C422.799,212.528 403.139,204.51 414.379,189.208C413.682,202.025 428.445,201.708 429.854,207.703C428.444,201.709 441.799,195.399 435.466,184.239L435.467,184.24Z" style="fill:rgb(0,106,0);"/>
                <g transform="matrix(0.1984,-0.0468,0.0398,0.1692,351.5,126.856)">
                    <path d="M336.61,432.28C372.043,556.3 283.46,538.58 283.46,574.01C283.46,538.577 194.878,556.293 230.31,432.28" style="fill:none;fill-rule:nonzero;stroke:black;stroke-width:1px;"/>
                </g>
            </g>
            <g>
                <path d="M275.64,120.38C284.6,103.64 300.285,117.96 301.975,125.762C303.665,133.562 295.31,153.104 280.23,141.58C293.015,142.504 292.96,127.72 298.97,126.414C292.96,127.719 286.896,114.239 275.64,120.381L275.64,120.38Z" style="fill:rgb(0,106,0);"/>
                <g transform="matrix(-0.0432,-0.1994,0.1696,-0.0368,216.853,203.426)">
                    <path d="M336.61,432.28C372.043,556.3 283.46,538.58 283.46,574.01C283.46,538.577 194.878,556.293 230.31,432.28" style="fill:none;fill-rule:nonzero;stroke:black;stroke-width:1px;"/>
                </g>
            </g>
            <g>
                <path d="M383.86,347.56C379.916,366.14 360.865,356.765 357.07,349.744C353.277,342.724 355.86,321.626 373.55,328.484C361.014,331.166 365.183,345.349 359.774,348.28C365.184,345.35 374.76,356.602 383.86,347.56Z" style="fill:rgb(0,106,0);"/>
                <g transform="matrix(0.097,0.1795,-0.1526,0.0827,417.198,251.402)">
                    <path d="M336.61,432.28C372.043,556.3 283.46,538.58 283.46,574.01C283.46,538.577 194.878,556.293 230.31,432.28" style="fill:none;fill-rule:nonzero;stroke:black;stroke-width:1px;"/>
                </g>
            </g>
            <g>
                <path d="M201.03,279.352C183.895,271.2 197.423,254.82 205.123,252.754C212.823,250.687 232.72,258.097 221.953,273.736C222.257,260.906 207.511,261.676 205.919,255.726C207.509,261.674 194.356,268.392 201.029,279.352L201.03,279.352Z" style="fill:rgb(0,106,0);"/>
                <g transform="matrix(-0.1968,0.0528,-0.045,-0.168,286.713,334.13)">
                    <path d="M336.61,432.28C372.043,556.3 283.46,538.58 283.46,574.01C283.46,538.577 194.878,556.293 230.31,432.28" style="fill:none;fill-rule:nonzero;stroke:black;stroke-width:1px;"/>
                </g>
            </g>
            <g>
                <path d="M418.277,160.327C437.061,162.981 429.037,182.66 422.307,186.935C415.574,191.211 394.375,190.091 399.984,171.945C403.524,184.282 417.364,179.135 420.66,184.335C417.366,179.137 427.915,168.791 418.277,160.327Z" style="fill:rgb(0,106,0);"/>
                <g transform="matrix(0.172,-0.1093,0.093,0.1467,320.162,133.683)">
                    <path d="M336.61,432.28C372.043,556.3 283.46,538.58 283.46,574.01C283.46,538.577 194.878,556.293 230.31,432.28" style="fill:none;fill-rule:nonzero;stroke:black;stroke-width:1px;"/>
                </g>
            </g>
            <g>
                <path d="M245.943,137.4C250.653,119 269.3,129.16 272.799,136.332C276.299,143.504 272.843,164.477 255.452,156.889C268.088,154.729 264.512,140.386 270.037,137.682C264.511,140.385 255.409,128.744 245.942,137.399L245.943,137.4Z" style="fill:rgb(0,106,0);"/>
                <g transform="matrix(-0.0895,-0.1833,0.156,-0.0763,208.648,232.092)">
                    <path d="M336.61,432.28C372.043,556.3 283.46,538.58 283.46,574.01C283.46,538.577 194.878,556.293 230.31,432.28" style="fill:none;fill-rule:nonzero;stroke:black;stroke-width:1px;"/>
                </g>
            </g>
            <g>
                <path d="M410.195,327.94C411.712,346.874 390.781,343.335 385.143,337.69C379.505,332.048 375.965,311.09 394.875,312.605C383.625,318.759 391.665,331.16 387.317,335.515C391.664,331.16 404.052,339.207 410.195,327.941L410.195,327.94Z" style="fill:rgb(0,106,0);"/>
                <g transform="matrix(0.144,0.1443,-0.1227,0.123,414.726,226.253)">
                    <path d="M336.61,432.28C372.043,556.3 283.46,538.58 283.46,574.01C283.46,538.577 194.878,556.293 230.31,432.28" style="fill:none;fill-rule:nonzero;stroke:black;stroke-width:1px;"/>
                </g>
            </g>
            <g>
                <path d="M213.82,306.27C195.238,302.45 204.47,283.31 211.456,279.464C218.442,275.617 239.53,278.058 232.802,295.818C230.038,283.285 215.902,287.556 212.938,282.161C215.901,287.557 204.728,297.223 213.82,306.271L213.82,306.27Z" style="fill:rgb(0,106,0);"/>
                <g transform="matrix(-0.1786,0.0983,-0.0836,-0.1523,310.086,338.99)">
                    <path d="M336.61,432.28C372.043,556.3 283.46,538.58 283.46,574.01C283.46,538.577 194.878,556.293 230.31,432.28" style="fill:none;fill-rule:nonzero;stroke:black;stroke-width:1px;"/>
                </g>
            </g>
            <g>
                <path d="M393.347,138.187C412.167,135.815 409.58,156.911 404.204,162.805C398.827,168.699 378.076,173.185 378.736,154.202C385.382,165.177 397.393,156.576 401.934,160.729C397.394,156.576 404.864,143.822 393.347,138.186L393.347,138.187Z" style="fill:rgb(0,106,0);"/>
                <g transform="matrix(0.1375,-0.1507,0.128,0.1172,291.684,138.238)">
                    <path d="M336.61,432.28C372.043,556.3 283.46,538.58 283.46,574.01C283.46,538.577 194.878,556.293 230.31,432.28" style="fill:none;fill-rule:nonzero;stroke:black;stroke-width:1px;"/>
                </g>
            </g>
            <g>
                <path d="M221.634,159.638C221.361,140.646 242.014,145.554 247.271,151.556C252.528,157.558 254.686,178.703 235.917,175.948C247.545,170.548 240.337,157.645 244.961,153.585C240.337,157.645 228.504,148.8 221.635,159.638L221.634,159.638Z" style="fill:rgb(0,106,0);"/>
                <g transform="matrix(-0.1344,-0.1534,0.1305,-0.1146,210.445,260.81)">
                    <path d="M336.61,432.28C372.043,556.3 283.46,538.58 283.46,574.01C283.46,538.577 194.878,556.293 230.31,432.28" style="fill:none;fill-rule:nonzero;stroke:black;stroke-width:1px;"/>
                </g>
            </g>
            <g>
                <path d="M428.034,301.192C433.969,319.232 412.794,320.737 405.986,316.585C399.178,312.432 390.8,292.901 409.534,289.908C400.051,298.545 410.784,308.698 407.584,313.956C410.784,308.696 424.718,313.591 428.034,301.192Z" style="fill:rgb(0,106,0);"/>
                <g transform="matrix(0.174,0.1062,-0.0903,0.1484,408.483,201.303)">
                    <path d="M336.61,432.28C372.043,556.3 283.46,538.58 283.46,574.01C283.46,538.577 194.878,556.293 230.31,432.28" style="fill:none;fill-rule:nonzero;stroke:black;stroke-width:1px;"/>
                </g>
            </g>
            <g>
                <path d="M234.75,330.176C215.818,331.366 219.715,310.474 225.45,304.926C231.182,299.381 252.172,296.2 250.33,315.106C244.38,303.736 231.858,311.569 227.584,307.141C231.857,311.571 223.607,323.831 234.75,330.177L234.75,330.176Z" style="fill:rgb(0,106,0);"/>
                <g transform="matrix(-0.1466,0.1418,-0.1206,-0.125,336.217,336.475)">
                    <path d="M336.61,432.28C372.043,556.3 283.46,538.58 283.46,574.01C283.46,538.577 194.878,556.293 230.31,432.28" style="fill:none;fill-rule:nonzero;stroke:black;stroke-width:1px;"/>
                </g>
            </g>
            <g>
                <path d="M367.436,121.305C385.436,115.311 387,136.507 382.871,143.335C378.744,150.165 359.261,158.609 356.219,139.861C364.872,149.331 374.981,138.555 380.243,141.743C374.983,138.555 379.83,124.59 367.437,121.306L367.436,121.305Z" style="fill:rgb(0,106,0);"/>
                <g transform="matrix(0.1055,-0.1746,0.1485,0.09,267.728,141.167)">
                    <path d="M336.61,432.28C372.043,556.3 283.46,538.58 283.46,574.01C283.46,538.577 194.878,556.293 230.31,432.28" style="fill:none;fill-rule:nonzero;stroke:black;stroke-width:1px;"/>
                </g>
            </g>
            <g>
                <path d="M204.46,190.387C197.83,172.591 218.93,170.265 225.895,174.149C232.859,178.033 241.989,197.223 223.385,200.942C232.525,191.944 221.405,182.217 224.399,176.837C221.405,182.217 207.292,177.867 204.459,190.387L204.46,190.387Z" style="fill:rgb(0,106,0);"/>
                <g transform="matrix(-0.178,-0.0993,0.0845,-0.1518,227.874,289.44)">
                    <path d="M336.61,432.28C372.043,556.3 283.46,538.58 283.46,574.01C283.46,538.577 194.878,556.293 230.31,432.28" style="fill:none;fill-rule:nonzero;stroke:black;stroke-width:1px;"/>
                </g>
            </g>
            <g>
                <path d="M440.556,278.107C448.508,295.351 427.643,299.264 420.406,295.917C413.169,292.567 402.62,274.122 420.89,269.009C412.454,278.671 424.275,287.531 421.695,293.121C424.275,287.531 438.675,290.801 440.555,278.106L440.556,278.107Z" style="fill:rgb(0,106,0);"/>
                <g transform="matrix(0.185,0.0856,-0.0728,0.1578,409.75,181.103)">
                    <path d="M336.61,432.28C372.043,556.3 283.46,538.58 283.46,574.01C283.46,538.577 194.878,556.293 230.31,432.28" style="fill:none;fill-rule:nonzero;stroke:black;stroke-width:1px;"/>
                </g>
            </g>
            <g>
                <path d="M270.06,353.976C252.627,361.468 249.286,340.478 252.825,333.326C256.365,326.173 275.065,316.116 279.675,334.539C270.257,325.832 261.091,337.424 255.579,334.691C261.089,337.424 257.433,351.748 270.059,353.975L270.06,353.976Z" style="fill:rgb(0,106,0);"/>
                <g transform="matrix(-0.0905,0.183,-0.1555,-0.077,367.74,325.77)">
                    <path d="M336.61,432.28C372.043,556.3 283.46,538.58 283.46,574.01C283.46,538.577 194.878,556.293 230.31,432.28" style="fill:none;fill-rule:nonzero;stroke:black;stroke-width:1px;"/>
                </g>
            </g>
            <g>
                <path d="M447.844,249.543C459.256,264.716 439.687,272.955 431.907,271.213C424.127,269.473 409.924,253.673 426.703,244.811C420.496,256.041 433.919,262.201 432.578,268.211C433.918,262.201 448.685,262.351 447.844,249.544L447.844,249.543Z" style="fill:rgb(0,106,0);"/>
                <g transform="matrix(0.199,0.0445,-0.038,0.1696,397.264,161.246)">
                    <path d="M336.61,432.28C372.043,556.3 283.46,538.58 283.46,574.01C283.46,538.577 194.878,556.293 230.31,432.28" style="fill:none;fill-rule:nonzero;stroke:black;stroke-width:1px;"/>
                </g>
            </g>
            <g>
                <path d="M339.332,114.35C355.654,104.672 361.669,125.055 359.08,132.605C356.492,140.155 339.24,152.541 332.297,134.865C342.757,142.283 350.357,129.605 356.173,131.605C350.357,129.605 352.138,114.929 339.333,114.349L339.332,114.35Z" style="fill:rgb(0,106,0);"/>
                <g transform="matrix(0.0662,-0.193,0.1642,0.0564,246.095,154.92)">
                    <path d="M336.61,432.28C372.043,556.3 283.46,538.58 283.46,574.01C283.46,538.577 194.878,556.293 230.31,432.28" style="fill:none;fill-rule:nonzero;stroke:black;stroke-width:1px;"/>
                </g>
            </g>
            <g>
                <path d="M305.89,364.498C290.343,375.381 282.81,355.508 284.824,347.786C286.837,340.062 303.106,326.408 311.36,343.51C300.37,336.902 293.75,350.117 287.798,348.563C293.748,350.117 293.078,364.887 305.891,364.498L305.89,364.498Z" style="fill:rgb(0,106,0);"/>
                <g transform="matrix(-0.0515,0.1974,-0.168,-0.044,395.806,317.003)">
                    <path d="M336.61,432.28C372.043,556.3 283.46,538.58 283.46,574.01C283.46,538.577 194.878,556.293 230.31,432.28" style="fill:none;fill-rule:nonzero;stroke:black;stroke-width:1px;"/>
                </g>
            </g>
            <g>
                <path d="M196.065,216.915C185.621,201.059 205.665,194.058 213.321,196.282C220.979,198.506 234.171,215.16 216.871,222.958C223.766,212.138 210.753,205.152 212.466,199.238C210.753,205.152 196.026,204.08 196.066,216.915L196.065,216.915Z" style="fill:rgb(0,106,0);"/>
                <g transform="matrix(-0.1957,-0.057,0.0484,-0.167,241.046,308.198)">
                    <path d="M336.61,432.28C372.043,556.3 283.46,538.58 283.46,574.01C283.46,538.577 194.878,556.293 230.31,432.28" style="fill:none;fill-rule:nonzero;stroke:black;stroke-width:1px;"/>
                </g>
            </g>
            <g>
                <g transform="matrix(0.1285,0,0,0.2044,363.593,187.474)">
                    <path d="M193.63,88.25C209.176,92.673 236.905,134.37 247.396,134.04C264.048,133.56 330.629,56.48 319.96,45.788C312.56,37.542 252.02,86.98 248.108,89.914C247.438,81.314 232.158,38.872 219.798,29.969C205.178,20.659 187.588,25.811 171.978,23.307C164.678,20.464 153.138,9.251 148.198,-1.669C156.38,-5.213 163.521,-4.149 171.508,-12.319C177.188,-18.962 173.89,-59.233 171.878,-63.379C158.588,-77.647 177.308,-70.706 132.855,-72.461C68.587,-74.907 56.977,-22.879 101.202,-1.669C97.74,14.259 86.982,17.925 78.262,19.977C69.486,20.083 39.437,19.214 22.717,32.467C-10.686,57.017 13.792,63.37 7.365,68.267C0.192,73.91 -10.503,88.093 -14.523,96.573C-24.995,101.569 -114.008,91.578 -131.023,94.909C-147.443,95.874 -187.49,110.727 -204.173,121.549C-200.608,135.692 37.337,113.947 45.097,119.053C51.043,122.398 42.392,170.29 47.107,174.003C48.767,183.065 163.647,179.831 172.707,179.831C180.265,160.971 188.097,98.273 193.633,88.248L193.63,88.25Z" style="fill:rgb(82,9,0);stroke:black;stroke-width:4.7px;"/>
                </g>
                <g transform="matrix(0.1542,0,0,0.1434,359.98,188.333)">
                    <path d="M174.9,-96.568C176.443,-71.111 167.782,-93.264 136.53,-93.264C75.97,-98.3 97.246,5.932 97.246,-26.24C71.018,-39.95 52.41,-126.53 126.86,-123.17C150.4,-123.17 171.82,-115.312 174.905,-96.567L174.9,-96.568Z" style="stroke:black;stroke-width:5.13px;"/>
                </g>
                <g transform="matrix(0.202,0,0,0.2044,292.388,181.09)">
                    <path d="M387.98,96.574C387.98,98.254 387.808,104.531 387.147,108.23C386.702,111.97 385.607,116.307 384.649,119.053C384.306,123.505 382.557,124.227 382.151,129.043C380.607,131.313 379.941,134.988 379.653,139.035C379.653,143.305 380.339,146.593 380.486,150.691C380.966,154.251 382.098,157.058 382.151,161.515C382.151,165.88 382.146,169.065 380.486,171.505L380.486,177.335" style="fill:none;fill-rule:nonzero;stroke:black;stroke-width:3.75px;"/>
                </g>
                <g transform="matrix(0.202,0,0,0.2044,292.388,181.09)">
                    <path d="M383.81,76.592C384.39,76.592 384.84,96.722 389.638,101.57C390.678,104.782 394.212,108.913 395.466,111.56C397.138,114.02 399.446,116.928 403.792,118.22L415.448,118.22C420.082,118.22 422.921,118.276 426.271,116.556C427.757,115.756 428.803,114.71 429.601,113.226M442.09,115.72L442.922,115.72C440.595,115.72 441.83,115.616 446.252,117.385C447.978,119.922 450.022,121.01 452.912,122.381C455.895,123.849 459.304,124.047 463.736,124.047C467.934,123.693 470.476,122.361 472.896,120.717C476.938,119.407 477.71,117.781 478.723,113.223L478.723,101.567C478.245,98.037 477.339,95.195 476.225,92.409C475.805,91.151 475.392,91.704 475.392,89.912M510.36,121.55C509.935,121.55 507.71,124.125 506.197,126.545C503.629,127.463 502.964,130.261 502.035,132.373C501.365,135.048 500.369,135.233 500.369,139.033C498.691,142.743 498.164,146.041 497.871,149.857L500.368,139.034C498.69,142.742 498.163,146.041 497.87,149.857M461.24,54.946L460.407,54.946C462.657,54.946 461.507,54.893 457.077,55.779C455.26,58.049 452.27,60.083 449.584,61.605C446.607,63.43 444.217,65.615 441.258,66.601L449.584,61.605C446.607,63.43 444.217,65.615 441.258,66.601M402.13,51.615L402.963,51.615C400.715,51.615 401.858,51.561 406.293,52.448C409.229,53.838 411.045,55.338 413.786,57.443C415.076,59.378 417.043,59.748 417.949,63.271C419.522,64.119 420.072,64.941 420.446,67.435M427.11,29.968L431.273,29.968C435.803,29.968 438.006,30.648 442.097,30.801C445.635,30.377 446.479,29.064 449.59,28.304M442.93,133.21C443.07,133.87 444.582,137.466 445.428,139.038C446.945,141.55 448.966,143.952 449.591,147.364C450.561,150.269 451.118,153.594 451.257,157.354C452.017,160.857 452.521,163.974 450.424,166.514C449.526,169.804 447.854,172.204 446.262,175.671C445.152,175.671 445.43,175.394 445.43,176.505M416.28,134.87L416.28,135.703C416.28,133.455 416.335,134.598 415.448,139.033C414.301,143.046 413.298,146.421 411.285,149.023C410.187,152.318 408.959,153.528 408.787,158.183C409.449,159.726 409.62,161.445 409.62,164.01M412.12,169.01L412.12,173.173C413.028,174.383 412.67,174.467 413.785,174.838M343.02,128.21L343.02,129.042C343.02,126.715 342.762,128.106 347.183,129.875C350.755,130.513 355.12,130.912 358.006,131.54C360.678,132.852 363.271,135.02 365.499,136.535C367.492,138.263 370.317,140.015 372.992,141.531C375.996,143.034 377.317,144.355 378.82,147.361C379.728,148.571 379.37,148.653 380.486,149.025" style="fill:none;fill-rule:nonzero;stroke:black;stroke-width:3.75px;"/>
                </g>
                <g transform="matrix(0.3155,0,0,0.2044,242.372,181.81)">
                    <path d="M423.78,-16.655C423.903,-16.839 426.247,-18.569 428.776,-19.153C430.581,-20.507 433.588,-19.893 435.436,-19.153" style="fill:none;fill-rule:nonzero;stroke:black;stroke-width:3px;"/>
                </g>
                <g transform="matrix(0.2454,0,0,0.2044,272.086,181.81)">
                    <path d="M445.42,-19.153L446.253,-19.153C444.005,-19.153 445.147,-19.099 449.583,-19.986C453.063,-21.146 457.255,-20.818 461.239,-20.818C462.412,-20.428 462.069,-20.576 462.069,-19.153M444.59,-7.497L444.59,-6.664C444.59,-8.991 444.487,-7.754 446.256,-3.334C446.899,-0.372 448.016,3.716 447.088,5.824C444.904,5.824 444.228,5.55 442.925,4.991" style="fill:none;fill-rule:nonzero;stroke:black;stroke-width:3.4px;"/>
                </g>
                <g transform="matrix(0.2418,-0.035,0.024,0.115,294.955,200.285)">
                    <path d="M371.33,-24.98C371.33,-21.762 367.23,-19.153 362.172,-19.153C357.114,-19.153 353.014,-21.763 353.014,-24.981C353.014,-28.199 357.114,-30.811 362.172,-30.811C367.23,-30.811 371.33,-28.201 371.33,-24.981L371.33,-24.98Z" style="stroke:black;stroke-width:4.5px;"/>
                </g>
                <g transform="matrix(0.175,-0.023,0.0174,0.0756,315.095,188.724)">
                    <path d="M371.33,-24.98C371.33,-21.762 367.23,-19.153 362.172,-19.153C357.114,-19.153 353.014,-21.763 353.014,-24.981C353.014,-28.199 357.114,-30.811 362.172,-30.811C367.23,-30.811 371.33,-28.201 371.33,-24.981L371.33,-24.98Z" style="stroke:black;stroke-width:6.53px;"/>
                </g>
                <g transform="matrix(0.175,-0.023,0.0174,0.0756,320.41,188.214)">
                    <path d="M371.33,-24.98C371.33,-21.762 367.23,-19.153 362.172,-19.153C357.114,-19.153 353.014,-21.763 353.014,-24.981C353.014,-28.199 357.114,-30.811 362.172,-30.811C367.23,-30.811 371.33,-28.201 371.33,-24.981L371.33,-24.98Z" style="stroke:black;stroke-width:6.53px;"/>
                </g>
                <g transform="matrix(0.202,0,0,0.2044,292.388,181.09)">
                    <path d="M412.95,113.64C412.95,115.71 411.086,117.387 408.787,117.387C406.487,117.387 404.624,115.709 404.624,113.64C404.624,111.571 406.488,109.893 408.787,109.893C411.087,109.893 412.95,111.571 412.95,113.64ZM469.57,119.89C469.57,121.27 468.265,122.388 466.656,122.388C465.046,122.388 463.742,121.268 463.742,119.89C463.742,118.512 465.047,117.392 466.656,117.392C468.266,117.392 469.57,118.512 469.57,119.89Z" style="stroke:black;stroke-width:3.75px;"/>
                </g>
                <g transform="matrix(0.202,0,0,0.2044,292.388,181.09)">
                    <path d="M447.09,31.634L447.09,32.467C447.09,29.671 447.287,31.437 442.927,35.797C439.203,37.582 437.763,39.464 436.267,42.457C434.525,46.307 433.925,49.07 433.769,53.281L433.769,59.943M419.61,30.8C420.187,30.8 421.087,33.074 422.108,35.796C423.964,37.986 425.145,41.146 425.438,44.956C425.438,49.473 426.218,51.408 426.271,55.779L426.271,59.109M504.54,129.04C504.54,129.52 501.94,130.495 500.377,132.37C497.217,132.798 494.413,133.203 490.387,133.203C489.777,132.287 488.551,131.986 487.057,131.538" style="fill:none;fill-rule:nonzero;stroke:black;stroke-width:3.75px;"/>
                </g>
            </g>
            <g>
                <g transform="matrix(0.209,0,0,0.1326,311.165,212.592)">
                    <path d="M276.41,36.63L364.663,38.295L364.663,49.95C364.663,49.95 372.988,64.937 377.983,98.24C382.979,131.543 387.975,256.43 387.975,256.43L409.621,397.97C409.621,397.97 396.301,419.617 386.311,417.952C376.321,416.286 346.347,404.632 346.347,402.965C346.347,401.3 344.682,323.039 341.352,269.755C338.022,216.47 331.362,188.163 316.376,164.855C296.394,213.143 294.729,263.098 296.394,263.098C298.059,263.098 298.059,303.061 299.724,333.034C301.39,363.006 298.059,404.634 298.059,404.634L239.779,401.304C239.779,401.304 241.444,364.671 243.109,336.364C244.775,308.057 249.854,294.739 251.436,263.098C253.184,228.135 255.638,209.778 258.096,153.198C261.334,107.458 272.783,77.94 275.996,49.958C276.866,42.825 275.58,37.47 276.412,36.638L276.41,36.63Z" style="fill:white;stroke:black;stroke-width:3.75px;"/>
                </g>
                <g transform="matrix(0.209,0,0,0.1326,311.165,212.592)">
                    <path d="M316.38,166.51C316.38,166.51 308.054,153.19 304.724,129.877C301.394,106.564 301.394,101.57 301.394,101.57M298.06,233.12L288.07,273.083" style="fill:white;stroke:black;stroke-width:3.75px;"/>
                </g>
                <g transform="matrix(0.209,0,0,0.1326,323.69,212.812)">
                    <path d="M276.41,223.12L288.067,278.07" style="fill:none;stroke:black;stroke-width:3.75px;"/>
                </g>
                <g transform="matrix(0.209,0,0,0.1326,311.165,212.592)">
                    <path d="M387.98,417.95L376.32,336.35M276.41,44.955L364.663,46.62M318.04,164.84C318.04,163.175 323.035,134.868 323.035,134.868M284.74,44.955L276.414,129.877" style="fill:white;stroke:black;stroke-width:3.75px;"/>
                </g>
            </g>
            <g transform="matrix(0.3368,0,0,0.3286,143.1,205.98)">
                <path d="M349.68,188.16C349.68,201.954 342.598,213.137 333.86,213.137C325.124,213.137 318.042,201.954 318.042,188.16C318.042,174.366 325.124,163.183 333.862,163.183C342.597,163.183 349.68,174.366 349.68,188.16Z" style="fill:rgb(255,198,0);stroke:black;stroke-width:2.5px;"/>
            </g>
            <g>
                <g>
                    <g transform="matrix(0.2036,0,0,0.241,240.01,90.375)">
                        <path d="M212.6,892.91C212.6,892.91 265.75,875.194 283.467,875.194C301.183,875.194 301.183,892.91 302.602,893.406L301.182,928.343L212.6,928.343L212.6,892.91Z" style="fill:rgb(0,207,230);stroke:black;stroke-width:1px;"/>
                    </g>
                    <g transform="matrix(0.2036,0,0,-0.241,247.225,541.99)">
                        <path d="M265.75,892.91C265.75,892.91 265.75,875.194 283.467,875.194C301.183,875.194 318.9,874.698 336.617,875.194L336.617,928.344L265.75,928.344L265.75,892.91Z" style="fill:rgb(0,207,230);stroke:black;stroke-width:1px;"/>
                    </g>
                    <g transform="matrix(-0.2036,0,0,0.241,413.137,90.428)">
                        <path d="M212.6,892.91C212.6,892.91 265.75,875.194 283.467,875.194C301.183,875.194 301.183,892.91 302.602,893.406L301.182,928.343L212.6,928.343L212.6,892.91Z" style="fill:rgb(0,207,230);stroke:black;stroke-width:1px;"/>
                    </g>
                    <g transform="matrix(-0.2036,0,0,-0.241,405.924,542.038)">
                        <path d="M265.75,892.91C265.75,892.91 265.75,875.194 283.467,875.194C301.183,875.194 318.9,874.698 336.617,875.194L336.617,928.344L265.75,928.344L265.75,892.91Z" style="fill:rgb(0,207,230);stroke:black;stroke-width:1px;"/>
                    </g>
                    <g transform="matrix(-0.2036,0,0,-0.241,395.393,537.773)">
                        <path d="M249.45,875.2C249.45,875.2 249.45,857.483 231.734,857.483L284.884,857.483L249.45,875.2Z" style="fill:white;stroke:black;stroke-width:1px;"/>
                    </g>
                    <g transform="matrix(-0.2375,0,0,0.241,418.548,90.427)">
                        <path d="M159.45,892.91L265.75,946.06C265.75,946.06 229.71,979.36 194.884,981.493C177.167,981.493 159.451,946.06 159.451,946.06L159.451,892.91L159.45,892.91Z" style="fill:rgb(0,207,230);stroke:black;stroke-width:1px;"/>
                    </g>
                    <g transform="matrix(-0.2036,0,0,0.241,402.606,94.697)">
                        <path d="M249.45,892.91C250.16,884.052 247.236,857.476 229.52,857.476L284.883,857.476C302.6,857.476 320.317,875.193 320.317,892.91L318.897,928.342L249.45,928.342L249.45,892.91Z" style="fill:white;stroke:black;stroke-width:1px;"/>
                    </g>
                    <g transform="matrix(0.2036,0,0,-0.241,257.756,537.725)">
                        <path d="M249.45,875.2C249.45,875.2 249.45,857.483 231.734,857.483L284.884,857.483L249.45,875.2Z" style="fill:white;stroke:black;stroke-width:1px;"/>
                    </g>
                    <g transform="matrix(0.2375,0,0,0.241,234.6,90.373)">
                        <path d="M159.45,892.91L265.75,946.06C265.75,946.06 229.71,979.36 194.884,981.493C177.167,981.493 159.451,946.06 159.451,946.06L159.451,892.91L159.45,892.91Z" style="fill:rgb(0,207,230);stroke:black;stroke-width:1px;"/>
                    </g>
                    <g transform="matrix(0.2036,0,0,0.241,250.543,94.643)">
                        <path d="M249.45,892.91C250.16,884.052 247.236,857.476 229.52,857.476L284.883,857.476C302.6,857.476 320.317,875.193 320.317,892.91L318.897,928.342L249.45,928.342L249.45,892.91Z" style="fill:white;stroke:black;stroke-width:1px;"/>
                    </g>
                    <g transform="matrix(0.2036,0,0,0.241,247.202,90.428)">
                        <path d="M88.802,891.9C88.692,892.912 106.409,857.48 141.842,857.48C177.275,857.48 319.002,928.345 389.762,928.345C460.737,928.345 586.412,855.785 620.182,857.479C653.955,859.172 673.702,894.639 673.332,892.911C672.958,891.183 655.615,946.061 655.615,946.061C655.615,928.345 637.898,910.628 620.182,910.628C602.465,910.628 513.882,981.493 389.762,981.493C265.852,981.493 177.272,910.627 159.552,910.627C141.835,910.627 124.119,928.342 124.119,946.059L88.799,891.899L88.802,891.9Z" style="fill:white;stroke:black;stroke-width:1px;"/>
                    </g>
                </g>
                <path d="M362.457,313.76L359.304,304.135L362.532,302.655L362.905,303.79L360.267,305L361.233,307.948L363.703,306.815L364.073,307.943L361.603,309.076L362.675,312.352L365.415,311.094L365.789,312.231L362.456,313.761L362.457,313.76ZM348.92,320.062L345.767,310.437L346.357,310.167L349.137,318.654L351.337,317.644L351.71,318.782L348.92,320.062ZM344.823,321.986L341.67,312.361L344.682,310.981L345.054,312.117L342.634,313.227L343.609,316.207L345.703,315.245L346.076,316.382L343.981,317.344L345.413,321.716L344.823,321.988L344.823,321.986ZM308.553,322.11L310.633,312.185L311.848,312.541L311.821,319.994C311.818,320.686 311.813,321.206 311.806,321.548C311.95,321.208 312.171,320.708 312.464,320.054L315.372,313.576L316.46,313.896L314.38,323.821L313.602,323.593L315.342,315.283L311.828,323.073L311.098,322.858L311.104,313.89L309.334,322.34L308.554,322.11L308.553,322.11ZM308.197,311.228L308.967,311.605L307.052,317.062C306.72,318.01 306.389,318.732 306.062,319.227C305.732,319.72 305.335,320.057 304.865,320.239C304.4,320.419 303.887,320.369 303.327,320.093C302.783,319.826 302.391,319.458 302.152,318.981C301.912,318.507 301.822,317.944 301.874,317.296C301.93,316.644 302.134,315.818 302.484,314.816L304.397,309.36L305.167,309.74L303.255,315.19C302.967,316.01 302.801,316.638 302.755,317.074C302.715,317.506 302.773,317.884 302.925,318.207C303.083,318.529 303.325,318.772 303.655,318.934C304.221,319.212 304.695,319.204 305.082,318.904C305.469,318.604 305.87,317.864 306.286,316.678L308.196,311.228L308.197,311.228ZM292.73,304.646L293.305,304.961L291.19,310.374C290.823,311.314 290.48,312.036 290.165,312.537C289.85,313.037 289.495,313.389 289.099,313.597C288.707,313.802 288.302,313.787 287.883,313.559C287.486,313.35 287.189,312.989 287.061,312.559C286.921,312.115 286.906,311.577 287.019,310.946C287.133,310.31 287.383,309.496 287.771,308.504L289.886,303.091L290.461,303.406L288.349,308.812C288.031,309.626 287.831,310.247 287.749,310.672C287.669,311.092 287.675,311.455 287.763,311.758C287.853,312.06 288.023,312.278 288.269,312.414C288.692,312.646 289.074,312.604 289.415,312.29C289.757,311.976 290.157,311.23 290.615,310.054L292.729,304.648L292.73,304.646ZM282.465,306.327L283.048,306.522C282.89,307.006 282.798,307.422 282.773,307.778C282.751,308.128 282.803,308.45 282.927,308.748C283.053,309.036 283.24,309.25 283.487,309.385C283.707,309.505 283.927,309.541 284.15,309.493C284.384,309.438 284.594,309.308 284.748,309.123C284.928,308.921 285.075,308.673 285.188,308.386C285.303,308.09 285.363,307.813 285.368,307.553C285.375,307.286 285.315,307.021 285.194,306.783C285.116,306.621 284.918,306.329 284.598,305.907C284.281,305.479 284.078,305.131 283.988,304.86C283.871,304.497 283.829,304.114 283.863,303.734C283.898,303.331 284.001,302.912 284.169,302.484C284.353,302.01 284.587,301.604 284.872,301.264C285.158,300.918 285.462,300.704 285.784,300.622C286.107,300.539 286.414,300.579 286.706,300.739C287.028,300.914 287.268,301.182 287.426,301.542C287.586,301.899 287.646,302.332 287.61,302.837C287.565,303.383 287.442,303.919 287.247,304.431L286.661,304.218C286.863,303.608 286.937,303.106 286.884,302.71C286.832,302.314 286.639,302.026 286.304,301.843C285.957,301.653 285.649,301.651 285.381,301.84C285.116,302.026 284.909,302.313 284.756,302.702C284.626,303.037 284.574,303.345 284.602,303.624C284.628,303.904 284.829,304.284 285.205,304.771C285.585,305.251 285.83,305.625 285.937,305.891C286.091,306.281 286.153,306.701 286.123,307.156C286.093,307.606 285.981,308.081 285.785,308.584C285.606,309.056 285.353,309.496 285.035,309.888C284.731,310.253 284.405,310.492 284.06,310.603C283.736,310.712 283.38,310.678 283.082,310.509C282.704,310.312 282.405,309.99 282.236,309.599C282.066,309.206 282.003,308.722 282.044,308.145C282.089,307.565 282.23,306.959 282.467,306.325L282.465,306.327ZM365.564,306.44C365.041,304.846 364.831,303.503 364.934,302.42C365.034,301.332 365.4,300.643 366.029,300.354C366.441,300.164 366.881,300.207 367.351,300.48C367.821,300.753 368.267,301.23 368.691,301.913C369.111,302.59 369.481,303.408 369.796,304.373C370.116,305.347 370.311,306.263 370.381,307.117C370.449,307.97 370.383,308.675 370.178,309.227C369.971,309.773 369.674,310.134 369.286,310.312C368.866,310.505 368.419,310.459 367.944,310.172C367.47,309.889 367.024,309.406 366.606,308.728C366.188,308.05 365.839,307.286 365.562,306.441L365.564,306.44ZM366.18,306.182C366.56,307.342 367.003,308.189 367.51,308.727C368.02,309.261 368.492,309.427 368.93,309.227C369.374,309.022 369.628,308.517 369.693,307.71C369.761,306.906 369.593,305.883 369.186,304.645C368.929,303.861 368.644,303.205 368.329,302.681C368.015,302.151 367.687,301.781 367.344,301.571C367.004,301.356 366.684,301.315 366.39,301.451C365.973,301.641 365.715,302.118 365.616,302.878C365.516,303.633 365.706,304.736 366.18,306.183L366.18,306.182ZM357.27,316.028L354.118,306.403L356.098,305.495C356.495,305.313 356.826,305.261 357.091,305.341C357.355,305.419 357.621,305.646 357.887,306.027C358.155,306.409 358.374,306.863 358.547,307.393C358.772,308.076 358.857,308.698 358.807,309.263C358.755,309.823 358.535,310.265 358.149,310.589C358.359,310.679 358.529,310.785 358.662,310.904C358.947,311.167 359.252,311.519 359.572,311.96L361.207,314.223L360.464,314.563L359.218,312.833C358.855,312.333 358.568,311.957 358.356,311.701C358.146,311.447 357.973,311.278 357.844,311.197C357.74,311.124 357.62,311.078 357.494,311.064C357.414,311.064 357.301,311.098 357.148,311.168L356.463,311.482L357.865,315.759L357.275,316.029L357.27,316.028ZM356.1,310.38L357.37,309.798C357.64,309.674 357.832,309.516 357.946,309.328C358.058,309.136 358.11,308.892 358.104,308.593C358.093,308.279 358.037,307.969 357.938,307.671C357.788,307.218 357.59,306.879 357.338,306.656C357.091,306.432 356.801,306.396 356.47,306.548L355.057,307.198L356.101,310.381L356.1,310.38ZM350.522,313.644C350,312.049 349.788,310.707 349.892,309.624C349.992,308.534 350.358,307.847 350.987,307.558C351.399,307.368 351.84,307.41 352.31,307.683C352.78,307.956 353.226,308.433 353.65,309.116C354.07,309.793 354.44,310.612 354.755,311.576C355.075,312.551 355.27,313.466 355.34,314.321C355.41,315.174 355.34,315.879 355.137,316.431C354.931,316.978 354.633,317.339 354.247,317.517C353.825,317.71 353.379,317.664 352.904,317.377C352.43,317.094 351.984,316.611 351.566,315.932C351.146,315.254 350.799,314.492 350.522,313.646L350.522,313.644ZM351.137,313.384C351.517,314.544 351.961,315.394 352.469,315.93C352.977,316.464 353.449,316.63 353.885,316.43C354.33,316.226 354.585,315.72 354.65,314.913C354.72,314.109 354.55,313.086 354.144,311.848C353.888,311.064 353.601,310.408 353.287,309.884C352.973,309.354 352.645,308.984 352.303,308.774C351.963,308.558 351.643,308.517 351.349,308.652C350.929,308.844 350.672,309.322 350.573,310.08C350.475,310.836 350.663,311.938 351.136,313.385L351.137,313.384ZM316.924,324.288L318.11,314.158L320.446,314.542C320.923,314.62 321.292,314.786 321.554,315.042C321.819,315.292 322.006,315.642 322.118,316.097C322.233,316.549 322.263,317.007 322.208,317.472C322.163,317.887 322.041,318.289 321.848,318.659C321.676,318.998 321.412,319.281 321.086,319.477C321.441,319.719 321.696,320.071 321.846,320.537C321.998,321.003 322.04,321.533 321.971,322.122C321.924,322.569 321.809,323.006 321.631,323.418C321.461,323.801 321.271,324.091 321.065,324.281C320.856,324.475 320.6,324.61 320.322,324.673C320.038,324.739 319.697,324.741 319.3,324.676L316.926,324.286L316.924,324.288ZM318.434,318.548L319.784,318.77C320.148,318.83 320.414,318.833 320.582,318.784C320.807,318.714 320.997,318.56 321.112,318.354C321.249,318.138 321.337,317.852 321.378,317.497C321.418,317.161 321.403,316.857 321.333,316.589C321.263,316.313 321.143,316.115 320.97,315.993C320.797,315.866 320.486,315.766 320.04,315.693L318.794,315.488L318.434,318.548ZM317.888,323.228L319.438,323.481C319.705,323.526 319.894,323.541 320.006,323.527C320.202,323.501 320.371,323.435 320.514,323.329C320.657,323.219 320.784,323.049 320.894,322.819C321.004,322.585 321.079,322.305 321.117,321.984C321.161,321.604 321.14,321.269 321.054,320.974C320.968,320.672 320.824,320.449 320.624,320.304C320.429,320.154 320.134,320.048 319.736,319.984L318.296,319.747L317.888,323.227L317.888,323.228ZM324.25,325.525L324.25,315.298L327.04,315.298C327.598,315.298 328.025,315.391 328.317,315.578C328.607,315.758 328.842,316.081 329.017,316.548C329.191,317.012 329.277,317.525 329.277,318.088C329.277,318.814 329.133,319.425 328.844,319.924C328.554,320.42 328.11,320.736 327.506,320.872C327.726,321.044 327.894,321.212 328.008,321.38C328.251,321.743 328.481,322.197 328.698,322.74L329.792,325.525L328.746,325.525L327.913,323.397C327.729,322.92 327.529,322.45 327.313,321.987C327.155,321.662 327.013,321.433 326.888,321.304C326.784,321.186 326.655,321.093 326.511,321.032C326.417,320.998 326.263,320.982 326.048,320.982L325.083,320.982L325.083,325.525L324.25,325.525ZM325.081,319.812L326.872,319.812C327.252,319.812 327.549,319.747 327.762,319.622C327.978,319.492 328.14,319.289 328.252,319.01C328.365,318.716 328.422,318.403 328.419,318.088C328.419,317.606 328.309,317.208 328.093,316.896C327.878,316.584 327.537,316.428 327.073,316.428L325.081,316.428L325.081,319.812ZM331.535,325.253L332.405,314.685L333.289,314.499L337.329,324.037L336.396,324.233L335.216,321.333L332.628,321.876L332.403,325.07L331.533,325.253L331.535,325.253ZM332.703,320.743L334.803,320.303L333.738,317.651C333.47,316.992 333.22,316.326 332.988,315.654C333.005,316.317 332.988,316.982 332.941,317.647L332.704,320.744L332.703,320.743ZM292.276,315.24L295.936,305.87L297.566,306.763C297.899,306.945 298.126,307.187 298.252,307.488C298.38,307.786 298.422,308.163 298.382,308.62C298.343,309.075 298.238,309.522 298.072,309.948C297.915,310.348 297.717,310.698 297.478,310.996C297.239,311.294 296.975,311.496 296.688,311.604C296.884,311.914 296.976,312.306 296.96,312.784C296.945,313.261 296.83,313.774 296.618,314.319C296.448,314.756 296.244,315.141 296.008,315.474C295.778,315.802 295.558,316.034 295.352,316.169C295.157,316.301 294.927,316.372 294.692,316.373C294.462,316.373 294.209,316.297 293.932,316.146L292.276,315.239L292.276,315.24ZM294.973,310.122L295.913,310.636C296.168,310.776 296.365,310.839 296.503,310.829C296.686,310.814 296.858,310.717 297.015,310.539C297.175,310.365 297.32,310.112 297.448,309.784C297.568,309.474 297.641,309.181 297.664,308.91C297.688,308.634 297.652,308.418 297.557,308.263C297.463,308.103 297.26,307.938 296.947,307.767L296.079,307.292L294.972,310.122L294.973,310.122ZM293.283,314.448L294.365,315.04C294.551,315.142 294.687,315.198 294.773,315.21C294.921,315.231 295.072,315.205 295.205,315.136C295.341,315.066 295.482,314.932 295.627,314.738C295.774,314.54 295.907,314.291 296.022,313.993C296.15,313.682 296.228,313.353 296.252,313.018C296.272,312.712 296.227,312.468 296.118,312.285C296.014,312.098 295.823,311.93 295.546,311.779L294.541,311.227L293.284,314.447L293.283,314.448Z" style="fill-rule:nonzero;"/>
            </g>
            <g transform="matrix(0.4072,0,0,0.3835,201.1,45.176)">
                <path d="M212.6,432.28L212.6,538.58C212.6,609.446 301.183,644.88 301.183,644.88C301.183,644.88 389.766,609.447 389.766,538.58L389.766,432.28L212.596,432.28L212.6,432.28Z" style="fill:rgb(0,218,236);stroke:black;stroke-width:1px;"/>
            </g>
            <g transform="matrix(0.4072,0,0,0.3835,201.1,45.176)">
                <path d="M212.6,432.28L212.6,538.58C212.595,547.03 213.878,555.431 216.406,563.494L301.183,520.864L301.183,432.28L212.6,432.28Z" style="fill:white;stroke:black;stroke-width:1px;"/>
            </g>
            <g transform="matrix(-0.4072,0,0,0.3835,446.388,45.176)">
                <path d="M212.6,432.28L212.6,538.58C212.595,547.03 213.878,555.431 216.406,563.494L301.183,520.864L301.183,432.28L212.6,432.28Z" style="fill:rgb(255,243,0);stroke:black;stroke-width:1px;"/>
            </g>
            <g transform="matrix(0.4072,0,0,0.3835,201.1,45.176)">
                <g transform="matrix(0.6394,0.2374,0.1423,0.7022,58.9,338.88)">
                    <path d="M244.77,87.42C252.092,81.472 255.927,83.7 262.42,90.52C271.742,100.335 303.737,149.375 308.732,153.539C313.727,157.703 312.972,147.121 319.076,152.151C322.108,155.878 308.639,169.177 305.339,166.721C298.927,161.699 309.253,161.345 304.984,157.076C300.059,151.943 253.769,116.579 244.702,106.506C238.782,99.928 238.388,92.536 244.769,87.418L244.77,87.42Z" style="fill:rgb(146,61,9);stroke:black;stroke-width:1.25px;"/>
                </g>
                <g transform="matrix(0.7556,0.655,-0.586,0.8104,0,0)">
                    <path d="M500.732,183.993C500.732,182.534 499.564,181.35 498.126,181.35C496.688,181.35 495.52,182.534 495.52,183.993L495.52,244.752C495.52,246.211 496.688,247.395 498.126,247.395C499.564,247.395 500.732,246.211 500.732,244.752L500.732,183.993Z" style="fill:rgb(175,128,0);stroke:black;stroke-width:1.25px;"/>
                </g>
                <g transform="matrix(0.8312,0.556,-0.641,0.7675,0,0)">
                    <rect x="497.3" y="228.63" width="29.375" height="18.868" style="fill:rgb(176,176,212);stroke:black;stroke-width:1.25px;"/>
                </g>
            </g>
            <g transform="matrix(0.4072,0,0,0.3835,201.1,45.176)">
                <path d="M385.112,528.567C389.997,526.462 357.779,492.964 351.327,476.725C344.875,460.485 345.219,460.008 342.71,452.403L339.56,453.763C340.365,458.693 355.43,497.633 370.295,517.913C374.493,523.733 370.925,534.683 375.655,532.643L385.112,528.567Z" style="fill:rgb(175,128,0);stroke:black;stroke-width:1px;"/>
                <path d="M341.548,453.55L315.676,456.035C315.676,456.035 310.846,460.142 313.103,468.7C315.358,477.258 322.068,480.592 322.068,480.592L344.736,463.035L341.548,453.549L341.548,453.55Z" style="fill:rgb(128,128,128);stroke:black;stroke-width:1px;"/>
                <g transform="matrix(0.94788,-0.318628,0.318628,0.94788,0,0)">
                    <path d="M182.774,538.327C182.774,536.281 181.191,534.62 179.242,534.62C177.293,534.62 175.71,536.281 175.71,538.327L175.71,550.341C175.71,552.387 177.293,554.048 179.242,554.048C181.191,554.048 182.774,552.387 182.774,550.341L182.774,538.327Z" style="fill:rgb(128,128,128);stroke:black;stroke-width:1px;"/>
                </g>
                <g transform="matrix(0.7447,-0.716,0.6347,0.3935,-105.9,523.83)">
                    <path d="M239.61,381.52C239.61,388.836 238.03,394.766 236.078,394.766C234.128,394.766 232.545,388.836 232.545,381.52C232.545,374.204 234.127,368.274 236.078,368.274C238.029,368.274 239.61,374.204 239.61,381.52Z" style="fill:rgb(207,0,0);stroke:black;stroke-width:1px;"/>
                </g>
                <g transform="matrix(-0.978,0.311,0.0275,0.7554,595.47,104.78)">
                    <path d="M239.61,381.52C239.61,388.836 238.03,394.766 236.078,394.766C234.128,394.766 232.545,388.836 232.545,381.52C232.545,374.204 234.127,368.274 236.078,368.274C238.029,368.274 239.61,374.204 239.61,381.52Z" style="fill:rgb(207,0,0);stroke:black;stroke-width:1px;"/>
                </g>
                <g transform="matrix(0.859,-0.512,0.4994,0.8664,0,0)">
                    <path d="M15.073,596.25L93.94,596.25L93.94,614.046L15.074,614.046L15.073,596.25Z" style="fill:rgb(176,176,212);stroke:black;stroke-width:1.15px;"/>
                </g>
            </g>
            <g transform="matrix(0.389,0,0,0.3835,211.313,51.724)">
                <path d="M231.36,591.4L240.19,584.335C240.19,584.335 241.957,593.165 247.255,593.165C252.553,593.165 256.085,585.513 256.085,585.513C256.085,585.513 256.085,593.166 261.973,593.166C267.861,593.166 272.57,585.513 272.57,586.102C272.57,586.69 273.158,593.166 277.868,593.166C282.578,593.166 288.465,586.69 288.465,586.69C288.465,586.69 289.055,594.344 294.352,593.755C299.652,593.165 301.417,585.513 302.005,586.102C302.595,586.69 306.125,593.755 310.247,593.166C314.369,592.577 320.257,586.69 320.257,586.69C320.257,586.69 321.433,593.755 326.143,593.755C330.853,593.755 332.619,587.279 332.619,587.279C332.619,587.279 334.972,592.576 339.093,592.576C343.214,592.576 349.69,586.689 349.69,586.689" style="fill:none;fill-rule:nonzero;stroke:rgb(0,114,255);stroke-width:1px;"/>
            </g>
            <g transform="matrix(0.4072,0,0,0.3835,212.128,55.788)">
                <path d="M231.95,591.4C235.09,590.026 237.64,591.596 241.368,583.746C241.368,587.866 244.313,593.166 249.611,593.166C254.909,593.166 258.443,585.513 258.443,585.513C258.443,585.513 258.443,593.166 264.33,593.166C270.217,593.166 274.926,585.513 274.926,586.102C274.926,586.69 275.514,593.166 280.224,593.166C284.934,593.166 290.821,586.69 290.821,586.69C290.821,586.69 291.411,594.344 296.709,593.755C302.009,593.165 303.774,585.513 304.362,586.102C304.952,586.69 308.484,593.755 312.605,593.166C315.548,592.576 322.615,586.101 322.615,586.101" style="fill:none;fill-rule:nonzero;stroke:rgb(0,114,255);stroke-width:1px;"/>
            </g>
            <g>
                <g transform="matrix(0.3216,0,0,0.286,236.636,162.272)">
                    <path d="M305.54,350.62L305.54,369.46L320.257,369.46L314.959,350.62L305.539,350.62L305.54,350.62Z" style="fill:white;stroke:black;stroke-width:1px;"/>
                </g>
                <path d="M341.348,265.413C341.158,265.583 333.774,269.118 324.118,269.118C314.462,269.118 310.673,268.108 309.728,267.434C308.78,266.761 307.644,265.414 306.508,265.414C305.371,265.414 304.425,266.256 304.425,266.256C304.425,266.256 306.318,267.096 307.645,268.106C308.969,269.118 309.348,270.97 309.348,270.97L340.591,271.307C340.591,271.307 340.403,269.454 340.403,268.444C340.403,267.434 341.539,265.919 341.349,265.414L341.348,265.413Z"/>
                <path d="M314.083,253.458L314.841,253.458L314.841,269.118L314.084,269.118L314.083,253.458ZM324.308,251.436L325.066,251.436L325.066,269.284L324.308,269.284L324.308,251.436ZM334.343,254.468L335.101,254.468L335.101,269.118L334.344,269.118L334.343,254.468Z"/>
                <g transform="matrix(0.3216,0,0,0.286,235.31,157.557)">
                    <rect x="299.07" y="342.37" width="18.84" height="8.83" style="fill:white;stroke:black;stroke-width:1.02px;"/>
                </g>
                <g transform="matrix(0.3216,0,0,0.286,235.31,157.557)">
                    <rect x="297.89" y="350.61" width="21.782" height="8.83" style="fill:white;stroke:black;stroke-width:1.1px;"/>
                </g>
                <g transform="matrix(0.3216,0,0,0.286,235.31,157.557)">
                    <rect x="296.71" y="358.86" width="24.137" height="8.83" style="fill:white;stroke:black;stroke-width:1.16px;"/>
                </g>
                <g transform="matrix(0.3216,0,0,0.286,235.31,157.557)">
                    <rect x="266.17" y="334.72" width="23.837" height="12.527" style="fill:white;stroke:black;stroke-width:1.37px;"/>
                </g>
                <g transform="matrix(0.3216,0,0,0.286,235.31,157.557)">
                    <rect x="264.68" y="346.41" width="27.56" height="12.527" style="fill:white;stroke:black;stroke-width:1.48px;"/>
                </g>
                <g transform="matrix(0.3216,0,0,0.286,235.31,157.557)">
                    <rect x="263.19" y="358.1" width="30.54" height="12.527" style="fill:white;stroke:black;stroke-width:1.55px;"/>
                </g>
                <g transform="matrix(0.3216,0,0,0.286,235.31,157.557)">
                    <rect x="260.21" y="368.28" width="36.5" height="15.307" style="fill:white;stroke:black;stroke-width:1.31px;"/>
                </g>
                <g transform="matrix(0.3216,0,0,0.286,235.31,157.557)">
                    <rect x="238.25" y="342.37" width="15.763" height="10.414" style="fill:white;stroke:black;stroke-width:1.02px;"/>
                </g>
                <g transform="matrix(0.3216,0,0,0.286,235.31,157.557)">
                    <rect x="237.26" y="352.09" width="18.226" height="10.414" style="fill:white;stroke:black;stroke-width:1.09px;"/>
                </g>
                <g transform="matrix(0.3216,0,0,0.286,235.31,157.557)">
                    <rect x="236.28" y="361.81" width="20.197" height="10.414" style="fill:white;stroke:black;stroke-width:1.15px;"/>
                </g>
                <g transform="matrix(0.3216,0,0,0.286,235.31,157.557)">
                    <rect x="234.31" y="370.27" width="24.137" height="12.725" style="fill:white;stroke:black;stroke-width:0.97px;"/>
                </g>
                <g transform="matrix(0.3216,0,0,0.286,235.31,157.557)">
                    <path d="M220,377.51L229.876,377.51L240.473,344.136L220,377.51Z" style="fill:white;stroke:black;stroke-width:1.02px;"/>
                </g>
                <path d="M314.254,253.63L314.954,253.938L305.766,266.586L305.066,266.279L314.254,253.63Z"/>
            </g>
            <g transform="matrix(0.3847,0,0,0.3835,207.988,46.983)">
                <path d="M231.36,591.4L240.19,584.335C240.19,584.335 241.957,593.165 247.255,593.165C252.553,593.165 256.085,585.513 256.085,585.513C256.085,585.513 256.085,593.166 261.973,593.166C267.861,593.166 272.57,585.513 272.57,586.102C272.57,586.69 273.158,593.166 277.868,593.166C282.578,593.166 288.465,586.69 288.465,586.69C288.465,586.69 289.055,594.344 294.352,593.755C299.652,593.165 301.417,585.513 302.005,586.102C302.595,586.69 306.125,593.755 310.247,593.166C314.369,592.577 320.257,586.69 320.257,586.69C320.257,586.69 321.433,593.755 326.143,593.755C330.853,593.755 332.619,587.279 332.619,587.279C332.619,587.279 334.972,592.576 339.093,592.576C343.214,592.576 346.158,585.512 346.158,585.512C346.158,585.512 347.334,591.988 350.278,591.988C353.221,591.988 356.754,585.511 356.754,585.511C356.754,585.511 357.931,593.753 360.874,593.164C363.818,592.574 364.996,584.922 365.584,585.511C366.174,586.101 370.294,592.575 369.704,592.575" style="fill:none;fill-rule:nonzero;stroke:rgb(0,114,255);stroke-width:1px;"/>
            </g>
        </g>
    </g>
</svg>
