<?xml version="1.0" encoding="UTF-8" standalone="no"?>
<!DOCTYPE svg PUBLIC "-//W3C//DTD SVG 1.1//EN" "http://www.w3.org/Graphics/SVG/1.1/DTD/svg11.dtd">
<svg width="100%" height="100%" viewBox="0 0 640 480" version="1.1" xmlns="http://www.w3.org/2000/svg" xmlns:xlink="http://www.w3.org/1999/xlink" xml:space="preserve" xmlns:serif="http://www.serif.com/" style="fill-rule:evenodd;clip-rule:evenodd;stroke-linecap:round;stroke-linejoin:round;">
    <rect x="0" y="0" width="640" height="240" style="fill:rgb(0,43,127);fill-rule:nonzero;"/>
    <rect x="0" y="240" width="640" height="240" style="fill:rgb(206,17,38);fill-rule:nonzero;"/>
    <g transform="matrix(0.8,0,0,0.8,0,0)">
        <g id="a">
            <path d="M216.377,122.29L214.539,184.79L151.119,184.79C143.316,169.62 136.872,156.737 136.872,139.292C136.872,124.692 148.355,113.097 164.905,113.097C182.425,113.097 201.675,119.001 216.375,122.289L216.377,122.29Z" style="fill:rgb(255,216,61);fill-rule:nonzero;"/>
            <g>
                <path d="M144.456,125.16L144.456,161.236M149.55,121.48L149.55,169.513M154.643,118.952L154.643,176.177M159.736,117.77L159.736,162.652M164.83,117.548L164.83,162.875M169.923,115.965L169.923,162.85M175.017,115.965L175.017,162.85M180.11,116.424L180.11,163.309M185.204,116.884L185.204,163.769M190.297,119.87L190.297,166.756M195.39,120.33L195.39,173.19M200.484,120.33L200.484,167.216M205.577,120.33L205.577,167.216" style="fill:rgb(255,216,61);fill-rule:nonzero;stroke:black;stroke-width:1.5px;"/>
                <path d="M176.395,117.923C187.159,119.698 210.802,130.76 208.105,145.726C204.285,166.936 191.897,158.424 175.475,155.376L163.068,159.513C158.628,164.045 152.09,168.196 147.673,162.73L140.32,162.73L140.32,191.452L221.662,191.452L221.662,122.06L176.395,117.923Z" style="fill-rule:nonzero;stroke:black;stroke-width:1.5px;"/>
            </g>
            <circle cx="212.815" cy="112.983" r="4.94" style="fill:rgb(255,216,61);stroke:black;stroke-width:2px;"/>
            <circle cx="201.713" cy="110.311" r="4.94" style="fill:rgb(255,216,61);stroke:black;stroke-width:2px;"/>
            <circle cx="190.45" cy="107.482" r="4.94" style="fill:rgb(255,216,61);stroke:black;stroke-width:2px;"/>
            <circle cx="179.143" cy="105.596" r="4.94" style="fill:rgb(255,216,61);stroke:black;stroke-width:2px;"/>
            <circle cx="167.836" cy="104.481" r="4.94" style="fill:rgb(255,216,61);stroke:black;stroke-width:2px;"/>
            <circle cx="156.749" cy="105.113" r="4.94" style="fill:rgb(255,216,61);stroke:black;stroke-width:2px;"/>
            <circle cx="146.179" cy="108.732" r="4.94" style="fill:rgb(255,216,61);stroke:black;stroke-width:2px;"/>
            <circle cx="137.276" cy="115.28" r="4.94" style="fill:rgb(255,216,61);stroke:black;stroke-width:2px;"/>
            <circle cx="130.957" cy="124.414" r="4.94" style="fill:rgb(255,216,61);stroke:black;stroke-width:2px;"/>
            <circle cx="127.912" cy="135.156" r="4.94" style="fill:rgb(255,216,61);stroke:black;stroke-width:2px;"/>
            <circle cx="128.027" cy="146.301" r="4.94" style="fill:rgb(255,216,61);stroke:black;stroke-width:2px;"/>
            <circle cx="130.152" cy="157.215" r="4.94" style="fill:rgb(255,216,61);stroke:black;stroke-width:2px;"/>
            <path d="M214.998,119.53L214.538,125.965C202.248,124.082 184.824,117.233 168.583,117.233C153.577,117.233 141.929,123.236 141.929,138.373C141.929,153.293 148.245,166.858 156.633,180.653L147.903,184.789C140.099,169.619 133.655,156.736 133.655,139.291C133.655,124.691 145.139,110.339 164.905,110.339C182.425,110.339 200.295,116.243 214.997,119.529L214.998,119.53Z" style="fill:rgb(255,216,61);fill-rule:nonzero;stroke:black;stroke-width:2px;"/>
        </g>
        <g id="a1" serif:id="a" transform="matrix(-1,0,0,1,443.938,0)">
            <path d="M216.377,122.29L214.539,184.79L151.119,184.79C143.316,169.62 136.872,156.737 136.872,139.292C136.872,124.692 148.355,113.097 164.905,113.097C182.425,113.097 201.675,119.001 216.375,122.289L216.377,122.29Z" style="fill:rgb(255,216,61);fill-rule:nonzero;"/>
            <g>
                <path d="M144.456,125.16L144.456,161.236M149.55,121.48L149.55,169.513M154.643,118.952L154.643,176.177M159.736,117.77L159.736,162.652M164.83,117.548L164.83,162.875M169.923,115.965L169.923,162.85M175.017,115.965L175.017,162.85M180.11,116.424L180.11,163.309M185.204,116.884L185.204,163.769M190.297,119.87L190.297,166.756M195.39,120.33L195.39,173.19M200.484,120.33L200.484,167.216M205.577,120.33L205.577,167.216" style="fill:rgb(255,216,61);fill-rule:nonzero;stroke:black;stroke-width:1.5px;"/>
                <path d="M176.395,117.923C187.159,119.698 210.802,130.76 208.105,145.726C204.285,166.936 191.897,158.424 175.475,155.376L163.068,159.513C158.628,164.045 152.09,168.196 147.673,162.73L140.32,162.73L140.32,191.452L221.662,191.452L221.662,122.06L176.395,117.923Z" style="fill-rule:nonzero;stroke:black;stroke-width:1.5px;"/>
            </g>
            <circle cx="212.815" cy="112.983" r="4.94" style="fill:rgb(255,216,61);stroke:black;stroke-width:2px;"/>
            <circle cx="201.713" cy="110.311" r="4.94" style="fill:rgb(255,216,61);stroke:black;stroke-width:2px;"/>
            <circle cx="190.45" cy="107.482" r="4.94" style="fill:rgb(255,216,61);stroke:black;stroke-width:2px;"/>
            <circle cx="179.143" cy="105.596" r="4.94" style="fill:rgb(255,216,61);stroke:black;stroke-width:2px;"/>
            <circle cx="167.836" cy="104.481" r="4.94" style="fill:rgb(255,216,61);stroke:black;stroke-width:2px;"/>
            <circle cx="156.749" cy="105.113" r="4.94" style="fill:rgb(255,216,61);stroke:black;stroke-width:2px;"/>
            <circle cx="146.179" cy="108.732" r="4.94" style="fill:rgb(255,216,61);stroke:black;stroke-width:2px;"/>
            <circle cx="137.276" cy="115.28" r="4.94" style="fill:rgb(255,216,61);stroke:black;stroke-width:2px;"/>
            <circle cx="130.957" cy="124.414" r="4.94" style="fill:rgb(255,216,61);stroke:black;stroke-width:2px;"/>
            <circle cx="127.912" cy="135.156" r="4.94" style="fill:rgb(255,216,61);stroke:black;stroke-width:2px;"/>
            <circle cx="128.027" cy="146.301" r="4.94" style="fill:rgb(255,216,61);stroke:black;stroke-width:2px;"/>
            <circle cx="130.152" cy="157.215" r="4.94" style="fill:rgb(255,216,61);stroke:black;stroke-width:2px;"/>
            <path d="M214.998,119.53L214.538,125.965C202.248,124.082 184.824,117.233 168.583,117.233C153.577,117.233 141.929,123.236 141.929,138.373C141.929,153.293 148.245,166.858 156.633,180.653L147.903,184.789C140.099,169.619 133.655,156.736 133.655,139.291C133.655,124.691 145.139,110.339 164.905,110.339C182.425,110.339 200.295,116.243 214.997,119.529L214.998,119.53Z" style="fill:rgb(255,216,61);fill-rule:nonzero;stroke:black;stroke-width:2px;"/>
        </g>
        <path d="M221.97,53.125L216.813,62.781L221.969,72.407L227.124,62.782L221.968,53.127L221.97,53.125ZM221.97,77.5L216.813,87.125L221.969,96.781L227.124,87.126L221.968,77.501L221.97,77.5ZM203.587,74.953L211.719,80.109L219.823,74.952L211.718,69.796L203.585,74.952L203.587,74.953ZM224.113,74.953L232.219,80.109L240.349,74.952L232.219,69.796L224.112,74.952L224.113,74.953Z" style="fill:rgb(255,216,61);fill-rule:nonzero;stroke:black;stroke-width:2px;"/>
        <circle cx="221.969" cy="75.069" r="3.906" style="fill:rgb(255,216,61);stroke:black;stroke-width:2px;"/>
        <circle cx="221.969" cy="100" r="10.455" style="fill:rgb(255,216,61);stroke:black;stroke-width:2px;"/>
        <path d="M219.344,89.875C219.344,92.989 219.322,94.799 219.314,96.5C216.821,96.611 214.336,96.872 211.874,97.28M232.064,97.28C229.602,96.871 227.117,96.61 224.624,96.5L224.624,89.875M211.844,102.563C215.19,102.002 218.576,101.72 221.969,101.719C225.419,101.719 228.799,102.011 232.093,102.562" style="fill:none;fill-rule:nonzero;stroke:black;stroke-width:1.5px;"/>
        <path d="M211.75,117.688C210.758,134.77 208.74,152.168 202.094,164.812L212.906,160.437C216.683,146.109 217.476,127.595 218.626,118.844L211.75,117.688ZM232.188,117.688L225.313,118.844C226.461,127.594 227.255,146.109 231.031,160.438L241.845,164.813C235.197,152.167 233.18,134.77 232.189,117.688L232.188,117.688Z" style="fill:rgb(255,216,61);fill-rule:nonzero;stroke:black;stroke-width:2px;"/>
        <path d="M221.953,154.688C209.04,154.688 199.553,160.774 198.983,176.281C195.828,170.727 182.473,153.257 170.016,155.595C162.606,156.985 156.059,167.261 157.172,179.032C151.037,161.402 133.065,158.514 119.952,168.939C131.595,178.512 136.774,206.774 146.578,219.033L297.328,219.033C307.132,206.775 312.342,178.513 323.984,168.94C310.872,158.515 292.901,161.404 286.766,179.034C287.879,167.264 281.3,156.988 273.891,155.598C261.433,153.26 248.111,170.73 244.954,176.285C244.384,160.779 234.868,154.692 221.954,154.692L221.953,154.688Z" style="fill:rgb(255,216,61);fill-rule:nonzero;stroke:black;stroke-width:2px;"/>
        <g>
            <path d="M297.107,219.026C297.107,224.606 263.445,230.744 221.969,230.744C180.492,230.744 146.829,224.607 146.829,219.026C146.829,213.446 180.492,210.524 221.969,210.524C263.444,210.524 297.106,213.444 297.106,219.026L297.107,219.026Z" style="fill-rule:nonzero;stroke:black;stroke-width:1.5px;"/>
            <circle cx="221.969" cy="114.445" r="3.504" style="fill:rgb(255,216,61);stroke:black;stroke-width:1.5px;"/>
            <circle cx="221.969" cy="122.027" r="3.734" style="fill:rgb(255,216,61);stroke:black;stroke-width:1.5px;"/>
            <circle cx="221.969" cy="130.184" r="4.079" style="fill:rgb(255,216,61);stroke:black;stroke-width:1.5px;"/>
            <circle cx="221.969" cy="139.261" r="4.653" style="fill:rgb(255,216,61);stroke:black;stroke-width:1.5px;"/>
            <circle cx="221.969" cy="149.371" r="5.113" style="fill:rgb(255,216,61);stroke:black;stroke-width:1.5px;"/>
            <path d="M219.938,159.206C219.385,159.199 218.862,159.666 219,160.55C219.163,161.593 219.367,163.545 219.563,164.862C219.783,166.355 220.653,165.992 220.875,164.832C221.095,163.67 221.007,162.925 221.063,160.768C221.09,159.69 220.49,159.213 219.938,159.206ZM224,159.206C223.447,159.213 222.847,159.69 222.875,160.768C222.93,162.925 222.841,163.67 223.063,164.831C223.283,165.993 224.153,166.356 224.375,164.863C224.57,163.546 224.775,161.593 224.938,160.551C225.076,159.666 224.553,159.201 224,159.207L224,159.206ZM216.313,159.768C215.807,159.838 215.283,160.348 215.313,160.893C215.368,161.889 215.643,163.083 215.75,164.581C215.86,166.131 216.952,165.529 217.063,164.644C217.173,163.76 217.298,162.452 217.188,160.738C217.146,160.095 216.865,159.813 216.531,159.768C216.459,159.759 216.386,159.759 216.314,159.768L216.313,159.768ZM227.406,159.768C227.072,159.811 226.791,160.094 226.75,160.738C226.665,162.041 226.707,163.348 226.875,164.643C226.985,165.528 228.077,166.129 228.188,164.581C228.295,163.083 228.57,161.891 228.625,160.894C228.655,160.35 228.131,159.84 227.625,159.769C227.552,159.759 227.478,159.759 227.405,159.769L227.406,159.768ZM211.969,161.518C211.505,161.638 211.079,162.195 211.219,162.831C211.494,164.104 211.749,165.511 211.749,166.801C211.749,167.907 212.694,167.511 212.749,166.738C212.844,165.438 212.896,164.135 212.905,162.832C212.905,161.718 212.431,161.402 211.968,161.52L211.969,161.518ZM231.655,161.518C231.325,161.608 231.03,161.995 231.03,162.831C231.03,164.325 231.133,165.964 231.188,166.738C231.243,167.512 232.188,167.908 232.188,166.801C232.188,165.511 232.442,164.104 232.718,162.831C232.858,162.196 232.432,161.639 231.968,161.519C231.866,161.489 231.758,161.489 231.656,161.519L231.655,161.518ZM172.562,161.688C172.007,161.671 171.619,162.423 171.999,163.252C172.607,164.579 173.253,165.417 173.874,166.846C174.427,168.116 175.274,167.324 174.999,166.439C174.722,165.554 174.422,164.569 173.593,162.689C173.283,161.983 172.893,161.699 172.563,161.689L172.562,161.688ZM271.374,161.688C271.042,161.7 270.654,161.984 270.344,162.688C269.514,164.568 269.214,165.555 268.937,166.438C268.66,167.324 269.507,168.118 270.062,166.846C270.682,165.416 271.328,164.579 271.937,163.252C272.317,162.422 271.929,161.672 271.374,161.689L271.374,161.688ZM176.562,161.752C176.154,161.876 175.906,162.394 176.155,163.002C176.653,164.218 177.372,165.465 177.875,166.782C178.315,167.944 179.3,167.615 178.968,166.564C178.635,165.514 178.536,164.899 177.873,162.908C177.541,161.913 176.968,161.628 176.561,161.752L176.562,161.752ZM267.062,161.752C266.712,161.826 266.31,162.162 266.062,162.908C265.398,164.898 265.299,165.514 264.968,166.564C264.635,167.614 265.618,167.944 266.061,166.784C266.563,165.464 267.281,164.218 267.779,163.002C268.029,162.394 267.782,161.876 267.374,161.752C267.272,161.724 267.164,161.724 267.062,161.752ZM181.562,162.722C181.047,162.818 180.649,163.602 180.999,164.564C181.442,165.781 182.071,166.932 182.624,168.314C183.177,169.697 184.094,169.418 183.874,168.534C183.654,167.648 183.382,166.182 182.718,163.971C182.428,163.004 181.96,162.646 181.561,162.721L181.562,162.722ZM262.374,162.722C261.974,162.644 261.508,163.002 261.218,163.972C260.553,166.182 260.282,167.648 260.061,168.532C259.839,169.418 260.757,169.697 261.311,168.314C261.864,166.932 262.493,165.781 262.936,164.564C263.286,163.604 262.886,162.818 262.373,162.721L262.374,162.722ZM169.187,163.408C168.63,163.465 168.122,164.373 168.467,165.064C169.021,166.17 169.371,166.547 169.905,167.721C170.458,168.938 171.065,167.996 170.843,167.221C170.621,166.447 170.338,165.546 170.063,164.441C169.859,163.631 169.521,163.375 169.187,163.409L169.187,163.408ZM274.749,163.408C274.415,163.374 274.077,163.628 273.874,164.438C273.598,165.545 273.314,166.446 273.094,167.221C272.871,167.996 273.477,168.938 274.03,167.721C274.565,166.548 274.915,166.171 275.47,165.065C275.814,164.375 275.307,163.465 274.75,163.409L274.749,163.408ZM207.719,166.206C207.134,166.206 206.509,166.98 206.719,167.706C207.049,168.866 207.562,169.896 207.937,171.393C208.267,172.72 209.211,172.059 209.155,171.175C209.1,170.29 208.948,169.085 208.562,167.205C208.416,166.501 208.068,166.205 207.718,166.205L207.719,166.206ZM236.219,166.206C235.867,166.206 235.519,166.501 235.374,167.206C234.987,169.086 234.836,170.29 234.78,171.176C234.726,172.059 235.668,172.72 236,171.393C236.374,169.897 236.887,168.867 237.22,167.706C237.426,166.98 236.803,166.206 236.22,166.206L236.219,166.206ZM221.969,167.393C221.249,167.393 221.149,168.359 221.124,169.143C221.041,171.715 219.974,174.213 219.062,175.456C218.149,176.7 216.806,176.369 215.562,175.706C214.317,175.042 213.576,174.546 212.249,173.55C210.922,172.554 209.915,173.136 211.499,175.393C216.116,181.973 221.124,187.598 221.124,198.331C221.124,199.721 221.366,200.144 221.968,200.144C222.568,200.144 222.842,199.72 222.842,198.332C222.842,187.6 227.818,181.976 232.436,175.395C234.019,173.138 233.013,172.555 231.686,173.552C230.359,174.547 229.616,175.044 228.373,175.708C227.129,176.371 225.785,176.702 224.873,175.458C223.96,174.214 222.893,171.718 222.811,169.145C222.785,168.361 222.686,167.395 221.967,167.395L221.969,167.393ZM186.687,165.783C186.623,165.783 186.56,165.793 186.499,165.813C186.229,165.899 186.051,166.223 186.155,166.783C186.341,167.785 187.035,169.75 187.312,170.689C187.588,171.629 188.744,171.429 188.468,170.157C188.19,168.885 188.205,168.501 187.873,167.063C187.693,166.277 187.126,165.793 186.686,165.783L186.687,165.783ZM257.249,165.783C256.809,165.795 256.243,166.278 256.062,167.063C255.73,168.503 255.744,168.886 255.468,170.158C255.19,171.43 256.346,171.63 256.623,170.688C256.899,169.75 257.593,167.785 257.779,166.783C257.884,166.223 257.705,165.899 257.437,165.813C257.376,165.793 257.313,165.783 257.249,165.783ZM165.719,166.189C165.139,166.234 164.724,166.961 165.312,168.032C165.945,169.189 167.032,170.64 167.53,171.47C168.03,172.3 168.89,171.74 168.28,170.69C167.673,169.64 167.47,168.432 166.75,166.94C166.48,166.38 166.066,166.162 165.72,166.19L165.719,166.189ZM278.219,166.189C277.869,166.161 277.456,166.379 277.187,166.939C276.467,168.431 276.263,169.639 275.655,170.689C275.047,171.739 275.908,172.299 276.405,171.469C276.903,170.639 277.99,169.189 278.625,168.032C279.212,166.962 278.797,166.234 278.218,166.188L278.219,166.189ZM134.029,169.517C133.362,169.482 133.153,170.687 133.779,171.487C134.693,172.647 135.329,173.263 136.374,174.205C137.204,174.951 137.444,173.983 137.03,173.235C136.617,172.49 136.017,171.731 135.188,170.485C134.733,169.805 134.335,169.535 134.031,169.517L134.029,169.517ZM309.905,169.517C309.602,169.533 309.205,169.804 308.749,170.487C307.919,171.731 307.319,172.49 306.905,173.237C306.491,173.983 306.732,174.951 307.562,174.205C308.608,173.263 309.242,172.647 310.155,171.485C310.782,170.688 310.573,169.482 309.905,169.517ZM139.062,170.517C138.529,170.524 138.178,170.917 138.592,171.83C139.187,173.137 139.97,174.617 140.468,175.612C140.964,176.607 142.481,176.942 141.873,175.392C141.265,173.845 141.145,173.05 140.593,171.612C140.315,170.892 139.593,170.512 139.061,170.518L139.062,170.517ZM304.874,170.517C304.342,170.51 303.619,170.892 303.344,171.611C302.79,173.049 302.67,173.844 302.062,175.391C301.452,176.941 302.97,176.606 303.468,175.611C303.965,174.616 304.748,173.136 305.342,171.831C305.756,170.917 305.405,170.524 304.872,170.517L304.874,170.517ZM129.312,170.861C128.538,170.869 128.472,171.645 129.155,172.141C130.068,172.806 131.155,173.541 132.218,174.391C133.461,175.388 133.943,174.471 133.278,173.641C132.616,172.813 131.97,171.971 130.311,171.141C129.896,170.935 129.568,170.859 129.311,170.861L129.312,170.861ZM314.624,170.861C314.366,170.858 314.039,170.935 313.624,171.141C311.964,171.971 311.319,172.813 310.654,173.641C309.992,174.471 310.474,175.388 311.718,174.391C312.778,173.541 313.868,172.806 314.778,172.141C315.463,171.645 315.398,170.869 314.623,170.861L314.624,170.861ZM204.968,171.581C204.534,171.641 204.16,172.131 204.342,172.767C204.672,173.927 205.05,175.159 205.279,176.361C205.502,177.523 206.845,177.537 206.624,176.486C206.404,175.436 206.292,174.121 205.904,172.516C205.76,171.916 205.457,171.626 205.154,171.58C205.092,171.571 205.03,171.571 204.968,171.58L204.968,171.581ZM238.778,171.581C238.478,171.627 238.174,171.916 238.028,172.517C237.643,174.121 237.531,175.437 237.311,176.487C237.089,177.537 238.433,177.523 238.654,176.361C238.884,175.159 239.26,173.928 239.592,172.767C239.772,172.132 239.4,171.64 238.967,171.58C238.904,171.57 238.84,171.57 238.777,171.58L238.778,171.581ZM174.873,169.595C174.533,169.689 174.337,170.339 174.593,171.251C176.003,176.311 176.433,178.975 176.186,180.221C175.936,181.464 175.254,181.634 174.342,181.221C173.36,180.771 172.419,180.237 171.529,179.626C170.701,179.046 169.839,179.74 171.029,180.72C177.085,185.697 181.282,191.385 182.905,198.283C183.237,199.693 184.123,199.859 183.875,198.283C182.502,189.593 182.238,182.45 184.312,177.971C185.092,176.288 184.306,174.671 183.062,177.409C182.232,179.234 180.89,179.954 179.812,178.379C178.732,176.802 176.506,172.599 175.842,170.689C175.594,169.975 175.287,169.644 175.03,169.597C174.979,169.585 174.926,169.585 174.875,169.597L174.873,169.595ZM268.903,169.595C268.648,169.642 268.341,169.973 268.093,170.688C267.428,172.595 265.201,176.798 264.123,178.375C263.043,179.951 261.703,179.231 260.873,177.405C259.629,174.669 258.843,176.285 259.623,177.969C261.697,182.449 261.433,189.592 260.061,198.282C259.811,199.858 260.698,199.692 261.029,198.282C262.653,191.384 266.849,185.696 272.905,180.72C274.097,179.74 273.235,179.046 272.405,179.627C271.575,180.207 270.505,180.807 269.593,181.221C268.681,181.636 267.998,181.466 267.749,180.221C267.499,178.977 267.933,176.311 269.343,171.253C269.597,170.341 269.401,169.691 269.063,169.597C269.011,169.585 268.957,169.585 268.905,169.597L268.903,169.595ZM144.436,172.017C143.889,172.024 143.436,172.407 143.686,173.237C144.084,174.565 144.909,176.001 145.186,176.83C145.462,177.66 146.351,177.273 146.186,176.112C146.02,174.952 145.938,174.259 145.716,172.987C145.606,172.351 144.982,172.011 144.436,172.017ZM299.498,172.017C298.952,172.01 298.328,172.35 298.218,172.987C297.995,174.257 297.914,174.95 297.748,176.111C297.582,177.271 298.471,177.659 298.748,176.831C299.024,176.001 299.848,174.565 300.248,173.236C300.498,172.406 300.044,172.024 299.498,172.016L299.498,172.017ZM163.218,170.282C162.582,170.168 162.49,171.806 163.028,172.47C163.748,173.356 164.748,174.425 165.748,175.627C166.578,176.622 167.09,175.737 166.592,174.907C166.094,174.077 165.356,173.197 164.029,171.097C163.699,170.57 163.429,170.321 163.219,170.283L163.218,170.282ZM280.718,170.282C280.505,170.32 280.236,170.569 279.904,171.095C278.577,173.195 277.839,174.077 277.342,174.907C276.844,175.737 277.356,176.621 278.186,175.627C279.186,174.424 280.186,173.355 280.904,172.47C281.444,171.807 281.352,170.17 280.717,170.283L280.718,170.282ZM148.718,174.236C148.323,174.209 147.988,174.528 148.154,175.33C148.386,176.447 148.721,177.374 148.998,178.425C149.274,179.475 149.998,179.295 149.998,178.3C149.998,177.304 149.82,176.194 149.654,175.143C149.571,174.618 149.111,174.265 148.717,174.237L148.718,174.236ZM295.218,174.236C294.823,174.264 294.362,174.616 294.278,175.142C294.113,176.192 293.936,177.302 293.936,178.299C293.936,179.294 294.659,179.474 294.936,178.424C295.212,177.374 295.548,176.446 295.779,175.33C295.946,174.53 295.612,174.21 295.219,174.237L295.218,174.236ZM161.811,175.656C161.191,175.751 160.647,176.349 161.373,177.282C162.533,178.775 163.805,179.822 164.248,180.376C164.69,180.929 165.811,180.726 165.092,179.563C164.357,178.377 163.246,176.948 162.748,176.063C162.561,175.733 162.182,175.601 161.811,175.657L161.811,175.656ZM281.873,175.656C281.601,175.686 281.325,175.816 281.186,176.063C280.688,176.948 279.576,178.377 278.842,179.563C278.122,180.725 279.242,180.929 279.686,180.376C280.128,179.823 281.399,178.776 282.561,177.282C283.286,176.349 282.741,175.752 282.123,175.657C282.04,175.645 281.956,175.645 281.873,175.657L281.873,175.656ZM141.153,179.83C140.666,179.787 140.497,180.18 141.153,181.08C142.647,183.127 144.293,186.223 144.403,187.55C144.515,188.877 143.859,188.862 143.248,188.862C141.423,188.862 140.532,187.53 138.873,187.142C137.213,186.756 136.973,187.629 138.153,188.487C144.237,192.911 150.333,197.847 152.779,202.331C153.775,204.157 155.121,204.824 154.374,203.081C152.087,197.745 151.534,193.225 152.03,190.488C152.53,187.751 153.208,185.908 153.125,184.332C153.042,182.757 152.148,182.865 151.781,184.332C151.533,185.328 151.051,186.647 150.721,187.145C150.388,187.643 149.054,187.922 147.781,186.208C146.511,184.494 143.301,181.193 142.251,180.364C141.857,180.054 141.451,179.859 141.157,179.834L141.153,179.83ZM302.779,179.83C302.487,179.857 302.079,180.05 301.687,180.362C300.637,181.192 297.427,184.492 296.155,186.206C294.883,187.92 293.549,187.641 293.218,187.143C292.885,186.645 292.403,185.326 292.154,184.331C291.787,182.864 290.894,182.756 290.811,184.331C290.728,185.908 291.406,187.751 291.904,190.488C292.402,193.225 291.848,197.745 289.561,203.082C288.814,204.825 290.159,204.158 291.154,202.332C293.601,197.848 299.697,192.912 305.779,188.489C306.961,187.631 306.721,186.759 305.062,187.145C303.402,187.532 302.512,188.865 300.687,188.865C300.077,188.865 299.419,188.879 299.53,187.552C299.642,186.225 301.288,183.129 302.78,181.082C303.438,180.182 303.27,179.789 302.78,179.832L302.779,179.83Z" style="fill-rule:nonzero;"/>
            <path d="M150.127,212.65L152.077,218.825M154.137,211.481L155.865,217.721M158.47,210.769L159.657,217.134M162.49,209.964L163.76,216.314M167.646,209.456L168.678,215.848M173.13,209.463L174.242,215.841M178.484,207.651L179.287,214.077M183.521,207.977L184.325,214.402M188.395,207.329L189.2,213.753M193.288,206.825L193.73,213.285M198.516,206.823L198.9,213.286M203.257,206.496L203.583,212.963M208.483,206.17L208.755,212.64M214.495,206.008L214.767,212.478M293.811,212.654L291.861,218.829M289.801,211.485L288.073,217.725M285.469,210.773L284.282,217.138M281.45,209.968L280.18,216.318M276.294,209.46L275.261,215.852M270.808,209.467L269.696,215.845M265.456,207.655L264.651,214.081M260.418,207.981L259.614,214.406M255.544,207.333L254.74,213.757M250.65,206.829L250.208,213.289M245.421,206.827L245.039,213.29M240.682,206.5L240.356,212.967M235.456,206.174L235.186,212.644M229.444,206.012L229.174,212.482M221.971,205.592L221.971,212.714" style="fill:rgb(255,216,61);fill-rule:nonzero;stroke:black;stroke-width:1.5px;"/>
        </g>
    </g>
</svg>
