<?xml version="1.0" encoding="UTF-8" standalone="no"?>
<!DOCTYPE svg PUBLIC "-//W3C//DTD SVG 1.1//EN" "http://www.w3.org/Graphics/SVG/1.1/DTD/svg11.dtd">
<svg width="100%" height="100%" viewBox="0 0 640 480" version="1.1" xmlns="http://www.w3.org/2000/svg" xmlns:xlink="http://www.w3.org/1999/xlink" xml:space="preserve" xmlns:serif="http://www.serif.com/" style="fill-rule:evenodd;clip-rule:evenodd;stroke-linejoin:round;">
    <rect x="0" y="320" width="640" height="160" style="fill-rule:nonzero;"/>
    <rect x="0" y="160" width="640" height="160" style="fill:white;fill-rule:nonzero;"/>
    <rect x="0" y="0" width="640" height="160" style="fill:rgb(206,17,38);fill-rule:nonzero;"/>
    <g transform="matrix(0.8,0,0,0.8,-40.004,0.002)">
        <path d="M450.81,302.4L519.298,365.98L514.422,250.51C513.706,233.01 498.498,237.024 487.452,243.337C476.26,250.509 463.492,250.509 450.005,245.774C436.52,250.509 423.752,250.509 412.561,243.337C401.516,237.024 386.311,233.009 385.591,250.509L380.713,365.979L450.811,302.399L450.81,302.4Z" style="fill:white;fill-rule:nonzero;stroke:rgb(192,147,0);stroke-width:1.27px;"/>
        <path id="a" d="M393.47,246.49L388.736,358.81L380.701,365.978L385.581,250.508C387.875,248.93 391.894,246.491 393.471,246.491L393.47,246.49ZM403.09,254.53L399.073,348.485L391.041,356.705L395.919,248.215C397.499,249.792 402.233,253.665 403.091,254.525L403.09,254.53ZM411.84,261.7L408.685,340.062L402.23,346.372L406.248,256.966C407.822,258.544 410.978,260.84 411.84,261.7ZM421.31,265.72L418.154,332.507L411.841,337.627L414.998,263.282C416.578,263.999 419.733,265.72 421.311,265.72L421.31,265.72ZM430.06,265.72L427.763,321.377L421.308,327.69L423.748,266.438C425.323,266.438 429.341,266.438 430.06,265.72Z" style="fill:rgb(192,147,0);fill-rule:nonzero;"/>
        <g id="a1" serif:id="a" transform="matrix(-1,0,0,1,900,0)">
            <path d="M393.47,246.49L388.736,358.81L380.701,365.978L385.581,250.508C387.875,248.93 391.894,246.491 393.471,246.491L393.47,246.49ZM403.09,254.53L399.073,348.485L391.041,356.705L395.919,248.215C397.499,249.792 402.233,253.665 403.091,254.525L403.09,254.53ZM411.84,261.7L408.685,340.062L402.23,346.372L406.248,256.966C407.822,258.544 410.978,260.84 411.84,261.7ZM421.31,265.72L418.154,332.507L411.841,337.627L414.998,263.282C416.578,263.999 419.733,265.72 421.311,265.72L421.31,265.72ZM430.06,265.72L427.763,321.377L421.308,327.69L423.748,266.438C425.323,266.438 429.341,266.438 430.06,265.72Z" style="fill:rgb(192,147,0);fill-rule:nonzero;"/>
        </g>
        <path d="M453.16,315.06L462.773,358.815L459.615,361.97L456.315,359.53L450.865,320.513L453.159,359.531L450.002,363.548L446.845,359.532L449.141,320.515L443.691,359.533L440.388,361.973L437.233,358.818L446.843,315.063L453.158,315.063L453.16,315.06Z" style="fill:rgb(192,147,0);fill-rule:nonzero;stroke:rgb(192,147,0);stroke-width:1.07px;stroke-linejoin:miter;"/>
        <g id="b">
            <path d="M428.48,295.84L409.4,363.545L435.655,367.563L446.843,316.639L428.48,295.839L428.48,295.84Z" style="fill:white;fill-rule:nonzero;stroke:rgb(192,147,0);stroke-width:1.19px;"/>
            <path d="M422.17,318.94L424.466,324.533L436.871,312.685" style="fill:none;fill-rule:nonzero;stroke:rgb(192,147,0);stroke-width:1.27px;"/>
            <path d="M430.76,304.92L433.356,329.266L441.246,318.938M438.09,322.95L442.4,337.825M444.09,332.36L435.372,345.6M438.092,358.817L435.302,345.619L432.865,332.195L427.025,340.105L424.463,330.985L416.289,339.37L420.445,354.622L426.183,345.187L429.338,354.799L435.228,345.636" style="fill:none;fill-rule:nonzero;stroke:rgb(192,147,0);stroke-width:1.27px;"/>
            <path d="M414.99,361.97L420.29,354.526L423.742,365.983L428.477,357.951L431.634,367.566" style="fill:none;fill-rule:nonzero;stroke:rgb(192,147,0);stroke-width:1.27px;"/>
        </g>
        <g id="b1" serif:id="b" transform="matrix(-1,0,0,1,900,0)">
            <path d="M428.48,295.84L409.4,363.545L435.655,367.563L446.843,316.639L428.48,295.839L428.48,295.84Z" style="fill:white;fill-rule:nonzero;stroke:rgb(192,147,0);stroke-width:1.19px;"/>
            <path d="M422.17,318.94L424.466,324.533L436.871,312.685" style="fill:none;fill-rule:nonzero;stroke:rgb(192,147,0);stroke-width:1.27px;"/>
            <path d="M430.76,304.92L433.356,329.266L441.246,318.938M438.09,322.95L442.4,337.825M444.09,332.36L435.372,345.6M438.092,358.817L435.302,345.619L432.865,332.195L427.025,340.105L424.463,330.985L416.289,339.37L420.445,354.622L426.183,345.187L429.338,354.799L435.228,345.636" style="fill:none;fill-rule:nonzero;stroke:rgb(192,147,0);stroke-width:1.27px;"/>
            <path d="M414.99,361.97L420.29,354.526L423.742,365.983L428.477,357.951L431.634,367.566" style="fill:none;fill-rule:nonzero;stroke:rgb(192,147,0);stroke-width:1.27px;"/>
        </g>
        <g>
            <path d="M450,393.81C469.943,393.81 489.024,392.232 500.213,389.076C504.948,388.216 504.948,385.778 504.948,382.621C509.684,381.044 507.243,375.451 510.543,375.451C507.243,376.314 506.527,369.857 502.51,370.721C502.51,365.123 496.914,364.407 492.18,365.981C482.71,369.141 465.925,369.857 450,369.857C434.076,369.14 417.433,369.14 407.82,365.982C403.087,364.408 397.494,365.124 397.494,370.722C393.476,369.858 392.758,376.315 389.46,375.452C392.76,375.452 390.32,381.045 395.054,382.622C395.054,385.78 395.054,388.219 399.932,389.078C410.977,392.234 430.06,393.812 450,393.812L450,393.81Z" style="fill:white;fill-rule:nonzero;stroke:rgb(192,147,0);stroke-width:2.38px;stroke-linecap:round;"/>
            <path d="M422.89,363.54C429.344,364.4 436.518,365.118 442.115,364.4C445.268,364.4 447.565,369.852 441.252,370.714C435.659,371.429 426.907,370.714 422.172,369.852C418.155,369.134 409.404,367.557 403.808,365.976C398.214,363.54 402.232,358.808 405.386,359.524C410.266,361.101 416.578,362.681 422.891,363.54L422.89,363.54ZM477.12,363.54C470.663,364.4 463.492,365.118 458.04,364.4C454.738,364.4 452.443,369.852 458.756,370.714C464.352,371.429 473.103,370.714 477.834,369.852C481.854,369.134 490.604,367.557 496.198,365.976C501.795,363.54 497.778,358.808 494.621,359.524C489.744,361.101 483.431,362.681 477.121,363.54L477.12,363.54Z" style="fill:white;fill-rule:nonzero;stroke:rgb(192,147,0);stroke-width:1.27px;stroke-linecap:round;"/>
            <path d="M403.09,360.39C398.213,359.53 395.918,365.122 397.497,368.277C398.214,366.699 401.514,366.699 402.232,365.122C403.09,362.685 401.514,362.685 403.09,360.39ZM422.17,375.06C422.17,371.907 425.325,372.295 425.325,369.139C425.325,367.561 424.465,365.119 422.888,365.119C421.308,365.119 419.73,366.699 419.73,368.276C419.012,371.433 422.17,371.906 422.17,375.059L422.17,375.06ZM444.88,365.98C449.61,365.98 449.142,372.294 446.846,375.45C446.846,373.155 442.829,372.294 442.829,370.718C442.829,368.276 446.454,368.276 444.879,365.98L444.88,365.98ZM496.91,360.39C501.788,359.53 504.084,365.122 502.505,368.277C501.787,366.699 498.488,366.699 497.771,365.122C496.911,362.685 498.491,362.685 496.911,360.39L496.91,360.39ZM477.83,375.06C477.83,371.907 474.677,372.295 474.677,369.139C474.677,367.561 475.537,365.119 477.115,365.119C478.692,365.119 480.271,366.699 480.271,368.276C480.991,371.433 477.831,371.906 477.831,375.059L477.83,375.06ZM455.12,365.98C450.388,365.98 450.857,372.294 453.153,375.45C453.153,373.155 457.168,372.294 457.168,370.718C457.168,368.276 453.542,368.276 455.12,365.98Z" style="fill:white;fill-rule:nonzero;stroke:rgb(192,147,0);stroke-width:1.27px;stroke-linecap:round;"/>
            <path d="M404.67,361.97C406.25,361.97 408.688,362.688 409.405,363.547L404.665,361.967L404.67,361.97ZM412.55,364.41C413.412,364.41 416.568,365.126 418.146,365.985L412.546,364.405L412.55,364.41ZM441.25,367.56C439.672,367.56 436.516,367.56 435.657,368.275L441.247,367.555L441.25,367.56ZM432.5,367.56C431.64,366.698 428.484,366.698 426.907,367.56L432.5,367.56ZM495.34,361.97C493.762,361.97 491.465,362.688 490.605,363.547L495.34,361.97ZM487.45,364.41C486.59,364.41 483.433,365.126 481.855,365.985L487.455,364.405L487.45,364.41ZM458.75,367.56C460.33,367.56 463.485,367.56 464.345,368.275L458.745,367.555L458.75,367.56ZM467.5,367.56C468.36,366.698 471.518,366.698 473.095,367.56L467.495,367.56L467.5,367.56Z" style="fill:white;fill-rule:nonzero;stroke:rgb(192,147,0);stroke-width:0.89px;stroke-linecap:round;"/>
            <g>
                <path d="M403.34,374.58C402.806,374.478 402.525,374.055 402.66,373.555C402.824,372.945 403.31,372.598 403.772,372.761C404.066,372.866 404.602,373.407 404.604,373.601C404.607,373.823 404.324,374.353 404.202,374.355C404.149,374.355 404.067,374.401 404.02,374.457C403.92,374.575 403.607,374.632 403.34,374.581L403.34,374.58ZM458.27,378.5C458.07,378.426 457.755,377.982 457.755,377.776C457.757,377.389 458.329,376.758 458.685,376.756C458.859,376.754 459.339,377.003 459.518,377.189C459.843,377.526 459.772,378.081 459.364,378.396C459.164,378.551 458.564,378.608 458.27,378.499L458.27,378.5ZM458.63,380.98C458.21,380.838 458.056,380.632 458.022,380.166C457.986,379.681 458.034,379.606 458.547,379.326L458.912,379.126L459.259,379.281C459.737,379.496 459.951,379.727 459.969,380.049C459.986,380.397 459.729,380.753 459.329,380.932C458.976,381.092 458.955,381.092 458.629,380.982L458.63,380.98Z" style="fill:rgb(192,147,0);fill-rule:nonzero;"/>
                <path d="M407.75,370.09C407.404,370.08 406.93,370.397 406.656,370.56C406.006,370.71 405.252,371.11 404.626,370.684C404.008,370.494 403.186,370.644 403.094,371.402C403.252,372.054 404.164,372.427 404.719,371.996C405.129,371.459 406.249,371.143 406.374,372.059C405.917,372.749 405.969,373.667 405.594,374.402C405.532,374.859 405.341,375.294 405.094,375.682C404.631,375.729 404.139,375.675 403.749,375.964C403.123,375.998 402.484,376.309 402.124,376.839C401.721,377.417 401.334,378.004 401.218,378.714C401.324,379.439 402.154,379.647 402.778,379.684C403.446,379.866 404.114,380.107 404.778,380.308C405.865,380.55 406.881,380.942 407.968,381.182C409.551,381.659 411.215,381.879 412.81,382.307C412.978,382.361 413.135,382.41 413.31,382.431C413.973,382.568 414.318,381.848 414.373,381.306C414.703,380.146 414.953,378.966 415.279,377.806C415.505,377.339 415.777,376.288 414.874,376.524C414.359,376.832 413.922,377.297 413.28,377.336C412.407,377.386 412.906,378.281 413.25,378.649C413.326,379.236 413.14,379.937 412.75,380.399C412.23,380.729 411.578,380.342 411.03,380.211C410.457,380.221 409.308,379.928 409.844,379.149C410.034,378.572 410.051,377.939 410.281,377.367C410.576,376.754 410.618,376.083 410.751,375.431C410.391,374.654 409.771,375.687 409.281,375.775C408.944,376.009 407.677,376.109 408.345,376.712C408.92,377.149 408.479,377.909 408.375,378.462C408.339,379.232 407.538,379.416 406.907,379.242C406.279,379.212 405.407,378.746 405.937,378.056C406.059,377.48 406.26,376.916 406.377,376.336C406.613,375.638 406.813,374.973 407.063,374.274C407.173,373.654 407.393,373.066 407.688,372.524C407.706,371.838 408.166,371.248 408.158,370.554C408.11,370.216 407.958,370.094 407.751,370.086L407.75,370.09ZM404.156,377.34C404.231,377.326 404.308,377.337 404.376,377.37C404.626,377.477 404.632,377.68 404.376,377.902C404.263,377.999 404.136,378.092 404.094,378.09C403.626,378.05 403.488,377.98 403.469,377.81C403.449,377.658 403.499,377.614 403.811,377.465C403.92,377.409 404.036,377.367 404.155,377.34L404.156,377.34ZM403.12,382.36C402.624,381.894 402.704,381.554 403.437,381.007C403.751,380.773 403.942,380.799 404.3,381.127C404.853,381.631 404.875,381.95 404.387,382.382C404.147,382.595 404.041,382.639 403.76,382.642C403.467,382.645 403.384,382.608 403.12,382.36ZM406.17,383.28C405.784,383.188 405.509,382.84 405.509,382.443C405.509,382.358 405.522,382.273 405.547,382.192C405.677,381.758 405.75,381.715 406.387,381.709C407.103,381.701 407.241,381.819 407.247,382.449C407.252,382.804 407.225,382.886 407.047,383.049C406.803,383.252 406.482,383.336 406.17,383.279L406.17,383.28ZM495.28,383.36C495.053,383.17 495.007,383.086 495.005,382.845C495.002,382.435 495.238,382.133 495.751,381.901C496.434,381.594 496.711,381.636 496.968,382.088C497.31,382.688 497.293,382.935 496.884,383.34C496.659,383.563 496.616,383.576 496.099,383.58C495.592,383.584 495.534,383.57 495.281,383.36L495.28,383.36ZM410.22,384.51C409.856,384.413 409.668,384.14 409.663,383.703C409.659,383.369 409.683,383.316 409.916,383.133C410.068,383.015 410.306,382.913 410.496,382.888C410.762,382.851 410.859,382.875 411.074,383.026C411.624,383.413 411.742,383.796 411.424,384.166C411.084,384.563 410.761,384.654 410.22,384.51ZM432.14,385.49C432.06,385.39 431.88,385.33 431.862,385.203C431.894,384.648 431.922,384.086 432.098,383.555C432.194,383.032 432.11,382.485 432.292,381.975C432.479,381.049 432.479,380.095 432.694,379.173C432.704,378.698 432.749,378.223 432.887,377.767C433.044,377.045 432.9,376.291 433.113,375.577C433.09,375.31 433.398,374.594 433.669,375.017C434.062,375.595 434.579,376.063 435.089,376.534C435.527,376.786 435.125,377.158 434.823,377.284C434.407,377.447 434.306,377.904 434.336,378.306C434.278,378.72 434.111,379.112 434.094,379.536C434.007,380.158 434.024,380.79 433.944,381.412C433.761,382.022 433.83,382.672 433.77,383.3C433.78,383.698 433.59,384.06 433.615,384.46C433.567,384.866 433.549,385.354 433.208,385.632C432.878,385.798 432.404,385.77 432.14,385.49ZM461.84,375.69C461.358,376.055 460.926,376.485 460.496,376.91C459.904,377.358 460.983,377.62 461.121,378.003C461.279,378.589 461.271,379.213 461.311,379.815C461.489,380.367 461.568,380.953 461.528,381.535C461.478,382.155 460.665,382.025 460.31,382.378C459.817,382.585 459.62,383.068 459.246,383.408C459,383.892 458.934,384.485 458.902,385.034C458.938,385.482 458.6,385.984 458.902,386.378C458.942,386.433 458.988,386.51 459.027,386.565C459.129,386.71 459.37,386.595 459.527,386.628C460.031,386.598 460.557,386.675 461.027,386.471C462.237,386.263 463.459,386.246 464.684,386.191C465.434,386.215 466.154,385.954 466.902,385.971C467.489,386.101 467.752,385.466 467.746,385.004C467.414,384.35 467.701,383.574 467.434,382.91C467.199,382.236 467.291,381.48 467.184,380.784C467.169,380.234 466.474,380.032 466.121,380.44C465.781,380.785 465.229,380.854 464.966,381.284C464.669,381.886 465.593,381.887 465.746,382.346C465.923,382.811 465.866,383.326 465.903,383.816C466.018,384.408 465.373,384.441 464.966,384.503C464.429,384.703 463.676,384.839 463.372,384.19C463.182,383.71 463.208,383.197 463.154,382.69C463.141,381.798 462.927,380.922 462.874,380.034C462.822,378.937 462.632,377.847 462.561,376.754C462.551,376.297 462.489,375.554 461.841,375.69L461.84,375.69ZM461.215,383.94L461.528,383.97L461.558,384.346L461.59,384.721L461.184,384.847C461.05,384.887 460.915,384.918 460.777,384.941C460.713,384.902 460.65,384.86 460.59,384.816C460.37,384.656 460.426,384.431 460.715,384.128C460.878,383.958 460.955,383.925 461.215,383.941L461.215,383.94ZM431.25,374.66C430.87,374.795 430.388,375.353 430,375.348C429.12,375.41 429.243,376.268 429.875,376.566C429.958,376.826 429.88,377.154 429.905,377.441C430.029,378.231 429.531,378.867 429.625,379.661C429.581,380.531 429.318,381.379 429.281,382.255C429.035,383.158 429.031,384.087 428.876,385.005C428.772,385.828 428.176,385.538 427.656,385.317C427.653,384.961 427.63,384.612 427.626,384.255C427.842,383.438 427.186,383.199 426.532,383.099C425.847,383.164 425.51,382.576 425.658,381.974C425.953,381.624 426.694,381.72 427.158,381.661C428.138,381.865 428.1,380.549 427.596,380.099C427.251,379.463 426.396,379.189 426.158,378.536C426.254,377.67 425.678,376.804 424.971,376.38C423.881,376.303 423.059,377.242 422.657,378.16C422.205,378.29 421.753,378.427 421.313,378.598C420.603,378.775 419.593,380.005 420.563,380.473C421.108,380.623 422.763,381.001 422.033,381.753C421.62,382.461 420.831,382.473 420.126,382.285C419.402,382.285 418.596,381.933 418.626,381.098C418.478,380.348 418.503,379.54 418.156,378.848C418.009,378.008 417.056,378.205 417.001,378.973C416.268,379.507 416.365,380.37 416.876,381.003C417.196,381.733 416.879,382.581 416.563,383.253C416.373,384.129 415.408,384.159 414.72,384.441C414.38,384.573 413.09,384.364 413.562,385.099C414.316,385.364 415.215,385.604 416,385.411C416.823,385.309 417.538,384.746 417.938,384.036C418.49,383.476 419.44,383.769 420.156,383.756C420.929,383.753 421.719,384.296 422.469,383.942C422.685,383.379 423.689,382.448 423.999,383.412C423.946,384.275 424.709,384.738 425.499,384.632C426.363,384.582 426.043,385.242 426.029,385.756C426.087,386.69 426.689,387.181 427.469,387.568C427.733,387.64 428.013,387.616 428.279,387.568C429.029,387.333 429.834,387 430.061,386.162C430.365,385.482 430.371,384.712 430.593,384.006C430.77,382.876 430.999,381.746 431.03,380.6C431.307,379.56 431.228,378.464 431.437,377.412C431.57,376.63 431.667,375.849 431.75,375.068C431.658,374.651 431.478,374.581 431.25,374.662L431.25,374.66ZM424.47,378.816C424.62,378.836 424.704,379.02 424.72,379.346C424.735,379.712 424.925,380.008 425.156,380.066C425.339,380.112 425.323,380.306 425.126,380.441C425.01,380.521 424.804,380.569 424.438,380.567C423.86,380.564 423.501,380.414 423.188,380.097L423,379.911L423.28,379.723C423.423,379.615 423.68,379.391 423.844,379.223C424.129,378.933 424.317,378.799 424.469,378.817L424.47,378.816ZM490.5,370.94C489.941,370.968 489.386,371.051 488.844,371.19C487.804,371.125 487.281,372.217 488.281,372.753C488.884,374.287 489.823,372.436 490.781,372.565C492.221,372.845 492.341,374.397 492.564,375.565C492.644,376.722 492.978,377.847 493.314,378.94C494.276,380.01 492.594,380.68 491.876,379.846C491.266,379.182 489.956,378.366 489.22,379.284C488.315,379.666 488.278,380.874 487.53,381.221C486.322,381.591 486.17,380.103 485.53,379.471C484.944,378.648 483.82,378.576 482.906,378.285C482.476,377.415 482.701,375.939 481.812,375.347C481.067,375.651 479.699,377.049 480.844,377.691C481.961,378.651 480.356,379.091 479.844,379.754C479.112,380.568 478.994,381.69 478.874,382.722C477.616,383.419 477.371,381.936 477.219,381.005C477.119,379.893 476.182,380.219 475.529,380.63C474.579,381.015 474.102,381.92 473.437,382.63C473.357,383.277 473.474,383.986 473.467,384.66C473.684,385.472 474.67,385.09 475.28,385.036C476.26,384.626 476.66,385.663 475.875,386.256C475.343,386.931 473.655,386.576 473.812,387.661C474.356,387.723 474.922,387.703 475.469,387.661C476.559,387.361 477.729,386.591 477.843,385.379C477.986,384.319 479.51,384.513 480.343,384.285C481.383,383.985 482.637,383.908 482.873,385.222C483.583,385.968 485.123,386.807 485.905,385.786C486.7,385.301 487.081,384.448 487.03,383.536C486.87,382.751 488.3,382.723 488.656,383.161C489.176,384.018 490.806,383.765 491.594,383.285C492.43,382.668 492.611,381.58 493.812,381.565C495.595,381.032 497.447,380.725 499.187,380.065C500.597,379.759 498.977,378.868 498.625,378.347C497.551,377.817 496.617,379.989 495.405,378.91C494.47,378.193 494.535,376.832 494.187,375.784C493.95,374.426 494.01,372.861 493.031,371.784C492.361,371.069 491.446,370.897 490.501,370.94L490.5,370.94ZM483.687,380.41C483.813,380.406 483.955,380.468 484.187,380.596C484.627,380.838 484.937,381.239 484.937,381.566C484.937,381.778 484.883,381.792 484.562,381.94C484.365,382.03 484.142,382.13 484.062,382.128C483.882,382.126 483.438,381.771 483.437,381.628C483.437,381.568 483.379,381.341 483.312,381.158C483.195,380.838 483.212,380.842 483.375,380.628C483.478,380.49 483.562,380.412 483.688,380.408L483.687,380.41ZM490.219,380.753C490.589,380.728 490.811,380.843 490.969,381.128C491.149,381.458 491.026,381.708 490.561,381.908C490.358,381.998 490.154,382.068 490.124,382.065C490.094,382.062 489.926,381.963 489.749,381.845C489.479,381.669 489.439,381.582 489.436,381.378C489.433,381.062 489.786,380.781 490.218,380.753L490.219,380.753ZM481.279,380.846C481.389,380.829 481.489,380.886 481.624,381.002C481.804,381.157 481.861,381.282 481.904,381.596C481.937,381.816 481.932,382.098 481.904,382.221C481.857,382.448 481.852,382.438 481.344,382.441C480.702,382.447 480.644,382.377 480.654,381.785C480.664,381.408 480.667,381.307 480.874,381.097C481.034,380.935 481.171,380.864 481.28,380.847L481.279,380.846ZM475.779,382.284C475.999,382.33 476.171,382.502 476.219,382.721C476.283,383.041 476.226,383.184 475.969,383.316C475.746,383.429 475.234,383.466 475.093,383.379C475.017,383.331 474.953,383.267 474.905,383.191C474.837,383.071 474.85,383.011 474.935,382.941C474.997,382.891 475.062,382.821 475.061,382.785C475.061,382.748 475.129,382.622 475.218,382.505C475.343,382.326 475.564,382.239 475.778,382.285L475.779,382.284ZM485.029,383.471C485.209,383.471 485.359,383.533 485.469,383.628C485.653,383.791 485.647,384.028 485.436,384.191C485.301,384.295 484.566,384.286 484.311,384.191C484.199,384.149 484.156,384.091 484.155,383.971C484.153,383.831 484.193,383.745 484.435,383.628C484.641,383.531 484.852,383.473 485.03,383.472L485.029,383.471ZM467.86,388.29C467.764,388.227 467.622,388.173 467.765,388.068C467.938,387.766 468.283,387.661 468.59,387.548C469.137,387.302 469.611,386.916 469.963,386.43C470.013,386.097 470.387,385.917 470.385,385.57C470.388,385.094 470.417,384.607 470.301,384.143C470.173,383.717 469.851,383.391 469.475,383.169C469.219,382.966 468.801,382.909 468.707,382.554C468.654,382.211 468.96,381.95 469.067,381.644C469.29,381.224 469.477,380.781 469.717,380.369C469.977,380.081 470.377,380.354 470.511,380.632C470.701,380.909 470.868,381.208 470.961,381.529C471.264,381.861 471.531,382.249 471.641,382.691C471.789,383.001 472.024,383.293 472.011,383.657C472.011,384.073 472.245,384.444 472.231,384.863C472.244,385.423 472.243,386.008 472.039,386.537C471.899,386.831 471.619,387.007 471.432,387.27C471.114,387.566 470.762,387.85 470.352,388.007C470.064,388.099 469.896,388.433 469.534,388.352C469.02,388.362 468.497,388.432 467.987,388.348C468.019,388.402 467.831,388.256 467.862,388.29L467.86,388.29ZM461.01,388.74C460.767,388.49 460.715,388.385 460.712,388.14C460.709,387.892 460.757,387.794 460.994,387.554C461.434,387.111 461.647,387.101 462.404,387.484C463.126,387.849 463.371,387.884 463.436,387.624C463.498,387.374 463.914,387.144 464.31,387.144C464.526,387.13 464.739,387.203 464.902,387.346C465.152,387.542 465.165,387.573 465.172,388.026C465.176,388.489 465.17,388.506 464.882,388.762C464.604,389.006 464.559,389.022 464.216,388.986C463.779,388.943 463.516,388.742 463.446,388.398C463.394,388.148 463.306,388.088 463.24,388.258C463.22,388.313 463.11,388.38 463,388.408C462.797,388.458 462.452,388.676 462.207,388.908C462.114,388.995 461.952,389.036 461.687,389.038C461.333,389.042 461.283,389.021 461.01,388.74ZM441.19,379.84C440.525,379.847 439.81,380.406 439.72,381.06C439.873,381.81 440.498,382.548 440.096,383.34C440.374,384.353 439.336,384.737 438.626,384.153C438.2,383.181 437.984,382.117 437.346,381.246C436.542,381.019 436.192,382.303 435.626,382.746C435.906,383.501 436.723,384.179 436.816,385.121C437.01,386.037 436.454,387.053 435.659,387.528C434.972,388.183 434.032,387.948 433.189,388.091C432.165,388.691 433.941,388.909 434.409,388.935C435.455,389.041 436.543,388.903 437.314,388.122C438.084,387.756 438.024,386.426 438.939,386.279C440.527,386.209 442.102,386.523 443.689,386.561C444.539,386.763 445.852,386.459 446.439,387.091C446.441,388.198 447.379,388.881 448.283,389.311C448.781,389.448 449.307,388.831 449.813,388.716C450.779,388.408 450.486,387.214 451.063,386.746C452.713,386.658 454.38,386.676 456.033,386.653C456.347,386.661 456.44,386.213 456.658,386.028C456.62,385.39 456.598,384.756 456.5,384.122C456.182,383.317 456.552,382.279 455.97,381.592C455.14,381.366 454.433,382.126 453.594,382.186C452.668,382.598 451.888,383.454 451.844,384.498C451.296,385.395 450.417,384.338 450.719,383.592C450.686,383.267 450.791,382.888 450.689,382.592C450.182,381.984 449.294,382.182 448.595,382.092C447.577,382.132 446.583,381.912 445.565,381.936C444.671,381.868 443.742,382.014 442.877,381.78C441.845,381.75 441.987,380.74 441.814,380.03C441.632,379.9 441.412,379.834 441.189,379.842L441.19,379.84ZM443.19,383.528C443.533,383.534 443.857,383.578 444.19,383.621C444.62,383.693 445.08,383.474 445.503,383.621C446.479,383.788 447.456,383.749 448.44,383.841C448.7,383.837 448.886,384.026 449.065,384.185C449.067,384.868 449.065,385.565 449.065,386.247C449.035,386.505 449.141,386.845 448.909,387.027C448.835,387.085 448.75,387.128 448.659,387.153C448.387,387.083 448.099,386.906 447.969,386.653C447.929,386.296 447.989,385.949 448.001,385.591C447.994,385.498 448.041,385.354 448.001,385.278C447.794,385.122 447.542,385.035 447.283,385.028C446.433,384.998 445.601,384.938 444.753,384.903C444.045,384.859 443.318,384.963 442.626,384.778C442.358,384.681 442.009,384.714 441.846,384.435C441.611,384.162 441.949,383.838 442.189,383.715C442.504,383.578 442.846,383.514 443.189,383.528L443.19,383.528ZM454.47,383.778C454.63,383.775 454.68,383.828 454.752,384.121C454.798,384.311 454.852,384.539 454.877,384.621C454.914,384.741 454.855,384.778 454.69,384.841C454.196,385.027 453.704,385.009 453.534,384.778C453.456,384.674 453.546,384.344 453.69,384.216C453.98,383.956 454.3,383.779 454.47,383.778Z" style="fill:rgb(192,147,0);fill-rule:nonzero;"/>
            </g>
        </g>
        <path d="M449.98,327.23C482.622,302.124 479.823,265.347 479.823,265.347C478.963,265.519 478.143,265.605 477.283,265.605C470.435,265.605 454.103,261.688 450.293,256.713C446.213,261.216 429.523,265.605 422.72,265.605C421.86,265.605 420.998,265.519 420.18,265.347C420.18,265.347 417.337,302.123 449.98,327.23Z" style="fill:white;fill-rule:nonzero;stroke:rgb(192,147,0);stroke-width:1.15px;stroke-linejoin:miter;"/>
        <path d="M477.22,268.04C476.94,268.058 476.657,268.066 476.372,268.066C470.167,268.066 455.752,264.883 450.197,260.109C444.377,264.519 429.727,268.065 423.621,268.065C423.336,268.062 423.052,268.033 422.773,267.979C422.758,269.369 422.831,270.811 422.917,272.123C423.24,277.023 424.1,281.943 425.405,286.675C429.513,301.57 437.921,314.228 449.977,323.83C462.043,314.22 470.461,301.55 474.577,286.645C475.885,281.913 476.747,276.995 477.073,272.095C477.159,270.81 477.23,269.403 477.221,268.04L477.22,268.04Z" style="fill:white;fill-rule:nonzero;stroke:rgb(192,147,0);stroke-width:0.92px;stroke-linejoin:miter;"/>
        <path d="M439.38,265.03C433.508,266.875 427.15,268.06 423.63,268.06C423.344,268.06 423.067,268.02 422.786,267.967C422.772,269.357 422.856,270.813 422.942,272.124C423.271,277.038 424.099,281.907 425.412,286.654C428.176,296.68 432.918,305.687 439.38,313.436L439.38,265.03ZM460,264.94L460,314.19C466.794,306.27 471.733,296.984 474.594,286.628C475.906,281.88 476.733,277.012 477.064,272.098C477.148,270.813 477.229,269.398 477.219,268.034C476.937,268.052 476.659,268.066 476.374,268.066C472.644,268.066 465.954,266.896 459.999,264.941L460,264.94Z" style="fill:rgb(192,147,0);fill-rule:nonzero;"/>
        <g>
            <path d="M462.31,253.09C462.977,253.13 461.408,249.522 461.408,249.522C463.173,251.326 469.838,251.757 469.838,251.757C465.838,249.991 461.84,236.661 462.31,226.037C462.742,215.372 460.782,211.177 459.213,209.607C457.213,207.607 450.783,205.844 446.549,205.609C444.156,205.489 444.549,207.411 444.549,207.411C440.119,206.274 435.689,205.843 433.687,207.176C431.805,208.431 431.413,214.704 432.787,213.606C436.117,210.94 439.02,213.371 441.019,216.272C442.783,218.822 442.666,226.035 440.117,234.464C437.451,243.324 430.157,252.186 430.157,252.186C434.117,252.186 439.687,248.658 439.687,248.658L438.353,254.185C442.548,252.185 445.881,249.088 445.881,249.088L449.881,253.283C451.213,251.519 453.879,249.088 453.879,249.088C453.879,249.088 457.212,252.618 462.309,253.088L462.31,253.09Z" style="fill:white;fill-rule:nonzero;stroke:rgb(192,147,0);stroke-width:1.22px;stroke-linejoin:miter;"/>
            <path d="M446.12,227.57C446.12,227.57 443.885,243.998 439.69,248.664M449.65,227.14C449.65,227.14 448.787,243.763 445.886,249.096M452.78,227.81C452.78,227.81 452.78,246.002 453.878,249.1M456.74,228.71C456.74,228.71 457.642,244 461.406,249.53" style="fill:none;fill-rule:nonzero;stroke:rgb(192,147,0);stroke-width:1.27px;stroke-linejoin:miter;"/>
            <path d="M442.08,219.61C441.884,218.16 441.53,217.022 441.02,216.277C439.022,213.377 436.12,210.945 432.788,213.611C432.788,213.611 433.925,210.083 436.356,209.966C438.238,209.848 442.511,211.376 446.276,217.806C446.276,217.806 443.492,217.18 442.826,217.768C441.57,218.866 442.08,219.611 442.08,219.611L442.08,219.61Z" style="fill:rgb(192,147,0);fill-rule:nonzero;stroke:rgb(192,147,0);stroke-width:0.35px;stroke-linejoin:miter;"/>
            <path d="M432.44,209.26C432.714,208.358 433.146,207.535 433.695,207.182C435.695,205.849 440.125,206.28 444.555,207.417C444.555,207.417 444.163,205.497 446.555,205.614C450.789,205.849 457.219,207.614 459.218,209.614C459.688,210.124 460.238,210.868 460.708,212.004L460.63,212.004C459.65,210.632 456.866,210.711 456.2,210.789C455.14,210.906 454.474,210.866 453.062,211.219C452.396,211.376 451.376,211.572 450.827,212.003C450.397,212.356 450.043,213.65 449.377,213.65C448.317,213.65 448.397,213.377 448.122,213.063C447.769,212.633 447.572,212.003 447.22,212.043C446.123,212.24 444.358,211.377 442.124,209.613C439.889,207.848 439.026,207.417 436.124,207.613C433.264,207.848 432.361,209.456 432.361,209.456L432.441,209.26L432.44,209.26Z" style="fill:rgb(192,147,0);fill-rule:nonzero;stroke:rgb(192,147,0);stroke-width:0.35px;stroke-linejoin:miter;"/>
            <circle cx="448.824" cy="210.672" r="1.176" style="fill:white;"/>
        </g>
    </g>
</svg>
