<?xml version="1.0" encoding="UTF-8" standalone="no"?>
<!DOCTYPE svg PUBLIC "-//W3C//DTD SVG 1.1//EN" "http://www.w3.org/Graphics/SVG/1.1/DTD/svg11.dtd">
<svg width="100%" height="100%" viewBox="0 0 640 480" version="1.1" xmlns="http://www.w3.org/2000/svg" xmlns:xlink="http://www.w3.org/1999/xlink" xml:space="preserve" xmlns:serif="http://www.serif.com/" style="fill-rule:evenodd;clip-rule:evenodd;stroke-linejoin:round;stroke-miterlimit:2;">
    <g transform="matrix(0.9375,0,0,0.9375,74.118,0)">
        <clipPath id="_clip1">
            <rect x="-79.06" y="0" width="682.67" height="512"/>
        </clipPath>
        <g clip-path="url(#_clip1)">
            <rect x="81.137" y="0" width="362.276" height="512" style="fill:white;fill-rule:nonzero;"/>
            <path d="M-100,0L81.138,0L81.138,512L-100,512L-100,0ZM443.413,0L624.55,0L624.55,512L443.414,512L443.413,0ZM135.31,247.41L121.243,252.218L186.699,309.664C191.649,324.428 184.979,328.78 180.729,336.524L251.789,327.504L249.939,399.016L264.657,398.593L261.447,327.675L332.577,336.107C328.175,326.81 324.257,321.874 328.33,307.009L393.744,252.583L382.297,248.439C372.937,241.217 386.341,213.655 388.363,196.261C388.363,196.261 350.168,209.396 347.665,202.523L337.938,183.838L303.191,222.008C299.395,222.918 297.778,221.408 296.887,218.2L312.94,138.434L287.52,152.731C285.392,153.641 283.264,152.856 281.862,150.376L257.412,101.316L232.202,152.266C230.302,154.092 228.399,154.303 226.82,153.062L202.616,139.484L217.146,218.627C215.99,221.767 213.222,222.652 209.966,220.951L176.75,183.214C172.405,190.176 169.46,201.55 163.717,204.099C157.973,206.486 138.737,199.276 125.844,196.462C130.248,212.357 144.02,238.764 135.304,247.419L135.31,247.41Z" style="fill:rgb(191,10,48);fill-rule:nonzero;"/>
        </g>
    </g>
</svg>
