<?xml version="1.0" encoding="UTF-8" standalone="no"?>
<!DOCTYPE svg PUBLIC "-//W3C//DTD SVG 1.1//EN" "http://www.w3.org/Graphics/SVG/1.1/DTD/svg11.dtd">
<svg width="100%" height="100%" viewBox="0 0 640 480" version="1.1" xmlns="http://www.w3.org/2000/svg" xmlns:xlink="http://www.w3.org/1999/xlink" xml:space="preserve" xmlns:serif="http://www.serif.com/" style="fill-rule:evenodd;clip-rule:evenodd;stroke-linejoin:round;stroke-miterlimit:2;">
    <rect x="0" y="0" width="640" height="240" style="fill:rgb(0,56,168);fill-rule:nonzero;"/>
    <rect x="0" y="240" width="640" height="240" style="fill:rgb(206,17,38);fill-rule:nonzero;"/>
    <path d="M415.692,240L0,480L0,0" style="fill:white;fill-rule:nonzero;"/>
    <g transform="matrix(5.33333,0,0,5.33333,149.333,240)">
        <circle cx="0" cy="0" r="9" style="fill:rgb(252,209,22);"/>
        <g id="d">
            <g id="c">
                <g id="b">
                    <g transform="matrix(19,0,0,19,0,0)">
                        <path d="M-1,0L-0.938,0.062L0,0L-0.938,-0.062L-1,0Z" style="fill:rgb(252,209,22);fill-rule:nonzero;"/>
                    </g>
                    <g id="a" transform="matrix(19.2381,0,0,19.2381,0,0)">
                        <path d="M-0.884,0.116L-0.834,0.166L0,0L-0.884,0.116Z" style="fill:rgb(252,209,22);fill-rule:nonzero;"/>
                    </g>
                    <g id="a1" serif:id="a" transform="matrix(19.2381,0,0,-19.2381,0,0)">
                        <path d="M-0.884,0.116L-0.834,0.166L0,0L-0.884,0.116Z" style="fill:rgb(252,209,22);fill-rule:nonzero;"/>
                    </g>
                </g>
                <g id="b1" serif:id="b" transform="matrix(0.707107,0.707107,-0.707107,0.707107,0,0)">
                    <g transform="matrix(19,0,0,19,0,0)">
                        <path d="M-1,0L-0.938,0.062L0,0L-0.938,-0.062L-1,0Z" style="fill:rgb(252,209,22);fill-rule:nonzero;"/>
                    </g>
                    <g id="a2" serif:id="a" transform="matrix(19.2381,0,0,19.2381,0,0)">
                        <path d="M-0.884,0.116L-0.834,0.166L0,0L-0.884,0.116Z" style="fill:rgb(252,209,22);fill-rule:nonzero;"/>
                    </g>
                    <g id="a3" serif:id="a" transform="matrix(19.2381,0,0,-19.2381,0,0)">
                        <path d="M-0.884,0.116L-0.834,0.166L0,0L-0.884,0.116Z" style="fill:rgb(252,209,22);fill-rule:nonzero;"/>
                    </g>
                </g>
            </g>
            <g id="c1" serif:id="c" transform="matrix(-3.82857e-16,1,-1,-3.82857e-16,0,0)">
                <g id="b2" serif:id="b">
                    <g transform="matrix(19,0,0,19,0,0)">
                        <path d="M-1,0L-0.938,0.062L0,0L-0.938,-0.062L-1,0Z" style="fill:rgb(252,209,22);fill-rule:nonzero;"/>
                    </g>
                    <g id="a4" serif:id="a" transform="matrix(19.2381,0,0,19.2381,0,0)">
                        <path d="M-0.884,0.116L-0.834,0.166L0,0L-0.884,0.116Z" style="fill:rgb(252,209,22);fill-rule:nonzero;"/>
                    </g>
                    <g id="a5" serif:id="a" transform="matrix(19.2381,0,0,-19.2381,0,0)">
                        <path d="M-0.884,0.116L-0.834,0.166L0,0L-0.884,0.116Z" style="fill:rgb(252,209,22);fill-rule:nonzero;"/>
                    </g>
                </g>
                <g id="b3" serif:id="b" transform="matrix(0.707107,0.707107,-0.707107,0.707107,0,0)">
                    <g transform="matrix(19,0,0,19,0,0)">
                        <path d="M-1,0L-0.938,0.062L0,0L-0.938,-0.062L-1,0Z" style="fill:rgb(252,209,22);fill-rule:nonzero;"/>
                    </g>
                    <g id="a6" serif:id="a" transform="matrix(19.2381,0,0,19.2381,0,0)">
                        <path d="M-0.884,0.116L-0.834,0.166L0,0L-0.884,0.116Z" style="fill:rgb(252,209,22);fill-rule:nonzero;"/>
                    </g>
                    <g id="a7" serif:id="a" transform="matrix(19.2381,0,0,-19.2381,0,0)">
                        <path d="M-0.884,0.116L-0.834,0.166L0,0L-0.884,0.116Z" style="fill:rgb(252,209,22);fill-rule:nonzero;"/>
                    </g>
                </g>
            </g>
        </g>
        <g id="d1" serif:id="d" transform="matrix(-1,0,0,-1,0,0)">
            <g id="c2" serif:id="c">
                <g id="b4" serif:id="b">
                    <g transform="matrix(19,0,0,19,0,0)">
                        <path d="M-1,0L-0.938,0.062L0,0L-0.938,-0.062L-1,0Z" style="fill:rgb(252,209,22);fill-rule:nonzero;"/>
                    </g>
                    <g id="a8" serif:id="a" transform="matrix(19.2381,0,0,19.2381,0,0)">
                        <path d="M-0.884,0.116L-0.834,0.166L0,0L-0.884,0.116Z" style="fill:rgb(252,209,22);fill-rule:nonzero;"/>
                    </g>
                    <g id="a9" serif:id="a" transform="matrix(19.2381,0,0,-19.2381,0,0)">
                        <path d="M-0.884,0.116L-0.834,0.166L0,0L-0.884,0.116Z" style="fill:rgb(252,209,22);fill-rule:nonzero;"/>
                    </g>
                </g>
                <g id="b5" serif:id="b" transform="matrix(0.707107,0.707107,-0.707107,0.707107,0,0)">
                    <g transform="matrix(19,0,0,19,0,0)">
                        <path d="M-1,0L-0.938,0.062L0,0L-0.938,-0.062L-1,0Z" style="fill:rgb(252,209,22);fill-rule:nonzero;"/>
                    </g>
                    <g id="a10" serif:id="a" transform="matrix(19.2381,0,0,19.2381,0,0)">
                        <path d="M-0.884,0.116L-0.834,0.166L0,0L-0.884,0.116Z" style="fill:rgb(252,209,22);fill-rule:nonzero;"/>
                    </g>
                    <g id="a11" serif:id="a" transform="matrix(19.2381,0,0,-19.2381,0,0)">
                        <path d="M-0.884,0.116L-0.834,0.166L0,0L-0.884,0.116Z" style="fill:rgb(252,209,22);fill-rule:nonzero;"/>
                    </g>
                </g>
            </g>
            <g id="c3" serif:id="c" transform="matrix(-3.82857e-16,1,-1,-3.82857e-16,0,0)">
                <g id="b6" serif:id="b">
                    <g transform="matrix(19,0,0,19,0,0)">
                        <path d="M-1,0L-0.938,0.062L0,0L-0.938,-0.062L-1,0Z" style="fill:rgb(252,209,22);fill-rule:nonzero;"/>
                    </g>
                    <g id="a12" serif:id="a" transform="matrix(19.2381,0,0,19.2381,0,0)">
                        <path d="M-0.884,0.116L-0.834,0.166L0,0L-0.884,0.116Z" style="fill:rgb(252,209,22);fill-rule:nonzero;"/>
                    </g>
                    <g id="a13" serif:id="a" transform="matrix(19.2381,0,0,-19.2381,0,0)">
                        <path d="M-0.884,0.116L-0.834,0.166L0,0L-0.884,0.116Z" style="fill:rgb(252,209,22);fill-rule:nonzero;"/>
                    </g>
                </g>
                <g id="b7" serif:id="b" transform="matrix(0.707107,0.707107,-0.707107,0.707107,0,0)">
                    <g transform="matrix(19,0,0,19,0,0)">
                        <path d="M-1,0L-0.938,0.062L0,0L-0.938,-0.062L-1,0Z" style="fill:rgb(252,209,22);fill-rule:nonzero;"/>
                    </g>
                    <g id="a14" serif:id="a" transform="matrix(19.2381,0,0,19.2381,0,0)">
                        <path d="M-0.884,0.116L-0.834,0.166L0,0L-0.884,0.116Z" style="fill:rgb(252,209,22);fill-rule:nonzero;"/>
                    </g>
                    <g id="a15" serif:id="a" transform="matrix(19.2381,0,0,-19.2381,0,0)">
                        <path d="M-0.884,0.116L-0.834,0.166L0,0L-0.884,0.116Z" style="fill:rgb(252,209,22);fill-rule:nonzero;"/>
                    </g>
                </g>
            </g>
        </g>
        <g transform="matrix(1,0,0,1,-2.02,0)">
            <g id="f" transform="matrix(1,0,0,1,37.962,0)">
                <path id="e" d="M5,0L1.618,1.176L1.545,4.756L-0.618,1.902L-4.045,2.939L-2,0L5,0Z" style="fill:rgb(252,209,22);fill-rule:nonzero;"/>
                <g id="e1" serif:id="e" transform="matrix(1,0,0,-1,0,0)">
                    <path d="M5,0L1.618,1.176L1.545,4.756L-0.618,1.902L-4.045,2.939L-2,0L5,0Z" style="fill:rgb(252,209,22);fill-rule:nonzero;"/>
                </g>
            </g>
            <g id="f1" serif:id="f" transform="matrix(-0.5,0.866025,-0.866025,-0.5,-18.981,32.8761)">
                <path id="e2" serif:id="e" d="M5,0L1.618,1.176L1.545,4.756L-0.618,1.902L-4.045,2.939L-2,0L5,0Z" style="fill:rgb(252,209,22);fill-rule:nonzero;"/>
                <g id="e3" serif:id="e" transform="matrix(1,0,0,-1,0,0)">
                    <path d="M5,0L1.618,1.176L1.545,4.756L-0.618,1.902L-4.045,2.939L-2,0L5,0Z" style="fill:rgb(252,209,22);fill-rule:nonzero;"/>
                </g>
            </g>
            <g id="f2" serif:id="f" transform="matrix(-0.5,-0.866025,0.866025,-0.5,-18.981,-32.8761)">
                <path id="e4" serif:id="e" d="M5,0L1.618,1.176L1.545,4.756L-0.618,1.902L-4.045,2.939L-2,0L5,0Z" style="fill:rgb(252,209,22);fill-rule:nonzero;"/>
                <g id="e5" serif:id="e" transform="matrix(1,0,0,-1,0,0)">
                    <path d="M5,0L1.618,1.176L1.545,4.756L-0.618,1.902L-4.045,2.939L-2,0L5,0Z" style="fill:rgb(252,209,22);fill-rule:nonzero;"/>
                </g>
            </g>
        </g>
    </g>
</svg>
