<?xml version="1.0" encoding="UTF-8" standalone="no"?>
<!DOCTYPE svg PUBLIC "-//W3C//DTD SVG 1.1//EN" "http://www.w3.org/Graphics/SVG/1.1/DTD/svg11.dtd">
<svg width="100%" height="100%" viewBox="0 0 640 480" version="1.1" xmlns="http://www.w3.org/2000/svg" xmlns:xlink="http://www.w3.org/1999/xlink" xml:space="preserve" xmlns:serif="http://www.serif.com/" style="fill-rule:evenodd;clip-rule:evenodd;stroke-linejoin:round;stroke-miterlimit:2;">
    <rect x="0" y="0" width="213.333" height="480" style="fill:rgb(0,122,94);fill-rule:nonzero;"/>
    <rect x="213.333" y="0" width="213.333" height="480" style="fill:rgb(206,17,38);fill-rule:nonzero;"/>
    <rect x="426.667" y="0" width="213.333" height="480" style="fill:rgb(252,209,22);fill-rule:nonzero;"/>
    <g transform="matrix(7.1111,0,0,7.1111,320,240)">
        <g id="b">
            <path id="a" d="M0,-8L-2.472,-0.392L1.332,0.845L0,-8Z" style="fill:rgb(252,209,22);fill-rule:nonzero;"/>
            <g id="a1" serif:id="a" transform="matrix(-1,0,0,1,0,0)">
                <path d="M0,-8L-2.472,-0.392L1.332,0.845L0,-8Z" style="fill:rgb(252,209,22);fill-rule:nonzero;"/>
            </g>
        </g>
        <g id="b1" serif:id="b" transform="matrix(0.309017,0.951057,-0.951057,0.309017,0,0)">
            <path id="a2" serif:id="a" d="M0,-8L-2.472,-0.392L1.332,0.845L0,-8Z" style="fill:rgb(252,209,22);fill-rule:nonzero;"/>
            <g id="a3" serif:id="a" transform="matrix(-1,0,0,1,0,0)">
                <path d="M0,-8L-2.472,-0.392L1.332,0.845L0,-8Z" style="fill:rgb(252,209,22);fill-rule:nonzero;"/>
            </g>
        </g>
        <g id="b2" serif:id="b" transform="matrix(-0.809017,0.587785,-0.587785,-0.809017,0,0)">
            <path id="a4" serif:id="a" d="M0,-8L-2.472,-0.392L1.332,0.845L0,-8Z" style="fill:rgb(252,209,22);fill-rule:nonzero;"/>
            <g id="a5" serif:id="a" transform="matrix(-1,0,0,1,0,0)">
                <path d="M0,-8L-2.472,-0.392L1.332,0.845L0,-8Z" style="fill:rgb(252,209,22);fill-rule:nonzero;"/>
            </g>
        </g>
        <g id="b3" serif:id="b" transform="matrix(-0.809017,-0.587785,0.587785,-0.809017,0,0)">
            <path id="a6" serif:id="a" d="M0,-8L-2.472,-0.392L1.332,0.845L0,-8Z" style="fill:rgb(252,209,22);fill-rule:nonzero;"/>
            <g id="a7" serif:id="a" transform="matrix(-1,0,0,1,0,0)">
                <path d="M0,-8L-2.472,-0.392L1.332,0.845L0,-8Z" style="fill:rgb(252,209,22);fill-rule:nonzero;"/>
            </g>
        </g>
        <g id="b4" serif:id="b" transform="matrix(0.309017,-0.951057,0.951057,0.309017,0,0)">
            <path id="a8" serif:id="a" d="M0,-8L-2.472,-0.392L1.332,0.845L0,-8Z" style="fill:rgb(252,209,22);fill-rule:nonzero;"/>
            <g id="a9" serif:id="a" transform="matrix(-1,0,0,1,0,0)">
                <path d="M0,-8L-2.472,-0.392L1.332,0.845L0,-8Z" style="fill:rgb(252,209,22);fill-rule:nonzero;"/>
            </g>
        </g>
    </g>
</svg>
