<?xml version="1.0" encoding="UTF-8" standalone="no"?>
<!DOCTYPE svg PUBLIC "-//W3C//DTD SVG 1.1//EN" "http://www.w3.org/Graphics/SVG/1.1/DTD/svg11.dtd">
<svg width="100%" height="100%" viewBox="0 0 640 480" version="1.1" xmlns="http://www.w3.org/2000/svg" xmlns:xlink="http://www.w3.org/1999/xlink" xml:space="preserve" xmlns:serif="http://www.serif.com/" style="fill-rule:evenodd;clip-rule:evenodd;">
    <rect x="0" y="0" width="640" height="480" style="fill:rgb(32,96,61);fill-rule:nonzero;"/>
    <rect x="0" y="0" width="640" height="360" style="fill:rgb(250,210,1);fill-rule:nonzero;"/>
    <rect x="0" y="0" width="640" height="240" style="fill:rgb(0,161,222);fill-rule:nonzero;"/>
    <g transform="matrix(0.66667,0,0,0.66667,511,125.4)">
        <g id="b">
            <path id="a" d="M116.1,0L35.692,4.7L112.144,30.05L33.26,13.776L100.546,58.049L28.56,21.915L82.095,82.095L21.915,28.561L58.05,100.547L13.777,33.26L30.049,112.144L4.7,35.692L0,116.1L-1,-1L116.1,0Z" style="fill:rgb(229,190,1);fill-rule:nonzero;"/>
            <g id="a1" serif:id="a" transform="matrix(1,0,0,-1,0,0)">
                <path d="M116.1,0L35.692,4.7L112.144,30.05L33.26,13.776L100.546,58.049L28.56,21.915L82.095,82.095L21.915,28.561L58.05,100.547L13.777,33.26L30.049,112.144L4.7,35.692L0,116.1L-1,-1L116.1,0Z" style="fill:rgb(229,190,1);fill-rule:nonzero;"/>
            </g>
        </g>
        <g id="b1" serif:id="b" transform="matrix(-1,0,0,1,0,0)">
            <path id="a2" serif:id="a" d="M116.1,0L35.692,4.7L112.144,30.05L33.26,13.776L100.546,58.049L28.56,21.915L82.095,82.095L21.915,28.561L58.05,100.547L13.777,33.26L30.049,112.144L4.7,35.692L0,116.1L-1,-1L116.1,0Z" style="fill:rgb(229,190,1);fill-rule:nonzero;"/>
            <g id="a3" serif:id="a" transform="matrix(1,0,0,-1,0,0)">
                <path d="M116.1,0L35.692,4.7L112.144,30.05L33.26,13.776L100.546,58.049L28.56,21.915L82.095,82.095L21.915,28.561L58.05,100.547L13.777,33.26L30.049,112.144L4.7,35.692L0,116.1L-1,-1L116.1,0Z" style="fill:rgb(229,190,1);fill-rule:nonzero;"/>
            </g>
        </g>
        <circle cx="0" cy="0" r="34.3" style="fill:rgb(229,190,1);stroke:rgb(0,161,222);stroke-width:3.4px;"/>
    </g>
</svg>
