<?xml version="1.0" encoding="UTF-8" standalone="no"?>
<!DOCTYPE svg PUBLIC "-//W3C//DTD SVG 1.1//EN" "http://www.w3.org/Graphics/SVG/1.1/DTD/svg11.dtd">
<svg width="100%" height="100%" viewBox="0 0 640 480" version="1.1" xmlns="http://www.w3.org/2000/svg" xmlns:xlink="http://www.w3.org/1999/xlink" xml:space="preserve" xmlns:serif="http://www.serif.com/" style="fill-rule:evenodd;clip-rule:evenodd;stroke-linejoin:round;stroke-miterlimit:2;">
    <g transform="matrix(0.94,0,0,0.94,80,0)">
        <clipPath id="_clip1">
            <rect x="-85.333" y="0" width="682.67" height="512"/>
        </clipPath>
        <g clip-path="url(#_clip1)">
            <g>
                <rect x="-256" y="0" width="1024.02" height="512.01" style="fill:rgb(0,0,102);fill-rule:nonzero;"/>
                <path d="M-256,0L-256,57.244L653.535,512.012L768.02,512.012L768.02,454.77L-141.515,0L-256,0ZM768.02,0L768.02,57.243L-141.515,512.01L-256,512.01L-256,454.767L653.535,0L768.02,0Z" style="fill:white;fill-rule:nonzero;"/>
                <path d="M170.675,0L170.675,512.01L341.345,512.01L341.345,0L170.675,0ZM-256,170.67L-256,341.34L768.02,341.34L768.02,170.67L-256,170.67Z" style="fill:white;fill-rule:nonzero;"/>
                <path d="M-256,204.804L-256,307.206L768.02,307.206L768.02,204.804L-256,204.804ZM204.81,0L204.81,512.01L307.21,512.01L307.21,0L204.81,0ZM-256,512.01L85.34,341.34L161.664,341.34L-179.676,512.01L-256,512.01ZM-256,0L85.34,170.67L9.016,170.67L-256,38.164L-256,0ZM350.356,170.67L691.696,0L768.02,0L426.68,170.67L350.356,170.67ZM768.02,512.01L426.68,341.34L503.004,341.34L768.02,473.848L768.02,512.01Z" style="fill:rgb(204,0,0);fill-rule:nonzero;"/>
            </g>
        </g>
    </g>
</svg>
