<?xml version="1.0" encoding="UTF-8" standalone="no"?>
<!DOCTYPE svg PUBLIC "-//W3C//DTD SVG 1.1//EN" "http://www.w3.org/Graphics/SVG/1.1/DTD/svg11.dtd">
<svg width="100%" height="100%" viewBox="0 0 640 480" version="1.1" xmlns="http://www.w3.org/2000/svg" xmlns:xlink="http://www.w3.org/1999/xlink" xml:space="preserve" xmlns:serif="http://www.serif.com/" style="fill-rule:evenodd;clip-rule:evenodd;stroke-linejoin:round;stroke-miterlimit:2;">
    <rect x="0" y="0" width="639.99" height="480" style="fill:white;fill-rule:nonzero;"/>
    <rect x="19.155" y="39.576" width="601.68" height="401.13" style="fill:white;fill-rule:nonzero;"/>
    <path d="M279.888,39.576L279.888,200.028L19.158,200.028L19.158,280.254L279.888,280.254L279.888,440.706L360.114,440.706L360.114,280.254L620.844,280.254L620.844,200.028L360.114,200.028L360.114,39.576L279.888,39.576Z" style="fill:rgb(255,0,0);fill-rule:nonzero;"/>
    <g id="c" transform="matrix(0.67,0,0,0.67,148.41,118.71)">
        <clipPath id="_clip1">
            <path id="b" d="M-327,312C-155.842,312 -15,171.158 -15,0C-15,-171.158 -155.842,-312 -327,-312L327,-312C155.842,-312 15,-171.158 15,0C15,171.158 155.842,312 327,312L-327,312Z"/>
        </clipPath>
        <g clip-path="url(#_clip1)">
            <path d="M-165,222C-165,131.484 -90.516,57 0,57C90.516,57 165,131.484 165,222L165,-222C165,-131.484 90.516,-57 0,-57C-90.516,-57 -165,-131.484 -165,-222L-165,222Z" style="fill:rgb(255,0,0);fill-rule:nonzero;"/>
        </g>
        <g id="b1" serif:id="b" transform="matrix(-3.82857e-16,1,-1,-3.82857e-16,0,0)">
            <clipPath id="_clip2">
                <path d="M312,327C312,155.842 171.158,15 0,15C-171.158,15 -312,155.842 -312,327L-312,-327C-312,-155.842 -171.158,-15 0,-15C171.158,-15 312,-155.842 312,-327L312,327Z"/>
            </clipPath>
            <g clip-path="url(#_clip2)">
                <path d="M-165,222C-165,131.484 -90.516,57 0,57C90.516,57 165,131.484 165,222L165,-222C165,-131.484 90.516,-57 0,-57C-90.516,-57 -165,-131.484 -165,-222L-165,222Z" style="fill:rgb(255,0,0);fill-rule:nonzero;"/>
            </g>
        </g>
    </g>
    <g id="c1" serif:id="c" transform="matrix(0.67,0,0,0.67,491.58,361.59)">
        <clipPath id="_clip3">
            <path id="b2" serif:id="b" d="M-327,312C-155.842,312 -15,171.158 -15,0C-15,-171.158 -155.842,-312 -327,-312L327,-312C155.842,-312 15,-171.158 15,0C15,171.158 155.842,312 327,312L-327,312Z"/>
        </clipPath>
        <g clip-path="url(#_clip3)">
            <path d="M-165,222C-165,131.484 -90.516,57 0,57C90.516,57 165,131.484 165,222L165,-222C165,-131.484 90.516,-57 0,-57C-90.516,-57 -165,-131.484 -165,-222L-165,222Z" style="fill:rgb(255,0,0);fill-rule:nonzero;"/>
        </g>
        <g id="b3" serif:id="b" transform="matrix(-3.82857e-16,1,-1,-3.82857e-16,0,0)">
            <clipPath id="_clip4">
                <path d="M312,327C312,155.842 171.158,15 0,15C-171.158,15 -312,155.842 -312,327L-312,-327C-312,-155.842 -171.158,-15 0,-15C171.158,-15 312,-155.842 312,-327L312,327Z"/>
            </clipPath>
            <g clip-path="url(#_clip4)">
                <path d="M-165,222C-165,131.484 -90.516,57 0,57C90.516,57 165,131.484 165,222L165,-222C165,-131.484 90.516,-57 0,-57C-90.516,-57 -165,-131.484 -165,-222L-165,222Z" style="fill:rgb(255,0,0);fill-rule:nonzero;"/>
            </g>
        </g>
    </g>
    <g id="c2" serif:id="c" transform="matrix(0.67,0,0,0.67,491.58,118.71)">
        <clipPath id="_clip5">
            <path id="b4" serif:id="b" d="M-327,312C-155.842,312 -15,171.158 -15,0C-15,-171.158 -155.842,-312 -327,-312L327,-312C155.842,-312 15,-171.158 15,0C15,171.158 155.842,312 327,312L-327,312Z"/>
        </clipPath>
        <g clip-path="url(#_clip5)">
            <path d="M-165,222C-165,131.484 -90.516,57 0,57C90.516,57 165,131.484 165,222L165,-222C165,-131.484 90.516,-57 0,-57C-90.516,-57 -165,-131.484 -165,-222L-165,222Z" style="fill:rgb(255,0,0);fill-rule:nonzero;"/>
        </g>
        <g id="b5" serif:id="b" transform="matrix(-3.82857e-16,1,-1,-3.82857e-16,0,0)">
            <clipPath id="_clip6">
                <path d="M312,327C312,155.842 171.158,15 0,15C-171.158,15 -312,155.842 -312,327L-312,-327C-312,-155.842 -171.158,-15 0,-15C171.158,-15 312,-155.842 312,-327L312,327Z"/>
            </clipPath>
            <g clip-path="url(#_clip6)">
                <path d="M-165,222C-165,131.484 -90.516,57 0,57C90.516,57 165,131.484 165,222L165,-222C165,-131.484 90.516,-57 0,-57C-90.516,-57 -165,-131.484 -165,-222L-165,222Z" style="fill:rgb(255,0,0);fill-rule:nonzero;"/>
            </g>
        </g>
    </g>
    <g id="c3" serif:id="c" transform="matrix(0.67,0,0,0.67,148.41,361.59)">
        <clipPath id="_clip7">
            <path id="b6" serif:id="b" d="M-327,312C-155.842,312 -15,171.158 -15,0C-15,-171.158 -155.842,-312 -327,-312L327,-312C155.842,-312 15,-171.158 15,0C15,171.158 155.842,312 327,312L-327,312Z"/>
        </clipPath>
        <g clip-path="url(#_clip7)">
            <path d="M-165,222C-165,131.484 -90.516,57 0,57C90.516,57 165,131.484 165,222L165,-222C165,-131.484 90.516,-57 0,-57C-90.516,-57 -165,-131.484 -165,-222L-165,222Z" style="fill:rgb(255,0,0);fill-rule:nonzero;"/>
        </g>
        <g id="b7" serif:id="b" transform="matrix(-3.82857e-16,1,-1,-3.82857e-16,0,0)">
            <clipPath id="_clip8">
                <path d="M312,327C312,155.842 171.158,15 0,15C-171.158,15 -312,155.842 -312,327L-312,-327C-312,-155.842 -171.158,-15 0,-15C171.158,-15 312,-155.842 312,-327L312,327Z"/>
            </clipPath>
            <g clip-path="url(#_clip8)">
                <path d="M-165,222C-165,131.484 -90.516,57 0,57C90.516,57 165,131.484 165,222L165,-222C165,-131.484 90.516,-57 0,-57C-90.516,-57 -165,-131.484 -165,-222L-165,222Z" style="fill:rgb(255,0,0);fill-rule:nonzero;"/>
            </g>
        </g>
    </g>
</svg>
