<?xml version="1.0" encoding="UTF-8" standalone="no"?>
<!DOCTYPE svg PUBLIC "-//W3C//DTD SVG 1.1//EN" "http://www.w3.org/Graphics/SVG/1.1/DTD/svg11.dtd">
<svg width="100%" height="100%" viewBox="0 0 640 480" version="1.1" xmlns="http://www.w3.org/2000/svg" xmlns:xlink="http://www.w3.org/1999/xlink" xml:space="preserve" xmlns:serif="http://www.serif.com/" style="fill-rule:evenodd;clip-rule:evenodd;stroke-linecap:square;">
    <rect x="0" y="0" width="640" height="480" style="fill:rgb(218,0,12);fill-rule:nonzero;"/>
    <rect x="0" y="0" width="640" height="321.563" style="fill:white;fill-rule:nonzero;"/>
    <g transform="matrix(1.875,0,0,1.875,-160,0)">
        <g id="a">
            <rect x="196.57" y="116.303" width="64" height="43.993" style="fill-rule:nonzero;"/>
            <path d="M229.82,153.865L190.75,153.865L182.09,159.565L182.09,165.605L229.82,165.605M213.47,128.594C219.094,128.594 223.688,133.284 223.688,139.064L223.688,153.844L231.031,153.844L231.031,97.844L190.751,97.844L190.751,153.844L203.251,153.844L203.251,139.064C203.251,133.509 207.766,128.594 213.471,128.594L213.47,128.594Z" style="fill:rgb(218,0,12);fill-rule:nonzero;stroke:black;stroke-width:1px;"/>
            <path d="M204.528,59.962L223.051,59.962L223.051,93.922L204.53,93.922L204.528,59.962Z" style="fill-rule:nonzero;"/>
            <path d="M223,88.656L206.79,88.656L206.79,82.906L194.906,82.906L194.906,88.656L186.844,88.656L186.844,82.906L182.031,82.906L182.031,93.344L223,93.344M186.844,93.306L221.814,93.306L221.814,97.844L186.844,97.844L186.844,93.306ZM200.72,47.625L200.72,82.905L206.79,82.905L206.79,73.22C206.79,69.59 209.353,66.62 212.938,66.438C213.053,66.432 213.164,66.438 213.281,66.438C213.282,66.438 213.282,66.438 213.283,66.438C217.002,66.438 220.063,69.499 220.063,73.218L220.063,82.906L225.845,82.906L225.845,47.626L200.72,47.625ZM198.53,42.844L198.53,47.624L227.78,47.624L227.78,42.844L198.53,42.844ZM194.78,33.688L194.78,42.844L229.875,42.844L229.875,33.687L224.469,33.687L224.469,38.344L217.937,38.344L217.937,33.687L207.967,33.687L207.967,38.344L201.437,38.344L201.437,33.687L194.78,33.688ZM182.09,159.564L230,159.564M261,156.813L228.562,156.813L218.782,161.531L218.782,168.563L261,168.563" style="fill:rgb(218,0,12);fill-rule:nonzero;stroke:black;stroke-width:1px;"/>
            <path d="M218.77,161.52L262,161.52" style="fill:none;fill-rule:nonzero;stroke:black;stroke-width:1px;stroke-linecap:butt;"/>
        </g>
        <g id="a1" serif:id="a" transform="matrix(-1,0,0,1,512,0)">
            <rect x="196.57" y="116.303" width="64" height="43.993" style="fill-rule:nonzero;"/>
            <path d="M229.82,153.865L190.75,153.865L182.09,159.565L182.09,165.605L229.82,165.605M213.47,128.594C219.094,128.594 223.688,133.284 223.688,139.064L223.688,153.844L231.031,153.844L231.031,97.844L190.751,97.844L190.751,153.844L203.251,153.844L203.251,139.064C203.251,133.509 207.766,128.594 213.471,128.594L213.47,128.594Z" style="fill:rgb(218,0,12);fill-rule:nonzero;stroke:black;stroke-width:1px;"/>
            <path d="M204.528,59.962L223.051,59.962L223.051,93.922L204.53,93.922L204.528,59.962Z" style="fill-rule:nonzero;"/>
            <path d="M223,88.656L206.79,88.656L206.79,82.906L194.906,82.906L194.906,88.656L186.844,88.656L186.844,82.906L182.031,82.906L182.031,93.344L223,93.344M186.844,93.306L221.814,93.306L221.814,97.844L186.844,97.844L186.844,93.306ZM200.72,47.625L200.72,82.905L206.79,82.905L206.79,73.22C206.79,69.59 209.353,66.62 212.938,66.438C213.053,66.432 213.164,66.438 213.281,66.438C213.282,66.438 213.282,66.438 213.283,66.438C217.002,66.438 220.063,69.499 220.063,73.218L220.063,82.906L225.845,82.906L225.845,47.626L200.72,47.625ZM198.53,42.844L198.53,47.624L227.78,47.624L227.78,42.844L198.53,42.844ZM194.78,33.688L194.78,42.844L229.875,42.844L229.875,33.687L224.469,33.687L224.469,38.344L217.937,38.344L217.937,33.687L207.967,33.687L207.967,38.344L201.437,38.344L201.437,33.687L194.78,33.688ZM182.09,159.564L230,159.564M261,156.813L228.562,156.813L218.782,161.531L218.782,168.563L261,168.563" style="fill:rgb(218,0,12);fill-rule:nonzero;stroke:black;stroke-width:1px;"/>
            <path d="M218.77,161.52L262,161.52" style="fill:none;fill-rule:nonzero;stroke:black;stroke-width:1px;stroke-linecap:butt;"/>
        </g>
        <g>
            <g>
                <path d="M273.297,150.03C270.643,150.914 268.244,152.4 265.827,153.784C262.727,155.614 259.721,157.611 256.924,159.884C255.939,160.532 254.994,161.244 254.234,162.156C253.209,163.034 252.17,164.211 252.366,165.669C252.416,166.311 253.239,164.913 253.78,164.845C254.732,164.302 255.853,164.134 256.922,164.375C258.192,163.035 259.832,162.138 261.247,160.968C264.251,158.724 267.483,156.798 270.772,155.006C271.92,154.416 273.072,153.82 274.297,153.404L273.297,150.029L273.297,150.03Z" style="fill:rgb(248,216,14);fill-rule:nonzero;stroke:black;stroke-width:0.77px;stroke-linecap:round;"/>
                <path d="M260.4,157.39L260.4,161.303M262.817,155.685L262.817,159.568M265.233,154.18L265.233,158.038M267.65,152.694L267.65,156.674" style="fill:rgb(248,216,14);fill-rule:nonzero;stroke:black;stroke-width:1px;stroke-linecap:round;"/>
                <path d="M238.89,150.156L237.704,153.469C243.24,155.569 248.512,158.346 253.501,161.529C255.193,162.679 256.969,163.794 258.298,165.374C258.591,166.184 257.784,166.864 256.984,166.618C256.252,166.368 255.531,166.085 254.758,166.613C253.651,167.116 252.652,168.753 254.332,169.303C256.648,170.859 260.415,170.183 261.528,167.459C262.108,166.059 262.146,164.264 261.02,163.115C258.957,160.751 256.223,159.107 253.6,157.443C248.91,154.623 244.026,152.069 238.893,150.155L238.89,150.156Z" style="fill:rgb(248,216,14);fill-rule:nonzero;stroke:black;stroke-width:0.77px;stroke-linecap:round;"/>
                <path d="M254.05,158.035L253.737,161.375M256.832,159.74L255.97,163.01M259.804,162.012L257.996,164.549M260.715,168.18L258.105,166.78M261.528,165.43L258.533,165.71M257.665,169.765L257.46,167.132M256.568,166.756L254.095,168.578M244.677,152.937L244.677,156.052M250.963,156.244L250.963,159.778M247.82,154.593L247.82,157.913" style="fill:rgb(248,216,14);fill-rule:nonzero;stroke:black;stroke-width:1px;stroke-linecap:round;"/>
            </g>
            <path d="M235.78,227.563L235.78,235.593L240.812,235.593L240.812,231.563L247.656,231.563L247.656,235.593L253.062,235.593L253.062,227.563L235.78,227.563ZM235.78,238.625L235.78,246.688L253.062,246.688L253.062,238.625L247.656,238.625L247.656,242.655L240.812,242.655L240.812,238.625L235.78,238.625Z" style="fill:rgb(248,216,14);fill-rule:nonzero;stroke:black;stroke-width:1px;stroke-linecap:butt;"/>
            <rect x="253.052" y="193.65" width="4.99" height="58.116" style="fill:rgb(248,216,14);fill-rule:nonzero;stroke:black;stroke-width:1px;stroke-linecap:butt;"/>
            <rect x="253.052" y="198.68" width="4.99" height="50.06" style="fill:rgb(248,216,14);fill-rule:nonzero;stroke:black;stroke-width:1px;stroke-linecap:butt;"/>
            <path d="M255.547,179.406L266.172,185.594L255.547,191.75L244.922,185.594L255.547,179.406ZM241.327,183.376L238.547,183.376L238.547,187.812L241.327,187.812L255.547,196.062L269.767,187.812L272.547,187.812L272.547,183.375L269.767,183.375L255.547,175.125L241.327,183.376Z" style="fill:rgb(248,216,14);fill-rule:nonzero;stroke:black;stroke-width:1.02px;stroke-linecap:butt;"/>
            <path d="M255.344,164.28C252.924,164.62 251.118,167.01 251.25,169.415C251.26,173.153 251.232,176.891 251.264,180.629C251.394,183.036 253.497,185.194 255.939,185.216C257.923,185.404 259.917,184.244 260.749,182.436L259.031,181.406C258.587,182.589 257.307,183.323 256.061,183.186C254.427,183.232 253.103,181.642 253.249,180.052C253.259,176.339 253.229,172.624 253.264,168.912C253.354,167.396 254.799,166.157 256.312,166.312C256.938,166.132 257.799,166.988 258.187,166.249C258.77,165.419 257.772,164.772 257.217,164.312C256.604,164.227 255.964,164.304 255.343,164.28L255.344,164.28ZM261.124,168.187C260.729,168.933 259.909,169.377 259.25,169.767L259.25,177.281L261.25,178.438C261.242,175.234 261.266,172.03 261.24,168.828C261.207,168.63 261.23,168.328 261.125,168.188L261.124,168.187Z" style="fill:rgb(248,216,14);fill-rule:nonzero;stroke:black;stroke-width:1.02px;stroke-linecap:butt;"/>
        </g>
        <g>
            <rect x="240.803" y="38.35" width="29.33" height="53.256" style="fill-rule:nonzero;"/>
            <path d="M238.75,38.375L238.75,82.938L248.063,82.938L248.063,69.718C248.063,66.67 250.015,62.438 256,62.438C261.985,62.438 263.938,66.67 263.938,69.718L263.938,82.938L273.25,82.938L273.25,38.374L238.75,38.375ZM254.563,43.375L257.438,43.375L257.438,58.625L254.563,58.625L254.563,43.375ZM246.313,46.375L249.219,46.375L249.219,57.53L246.312,57.53L246.313,46.375ZM262.781,46.375L265.689,46.375L265.689,57.53L262.782,57.53L262.781,46.375ZM235.594,31.97L235.594,38.313L276.406,38.313L276.406,31.969L235.594,31.97ZM231.75,24.594L231.75,31.969L280.25,31.969L280.25,24.593L274.156,24.593L274.156,28.655L267.281,28.655L267.281,24.593L259.439,24.593L259.439,28.655L252.564,28.655L252.564,24.593L244.72,24.593L244.72,28.655L237.844,28.655L237.844,24.593L231.75,24.594ZM222.75,97.844L222.75,102.438L289.25,102.438L289.25,97.844L222.75,97.844Z" style="fill:rgb(218,0,12);fill-rule:nonzero;stroke:black;stroke-width:1px;stroke-linecap:butt;"/>
            <path d="M220.03,82.906L220.03,97.844L291.97,97.844L291.97,82.906L285.156,82.906L285.156,88.656L276.094,88.656L276.094,82.906L263.938,82.906L263.938,88.656L248.063,88.656L248.063,82.906L235.906,82.906L235.906,88.656L226.844,88.656L226.844,82.906L220.03,82.906Z" style="fill:rgb(218,0,12);fill-rule:nonzero;stroke:black;stroke-width:1px;stroke-linecap:butt;"/>
            <path d="M228.688,102.438L228.688,156.781L241.531,156.781L241.531,136.438C241.531,126.856 247.929,122.345 256.001,122.345C263.761,122.345 270.471,126.855 270.471,136.439L270.471,156.782L283.313,156.782L283.313,102.439L228.688,102.438Z" style="fill:rgb(218,0,12);fill-rule:nonzero;stroke:black;stroke-width:1px;stroke-linecap:butt;stroke-linejoin:round;"/>
        </g>
    </g>
</svg>
