<?xml version="1.0" encoding="UTF-8" standalone="no"?>
<!DOCTYPE svg PUBLIC "-//W3C//DTD SVG 1.1//EN" "http://www.w3.org/Graphics/SVG/1.1/DTD/svg11.dtd">
<svg width="100%" height="100%" viewBox="0 0 640 480" version="1.1" xmlns="http://www.w3.org/2000/svg" xmlns:xlink="http://www.w3.org/1999/xlink" xml:space="preserve" xmlns:serif="http://www.serif.com/" style="fill-rule:evenodd;clip-rule:evenodd;stroke-linejoin:round;stroke-miterlimit:2;">
    <rect x="0" y="0" width="640" height="480" style="fill:rgb(0,38,127);fill-rule:nonzero;"/>
    <rect x="213.333" y="0" width="213.333" height="480" style="fill:rgb(255,199,38);fill-rule:nonzero;"/>
    <path id="a" d="M319.77,135.527C312.837,154.434 305.77,174.114 290.65,189.181C295.344,187.635 303.557,186.248 308.837,186.381L308.837,265.901L286.384,269.235C285.584,269.155 285.317,267.902 285.317,266.195C283.157,241.502 277.317,220.755 270.597,199.288C270.117,196.355 261.61,185.155 268.17,187.128C268.97,187.235 277.744,190.808 276.357,189.102C264.41,176.729 246.944,167.822 229.984,165.182C228.49,164.809 227.61,165.556 228.944,167.289C251.45,201.929 270.277,242.809 270.117,291.316C278.864,291.316 300.064,286.143 308.837,286.143L308.837,342.25L319.904,342.25L322.437,185.557L319.77,135.527Z" style="fill-rule:nonzero;"/>
    <g id="a1" serif:id="a" transform="matrix(-1,0,0,1,639.54,0)">
        <path d="M319.77,135.527C312.837,154.434 305.77,174.114 290.65,189.181C295.344,187.635 303.557,186.248 308.837,186.381L308.837,265.901L286.384,269.235C285.584,269.155 285.317,267.902 285.317,266.195C283.157,241.502 277.317,220.755 270.597,199.288C270.117,196.355 261.61,185.155 268.17,187.128C268.97,187.235 277.744,190.808 276.357,189.102C264.41,176.729 246.944,167.822 229.984,165.182C228.49,164.809 227.61,165.556 228.944,167.289C251.45,201.929 270.277,242.809 270.117,291.316C278.864,291.316 300.064,286.143 308.837,286.143L308.837,342.25L319.904,342.25L322.437,185.557L319.77,135.527Z" style="fill-rule:nonzero;"/>
    </g>
</svg>
