<?xml version="1.0" encoding="UTF-8" standalone="no"?>
<!DOCTYPE svg PUBLIC "-//W3C//DTD SVG 1.1//EN" "http://www.w3.org/Graphics/SVG/1.1/DTD/svg11.dtd">
<svg width="100%" height="100%" viewBox="0 0 640 480" version="1.1" xmlns="http://www.w3.org/2000/svg" xmlns:xlink="http://www.w3.org/1999/xlink" xml:space="preserve" xmlns:serif="http://www.serif.com/" style="fill-rule:evenodd;clip-rule:evenodd;">
    <rect id="rect3880" x="0" y="-0" width="640" height="480" style="fill:rgb(0,102,0);"/>
    <rect id="rect3882" x="0" y="-0" width="640" height="342.857" style="fill:white;"/>
    <rect id="rect3884" x="0" y="-0" width="640" height="137.143" style="fill:rgb(204,0,0);"/>
    <g id="g3886" transform="matrix(0.685714,0,0,0.685714,-160,-1.5e-06)">
        <path id="path3888" d="M672,340.7C674.235,336.856 678.359,334.484 682.806,334.484C689.518,334.484 695.094,339.891 695.3,346.6L695.3,396.6L704.7,396.6L704.7,346.6C704.906,339.891 710.482,334.484 717.194,334.484C721.641,334.484 725.765,336.856 728,340.7C728.994,337.705 729.5,334.569 729.5,331.413C729.5,315.23 716.183,301.913 700,301.913C683.817,301.913 670.5,315.23 670.5,331.413C670.5,334.569 671.006,337.705 672,340.7" style="fill:rgb(248,195,0);fill-rule:nonzero;"/>
        <path id="path3890" d="M678.7,327.65C687.093,325.934 695.698,329.793 700,337.2C704.302,329.793 712.907,325.934 721.3,327.65C719.845,317.055 710.694,309.076 700,309.076C689.306,309.076 680.155,317.055 678.7,327.65" style="fill:white;fill-rule:nonzero;"/>
        <path id="w" d="M695.3,376.627C693.55,396.115 677.019,411.228 657.452,411.228C647.798,411.228 638.497,407.548 631.455,400.943C625.483,415.935 610.897,425.825 594.76,425.825C586.495,425.825 578.435,423.231 571.721,418.41C575.371,454.836 629.973,447.399 634.041,411.981C651.195,442.096 688.914,433.471 699.951,396.581L695.3,376.627Z" style="fill:rgb(248,195,0);fill-rule:nonzero;"/>
        <g id="use3893" transform="matrix(-1,0,0,1,1400,0)">
            <path d="M695.3,376.627C693.55,396.115 677.019,411.228 657.452,411.228C647.798,411.228 638.497,407.548 631.455,400.943C625.483,415.935 610.897,425.825 594.76,425.825C586.495,425.825 578.435,423.231 571.721,418.41C575.371,454.836 629.973,447.399 634.041,411.981C651.195,442.096 688.914,433.471 699.951,396.581L695.3,376.627Z" style="fill:rgb(248,195,0);fill-rule:nonzero;"/>
        </g>
        <path id="r" d="M658.84,441.31C651.222,457.756 635.995,460.581 622.676,447.305C622.676,447.305 628.03,443.522 633.762,442.479C632.687,437.905 634.891,431.577 637.997,428.155C641.255,430.382 645.801,434.844 646.957,440.029C654.986,438.99 658.84,441.311 658.84,441.311L658.84,441.31Z" style="fill:rgb(248,195,0);fill-rule:nonzero;"/>
        <g id="use3896" transform="matrix(0.986658,0.162809,-0.162809,0.986658,140.238,-103.239)">
            <path d="M658.84,441.31C651.222,457.756 635.995,460.581 622.676,447.305C622.676,447.305 628.03,443.522 633.762,442.479C632.687,437.905 634.891,431.577 637.997,428.155C641.255,430.382 645.801,434.844 646.957,440.029C654.986,438.99 658.84,441.311 658.84,441.311L658.84,441.31Z" style="fill:rgb(248,195,0);fill-rule:nonzero;"/>
        </g>
        <g id="use3898" transform="matrix(0.946986,0.321274,-0.321274,0.946986,295.414,-182.269)">
            <path d="M658.84,441.31C651.222,457.756 635.995,460.581 622.676,447.305C622.676,447.305 628.03,443.522 633.762,442.479C632.687,437.905 634.891,431.577 637.997,428.155C641.255,430.382 645.801,434.844 646.957,440.029C654.986,438.99 658.84,441.311 658.84,441.311L658.84,441.31Z" style="fill:rgb(248,195,0);fill-rule:nonzero;"/>
        </g>
        <path id="path3900" d="M603,478C666.287,459.162 733.713,459.162 797,478" style="fill:none;fill-rule:nonzero;stroke:rgb(248,195,0);stroke-width:16px;"/>
        <g id="g3902" transform="matrix(1,0,0,1,700,380)">
            <g transform="matrix(4.8669e-05,0,0,4.8669e-05,0,-140)">
                <g id="g3904">
                    <path id="s" d="M-488533,-158734L488533,-158734L-301930,415571L0,-513674L301930,415571L-488533,-158734Z" style="fill:rgb(248,195,0);fill-rule:nonzero;"/>
                </g>
            </g>
            <g id="h">
                <g id="use3908" transform="matrix(4.8669e-05,0,0,4.8669e-05,-70,-121.244)">
                    <path d="M-488533,-158734L488533,-158734L-301930,415571L0,-513674L301930,415571L-488533,-158734Z" style="fill:rgb(248,195,0);fill-rule:nonzero;"/>
                </g>
                <g id="use3910" transform="matrix(4.8669e-05,0,0,4.8669e-05,-121.244,-70)">
                    <path d="M-488533,-158734L488533,-158734L-301930,415571L0,-513674L301930,415571L-488533,-158734Z" style="fill:rgb(248,195,0);fill-rule:nonzero;"/>
                </g>
                <g id="use3912" transform="matrix(4.8669e-05,0,0,4.8669e-05,-140,0)">
                    <path d="M-488533,-158734L488533,-158734L-301930,415571L0,-513674L301930,415571L-488533,-158734Z" style="fill:rgb(248,195,0);fill-rule:nonzero;"/>
                </g>
            </g>
            <g id="use3914" transform="matrix(-1,0,0,1,0,0)">
                <g id="use39081" serif:id="use3908" transform="matrix(4.8669e-05,0,0,4.8669e-05,-70,-121.244)">
                    <path d="M-488533,-158734L488533,-158734L-301930,415571L0,-513674L301930,415571L-488533,-158734Z" style="fill:rgb(248,195,0);fill-rule:nonzero;"/>
                </g>
                <g id="use39101" serif:id="use3910" transform="matrix(4.8669e-05,0,0,4.8669e-05,-121.244,-70)">
                    <path d="M-488533,-158734L488533,-158734L-301930,415571L0,-513674L301930,415571L-488533,-158734Z" style="fill:rgb(248,195,0);fill-rule:nonzero;"/>
                </g>
                <g id="use39121" serif:id="use3912" transform="matrix(4.8669e-05,0,0,4.8669e-05,-140,0)">
                    <path d="M-488533,-158734L488533,-158734L-301930,415571L0,-513674L301930,415571L-488533,-158734Z" style="fill:rgb(248,195,0);fill-rule:nonzero;"/>
                </g>
            </g>
        </g>
    </g>
</svg>
