<?xml version="1.0" encoding="UTF-8" standalone="no"?>
<!DOCTYPE svg PUBLIC "-//W3C//DTD SVG 1.1//EN" "http://www.w3.org/Graphics/SVG/1.1/DTD/svg11.dtd">
<svg width="100%" height="100%" viewBox="0 0 640 480" version="1.1" xmlns="http://www.w3.org/2000/svg" xmlns:xlink="http://www.w3.org/1999/xlink" xml:space="preserve" xmlns:serif="http://www.serif.com/" style="fill-rule:evenodd;clip-rule:evenodd;">
    <g>
        <clipPath id="_clip1">
            <rect x="0" y="0" width="640" height="480"/>
        </clipPath>
        <g clip-path="url(#_clip1)">
            <rect x="-3.299" y="-21.609" width="702.27" height="553.02" style="fill:rgb(239,45,41);"/>
            <rect x="174.57" y="317.33" width="535.76" height="207.56" style="fill:rgb(0,144,37);"/>
            <rect x="174.57" y="-35.415" width="564.88" height="190.08" style="fill:white;"/>
            <g>
                <g transform="matrix(0.19848,0,0,0.17744,111.26,-13.444)">
                    <path d="M155.907,510.24C155.907,486.772 138.874,467.72 117.895,467.72L55.729,467.72C34.75,467.72 17.717,486.772 17.717,510.24C17.717,533.707 34.75,552.759 55.729,552.759L117.895,552.759C138.874,552.759 155.907,533.707 155.907,510.24Z" style="fill:white;stroke:rgb(239,45,40);stroke-width:1.41px;"/>
                    <path d="M152.36,510.236C152.36,488.725 136.747,471.26 117.515,471.26L56.105,471.26C36.873,471.26 21.26,488.725 21.26,510.236C21.26,531.748 36.873,549.213 56.105,549.213L117.515,549.213C136.747,549.213 152.36,531.748 152.36,510.236Z" style="fill:white;stroke:rgb(239,45,40);stroke-width:1.31px;"/>
                    <g transform="matrix(0.68108,0,0,0.5852,37.972,260.74)">
                        <path d="M64.966,396.07L74.689,396.513L75.131,402.258L83.086,407.561L89.273,400.932L96.786,406.235L89.716,411.981L91.483,419.936L100.321,419.494L100.321,430.101L93.251,429.659L89.715,436.288L97.67,443.801L91.483,449.988L84.853,443.359L75.131,446.011L75.573,455.734L64.966,456.618L63.64,447.337L54.801,442.475L49.94,449.104L42.426,444.243L46.846,436.73L41.542,431.868L34.03,431.868L33.588,418.168L41.101,419.052L46.405,411.097L40.218,404.91L48.173,397.839L53.918,403.584L63.641,401.816L64.967,396.07L64.966,396.07Z" style="fill:white;stroke:rgb(239,45,40);stroke-width:1.31px;"/>
                    </g>
                    <g transform="matrix(0.65819,0,0,0.70224,38.845,209.62)">
                        <ellipse cx="68.944" cy="426.78" rx="11.049" ry="9.944" style="fill:white;stroke:rgb(239,45,40);stroke-width:1.31px;"/>
                    </g>
                    <g>
                        <path d="M38.976,474.8L28.346,485.43M46.063,474.8L35.433,485.43M53.149,474.8L42.519,485.43M60.236,474.8L49.606,485.43M67.322,474.8L56.692,485.43M74.409,474.8L63.779,485.43M81.496,474.8L70.866,485.43M88.582,474.8L77.952,485.43M95.669,474.8L85.039,485.43M102.755,474.8L92.125,485.43M109.842,474.8L99.212,485.43M116.929,474.8L106.299,485.43M88.582,474.8L77.952,485.43M124.015,474.8L113.385,485.43M131.102,474.8L120.472,485.43M138.189,474.8L127.559,485.43M145.276,474.8L134.646,485.43M134.644,474.8L145.274,485.43M127.564,474.8L138.194,485.43M120.474,474.8L131.104,485.43M113.384,474.8L124.014,485.43M106.304,474.8L116.934,485.43M99.214,474.8L109.844,485.43M92.124,474.8L102.754,485.43M85.044,474.8L95.674,485.43M77.954,474.8L88.584,485.43M70.864,474.8L81.494,485.43M63.784,474.8L74.414,485.43M56.693,474.8L67.323,485.43M85.044,474.8L95.674,485.43M49.607,474.8L60.237,485.43M42.52,474.8L53.15,485.43M35.434,474.8L46.064,485.43M28.347,474.8L38.977,485.43" style="fill:white;stroke:rgb(239,45,40);stroke-width:1.31px;"/>
                    </g>
                    <g>
                        <path d="M38.976,535.036L28.346,545.666M46.063,535.036L35.433,545.666M53.149,535.036L42.519,545.666M60.236,535.036L49.606,545.666M67.322,535.036L56.692,545.666M74.409,535.036L63.779,545.666M81.496,535.036L70.866,545.666M88.582,535.036L77.952,545.666M95.669,535.036L85.039,545.666M102.755,535.036L92.125,545.666M109.842,535.036L99.212,545.666M116.929,535.036L106.299,545.666M88.582,535.036L77.952,545.666M124.015,535.036L113.385,545.666M131.102,535.036L120.472,545.666M138.189,535.036L127.559,545.666M145.276,535.036L134.646,545.666M134.644,535.036L145.274,545.666M127.564,535.036L138.194,545.666M120.474,535.036L131.104,545.666M113.384,535.036L124.014,545.666M106.304,535.036L116.934,545.666M99.214,535.036L109.844,545.666M92.124,535.036L102.754,545.666M85.044,535.036L95.674,545.666M77.954,535.036L88.584,545.666M70.864,535.036L81.494,545.666M63.784,535.036L74.414,545.666M56.693,535.036L67.323,545.666M85.044,535.036L95.674,545.666M49.607,535.036L60.237,545.666M42.52,535.036L53.15,545.666M35.434,535.036L46.064,545.666M28.347,535.036L38.977,545.666" style="fill:white;stroke:rgb(239,45,40);stroke-width:1.31px;"/>
                    </g>
                </g>
                <g transform="matrix(0.19848,0,0,0.17744,19.131,-14.073)">
                    <path d="M155.907,510.24C155.907,486.772 138.874,467.72 117.895,467.72L55.729,467.72C34.75,467.72 17.717,486.772 17.717,510.24C17.717,533.707 34.75,552.759 55.729,552.759L117.895,552.759C138.874,552.759 155.907,533.707 155.907,510.24Z" style="fill:white;stroke:rgb(239,45,40);stroke-width:1.41px;"/>
                    <path d="M152.36,510.236C152.36,488.725 136.747,471.26 117.515,471.26L56.105,471.26C36.873,471.26 21.26,488.725 21.26,510.236C21.26,531.748 36.873,549.213 56.105,549.213L117.515,549.213C136.747,549.213 152.36,531.748 152.36,510.236Z" style="fill:white;stroke:rgb(239,45,40);stroke-width:1.31px;"/>
                    <g transform="matrix(0.68108,0,0,0.5852,37.972,260.74)">
                        <path d="M64.966,396.07L74.689,396.513L75.131,402.258L83.086,407.561L89.273,400.932L96.786,406.235L89.716,411.981L91.483,419.936L100.321,419.494L100.321,430.101L93.251,429.659L89.715,436.288L97.67,443.801L91.483,449.988L84.853,443.359L75.131,446.011L75.573,455.734L64.966,456.618L63.64,447.337L54.801,442.475L49.94,449.104L42.426,444.243L46.846,436.73L41.542,431.868L34.03,431.868L33.588,418.168L41.101,419.052L46.405,411.097L40.218,404.91L48.173,397.839L53.918,403.584L63.641,401.816L64.967,396.07L64.966,396.07Z" style="fill:white;stroke:rgb(239,45,40);stroke-width:1.31px;"/>
                    </g>
                    <g transform="matrix(0.65819,0,0,0.70224,38.845,209.62)">
                        <ellipse cx="68.944" cy="426.78" rx="11.049" ry="9.944" style="fill:white;stroke:rgb(239,45,40);stroke-width:1.31px;"/>
                    </g>
                    <g>
                        <path d="M38.976,474.8L28.346,485.43M46.063,474.8L35.433,485.43M53.149,474.8L42.519,485.43M60.236,474.8L49.606,485.43M67.322,474.8L56.692,485.43M74.409,474.8L63.779,485.43M81.496,474.8L70.866,485.43M88.582,474.8L77.952,485.43M95.669,474.8L85.039,485.43M102.755,474.8L92.125,485.43M109.842,474.8L99.212,485.43M116.929,474.8L106.299,485.43M88.582,474.8L77.952,485.43M124.015,474.8L113.385,485.43M131.102,474.8L120.472,485.43M138.189,474.8L127.559,485.43M145.276,474.8L134.646,485.43M134.644,474.8L145.274,485.43M127.564,474.8L138.194,485.43M120.474,474.8L131.104,485.43M113.384,474.8L124.014,485.43M106.304,474.8L116.934,485.43M99.214,474.8L109.844,485.43M92.124,474.8L102.754,485.43M85.044,474.8L95.674,485.43M77.954,474.8L88.584,485.43M70.864,474.8L81.494,485.43M63.784,474.8L74.414,485.43M56.693,474.8L67.323,485.43M85.044,474.8L95.674,485.43M49.607,474.8L60.237,485.43M42.52,474.8L53.15,485.43M35.434,474.8L46.064,485.43M28.347,474.8L38.977,485.43" style="fill:white;stroke:rgb(239,45,40);stroke-width:1.31px;"/>
                    </g>
                    <g>
                        <path d="M38.976,535.036L28.346,545.666M46.063,535.036L35.433,545.666M53.149,535.036L42.519,545.666M60.236,535.036L49.606,545.666M67.322,535.036L56.692,545.666M74.409,535.036L63.779,545.666M81.496,535.036L70.866,545.666M88.582,535.036L77.952,545.666M95.669,535.036L85.039,545.666M102.755,535.036L92.125,545.666M109.842,535.036L99.212,545.666M116.929,535.036L106.299,545.666M88.582,535.036L77.952,545.666M124.015,535.036L113.385,545.666M131.102,535.036L120.472,545.666M138.189,535.036L127.559,545.666M145.276,535.036L134.646,545.666M134.644,535.036L145.274,545.666M127.564,535.036L138.194,545.666M120.474,535.036L131.104,545.666M113.384,535.036L124.014,545.666M106.304,535.036L116.934,545.666M99.214,535.036L109.844,545.666M92.124,535.036L102.754,545.666M85.044,535.036L95.674,545.666M77.954,535.036L88.584,545.666M70.864,535.036L81.494,545.666M63.784,535.036L74.414,545.666M56.693,535.036L67.323,545.666M85.044,535.036L95.674,545.666M49.607,535.036L60.237,545.666M42.52,535.036L53.15,545.666M35.434,535.036L46.064,545.666M28.347,535.036L38.977,545.666" style="fill:white;stroke:rgb(239,45,40);stroke-width:1.31px;"/>
                    </g>
                </g>
                <g transform="matrix(-0.32136,-0.12684,-0.20158,0.20221,345.89,61.391)">
                    <path d="M538.58,531.5C540.297,698.06 563.383,733.47 542.123,733.47C520.863,733.47 510.233,641.4 510.233,527.96C510.233,414.52 524.406,322.45 545.666,322.45C566.926,322.45 536.753,354.359 538.58,531.51L538.58,531.5Z" style="fill:white;stroke:rgb(239,45,40);stroke-width:1.31px;"/>
                </g>
                <g transform="matrix(-0.19848,0,0,0.17744,145.247,-13.446)">
                    <path d="M545.67,779.53L485.434,797.246C542.127,857.482 605.904,882.285 623.624,871.655C641.341,861.026 591.734,836.222 545.671,779.53L545.67,779.53Z" style="fill:white;stroke:rgb(239,45,40);stroke-width:1.23px;"/>
                </g>
                <g transform="matrix(-0.19334,0,0,0.17062,142.75,-8.126)">
                    <path d="M547.27,786.9L496.344,801.64C553.037,861.876 609.114,879.025 623.624,871.655C638.215,864.285 593.337,843.592 547.274,786.9L547.27,786.9Z" style="fill:white;stroke:rgb(239,45,40);stroke-width:1.27px;"/>
                </g>
                <g transform="matrix(-0.13978,0,0,0.12414,123.027,20.362)">
                    <path d="M353.13,634.23C353.317,635.503 353.878,641.298 354.38,643.605C354.38,646.791 354.668,649.237 355.005,651.73C355.801,653.907 355.666,655.928 358.13,656.731C359.824,659.362 360.89,660.044 363.13,661.106C364.657,662.429 366.97,663.748 369.38,664.856C371.879,665.927 374.151,666.074 376.88,665.481C379.07,663.955 380.684,662.381 382.505,661.106C382.934,659.133 383.327,656.203 383.755,654.231C383.081,656.255 382.608,659.496 382.505,662.356C382.745,665.476 383.77,666.837 385.005,669.231" style="fill:none;fill-rule:nonzero;stroke:rgb(239,45,40);stroke-width:1.75px;"/>
                </g>
                <g transform="matrix(-0.13978,0,0,0.12414,124.863,19.663)">
                    <path d="M389.38,681.73L390.005,681.105C388.521,682.589 389.127,681.881 392.505,679.855C394.931,678.609 397.52,677.947 400.63,677.355L409.38,677.355C412.785,677.355 415.076,677.866 417.505,678.605C419.267,680.367 421.898,681.368 423.755,682.98C425.66,684.275 426.477,685.809 427.505,687.98C429.206,689.681 430.308,692.306 431.88,693.605C432.584,696.476 434.021,696.378 435.005,698.605C432.057,698.832 429.694,699.236 428.13,701.105C425.533,702.449 430.309,699.788 431.255,698.605C433.301,697.987 433.831,697.355 436.88,697.355C439.73,696.451 441.459,698.092 444.38,698.605C446.085,699.592 446.558,699.855 448.756,699.855" style="fill:none;fill-rule:nonzero;stroke:rgb(239,45,40);stroke-width:1.75px;"/>
                </g>
                <g transform="matrix(-0.13978,0,0,0.12414,126.96,18.19)">
                    <path d="M438.13,724.86C439.403,724.935 445.213,726.006 447.506,724.86C450.058,724.164 451.574,722.82 453.131,720.485C453.898,718.796 453.131,723.483 453.131,725.485C453.414,729.165 454.497,729.199 456.256,731.735C458.07,732.898 459.981,734.535 461.881,735.485C463.457,736.851 465.394,737.765 467.506,738.61C469.402,739.508 471.617,740.423 473.131,741.735C475.221,743.228 475.019,745.013 476.256,747.36C476.021,750.417 475.523,752.15 473.756,753.61C473.018,755.723 471.361,757.815 470.006,759.235C468.461,762.105 466.75,763.459 470.631,764.235C472.763,765.149 473.958,764.432 476.256,764.235" style="fill:none;fill-rule:nonzero;stroke:rgb(239,45,40);stroke-width:1.75px;"/>
                </g>
                <g transform="matrix(-0.13978,0,0,0.12414,127.396,17.802)">
                    <path d="M480.63,771.73C482.166,771.339 487.613,769.517 490.005,768.605L498.755,768.605C502.146,768.866 502.792,769.861 505.631,771.105C507.463,772.976 508.72,774.267 511.256,775.481C512.597,777.214 515.209,780.158 516.256,782.356C517.001,784.489 517.506,787.374 517.506,790.481C517.462,794.129 516.504,794.752 516.256,797.981C515.555,800.665 514.417,803.124 512.506,805.481C512.241,806.274 512.049,806.467 511.256,806.731" style="fill:none;fill-rule:nonzero;stroke:rgb(239,45,40);stroke-width:1.75px;"/>
                </g>
                <g transform="matrix(-0.09924,0,0,0.09799,109.457,38.807)">
                    <path d="M538.13,817.98C538.504,817.98 539.331,819.998 540.63,821.73C543.458,824.636 543.822,824.855 548.13,824.855C552.014,824.712 551.652,823.323 554.38,822.355C555.669,820.347 557.276,818.755 558.755,816.105C559.761,814.471 560.645,811.976 561.88,810.48C563.021,808.626 564.443,807.226 565.63,805.48C566.802,804.978 567.248,804.496 568.756,804.23C565.156,804.808 564.841,806.097 562.505,807.98C561.411,809.759 560.324,811.613 559.38,813.605C559.019,816.278 558.17,818.384 558.13,821.73C558.13,825.187 558.147,827.602 559.38,830.48C560.853,832.025 561.943,833.623 563.755,834.856C565.194,836.261 566.999,838.192 568.131,839.856C570.091,841.062 571.516,842.045 573.756,843.606C575.64,844.708 577.671,845.84 580.631,846.106C584.301,845.844 585.386,844.809 588.131,843.606C590.46,841.893 592.294,840.768 594.381,839.231C596.01,838.09 597.669,835.828 598.756,834.231C602.138,833.385 604.285,833.723 606.256,835.481C607.977,836.651 609.461,838.135 610.631,839.856C611.651,840.366 613.361,841.846 614.381,842.356" style="fill:none;fill-rule:nonzero;stroke:rgb(239,45,40);stroke-width:2.34px;"/>
                </g>
                <g transform="matrix(-0.12338,0,0,0.12229,111.375,19.248)">
                    <path d="M503.76,836.11C502.958,836.444 500.043,838.477 498.76,839.235C497.96,841.866 496.683,843.304 496.26,846.11C495.583,848.819 495.635,851.802 495.635,854.86C496.32,858.054 497.65,860.417 498.76,862.985C500.734,864.327 501.727,865.315 504.385,866.735C506.879,867.072 509.325,867.36 512.511,867.36C514.415,867.995 518.126,868.302 520.011,867.36C522.794,866.984 524.865,865.853 526.886,864.86C529.192,863.553 530.614,862.318 533.136,861.11C534.361,859.309 536.266,857.65 538.136,855.485C539.692,853.38 540.836,852.199 541.886,849.86C540.962,852.529 539.559,854.859 538.761,857.36C537.339,860.021 536.513,860.964 536.261,864.235C535.39,866.848 535.636,869.995 535.636,872.985C535.91,875.016 536.054,878.822 536.886,880.485L536.886,882.36" style="fill:none;fill-rule:nonzero;stroke:rgb(239,45,40);stroke-width:1.88px;"/>
                </g>
                <g transform="matrix(-0.19848,0,0,0.17744,145.247,-13.446)">
                    <path d="M541.26,799.23L541.26,799.855C541.26,798.168 541.301,799.025 540.635,802.355C539.456,803.817 536.691,804.223 534.385,803.605C532.363,801.935 532.425,800.67 528.76,799.855C525.218,800.108 523.868,801.134 521.885,802.355C519.531,803.532 518.447,804.126 516.885,806.73C516.109,808.85 515.676,810.285 518.135,811.105C520.089,812.491 522.412,813.254 525.01,813.605C527.897,813.605 529.978,813.266 531.26,814.855C533.243,816.91 533.135,818.132 533.135,821.73C533.802,822.842 533.934,826.124 534.385,827.355C536.121,828.178 537.14,828.605 540.01,828.605C540.684,826.674 541.433,823.186 541.885,821.105C542.374,818.857 542.525,815.726 543.76,814.23C544.931,812.51 546.415,811.026 548.135,809.855C548.901,808.782 550.358,807.89 551.885,807.355C549.433,808.606 549.084,809.958 548.76,812.98C550.915,814.058 551.491,814.813 555.01,814.855C558.469,814.564 559.305,813.686 560.635,811.73C560.877,814.866 561.878,815.916 562.51,818.605C563.796,820.496 564.342,822.433 565.635,824.855C565.084,827.867 563.898,828.018 563.76,831.73C562.949,834.165 563.037,836.513 561.26,837.981C560.468,838.949 559.876,839.139 558.135,839.231C561.753,839.231 563.862,838.84 566.26,837.356C568.114,836.215 569.515,834.793 571.261,833.606C573.473,832.003 576.208,830.521 578.761,829.855C581.648,829.855 583.729,829.516 585.011,831.105C586.781,832.37 587.97,834.552 588.761,837.356C589.34,840.6 589.561,842.76 588.136,844.856C587.079,847.264 586.839,848.202 588.136,851.106C589.588,853.139 591.753,853.378 595.011,854.231C597.39,854.103 599.679,853.56 601.261,852.981" style="fill:none;fill-rule:nonzero;stroke:rgb(239,45,40);stroke-width:1.23px;"/>
                </g>
                <g transform="matrix(-0.19848,0,0,0.17744,145.247,-13.446)">
                    <g transform="matrix(1.4216,-0.73423,0.46161,0.89375,-716.84,541.07)">
                        <path d="M531.5,359.64C531.5,194.37 539.437,60.23 549.217,60.23C558.996,60.23 566.933,194.36 566.933,359.64L531.5,359.64Z" style="fill:white;stroke:rgb(239,45,40);stroke-width:1.31px;"/>
                    </g>
                    <g transform="matrix(1.1373,-0.58739,0.44532,0.86221,-554.83,471.77)">
                        <path d="M531.5,359.64C531.5,194.37 539.437,60.23 549.217,60.23C558.996,60.23 566.933,194.36 566.933,359.64" style="fill:white;stroke:rgb(239,45,40);stroke-width:1.31px;"/>
                    </g>
                    <g transform="matrix(1.4216,-0.73423,0.45889,0.88849,-716.67,541.39)">
                        <path d="M563.39,301.18C563.579,320.088 563.39,341.368 563.39,361.416L535.043,361.416C535.043,341.368 534.854,320.088 535.043,301.18L563.39,301.18Z" style="fill:white;stroke:rgb(239,45,40);stroke-width:1.31px;"/>
                    </g>
                    <g transform="matrix(1.4216,-0.73423,0.45889,0.88849,-716.67,541.39)">
                        <path d="M559.84,304.72C560.029,323.628 559.84,337.822 559.84,357.87L538.58,357.87C538.58,337.822 538.391,323.628 538.58,304.72L559.84,304.72Z" style="fill:white;stroke:rgb(239,45,40);stroke-width:1.31px;"/>
                    </g>
                    <g transform="matrix(1.4216,-0.73423,0.45889,0.88849,-716.67,541.39)">
                        <path d="M542.13,311.81L556.303,311.81L556.303,350.786L542.13,350.786L542.13,311.81ZM542.13,311.81L556.303,350.786M542.13,350.79L556.303,311.814M542.13,113.39L556.303,113.39" style="fill:white;stroke:rgb(239,45,40);stroke-width:1.31px;"/>
                    </g>
                    <g transform="matrix(1.6046,0.45375,-0.36215,1.5787,-734.9,-170.85)">
                        <circle cx="545.67" cy="92.126" r="3.543" style="fill:rgb(239,0,0);stroke:rgb(239,45,40);stroke-width:1.31px;"/>
                    </g>
                </g>
                <g>
                    <g transform="matrix(0.32136,-0.12684,0.20158,0.20221,-181.512,60.764)">
                        <path d="M538.58,531.5C540.297,698.06 563.383,733.47 542.123,733.47C520.863,733.47 510.233,641.4 510.233,527.96C510.233,414.52 524.406,322.45 545.666,322.45C566.926,322.45 536.753,354.359 538.58,531.51L538.58,531.5Z" style="fill:white;stroke:rgb(239,45,40);stroke-width:1.31px;"/>
                    </g>
                    <g transform="matrix(0.19848,0,0,0.17744,19.131,-14.073)">
                        <path d="M545.67,779.53L485.434,797.246C542.127,857.482 605.904,882.285 623.624,871.655C641.341,861.026 591.734,836.222 545.671,779.53L545.67,779.53Z" style="fill:white;stroke:rgb(239,45,40);stroke-width:1.23px;"/>
                    </g>
                    <g transform="matrix(0.19334,0,0,0.17062,21.629,-8.754)">
                        <path d="M547.27,786.9L496.344,801.64C553.037,861.876 609.114,879.025 623.624,871.655C638.215,864.285 593.337,843.592 547.274,786.9L547.27,786.9Z" style="fill:white;stroke:rgb(239,45,40);stroke-width:1.27px;"/>
                    </g>
                    <g transform="matrix(0.13978,0,0,0.12414,41.35,19.735)">
                        <path d="M353.13,634.23C353.317,635.503 353.878,641.298 354.38,643.605C354.38,646.791 354.668,649.237 355.005,651.73C355.801,653.907 355.666,655.928 358.13,656.731C359.824,659.362 360.89,660.044 363.13,661.106C364.657,662.429 366.97,663.748 369.38,664.856C371.879,665.927 374.151,666.074 376.88,665.481C379.07,663.955 380.684,662.381 382.505,661.106C382.934,659.133 383.327,656.203 383.755,654.231C383.081,656.255 382.608,659.496 382.505,662.356C382.745,665.476 383.77,666.837 385.005,669.231" style="fill:none;fill-rule:nonzero;stroke:rgb(239,45,40);stroke-width:1.75px;"/>
                    </g>
                    <g transform="matrix(0.13978,0,0,0.12414,39.515,19.036)">
                        <path d="M389.38,681.73L390.005,681.105C388.521,682.589 389.127,681.881 392.505,679.855C394.931,678.609 397.52,677.947 400.63,677.355L409.38,677.355C412.785,677.355 415.076,677.866 417.505,678.605C419.267,680.367 421.898,681.368 423.755,682.98C425.66,684.275 426.477,685.809 427.505,687.98C429.206,689.681 430.308,692.306 431.88,693.605C432.584,696.476 434.021,696.378 435.005,698.605C432.057,698.832 429.694,699.236 428.13,701.105C425.533,702.449 430.309,699.788 431.255,698.605C433.301,697.987 433.831,697.355 436.88,697.355C439.73,696.451 441.459,698.092 444.38,698.605C446.085,699.592 446.558,699.855 448.756,699.855" style="fill:none;fill-rule:nonzero;stroke:rgb(239,45,40);stroke-width:1.75px;"/>
                    </g>
                    <g transform="matrix(0.13978,0,0,0.12414,37.419,17.563)">
                        <path d="M438.13,724.86C439.403,724.935 445.213,726.006 447.506,724.86C450.058,724.164 451.574,722.82 453.131,720.485C453.898,718.796 453.131,723.483 453.131,725.485C453.414,729.165 454.497,729.199 456.256,731.735C458.07,732.898 459.981,734.535 461.881,735.485C463.457,736.851 465.394,737.765 467.506,738.61C469.402,739.508 471.617,740.423 473.131,741.735C475.221,743.228 475.019,745.013 476.256,747.36C476.021,750.417 475.523,752.15 473.756,753.61C473.018,755.723 471.361,757.815 470.006,759.235C468.461,762.105 466.75,763.459 470.631,764.235C472.763,765.149 473.958,764.432 476.256,764.235" style="fill:none;fill-rule:nonzero;stroke:rgb(239,45,40);stroke-width:1.75px;"/>
                    </g>
                    <g transform="matrix(0.13978,0,0,0.12414,36.982,17.174)">
                        <path d="M480.63,771.73C482.166,771.339 487.613,769.517 490.005,768.605L498.755,768.605C502.146,768.866 502.792,769.861 505.631,771.105C507.463,772.976 508.72,774.267 511.256,775.481C512.597,777.214 515.209,780.158 516.256,782.356C517.001,784.489 517.506,787.374 517.506,790.481C517.462,794.129 516.504,794.752 516.256,797.981C515.555,800.665 514.417,803.124 512.506,805.481C512.241,806.274 512.049,806.467 511.256,806.731" style="fill:none;fill-rule:nonzero;stroke:rgb(239,45,40);stroke-width:1.75px;"/>
                    </g>
                    <g transform="matrix(0.09924,0,0,0.09799,54.92,38.18)">
                        <path d="M538.13,817.98C538.504,817.98 539.331,819.998 540.63,821.73C543.458,824.636 543.822,824.855 548.13,824.855C552.014,824.712 551.652,823.323 554.38,822.355C555.669,820.347 557.276,818.755 558.755,816.105C559.761,814.471 560.645,811.976 561.88,810.48C563.021,808.626 564.443,807.226 565.63,805.48C566.802,804.978 567.248,804.496 568.756,804.23C565.156,804.808 564.841,806.097 562.505,807.98C561.411,809.759 560.324,811.613 559.38,813.605C559.019,816.278 558.17,818.384 558.13,821.73C558.13,825.187 558.147,827.602 559.38,830.48C560.853,832.025 561.943,833.623 563.755,834.856C565.194,836.261 566.999,838.192 568.131,839.856C570.091,841.062 571.516,842.045 573.756,843.606C575.64,844.708 577.671,845.84 580.631,846.106C584.301,845.844 585.386,844.809 588.131,843.606C590.46,841.893 592.294,840.768 594.381,839.231C596.01,838.09 597.669,835.828 598.756,834.231C602.138,833.385 604.285,833.723 606.256,835.481C607.977,836.651 609.461,838.135 610.631,839.856C611.651,840.366 613.361,841.846 614.381,842.356" style="fill:none;fill-rule:nonzero;stroke:rgb(239,45,40);stroke-width:2.34px;"/>
                    </g>
                    <g transform="matrix(0.12338,0,0,0.12229,53.004,18.62)">
                        <path d="M503.76,836.11C502.958,836.444 500.043,838.477 498.76,839.235C497.96,841.866 496.683,843.304 496.26,846.11C495.583,848.819 495.635,851.802 495.635,854.86C496.32,858.054 497.65,860.417 498.76,862.985C500.734,864.327 501.727,865.315 504.385,866.735C506.879,867.072 509.325,867.36 512.511,867.36C514.415,867.995 518.126,868.302 520.011,867.36C522.794,866.984 524.865,865.853 526.886,864.86C529.192,863.553 530.614,862.318 533.136,861.11C534.361,859.309 536.266,857.65 538.136,855.485C539.692,853.38 540.836,852.199 541.886,849.86C540.962,852.529 539.559,854.859 538.761,857.36C537.339,860.021 536.513,860.964 536.261,864.235C535.39,866.848 535.636,869.995 535.636,872.985C535.91,875.016 536.054,878.822 536.886,880.485L536.886,882.36" style="fill:none;fill-rule:nonzero;stroke:rgb(239,45,40);stroke-width:1.88px;"/>
                    </g>
                    <g transform="matrix(0.19848,0,0,0.17744,19.131,-14.073)">
                        <path d="M541.26,799.23L541.26,799.855C541.26,798.168 541.301,799.025 540.635,802.355C539.456,803.817 536.691,804.223 534.385,803.605C532.363,801.935 532.425,800.67 528.76,799.855C525.218,800.108 523.868,801.134 521.885,802.355C519.531,803.532 518.447,804.126 516.885,806.73C516.109,808.85 515.676,810.285 518.135,811.105C520.089,812.491 522.412,813.254 525.01,813.605C527.897,813.605 529.978,813.266 531.26,814.855C533.243,816.91 533.135,818.132 533.135,821.73C533.802,822.842 533.934,826.124 534.385,827.355C536.121,828.178 537.14,828.605 540.01,828.605C540.684,826.674 541.433,823.186 541.885,821.105C542.374,818.857 542.525,815.726 543.76,814.23C544.931,812.51 546.415,811.026 548.135,809.855C548.901,808.782 550.358,807.89 551.885,807.355C549.433,808.606 549.084,809.958 548.76,812.98C550.915,814.058 551.491,814.813 555.01,814.855C558.469,814.564 559.305,813.686 560.635,811.73C560.877,814.866 561.878,815.916 562.51,818.605C563.796,820.496 564.342,822.433 565.635,824.855C565.084,827.867 563.898,828.018 563.76,831.73C562.949,834.165 563.037,836.513 561.26,837.981C560.468,838.949 559.876,839.139 558.135,839.231C561.753,839.231 563.862,838.84 566.26,837.356C568.114,836.215 569.515,834.793 571.261,833.606C573.473,832.003 576.208,830.521 578.761,829.855C581.648,829.855 583.729,829.516 585.011,831.105C586.781,832.37 587.97,834.552 588.761,837.356C589.34,840.6 589.561,842.76 588.136,844.856C587.079,847.264 586.839,848.202 588.136,851.106C589.588,853.139 591.753,853.378 595.011,854.231C597.39,854.103 599.679,853.56 601.261,852.981" style="fill:none;fill-rule:nonzero;stroke:rgb(239,45,40);stroke-width:1.23px;"/>
                    </g>
                </g>
                <g transform="matrix(0.19848,0,0,0.17744,19.131,-14.073)">
                    <g transform="matrix(1.4216,-0.73423,0.46161,0.89375,-716.84,541.07)">
                        <path d="M531.5,359.64C531.5,194.37 539.437,60.23 549.217,60.23C558.996,60.23 566.933,194.36 566.933,359.64L531.5,359.64Z" style="fill:white;stroke:rgb(239,45,40);stroke-width:1.31px;"/>
                    </g>
                    <g transform="matrix(1.1373,-0.58739,0.44532,0.86221,-554.83,471.77)">
                        <path d="M531.5,359.64C531.5,194.37 539.437,60.23 549.217,60.23C558.996,60.23 566.933,194.36 566.933,359.64" style="fill:white;stroke:rgb(239,45,40);stroke-width:1.31px;"/>
                    </g>
                    <g transform="matrix(1.4216,-0.73423,0.45889,0.88849,-716.67,541.39)">
                        <path d="M563.39,301.18C563.579,320.088 563.39,341.368 563.39,361.416L535.043,361.416C535.043,341.368 534.854,320.088 535.043,301.18L563.39,301.18Z" style="fill:white;stroke:rgb(239,45,40);stroke-width:1.31px;"/>
                    </g>
                    <g transform="matrix(1.4216,-0.73423,0.45889,0.88849,-716.67,541.39)">
                        <path d="M559.84,304.72C560.029,323.628 559.84,337.822 559.84,357.87L538.58,357.87C538.58,337.822 538.391,323.628 538.58,304.72L559.84,304.72Z" style="fill:white;stroke:rgb(239,45,40);stroke-width:1.31px;"/>
                    </g>
                    <g transform="matrix(1.4216,-0.73423,0.45889,0.88849,-716.67,541.39)">
                        <path d="M542.13,311.81L556.303,311.81L556.303,350.786L542.13,350.786L542.13,311.81ZM542.13,311.81L556.303,350.786M542.13,350.79L556.303,311.814M542.13,113.39L556.303,113.39" style="fill:white;stroke:rgb(239,45,40);stroke-width:1.31px;"/>
                    </g>
                    <g transform="matrix(1.6046,0.45375,-0.36215,1.5787,-734.9,-170.85)">
                        <circle cx="545.67" cy="92.126" r="3.543" style="fill:rgb(239,0,0);stroke:rgb(239,45,40);stroke-width:1.31px;"/>
                    </g>
                </g>
                <g transform="matrix(0.19848,0,0,0.17744,19.131,-14.073)">
                    <g transform="matrix(1.3333,0,0,1,-141.74,0)">
                        <path d="M305.61,396.85C305.61,520.87 306.101,567.61 299.99,574.02C294.2,580.877 132.87,574.02 132.87,609.453C132.87,644.886 265.74,680.32 305.61,680.319C358.759,680.319 385.333,644.886 385.333,574.019L385.333,396.849L305.61,396.849L305.61,396.85Z" style="fill:white;stroke:rgb(239,45,40);stroke-width:1.31px;"/>
                    </g>
                    <g transform="matrix(1,0,0,0.99999,0,35.437)">
                        <path d="M265.75,396.85L265.75,414.567C301.183,420.473 336.616,420.473 372.05,414.567L372.05,396.85C336.617,402.756 301.184,402.756 265.75,396.85Z" style="fill:white;stroke:rgb(239,45,40);stroke-width:1.31px;"/>
                    </g>
                    <g transform="matrix(1,0,0,0.99999,0,0.004)">
                        <path d="M265.75,396.85L265.75,414.567C301.183,420.473 336.616,420.473 372.05,414.567L372.05,396.85C336.617,402.756 301.184,402.756 265.75,396.85Z" style="fill:white;stroke:rgb(239,45,40);stroke-width:1.31px;"/>
                    </g>
                    <g transform="matrix(1,0,0,0.99999,0,17.721)">
                        <path d="M265.75,396.85L265.75,414.567C301.183,420.473 336.616,420.473 372.05,414.567L372.05,396.85C336.617,402.756 301.184,402.756 265.75,396.85Z" style="fill:white;stroke:rgb(239,45,40);stroke-width:1.31px;"/>
                    </g>
                    <g transform="matrix(1,0,0,0.99999,0,53.154)">
                        <path d="M265.75,396.85L265.75,414.567C301.183,420.473 336.616,420.473 372.05,414.567L372.05,396.85C336.617,402.756 301.184,402.756 265.75,396.85Z" style="fill:white;stroke:rgb(239,45,40);stroke-width:1.31px;"/>
                    </g>
                    <g transform="matrix(0.54545,0,0,0.14383,130.46,394.32)">
                        <ellipse cx="256.89" cy="210.83" rx="8.858" ry="26.575" style="fill:white;stroke:rgb(239,45,40);stroke-width:4.39px;"/>
                    </g>
                    <g transform="matrix(0.54545,0,0,0.14383,130.46,391.13)">
                        <ellipse cx="292.32" cy="246.26" rx="8.858" ry="26.575" style="fill:white;stroke:rgb(239,45,40);stroke-width:4.39px;"/>
                    </g>
                    <g transform="matrix(0.54545,0,0,0.14383,130.46,390.49)">
                        <ellipse cx="327.76" cy="263.98" rx="8.858" ry="26.575" style="fill:white;stroke:rgb(239,45,40);stroke-width:4.39px;"/>
                    </g>
                    <g transform="matrix(0.54545,0,0,0.14383,130.46,390.49)">
                        <ellipse cx="363.19" cy="263.98" rx="8.858" ry="26.575" style="fill:white;stroke:rgb(239,45,40);stroke-width:4.39px;"/>
                    </g>
                    <g transform="matrix(0.54545,0,0,0.14383,130.46,391.13)">
                        <ellipse cx="398.62" cy="246.26" rx="8.858" ry="26.575" style="fill:white;stroke:rgb(239,45,40);stroke-width:4.39px;"/>
                    </g>
                    <g transform="matrix(0.54545,0,0,0.14383,130.46,394.32)">
                        <ellipse cx="434.06" cy="210.83" rx="8.858" ry="26.575" style="fill:white;stroke:rgb(239,45,40);stroke-width:4.39px;"/>
                    </g>
                    <path d="M265.75,485.43L372.05,581.099M276.38,485.43L372.049,570.469M290.55,488.98L372.046,559.846M301.18,488.98L372.046,549.217M311.81,488.98L372.046,538.587M322.44,488.98L372.046,527.957M333.07,488.98L372.046,517.327M343.7,488.98L372.046,510.24M354.33,488.98L372.046,503.154M364.96,488.98L372.046,496.067M265.75,496.06L372.05,591.729M372.05,485.43L255.12,591.73M361.42,485.43L258.66,577.556M347.25,488.98L265.754,559.846M336.62,488.98L265.754,549.217M325.99,488.98L265.754,538.587M315.36,488.98L265.754,527.957M304.73,488.98L265.754,517.327M294.1,488.98L265.754,510.24M283.47,488.98L265.754,503.154M272.84,488.98L265.754,496.067M372.05,496.06L255.12,602.36M372.05,506.69L255.12,612.99M372.05,517.32L255.12,623.62M372.05,527.95L255.12,634.25M372.05,538.58L255.12,644.88M372.05,549.21L255.12,655.51M372.05,559.84L255.12,666.14M372.05,570.47L255.12,676.77M372.05,581.1L262.21,680.31M372.05,591.73L272.838,680.313M368.5,605.9L290.547,676.766M364.96,620.08L301.181,676.773M357.87,637.79L325.98,666.136M265.75,506.69L368.51,598.816M265.747,517.327L368.507,609.453M265.747,527.957L364.96,616.54M265.747,538.587L364.96,627.17M265.753,549.213L361.423,634.252M262.204,556.303L357.873,641.343M262.204,566.933L350.787,644.886M258.663,574.013L347.246,651.966M255.114,581.103L340.154,655.512M255.113,591.73L336.609,662.595M255.113,602.36L325.979,666.139" style="fill:white;stroke:rgb(239,45,40);stroke-width:1.31px;"/>
                    <g transform="matrix(1,0,0,0.99999,0,70.87)">
                        <path d="M265.75,396.85L265.75,414.567C301.183,420.473 336.616,420.473 372.05,414.567L372.05,396.85C336.617,402.756 301.184,402.756 265.75,396.85Z" style="fill:white;stroke:rgb(239,45,40);stroke-width:1.31px;"/>
                    </g>
                    <path d="M255.114,612.99L318.894,669.682M255.114,623.62L311.807,673.226M255.113,634.25L304.719,676.769M255.114,644.88L290.548,676.769M255.114,655.51L283.461,680.314M255.113,666.14L272.829,680.313" style="fill:white;stroke:rgb(239,45,40);stroke-width:1.31px;"/>
                    <g transform="matrix(0.54545,0,0,0.14383,130.46,447.47)">
                        <ellipse cx="256.89" cy="210.83" rx="8.858" ry="26.575" style="fill:white;stroke:rgb(239,45,40);stroke-width:4.39px;"/>
                    </g>
                    <g transform="matrix(0.54545,0,0,0.14383,130.46,444.28)">
                        <ellipse cx="292.32" cy="246.26" rx="8.858" ry="26.575" style="fill:white;stroke:rgb(239,45,40);stroke-width:4.39px;"/>
                    </g>
                    <g transform="matrix(0.54545,0,0,0.14383,130.46,443.64)">
                        <ellipse cx="327.76" cy="263.98" rx="8.858" ry="26.575" style="fill:white;stroke:rgb(239,45,40);stroke-width:4.39px;"/>
                    </g>
                    <g transform="matrix(0.54545,0,0,0.14383,130.46,443.64)">
                        <ellipse cx="363.19" cy="263.98" rx="8.858" ry="26.575" style="fill:white;stroke:rgb(239,45,40);stroke-width:4.39px;"/>
                    </g>
                    <g transform="matrix(0.54545,0,0,0.14383,130.46,444.28)">
                        <ellipse cx="398.62" cy="246.26" rx="8.858" ry="26.575" style="fill:white;stroke:rgb(239,45,40);stroke-width:4.39px;"/>
                    </g>
                    <g transform="matrix(0.54545,0,0,0.14383,130.46,447.47)">
                        <ellipse cx="434.06" cy="210.83" rx="8.858" ry="26.575" style="fill:white;stroke:rgb(239,45,40);stroke-width:4.39px;"/>
                    </g>
                    <path d="M113.39,651.97L240.94,577.56M106.303,648.427L226.773,577.557M102.76,641.341L212.6,577.561M99.217,634.254L194.886,577.561M92.127,627.16L180.71,577.554M95.667,616.537L155.903,581.104M92.127,609.454L138.19,581.108M92.124,598.817L124.014,581.1M124.013,655.507L244.483,584.647M134.647,659.054L248.027,591.734M145.28,662.6L251.58,598.82M155.91,666.144L244.493,612.994M170.083,666.136L248.035,620.073M180.713,669.68L248.036,630.704M191.336,673.227L244.486,641.337M205.51,673.233L248.03,648.43M219.68,676.777L248.027,659.06M233.863,676.773L251.58,666.143" style="fill:white;stroke:rgb(239,45,40);stroke-width:1.31px;"/>
                    <g transform="matrix(0,1,-0.99999,0,655.51,308.27)">
                        <path d="M265.75,396.85L265.75,414.567C301.183,420.473 336.616,420.473 372.05,414.567L372.05,396.85C336.617,402.756 301.184,402.756 265.75,396.85Z" style="fill:white;stroke:rgb(239,45,40);stroke-width:1.31px;"/>
                    </g>
                    <path d="M49.61,623.624L92.13,588.191M49.61,598.8L92.13,641.32" style="fill:white;stroke:rgb(239,45,40);stroke-width:1.31px;"/>
                    <g transform="matrix(0,0.63333,-0.8,0,423.78,416.34)">
                        <path d="M260.15,387.99L265.745,414.565C301.178,420.471 331.016,420.471 366.445,414.565L377.635,387.99C342.202,393.896 295.579,393.896 260.145,387.99L260.15,387.99Z" style="fill:white;stroke:rgb(239,45,40);stroke-width:1.31px;"/>
                    </g>
                    <g transform="matrix(1.4983,0,0,1,-15.633,53.149)">
                        <path d="M258.66,350.79L258.66,332.925C248.03,333.074 240.944,322.444 240.943,311.665L205.511,311.814C205.511,322.444 198.424,333.074 187.794,333.074L187.794,350.79L258.66,350.79Z" style="fill:white;stroke:rgb(239,45,40);stroke-width:1.31px;"/>
                    </g>
                    <path d="M296.09,343.7L341.596,343.7L341.596,364.96L296.09,364.96L296.09,343.7ZM299.88,322.44L337.802,322.44L337.802,343.7L299.88,343.7L299.88,322.44ZM299.88,301.18L337.802,301.18L337.802,322.44L299.88,322.44L299.88,301.18ZM303.67,272.83L334.007,272.83L334.007,301.176L303.67,301.176L303.67,272.83Z" style="fill:white;stroke:rgb(239,45,40);stroke-width:1.36px;"/>
                    <rect x="302.36" y="248.03" width="32.953" height="24.803" style="fill:white;stroke:rgb(239,45,40);stroke-width:1.41px;"/>
                    <g transform="matrix(1.0333,0,0,1,75.354,63.779)">
                        <ellipse cx="237.4" cy="161.22" rx="42.52" ry="33.661" style="fill:white;stroke:rgb(239,45,40);stroke-width:1.31px;"/>
                    </g>
                    <g transform="matrix(1.0333,0,0,1,75.354,63.779)">
                        <path d="M258.66,159.45C258.66,168.741 269.29,184.253 269.29,184.253C261.594,190.346 249.136,194.883 237.401,194.883C225.666,194.883 211.052,192.355 205.511,184.253C205.511,184.253 216.141,168.741 216.141,159.45C216.141,150.159 205.511,138.19 205.511,138.19C213.207,132.097 225.665,127.56 237.401,127.56C249.136,127.56 261.594,132.097 269.29,138.19C269.29,138.19 258.66,150.159 258.66,159.45Z" style="fill:white;stroke:rgb(239,45,40);stroke-width:1.31px;"/>
                    </g>
                    <g transform="matrix(1.0333,0,0,1,75.354,63.779)">
                        <path d="M251.58,159.45C251.58,168.741 262.21,187.796 262.21,187.796C254.514,193.889 249.142,194.883 237.407,194.883C225.672,194.883 218.145,195.898 212.604,187.796C212.604,187.796 223.234,168.741 223.234,159.45C223.234,150.159 212.604,134.647 212.604,134.647C220.3,128.554 225.671,127.56 237.407,127.56C249.142,127.56 254.514,128.554 262.21,134.647C262.21,134.647 251.58,150.159 251.58,159.45Z" style="fill:white;stroke:rgb(239,45,40);stroke-width:1.31px;"/>
                    </g>
                    <g transform="matrix(1.0333,0,0,1,75.354,60.236)">
                        <circle cx="194.88" cy="166.54" r="10.63" style="fill:white;stroke:rgb(239,45,40);stroke-width:1.31px;"/>
                    </g>
                    <g transform="matrix(1.0333,0,0,1,163.23,60.236)">
                        <circle cx="194.88" cy="166.54" r="10.63" style="fill:white;stroke:rgb(239,45,40);stroke-width:1.31px;"/>
                    </g>
                    <g transform="matrix(1.0333,0,0,1,119.29,60.236)">
                        <circle cx="194.88" cy="166.54" r="10.63" style="fill:white;stroke:rgb(239,45,40);stroke-width:1.31px;"/>
                    </g>
                    <g transform="matrix(1.0333,0,0,1,119.29,24.803)">
                        <circle cx="194.88" cy="166.54" r="10.63" style="fill:white;stroke:rgb(239,45,40);stroke-width:1.31px;"/>
                    </g>
                    <g transform="matrix(1.0702,0,0,1,79.931,226.77)">
                        <circle cx="194.88" cy="166.54" r="10.63" style="fill:white;stroke:rgb(239,45,40);stroke-width:1.31px;"/>
                    </g>
                    <g transform="matrix(1.0702,0,0,1,140.61,226.77)">
                        <circle cx="194.88" cy="166.54" r="10.63" style="fill:white;stroke:rgb(239,45,40);stroke-width:1.31px;"/>
                    </g>
                    <g transform="matrix(1.0702,0,0,1,64.762,53.149)">
                        <path d="M212.6,311.81L262.207,311.81L237.404,343.7L212.6,311.81Z" style="fill:white;stroke:rgb(239,45,40);stroke-width:1.31px;"/>
                    </g>
                    <g transform="matrix(1.427,0,0,1.3333,40.745,167.72)">
                        <circle cx="194.88" cy="166.54" r="10.63" style="fill:white;stroke:rgb(239,45,40);stroke-width:1.31px;"/>
                    </g>
                </g>
                <g transform="matrix(0.19848,0,0,0.17744,18.78,-19.095)">
                    <path d="M343.696,535.04C343.696,529.173 339.438,524.41 334.193,524.41L271.703,524.41C266.458,524.41 262.2,529.173 262.2,535.04C262.2,540.907 266.458,545.67 271.703,545.67L334.193,545.67C339.438,545.67 343.696,540.907 343.696,535.04Z" style="fill:white;stroke:rgb(239,45,40);stroke-width:1.23px;"/>
                    <path d="M368.51,506.69C358.696,506.69 350.794,514.949 350.794,525.209L350.794,541.32C350.794,551.58 358.696,559.84 368.51,559.84C378.325,559.84 386.227,551.58 386.227,541.32L386.227,525.209C386.227,514.949 378.325,506.69 368.51,506.69ZM368.51,513.777C362.622,513.777 357.88,520.385 357.88,528.593L357.88,537.938C357.88,546.146 362.622,552.754 368.51,552.754C374.399,552.754 379.14,546.146 379.14,537.938L379.14,528.593C379.14,520.385 374.399,513.777 368.51,513.777ZM276.38,510.24C270.492,510.24 265.75,516.848 265.75,525.056L265.75,541.488C265.75,549.696 270.492,556.304 276.38,556.304C282.269,556.304 287.01,549.696 287.01,541.488L287.01,525.056C287.01,516.848 282.269,510.24 276.38,510.24ZM276.38,503.153C266.566,503.153 258.664,511.412 258.664,521.672L258.664,544.87C258.664,555.13 266.566,563.39 276.38,563.39C286.195,563.39 294.097,555.13 294.097,544.87L294.097,521.672C294.097,511.412 286.195,503.153 276.38,503.153Z" style="fill:white;stroke:rgb(239,45,40);stroke-width:1.23px;"/>
                    <path d="M248.03,517.32C242.142,517.32 237.4,523.928 237.4,532.136L237.399,536C237.399,544.208 242.141,550.816 248.029,550.816C253.918,550.816 258.659,544.208 258.659,536L258.66,532.136C258.66,523.928 253.919,517.32 248.03,517.32ZM248.03,510.233C238.216,510.233 230.314,518.492 230.314,528.752L230.313,539.382C230.313,549.642 238.215,557.902 248.029,557.902C257.844,557.902 265.746,549.642 265.746,539.382L265.747,528.752C265.747,518.492 257.845,510.233 248.03,510.233Z" style="fill:white;stroke:rgb(239,45,40);stroke-width:1.23px;"/>
                    <g transform="matrix(1.8,0,0,1.1176,-655.51,242.2)">
                        <path d="M478.35,237.4C472.462,237.4 467.72,244.008 467.72,252.216L467.72,268.648C467.72,276.856 472.462,283.464 478.35,283.464C484.239,283.464 488.98,276.856 488.98,268.648L488.98,252.216C488.98,244.008 484.239,237.4 478.35,237.4ZM478.35,230.313C468.536,230.313 460.634,238.572 460.634,248.832L460.634,272.03C460.634,282.29 468.536,290.55 478.35,290.55C488.165,290.55 496.067,282.29 496.067,272.03L496.067,248.832C496.067,238.572 488.165,230.313 478.35,230.313Z" style="fill:white;stroke:rgb(239,45,40);stroke-width:0.87px;"/>
                    </g>
                    <g transform="matrix(1.8,0,0,1.1176,-425.2,245.74)">
                        <path d="M478.35,237.4C472.462,237.4 467.72,244.008 467.72,252.216L467.72,268.648C467.72,276.856 472.462,283.464 478.35,283.464C484.239,283.464 488.98,276.856 488.98,268.648L488.98,252.216C488.98,244.008 484.239,237.4 478.35,237.4ZM478.35,230.313C468.536,230.313 460.634,238.572 460.634,248.832L460.634,272.03C460.634,282.29 468.536,290.55 478.35,290.55C488.165,290.55 496.067,282.29 496.067,272.03L496.067,248.832C496.067,238.572 488.165,230.313 478.35,230.313Z" style="fill:white;stroke:rgb(239,45,40);stroke-width:0.87px;"/>
                    </g>
                    <path d="M418.11,535.04C418.11,529.173 413.852,524.41 408.607,524.41L385.093,524.41C379.848,524.41 375.59,529.173 375.59,535.04C375.59,540.907 379.848,545.67 385.093,545.67L408.607,545.67C413.852,545.67 418.11,540.907 418.11,535.04Z" style="fill:white;stroke:rgb(239,45,40);stroke-width:1.23px;"/>
                    <path d="M361.413,528.332C361.413,524.213 358.424,520.87 354.742,520.87L343.281,520.87C339.599,520.87 336.61,524.213 336.61,528.332L336.61,541.754C336.61,545.873 339.599,549.216 343.281,549.216L354.742,549.216C358.424,549.216 361.413,545.873 361.413,541.754L361.413,528.332Z" style="fill:white;stroke:rgb(239,45,40);stroke-width:1.23px;"/>
                    <path d="M244.493,528.332C244.493,524.213 241.504,520.87 237.822,520.87L226.361,520.87C222.679,520.87 219.69,524.213 219.69,528.332L219.69,541.754C219.69,545.873 222.679,549.216 226.361,549.216L237.822,549.216C241.504,549.216 244.493,545.873 244.493,541.754L244.493,528.332Z" style="fill:white;stroke:rgb(239,45,40);stroke-width:1.23px;"/>
                    <path d="M191.336,532.238C191.336,524.004 185.36,517.32 178,517.32L155.066,517.32C147.706,517.32 141.73,524.004 141.73,532.238L141.73,537.835C141.73,546.069 147.706,552.753 155.066,552.753L178,552.753C185.36,552.753 191.336,546.069 191.336,537.835L191.336,532.238Z" style="fill:white;stroke:rgb(239,45,40);stroke-width:1.23px;"/>
                    <path d="M496.063,534.723C496.063,527.077 490.514,520.87 483.679,520.87L462.384,520.87C455.549,520.87 450,527.077 450,534.723L450,542.45C450,550.096 455.549,556.303 462.384,556.303L483.679,556.303C490.514,556.303 496.063,550.096 496.063,542.45L496.063,534.723Z" style="fill:white;stroke:rgb(239,45,40);stroke-width:1.23px;"/>
                </g>
            </g>
        </g>
    </g>
</svg>
