<?xml version="1.0" encoding="UTF-8" standalone="no"?>
<!DOCTYPE svg PUBLIC "-//W3C//DTD SVG 1.1//EN" "http://www.w3.org/Graphics/SVG/1.1/DTD/svg11.dtd">
<svg width="100%" height="100%" viewBox="0 0 640 480" version="1.1" xmlns="http://www.w3.org/2000/svg" xmlns:xlink="http://www.w3.org/1999/xlink" xml:space="preserve" xmlns:serif="http://www.serif.com/" style="fill-rule:evenodd;clip-rule:evenodd;stroke-linejoin:round;stroke-miterlimit:2;">
    <g transform="matrix(0.94,0,0,0.94,57.48,0)">
        <clipPath id="_clip1">
            <rect x="-61.312" y="0" width="682.67" height="512"/>
        </clipPath>
        <g clip-path="url(#_clip1)">
            <rect x="-237.99" y="3.5" width="1037.9" height="498" style="fill:rgb(255,198,33);"/>
            <rect x="-240" y="342.5" width="1039.3" height="169.5" style="fill:rgb(239,33,24);"/>
            <rect x="-237.99" y="0" width="1038" height="180" style="fill:rgb(41,140,8);"/>
            <g transform="matrix(0.54,0,0,0.54,-25.81,73.95)">
                <circle cx="534.22" cy="352.97" r="199.65" style="fill:rgb(0,107,198);"/>
            </g>
            <path d="M214.25,188.2L207.818,192.722L231.312,225.742L237.578,221.747L214.248,188.201L214.25,188.2ZM243.66,266.142L234,259.406L237.99,246.73L189.87,247.402L175.94,236.738L241.63,236.03L253.814,199.122L260.359,214.046L243.659,266.144L243.66,266.142ZM320.182,195.462L313.928,190.698L289.55,223.072L295.253,227.838L320.183,195.463L320.182,195.462ZM254.77,247.05L258.273,235.805L271.563,235.781L256.381,190.111L262.339,173.611L282.863,236.019L321.727,236.479L309.479,247.227L254.769,247.051L254.77,247.05ZM345.442,298.215L348.057,290.8L309.762,277.538L306.977,284.428L345.442,298.214L345.442,298.215ZM276.262,251.799L288.04,251.679L292.144,264.319L330.947,235.851L348.479,236.455L295.386,275.148L306.879,312.275L292.889,303.918L276.261,251.798L276.262,251.799ZM256.514,353.879L264.376,353.993L264.739,313.469L257.319,313.026L256.513,353.879L256.514,353.879ZM278.458,273.513L282.325,284.638L271.652,292.555L311.005,320.26L316.021,337.07L262.425,299.08L230.897,321.81L234.359,305.886L278.459,273.511L278.458,273.513ZM175.188,286.5L177.513,294.01L216.159,281.808L214.282,274.616L175.19,286.5L175.188,286.5ZM258.398,282.48L249.018,289.6L238.183,281.905L224.026,327.902L209.594,337.877L229.119,275.15L197.743,252.21L213.956,250.572L258.396,282.48L258.398,282.48Z" style="fill:rgb(255,198,33);"/>
        </g>
    </g>
</svg>
