<?xml version="1.0" encoding="UTF-8" standalone="no"?>
<!DOCTYPE svg PUBLIC "-//W3C//DTD SVG 1.1//EN" "http://www.w3.org/Graphics/SVG/1.1/DTD/svg11.dtd">
<svg width="100%" height="100%" viewBox="0 0 640 480" version="1.1" xmlns="http://www.w3.org/2000/svg" xmlns:xlink="http://www.w3.org/1999/xlink" xml:space="preserve" xmlns:serif="http://www.serif.com/" style="fill-rule:evenodd;clip-rule:evenodd;stroke-linejoin:round;stroke-miterlimit:2;">
    <g transform="matrix(0.94,0,0,0.94,0,0)">
        <clipPath id="_clip1">
            <rect x="0" y="0" width="682.67" height="512"/>
        </clipPath>
        <g clip-path="url(#_clip1)">
            <rect x="0" y="0" width="768" height="512" style="fill:rgb(0,43,127);fill-rule:nonzero;"/>
            <rect x="0" y="320" width="768" height="64" style="fill:rgb(249,232,20);fill-rule:nonzero;"/>
            <g id="b" transform="matrix(42.67,0,0,42.67,85.34,85.34)">
                <path d="M0,-1L0.225,-0.31L0.95,-0.31L0.364,0.12L0.589,0.81L0,0.383L-0.588,0.81L-0.363,0.118L-0.95,-0.31L-0.225,-0.31L0,-1Z" style="fill:white;fill-rule:nonzero;"/>
            </g>
            <g id="b1" serif:id="b" transform="matrix(56.9,0,0,56.9,170.7,170.7)">
                <path d="M0,-1L0.225,-0.31L0.95,-0.31L0.364,0.12L0.589,0.81L0,0.383L-0.588,0.81L-0.363,0.118L-0.95,-0.31L-0.225,-0.31L0,-1Z" style="fill:white;fill-rule:nonzero;"/>
            </g>
        </g>
    </g>
</svg>
