<?xml version="1.0" encoding="UTF-8" standalone="no"?>
<!DOCTYPE svg PUBLIC "-//W3C//DTD SVG 1.1//EN" "http://www.w3.org/Graphics/SVG/1.1/DTD/svg11.dtd">
<svg width="100%" height="100%" viewBox="0 0 640 480" version="1.1" xmlns="http://www.w3.org/2000/svg" xmlns:xlink="http://www.w3.org/1999/xlink" xml:space="preserve" xmlns:serif="http://www.serif.com/" style="fill-rule:evenodd;clip-rule:evenodd;stroke-linejoin:round;stroke-miterlimit:2;">
    <g transform="matrix(0.9375,0,0,0.9375,79.64,0)">
        <clipPath id="_clip1">
            <rect x="-84.949" y="0" width="682.67" height="512"/>
        </clipPath>
        <g clip-path="url(#_clip1)">
            <rect x="-128" y="0" width="768.77" height="512" style="fill:rgb(190,0,39);"/>
            <path d="M105.45,261.14C119.108,244.53 147.4,260.741 170.495,248.781C143.137,250.285 128.225,235.652 106.611,237.703C129.006,223.946 148.072,242.203 173.113,234.864C139.948,232.074 141.386,217.249 111.229,215.144C138.017,203.718 151.265,226.894 177.505,221.623C146.578,214.483 142.46,196.267 119.466,192.411C153.074,187.338 150.883,207.205 183.83,209.631C150.389,195.286 159.154,182.834 131.185,171.908C162.482,171.168 160.407,192.858 192.115,198.548C164.971,181.328 168.324,165.613 145.966,153.316C172.49,153.796 175.08,180.945 202.15,189.356C178.002,170.196 184.353,154.043 163.486,136.933C189.869,143.121 186.028,166.543 213.505,181.485C193.142,158.87 200.955,142.68 183.191,124.167C208.565,132.339 198.926,154.599 225.256,175.762C210.162,150.907 219.481,135.055 204.627,114.085C228.186,126.251 216.778,148.957 238.65,171.643C228.355,146.135 238.665,130.291 228.143,107.702C248.295,122.759 236.309,147.025 252.565,170.174C246.639,138.254 260.406,133.004 256.122,105.05C271.428,123.84 254.32,142.63 266.071,170.31C264.641,138.834 281.365,131.515 278.465,106.243C293.634,128.888 269.958,148.596 279.86,172.848C282.42,142.984 302.045,135.251 302.35,112.012C314.283,133.344 288.239,148.684 292.466,176.967C301.036,145.771 321.942,141.916 324.409,120.942C331.644,145.62 303.144,157.092 304.811,184.442C313.3,156.707 339.431,153.454 344.773,132.967C348.07,159.074 322.373,163.709 315.138,192.552C328.65,169.012 352.281,167.081 362.921,148.462C362.086,174.278 333.077,177.662 324.173,201.835C340.898,181.325 361.864,184.885 378.588,166.7C376.823,189.999 347.295,188.682 331.579,212.804C349.715,196.072 377.014,201.086 390.909,186.679C390.235,207.287 354.001,205.738 336.913,224.158C357.988,212.613 384.67,219.394 400.138,208.671C397.312,226.739 359.062,222.516 340.782,236.617C365.993,229.632 385.459,240.427 405.884,232.622C395.944,250.209 361.25,239.077 342.83,250.51C364.71,246.805 387.956,260.06 407.921,255.807C401.359,271.008 363.341,254.889 342.831,264.345C367.341,264.13 383.233,279.779 405.964,278.745C393.601,292.507 360.176,273.582 340.702,276.815C364.462,281.729 382.613,301.416 400.628,302.365C385.844,313.716 358.205,287.867 335.764,291.149C358.869,297.334 378.28,323.621 391.538,324.197C377.254,333.959 349.021,301.733 329.678,302.878C353.173,313.498 363.949,340.393 379.375,344.174C360.276,350.302 341.507,314.957 320.985,313.732C344.756,328.725 346.099,351.65 364.402,361.856C345.145,366.564 331.438,326.689 311.143,323.324C330.633,337.651 333.571,368.255 346.494,377.932C326.887,378.968 319.802,337.218 299.707,331.254C316.923,345.634 312.801,376.834 326.187,390.117C305.761,385.927 308.394,349.579 287.069,337.339C302.389,356.659 294.596,384.185 304.581,399.676C284.711,391.638 293.341,359.108 274.371,340.686C284.719,361.268 273.597,385.272 281.758,405.172C263.605,396.318 275.814,357.788 261.902,342.506C268.297,366.292 256.502,385.976 261.256,407.3C242.697,385.774 264.073,364.111 247.975,342.175C252.248,367.352 234.639,384.872 237.408,405.946C222.692,388.756 245.313,361.172 233.88,339.468C236.342,364.222 213.604,385.908 215.165,401.498C203.187,381.53 228.463,357.915 221.695,335.212C220.27,358.784 197.325,371.594 193.004,393.068C185.291,369.379 212.568,352.256 210.213,328.978C202.402,351.122 180.231,360.001 172.42,381.462C166.025,357.839 198.334,345.295 199.188,320.442C189.201,343.75 162.666,348.868 153.908,366.706C150.639,343.206 187.716,332.699 189.096,310.431C177.16,331.813 148.126,332.681 138.105,349.685C136.585,326.269 175.687,323.369 181.825,298.86C169.943,317.138 138.091,314.767 124.839,329.627C126.929,307.905 169.227,306.561 175.968,287.027C160.245,302.195 131.005,295.909 114.542,307.94C123.705,286.605 163.38,291.128 172.35,275.673C154.786,284.837 123.67,275.953 108.353,285.117C122.273,264.911 153.156,276.982 170.633,263.067C142.205,267.21 125.127,255.897 105.451,261.134L105.45,261.14Z" style="fill:rgb(255,255,0);"/>
            <path d="M355.939,256.111C355.939,310.911 311.515,355.334 256.716,355.334C201.916,355.334 157.494,310.91 157.494,256.111C157.494,201.311 201.918,156.889 256.716,156.889C311.516,156.889 355.939,201.312 355.939,256.111Z" style="fill:rgb(255,255,0);"/>
            <path d="M343.17,256.307C343.17,303.951 304.547,342.572 256.905,342.572C209.262,342.572 170.641,303.95 170.641,256.307C170.641,208.664 209.263,170.043 256.905,170.043C304.549,170.043 343.17,208.665 343.17,256.307Z" style="fill:rgb(190,0,39);"/>
            <path d="M331.156,256.487C331.156,297.398 297.992,330.562 257.082,330.562C216.171,330.562 183.007,297.397 183.007,256.487C183.007,215.577 216.172,182.412 257.082,182.412C297.992,182.412 331.156,215.577 331.156,256.487Z" style="fill:rgb(255,255,0);"/>
            <path d="M194.04,207.95C214.541,207.499 240.073,209.368 256.899,222.843C274.758,211.689 295.904,206.532 317.439,208.53L328.464,228.645C312.475,227.032 296.873,229.291 278.369,236.769C301.966,255.465 313.764,279.579 312.991,308.913C310.284,312.265 306.028,316.004 303.321,319.356C307.253,290.86 292.231,259.077 270.44,242.378C288.17,267.974 298.744,291.054 295.779,322.838C292.619,324.708 288.879,327.351 285.721,329.221C290.361,301.176 283.788,268.295 263.091,249.147C275.018,266.684 286.946,298.146 279.531,330.187C276.307,331.155 271.343,333.863 268.12,334.83C276.437,308.591 271.213,275.774 257.288,256.111C243.492,275.905 238.978,306.14 246.843,334.057C242.974,333.09 240.073,331.929 236.206,330.962C230.533,300.919 238.399,267.005 252.066,249.342C238.141,257.402 224.988,291.956 228.662,327.288C225.31,325.741 222.73,324.58 219.379,323.032C214.866,296.663 226.792,262.366 243.943,242.572C224.472,254.822 208.677,284.866 211.449,317.23C208.483,314.587 205.71,313.298 202.745,310.655C199.328,282.415 215.639,253.985 234.851,236.964C218.669,229.742 204.808,228.324 184.757,228.646C187.916,222.134 190.882,214.463 194.041,207.951L194.04,207.95Z" style="fill:rgb(190,0,39);"/>
        </g>
    </g>
</svg>
