<?xml version="1.0" encoding="UTF-8" standalone="no"?>
<!DOCTYPE svg PUBLIC "-//W3C//DTD SVG 1.1//EN" "http://www.w3.org/Graphics/SVG/1.1/DTD/svg11.dtd">
<svg width="100%" height="100%" viewBox="0 0 640 480" version="1.1" xmlns="http://www.w3.org/2000/svg" xmlns:xlink="http://www.w3.org/1999/xlink" xml:space="preserve" xmlns:serif="http://www.serif.com/" style="fill-rule:evenodd;clip-rule:evenodd;">
    <rect x="0" y="0" width="640" height="480" style="fill:white;fill-rule:nonzero;"/>
    <g transform="matrix(0.9375,0,0,0.9375,0,14.96)">
        <clipPath id="_clip1">
            <rect x="0" y="-15.957" width="512" height="512"/>
        </clipPath>
        <g clip-path="url(#_clip1)">
            <g>
                <path d="M6.54,489.54L385.326,489.53L137.399,238.11L394.662,238.412L6.561,-9.474L6.54,489.54Z" style="fill:rgb(206,0,0);stroke:rgb(0,0,99);stroke-width:13.83px;"/>
                <path d="M180.737,355.803L153.751,364.739L174.861,384.601L146.423,382.774L158.139,409.006L132.59,396.716L133.116,425.313L114.33,404.413L103.589,431.045L94.439,404.725L74.074,425.313L75.935,397.579L49.051,409.006L61.653,384.088L32.318,384.601L53.748,366.279L26.453,355.803L53.44,346.88L32.318,327.018L60.754,328.833L49.051,302.613L74.601,314.903L74.074,286.293L92.861,307.194L103.589,280.574L112.751,306.894L133.116,286.294L131.243,314.028L158.139,302.614L145.538,327.531L174.86,327.018L153.43,345.341L180.737,355.803ZM148.32,171.125L136.99,179.512L142.574,184.126C156.135,173.644 165.785,164.064 173.327,148.166C175.096,169.386 155.644,217.021 104.597,217.547C49.964,217.501 31.007,166.96 33.115,147.271C43.152,165.48 49.276,174.359 65.031,183.839L69.851,179.415L59.18,170.524L72.917,166.952L65.527,154.512L79.918,155.562L78.11,141.076L90.726,148.459L94.674,134.975L103.739,145.835L112.23,135.539L116.854,149.529L128.644,141.326L127.132,155.554L141.265,153.895L134.639,167.048L148.321,171.125L148.32,171.125Z" style="fill:white;"/>
            </g>
        </g>
    </g>
</svg>
