<?xml version="1.0" encoding="UTF-8" standalone="no"?>
<!DOCTYPE svg PUBLIC "-//W3C//DTD SVG 1.1//EN" "http://www.w3.org/Graphics/SVG/1.1/DTD/svg11.dtd">
<svg width="100%" height="100%" viewBox="0 0 640 480" version="1.1" xmlns="http://www.w3.org/2000/svg" xmlns:xlink="http://www.w3.org/1999/xlink" xml:space="preserve" xmlns:serif="http://www.serif.com/" style="fill-rule:evenodd;clip-rule:evenodd;stroke-linejoin:round;stroke-miterlimit:2;">
    <g transform="matrix(0.9375,0,0,0.9375,50.082,0)">
        <clipPath id="_clip1">
            <rect x="-53.421" y="0" width="682.67" height="512"/>
        </clipPath>
        <g clip-path="url(#_clip1)">
            <g>
                <path d="M-121.103,0.302L134.897,0.302L134.897,205.1L-121.103,205.1L-121.103,0.302ZM-121.103,307.178L134.897,307.178L134.897,511.978L-121.103,511.978L-121.103,307.178Z" style="fill:rgb(0,106,167);"/>
                <rect x="-121.103" y="204.984" width="256" height="102.4" style="fill:rgb(254,204,0);"/>
                <rect x="133.843" y="0.01" width="102.4" height="511.997" style="fill:rgb(254,204,0);"/>
                <rect x="232.995" y="205.013" width="460.798" height="102.4" style="fill:rgb(254,204,0);"/>
                <path d="M236.155,307.208L696.952,307.208L696.952,512.007L236.155,512.007L236.155,307.208ZM236.155,0.302L696.952,0.302L696.952,205.1L236.155,205.1L236.155,0.302Z" style="fill:rgb(0,106,167);"/>
            </g>
        </g>
    </g>
</svg>
