<?xml version="1.0" encoding="UTF-8" standalone="no"?>
<!DOCTYPE svg PUBLIC "-//W3C//DTD SVG 1.1//EN" "http://www.w3.org/Graphics/SVG/1.1/DTD/svg11.dtd">
<svg width="100%" height="100%" viewBox="0 0 640 480" version="1.1" xmlns="http://www.w3.org/2000/svg" xmlns:xlink="http://www.w3.org/1999/xlink" xml:space="preserve" xmlns:serif="http://www.serif.com/" style="fill-rule:evenodd;clip-rule:evenodd;stroke-linejoin:round;stroke-miterlimit:2;">
    <g transform="matrix(0.9375,0,0,0.9375,14.125,0)">
        <clipPath id="_clip1">
            <rect x="-15.067" y="0" width="682.67" height="512"/>
        </clipPath>
        <g clip-path="url(#_clip1)">
            <rect x="-62" y="0" width="1024" height="512" style="fill:white;"/>
            <rect x="-62" y="341.33" width="1024" height="170.67" style="fill:rgb(222,41,24);"/>
            <rect x="-62" y="170.67" width="1024" height="170.67" style="fill:rgb(8,57,156);"/>
            <path d="M228.37,92.976C224.35,154.627 222.048,188.412 212.661,204.046C202.511,220.835 192.636,233.127 153.031,247.928C113.421,233.118 103.551,220.828 93.398,204.038C84.011,188.408 81.708,154.628 77.689,92.978L83.542,91.007C95.325,87.413 104.116,84.523 110.619,83.24C119.932,81.269 127.847,79.04 152.876,78.518C177.905,78.948 185.859,81.315 195.172,83.286C201.622,84.661 210.789,87.367 222.484,91.03L228.368,92.978L228.37,92.976Z" style="fill:rgb(222,41,24);"/>
            <path d="M222.6,90.955C218.798,152.473 215.617,180.645 210.657,194.195C201.031,217.388 185.791,230.104 152.992,242.233C120.192,230.093 104.952,217.373 95.328,194.183C90.367,180.643 87.233,152.543 83.54,90.883C95.074,87.281 104.117,84.465 110.62,83.183C119.933,81.211 127.848,78.889 152.877,78.458C177.906,78.889 185.914,81.211 195.227,83.182C201.73,84.465 210.959,87.28 222.6,90.945L222.6,90.955Z" style="fill:rgb(8,57,156);"/>
            <path d="M152.96,109.79L154.533,113.513L161.443,114.46L156.965,117.16L161.295,120.054L154.997,121.109L153.081,124.483L150.925,121.009L144.93,120.159L149.01,117.201L144.81,114.51L151.445,113.493L152.96,109.79Z" style="fill:rgb(255,204,0);"/>
            <path d="M208.28,179.62L204.45,176.592L201.681,172.038L196.259,167.334L193.433,162.581L188.01,157.729L185.357,152.976L182.474,150.649L180.571,148.817L175.672,153.112L173.002,157.777L169.676,160.793L166.021,157.939L163.258,153.072L153,134.855L142.74,153.072L139.977,157.939L136.323,160.793L132.996,157.777L130.326,153.112L125.428,148.817L123.524,150.649L120.641,152.977L117.988,157.729L112.565,162.581L109.74,167.334L104.317,172.038L101.549,176.592L97.728,179.691C99.712,196.577 110.476,209.807 116.341,215.859C122.886,222.214 136.38,230.717 152.881,236.345C169.429,230.837 183.11,222.214 189.655,215.859C195.52,209.807 206.284,196.577 208.28,179.62Z" style="fill:white;"/>
            <path d="M169.45,83.89L171.023,87.613L177.933,88.56L173.455,91.26L177.785,94.154L171.487,95.209L169.571,98.583L167.415,95.109L161.42,94.259L165.5,91.301L161.3,88.61L167.935,87.593L169.45,83.89ZM136.47,83.834L138.043,87.557L144.953,88.504L140.475,91.204L144.805,94.098L138.507,95.153L136.591,98.527L134.435,95.053L128.44,94.203L132.52,91.245L128.32,88.554L134.955,87.537L136.47,83.834Z" style="fill:rgb(255,204,0);"/>
            <path d="M199.72,203.03L192.252,203.053L185.36,202.54L177.012,198.446L167.603,198.502L159.454,202.483L153.027,203.052L146.599,202.483L138.451,198.503L129.041,198.446L120.694,202.54L113.802,203.053L106.24,202.949L102.588,196.762L102.724,196.62L113.896,198.468L120.787,197.956L129.135,193.861L138.545,193.918L146.693,197.899L153.12,198.467L159.548,197.899L167.696,193.918L177.106,193.861L185.453,197.956L192.345,198.468L203.219,196.562L203.363,196.848L199.72,203.03ZM113.25,212.54L120.643,212.027L128.991,207.933L138.4,207.99L146.548,211.97L152.976,212.539L159.403,211.971L167.552,207.99L176.962,207.933L185.309,212.027L192.802,212.54L197.637,206.58L197.474,206.445L192.294,207.955L185.402,207.443L177.055,203.349L167.645,203.405L159.497,207.386L153.069,207.955L146.642,207.386L138.493,203.406L129.084,203.349L120.737,207.443L113.845,207.956L108.768,206.676L108.707,206.926L113.25,212.54Z" style="fill:rgb(8,57,156);"/>
        </g>
    </g>
</svg>
