<?xml version="1.0" encoding="UTF-8" standalone="no"?>
<!DOCTYPE svg PUBLIC "-//W3C//DTD SVG 1.1//EN" "http://www.w3.org/Graphics/SVG/1.1/DTD/svg11.dtd">
<svg width="100%" height="100%" viewBox="0 0 640 480" version="1.1" xmlns="http://www.w3.org/2000/svg" xmlns:xlink="http://www.w3.org/1999/xlink" xml:space="preserve" xmlns:serif="http://www.serif.com/" style="fill-rule:evenodd;clip-rule:evenodd;stroke-linejoin:round;stroke-miterlimit:2;">
    <rect x="0" y="0" width="640" height="480" style="fill:rgb(228,30,32);fill-rule:nonzero;"/>
    <path id="a" d="M272.09,93.316C267.423,93.236 259.677,94.804 259.85,98.386C246.85,96.158 245.496,101.528 246.26,106.306C247.497,104.41 249.003,103.38 250.16,103.186C251.894,102.898 253.708,103.458 255.56,104.596C257.413,105.734 259.454,107.57 260.36,108.706C255.772,109.803 252.227,109.096 248.63,108.466C246.857,108.156 244.376,107.158 242.9,106.126C241.425,105.093 240.96,104.122 238.64,101.746C235.905,98.946 232.993,99.733 233.9,104.086C235.998,108.128 239.503,109.931 243.92,110.656C246.046,111.006 249.212,111.762 252.8,111.766C256.39,111.77 260.418,111.246 262.61,111.706C261.293,112.533 259.803,113.958 256.85,114.526C253.848,115.103 249.283,112.74 246.5,112.096C246.854,114.436 249.807,116.626 255.62,117.766C265.174,119.846 273.112,121.426 278.36,124.276C283.608,127.126 286.917,130.691 289.28,133.486C293.983,139.046 294.23,143.316 294.53,144.256C295.498,153.141 292.4,158.14 286.64,159.676C283.76,160.444 278.646,158.998 276.77,156.796C274.895,154.596 273.07,150.811 273.59,144.886C274.096,142.561 276.754,136.506 274.49,135.256C264.063,129.493 251.4,123.666 242.24,120.196C239.737,119.248 237.674,122.651 236.87,123.976C221.308,122.081 207.276,111.55 200.96,100.336C196.66,92.699 189.57,100.352 190.76,107.566C192.685,115.618 198.82,121.44 206.18,125.566C213.735,129.726 223.178,133.819 232.73,133.606C237.877,134.58 237.826,141.238 231.65,142.486C219.573,142.563 209.938,142.261 200.84,133.486C193.94,127.186 190.056,134.693 192.05,138.946C195.43,152.058 214.136,155.73 233.06,151.486C240.388,150.273 236,158.126 233.93,158.206C226.023,163.876 211.867,169.423 199.4,158.146C193.695,153.778 189.838,157.45 191.96,163.756C197.492,180.198 218.652,176.746 233.18,168.646C236.92,166.562 240.313,171.411 235.76,175.096C217.693,187.72 208.66,187.864 200.51,183.016C190.308,178.992 189.41,190.309 195.47,194.026C202.206,198.158 219.346,195.06 231.92,187.156C237.31,183.148 237.555,189.416 234.14,191.896C219.218,204.792 213.336,208.188 197.78,206.086C190.067,205.486 190.182,214.996 196.25,218.716C204.535,223.796 220.714,215.363 233.27,204.946C238.555,202.122 239.423,206.753 236.81,212.236C229.138,221.916 221.937,227.623 215,230.266C208.064,232.909 201.392,232.488 196.67,230.866C190.91,228.886 190.188,234.873 193.37,240.316C195.29,243.596 203.24,244.648 211.82,241.606C220.402,238.563 229.615,231.426 235.94,223.066C241.444,218.246 240.76,224.72 238.25,229.276C225.584,249.3 214,256.728 198.74,255.466C191.975,254.316 190.438,259.578 194.75,264.436C202.322,270.716 211.79,270.518 220.07,264.316C227.432,257.218 241.515,241.936 248.9,233.746C254.105,229.596 255.767,233.686 254.24,242.116C252.852,246.942 249.375,252.026 239.9,255.736C233.428,259.43 238.288,264.521 243.14,264.616C245.81,264.666 251.232,261.546 255.38,256.876C260.837,250.731 261.162,246.606 264.17,237.046C267.013,232.386 272.09,234.56 272.09,239.446C269.655,249.022 267.563,250.739 262.64,254.656C257.932,259.076 265.92,260.55 268.61,258.736C276.396,253.486 279.24,246.699 281.84,240.526C283.718,236.07 289.165,238.23 286.64,245.506C280.606,262.894 270.69,269.74 253.34,273.256C251.582,273.568 250.51,274.606 251.12,276.646C253.45,279.063 255.782,281.256 258.11,283.666C247.382,286.789 238.666,288.544 227.93,291.676C222.663,288.223 218.408,285.293 213.14,281.836C211.75,278.589 211.104,273.633 203.33,277.126C198.063,274.693 195.633,275.586 192.71,278.026C196.93,278.183 198.766,279.313 200.42,281.236C202.58,286.926 207.56,287.476 212.66,285.856C215.977,288.65 217.744,290.794 221.06,293.596C214.87,293.384 210.556,293.274 204.38,293.086C198.485,286.756 193.78,287.103 189.56,292.066C186.344,292.56 184.98,292.63 182.78,296.536C186.24,295.116 188.42,294.69 189.92,296.236C196.188,299.87 200.282,299.059 203.39,296.236C209.437,296.606 214.886,296.919 220.94,297.316C218.716,299.206 215.664,300.209 213.44,302.116C204.358,299.518 199.618,303.016 198.02,310.426C196.803,313.418 196.233,316.496 196.76,319.696C197.64,316.77 199.053,314.254 201.65,312.676C209.745,314.733 212.79,311.428 213.23,306.586C217.132,303.403 223.016,302.701 226.91,299.476C231.463,300.934 233.665,301.836 238.25,303.286C239.88,308.241 243.57,310.202 249.56,308.926C256.69,309.15 255.432,312.076 256.01,314.416C257.905,311.056 257.852,307.786 253.46,304.816C251.862,300.476 248.322,298.5 243.68,301.006C239.31,299.766 238.163,297.983 233.81,296.746C244.82,293.236 252.63,292.448 263.63,288.946C266.384,291.544 268.566,293.409 271.34,295.726C272.802,296.599 274.202,296.819 275.06,295.726C281.954,285.749 285.033,276.956 291.44,270.376C293.888,267.654 296.98,263.982 300.41,263.086C302.125,262.639 304.228,262.912 305.57,264.376C306.913,265.841 307.968,268.54 307.52,272.566C306.878,278.346 305.482,280.171 303.86,283.636C302.24,287.102 300.257,289.233 298.22,291.886C294.147,297.193 288.772,300.282 285.59,302.356C279.228,306.506 276.537,304.689 271.61,304.426C265.243,305.141 263.55,308.242 268.76,312.526C273.632,315.061 278.01,315.374 281.57,314.716C284.626,314.151 288.202,310.206 290.75,308.086C293.618,304.773 298.374,308.702 295.13,312.556C289.237,319.559 283.347,324.176 276.08,324.076C268.444,325.104 269.872,329.396 274.94,331.486C284.06,335.251 292.297,328.2 296.48,323.566C299.708,320.036 302,319.896 301.43,325.366C298.226,335.266 293.847,339.092 286.7,339.586C280.903,339.048 280.84,343.523 285.08,346.546C294.738,353.231 301.732,341.846 305,334.966C307.33,328.759 310.9,331.711 311.27,336.826C311.32,343.661 308.23,349.241 299.96,356.236C306.288,366.318 313.665,376.572 320,386.686L339.205,172.793L320.005,138.999C318.005,137.152 311.242,129.184 309.475,128.079C308.831,127.389 308.439,126.903 309.385,126.549C310.301,126.205 312.445,125.819 313.885,125.559C309.813,121.479 306.325,120.171 298.615,117.939C300.495,117.139 302.321,117.604 307.855,117.339C305.658,114.219 300.751,109.443 294.415,107.139C298.599,104.163 299.415,103.964 303.565,100.479C296.378,99.969 290.24,98.599 284.065,96.729C280.161,94.902 274.738,93.352 272.095,93.309L272.09,93.316ZM272.78,101.686C276.58,101.686 278.93,102.988 278.93,104.566C278.93,106.172 276.58,107.476 272.78,107.476C268.998,107.476 266.6,106.053 266.6,104.446C266.6,102.868 268.998,101.686 272.78,101.686Z" style="fill-rule:nonzero;"/>
    <g id="a1" serif:id="a" transform="matrix(-1,0,0,1,640,0)">
        <path d="M272.09,93.316C267.423,93.236 259.677,94.804 259.85,98.386C246.85,96.158 245.496,101.528 246.26,106.306C247.497,104.41 249.003,103.38 250.16,103.186C251.894,102.898 253.708,103.458 255.56,104.596C257.413,105.734 259.454,107.57 260.36,108.706C255.772,109.803 252.227,109.096 248.63,108.466C246.857,108.156 244.376,107.158 242.9,106.126C241.425,105.093 240.96,104.122 238.64,101.746C235.905,98.946 232.993,99.733 233.9,104.086C235.998,108.128 239.503,109.931 243.92,110.656C246.046,111.006 249.212,111.762 252.8,111.766C256.39,111.77 260.418,111.246 262.61,111.706C261.293,112.533 259.803,113.958 256.85,114.526C253.848,115.103 249.283,112.74 246.5,112.096C246.854,114.436 249.807,116.626 255.62,117.766C265.174,119.846 273.112,121.426 278.36,124.276C283.608,127.126 286.917,130.691 289.28,133.486C293.983,139.046 294.23,143.316 294.53,144.256C295.498,153.141 292.4,158.14 286.64,159.676C283.76,160.444 278.646,158.998 276.77,156.796C274.895,154.596 273.07,150.811 273.59,144.886C274.096,142.561 276.754,136.506 274.49,135.256C264.063,129.493 251.4,123.666 242.24,120.196C239.737,119.248 237.674,122.651 236.87,123.976C221.308,122.081 207.276,111.55 200.96,100.336C196.66,92.699 189.57,100.352 190.76,107.566C192.685,115.618 198.82,121.44 206.18,125.566C213.735,129.726 223.178,133.819 232.73,133.606C237.877,134.58 237.826,141.238 231.65,142.486C219.573,142.563 209.938,142.261 200.84,133.486C193.94,127.186 190.056,134.693 192.05,138.946C195.43,152.058 214.136,155.73 233.06,151.486C240.388,150.273 236,158.126 233.93,158.206C226.023,163.876 211.867,169.423 199.4,158.146C193.695,153.778 189.838,157.45 191.96,163.756C197.492,180.198 218.652,176.746 233.18,168.646C236.92,166.562 240.313,171.411 235.76,175.096C217.693,187.72 208.66,187.864 200.51,183.016C190.308,178.992 189.41,190.309 195.47,194.026C202.206,198.158 219.346,195.06 231.92,187.156C237.31,183.148 237.555,189.416 234.14,191.896C219.218,204.792 213.336,208.188 197.78,206.086C190.067,205.486 190.182,214.996 196.25,218.716C204.535,223.796 220.714,215.363 233.27,204.946C238.555,202.122 239.423,206.753 236.81,212.236C229.138,221.916 221.937,227.623 215,230.266C208.064,232.909 201.392,232.488 196.67,230.866C190.91,228.886 190.188,234.873 193.37,240.316C195.29,243.596 203.24,244.648 211.82,241.606C220.402,238.563 229.615,231.426 235.94,223.066C241.444,218.246 240.76,224.72 238.25,229.276C225.584,249.3 214,256.728 198.74,255.466C191.975,254.316 190.438,259.578 194.75,264.436C202.322,270.716 211.79,270.518 220.07,264.316C227.432,257.218 241.515,241.936 248.9,233.746C254.105,229.596 255.767,233.686 254.24,242.116C252.852,246.942 249.375,252.026 239.9,255.736C233.428,259.43 238.288,264.521 243.14,264.616C245.81,264.666 251.232,261.546 255.38,256.876C260.837,250.731 261.162,246.606 264.17,237.046C267.013,232.386 272.09,234.56 272.09,239.446C269.655,249.022 267.563,250.739 262.64,254.656C257.932,259.076 265.92,260.55 268.61,258.736C276.396,253.486 279.24,246.699 281.84,240.526C283.718,236.07 289.165,238.23 286.64,245.506C280.606,262.894 270.69,269.74 253.34,273.256C251.582,273.568 250.51,274.606 251.12,276.646C253.45,279.063 255.782,281.256 258.11,283.666C247.382,286.789 238.666,288.544 227.93,291.676C222.663,288.223 218.408,285.293 213.14,281.836C211.75,278.589 211.104,273.633 203.33,277.126C198.063,274.693 195.633,275.586 192.71,278.026C196.93,278.183 198.766,279.313 200.42,281.236C202.58,286.926 207.56,287.476 212.66,285.856C215.977,288.65 217.744,290.794 221.06,293.596C214.87,293.384 210.556,293.274 204.38,293.086C198.485,286.756 193.78,287.103 189.56,292.066C186.344,292.56 184.98,292.63 182.78,296.536C186.24,295.116 188.42,294.69 189.92,296.236C196.188,299.87 200.282,299.059 203.39,296.236C209.437,296.606 214.886,296.919 220.94,297.316C218.716,299.206 215.664,300.209 213.44,302.116C204.358,299.518 199.618,303.016 198.02,310.426C196.803,313.418 196.233,316.496 196.76,319.696C197.64,316.77 199.053,314.254 201.65,312.676C209.745,314.733 212.79,311.428 213.23,306.586C217.132,303.403 223.016,302.701 226.91,299.476C231.463,300.934 233.665,301.836 238.25,303.286C239.88,308.241 243.57,310.202 249.56,308.926C256.69,309.15 255.432,312.076 256.01,314.416C257.905,311.056 257.852,307.786 253.46,304.816C251.862,300.476 248.322,298.5 243.68,301.006C239.31,299.766 238.163,297.983 233.81,296.746C244.82,293.236 252.63,292.448 263.63,288.946C266.384,291.544 268.566,293.409 271.34,295.726C272.802,296.599 274.202,296.819 275.06,295.726C281.954,285.749 285.033,276.956 291.44,270.376C293.888,267.654 296.98,263.982 300.41,263.086C302.125,262.639 304.228,262.912 305.57,264.376C306.913,265.841 307.968,268.54 307.52,272.566C306.878,278.346 305.482,280.171 303.86,283.636C302.24,287.102 300.257,289.233 298.22,291.886C294.147,297.193 288.772,300.282 285.59,302.356C279.228,306.506 276.537,304.689 271.61,304.426C265.243,305.141 263.55,308.242 268.76,312.526C273.632,315.061 278.01,315.374 281.57,314.716C284.626,314.151 288.202,310.206 290.75,308.086C293.618,304.773 298.374,308.702 295.13,312.556C289.237,319.559 283.347,324.176 276.08,324.076C268.444,325.104 269.872,329.396 274.94,331.486C284.06,335.251 292.297,328.2 296.48,323.566C299.708,320.036 302,319.896 301.43,325.366C298.226,335.266 293.847,339.092 286.7,339.586C280.903,339.048 280.84,343.523 285.08,346.546C294.738,353.231 301.732,341.846 305,334.966C307.33,328.759 310.9,331.711 311.27,336.826C311.32,343.661 308.23,349.241 299.96,356.236C306.288,366.318 313.665,376.572 320,386.686L339.205,172.793L320.005,138.999C318.005,137.152 311.242,129.184 309.475,128.079C308.831,127.389 308.439,126.903 309.385,126.549C310.301,126.205 312.445,125.819 313.885,125.559C309.813,121.479 306.325,120.171 298.615,117.939C300.495,117.139 302.321,117.604 307.855,117.339C305.658,114.219 300.751,109.443 294.415,107.139C298.599,104.163 299.415,103.964 303.565,100.479C296.378,99.969 290.24,98.599 284.065,96.729C280.161,94.902 274.738,93.352 272.095,93.309L272.09,93.316ZM272.78,101.686C276.58,101.686 278.93,102.988 278.93,104.566C278.93,106.172 276.58,107.476 272.78,107.476C268.998,107.476 266.6,106.053 266.6,104.446C266.6,102.868 268.998,101.686 272.78,101.686Z" style="fill-rule:nonzero;"/>
    </g>
</svg>
