<?xml version="1.0" encoding="UTF-8" standalone="no"?>
<!DOCTYPE svg PUBLIC "-//W3C//DTD SVG 1.1//EN" "http://www.w3.org/Graphics/SVG/1.1/DTD/svg11.dtd">
<svg width="100%" height="100%" viewBox="0 0 640 480" version="1.1" xmlns="http://www.w3.org/2000/svg" xmlns:xlink="http://www.w3.org/1999/xlink" xml:space="preserve" xmlns:serif="http://www.serif.com/" style="fill-rule:evenodd;clip-rule:evenodd;stroke-linejoin:round;stroke-miterlimit:2;">
    <g transform="matrix(0.9375,0,0,0.9375,79.98,0)">
        <clipPath id="_clip1">
            <rect x="-85.311" y="0" width="682.67" height="512"/>
        </clipPath>
        <g clip-path="url(#_clip1)">
            <rect x="-191.96" y="0" width="896" height="512" style="fill:white;"/>
            <rect x="-191.96" y="343.84" width="896" height="168.16" style="fill:rgb(218,0,0);"/>
            <g>
                <path d="M-21.628,350.958L27.442,350.958L27.442,354.335L-21.628,354.335L-21.628,350.958ZM-14.312,367.842L-10.935,367.842L-10.935,371.122L-14.312,371.122L-14.312,367.842ZM27.57,367.736L27.57,371.113L17.763,371.113L17.763,367.736L27.57,367.736ZM32.844,350.958L36.221,350.958L36.221,371.118L32.844,371.118L32.844,350.958Z" style="fill:white;"/>
                <path d="M52.379,367.736L52.379,371.113L33.794,371.113L33.794,367.736L52.379,367.736ZM17.763,359.849L21.14,359.849L21.14,371.119L17.763,371.119L17.763,359.849Z" style="fill:white;"/>
                <path d="M49.614,350.958L52.991,350.958L52.991,371.118L49.614,371.118L49.614,350.958ZM41.172,350.958L44.549,350.958L44.549,371.118L41.172,371.118L41.172,350.958ZM-3.627,358.982L-3.627,362.359L-21.537,362.359L-21.537,358.982L-3.627,358.982ZM35.673,358.982L35.673,362.359L17.763,362.359L17.763,358.982L35.673,358.982Z" style="fill:white;"/>
                <rect x="17.763" y="359.849" width="3.377" height="11.27" style="fill:white;"/>
                <rect x="17.763" y="359.849" width="3.377" height="11.27" style="fill:white;"/>
                <path d="M17.763,359.849L21.14,359.849L21.14,371.119L17.763,371.119L17.763,359.849ZM-21.537,359.849L-18.16,359.849L-18.16,371.119L-21.537,371.119L-21.537,359.849ZM7.27,359.849L10.646,359.849L10.646,371.119L7.27,371.119L7.27,359.849ZM-7.002,359.849L-3.625,359.849L-3.625,371.119L-7.002,371.119L-7.002,359.849Z" style="fill:white;"/>
                <path d="M9.639,367.736L9.639,371.113L-5.501,371.113L-5.501,367.736L9.639,367.736ZM10.646,358.982L10.646,362.359L1.048,362.359L1.048,358.982L10.646,358.982Z" style="fill:white;"/>
            </g>
            <g>
                <path d="M-102.228,350.958L-53.158,350.958L-53.158,354.335L-102.228,354.335L-102.228,350.958ZM-94.912,367.842L-91.535,367.842L-91.535,371.122L-94.912,371.122L-94.912,367.842ZM-53.03,367.736L-53.03,371.113L-62.837,371.113L-62.837,367.736L-53.03,367.736ZM-47.756,350.958L-44.379,350.958L-44.379,371.118L-47.756,371.118L-47.756,350.958Z" style="fill:white;"/>
                <path d="M-28.221,367.736L-28.221,371.113L-46.806,371.113L-46.806,367.736L-28.221,367.736ZM-62.837,359.849L-59.46,359.849L-59.46,371.119L-62.837,371.119L-62.837,359.849Z" style="fill:white;"/>
                <path d="M-30.986,350.958L-27.609,350.958L-27.609,371.118L-30.986,371.118L-30.986,350.958ZM-39.428,350.958L-36.051,350.958L-36.051,371.118L-39.428,371.118L-39.428,350.958ZM-84.227,358.982L-84.227,362.359L-102.137,362.359L-102.137,358.982L-84.227,358.982ZM-44.927,358.982L-44.927,362.359L-62.837,362.359L-62.837,358.982L-44.927,358.982Z" style="fill:white;"/>
                <rect x="-62.837" y="359.849" width="3.377" height="11.27" style="fill:white;"/>
                <rect x="-62.837" y="359.849" width="3.377" height="11.27" style="fill:white;"/>
                <path d="M-62.837,359.849L-59.46,359.849L-59.46,371.119L-62.837,371.119L-62.837,359.849ZM-102.137,359.849L-98.76,359.849L-98.76,371.119L-102.137,371.119L-102.137,359.849ZM-73.33,359.849L-69.954,359.849L-69.954,371.119L-73.331,371.119L-73.33,359.849ZM-87.602,359.849L-84.225,359.849L-84.225,371.119L-87.602,371.119L-87.602,359.849Z" style="fill:white;"/>
                <path d="M-70.961,367.736L-70.961,371.113L-86.101,371.113L-86.101,367.736L-70.961,367.736ZM-69.954,358.982L-69.954,362.359L-79.552,362.359L-79.552,358.982L-69.954,358.982Z" style="fill:white;"/>
            </g>
            <g>
                <path d="M58.297,350.958L107.367,350.958L107.367,354.335L58.297,354.335L58.297,350.958ZM65.613,367.842L68.989,367.842L68.989,371.122L65.613,371.122L65.613,367.842ZM107.494,367.736L107.494,371.113L97.687,371.113L97.687,367.736L107.494,367.736ZM112.769,350.958L116.146,350.958L116.146,371.118L112.769,371.118L112.769,350.958Z" style="fill:white;"/>
                <path d="M132.303,367.736L132.303,371.113L113.72,371.113L113.72,367.736L132.303,367.736ZM97.687,359.849L101.064,359.849L101.064,371.119L97.687,371.119L97.687,359.849Z" style="fill:white;"/>
                <path d="M129.539,350.958L132.916,350.958L132.916,371.118L129.539,371.118L129.539,350.958ZM121.097,350.958L124.474,350.958L124.474,371.118L121.097,371.118L121.097,350.958ZM76.298,358.982L76.298,362.359L58.388,362.359L58.388,358.982L76.298,358.982ZM115.597,358.982L115.597,362.359L97.687,362.359L97.687,358.982L115.597,358.982Z" style="fill:white;"/>
                <rect x="97.687" y="359.849" width="3.377" height="11.27" style="fill:white;"/>
                <rect x="97.687" y="359.849" width="3.377" height="11.27" style="fill:white;"/>
                <path d="M97.687,359.849L101.064,359.849L101.064,371.119L97.687,371.119L97.687,359.849ZM58.388,359.849L61.765,359.849L61.765,371.119L58.388,371.119L58.388,359.849ZM87.194,359.849L90.571,359.849L90.571,371.119L87.194,371.119L87.194,359.849ZM72.922,359.849L76.3,359.849L76.3,371.119L72.923,371.119L72.922,359.849Z" style="fill:white;"/>
                <path d="M89.563,367.736L89.563,371.113L74.423,371.113L74.423,367.736L89.563,367.736ZM90.57,358.982L90.57,362.359L80.972,362.359L80.972,358.982L90.57,358.982Z" style="fill:white;"/>
            </g>
            <g>
                <path d="M138.742,350.958L187.812,350.958L187.812,354.335L138.742,354.335L138.742,350.958ZM146.058,367.842L149.435,367.842L149.435,371.122L146.058,371.122L146.058,367.842ZM187.94,367.736L187.94,371.113L178.133,371.113L178.133,367.736L187.94,367.736ZM193.214,350.958L196.591,350.958L196.591,371.118L193.214,371.118L193.214,350.958Z" style="fill:white;"/>
                <path d="M212.749,367.736L212.749,371.113L194.164,371.113L194.164,367.736L212.749,367.736ZM178.133,359.849L181.51,359.849L181.51,371.119L178.133,371.119L178.133,359.849Z" style="fill:white;"/>
                <path d="M209.984,350.958L213.361,350.958L213.361,371.118L209.984,371.118L209.984,350.958ZM201.542,350.958L204.919,350.958L204.919,371.118L201.542,371.118L201.542,350.958ZM156.743,358.982L156.743,362.359L138.833,362.359L138.833,358.982L156.743,358.982ZM196.043,358.982L196.043,362.359L178.133,362.359L178.133,358.982L196.043,358.982Z" style="fill:white;"/>
                <rect x="178.133" y="359.849" width="3.377" height="11.27" style="fill:white;"/>
                <rect x="178.133" y="359.849" width="3.377" height="11.27" style="fill:white;"/>
                <path d="M178.133,359.849L181.51,359.849L181.51,371.119L178.133,371.119L178.133,359.849ZM138.833,359.849L142.21,359.849L142.21,371.119L138.833,371.119L138.833,359.849ZM167.64,359.849L171.016,359.849L171.016,371.119L167.639,371.119L167.64,359.849ZM153.368,359.849L156.745,359.849L156.745,371.119L153.368,371.119L153.368,359.849Z" style="fill:white;"/>
                <path d="M170.009,367.736L170.009,371.113L154.869,371.113L154.869,367.736L170.009,367.736ZM171.016,358.982L171.016,362.359L161.418,362.359L161.418,358.982L171.016,358.982Z" style="fill:white;"/>
            </g>
            <g>
                <path d="M219.482,350.958L268.552,350.958L268.552,354.335L219.482,354.335L219.482,350.958ZM226.798,367.842L230.175,367.842L230.175,371.122L226.798,371.122L226.798,367.842ZM268.68,367.736L268.68,371.113L258.873,371.113L258.873,367.736L268.68,367.736ZM273.954,350.958L277.331,350.958L277.331,371.118L273.954,371.118L273.954,350.958Z" style="fill:white;"/>
                <path d="M293.489,367.736L293.489,371.113L274.904,371.113L274.904,367.736L293.489,367.736ZM258.873,359.849L262.25,359.849L262.25,371.119L258.873,371.119L258.873,359.849Z" style="fill:white;"/>
                <path d="M290.724,350.958L294.101,350.958L294.101,371.118L290.724,371.118L290.724,350.958ZM282.282,350.958L285.659,350.958L285.659,371.118L282.282,371.118L282.282,350.958ZM237.483,358.982L237.483,362.359L219.573,362.359L219.573,358.982L237.483,358.982ZM276.783,358.982L276.783,362.359L258.873,362.359L258.873,358.982L276.783,358.982Z" style="fill:white;"/>
                <rect x="258.873" y="359.849" width="3.377" height="11.27" style="fill:white;"/>
                <rect x="258.873" y="359.849" width="3.377" height="11.27" style="fill:white;"/>
                <path d="M258.873,359.849L262.25,359.849L262.25,371.119L258.873,371.119L258.873,359.849ZM219.573,359.849L222.95,359.849L222.95,371.119L219.573,371.119L219.573,359.849ZM248.38,359.849L251.756,359.849L251.756,371.119L248.379,371.119L248.38,359.849ZM234.108,359.849L237.485,359.849L237.485,371.119L234.108,371.119L234.108,359.849Z" style="fill:white;"/>
                <path d="M250.749,367.736L250.749,371.113L235.609,371.113L235.609,367.736L250.749,367.736ZM251.756,358.982L251.756,362.359L242.158,362.359L242.158,358.982L251.756,358.982Z" style="fill:white;"/>
            </g>
            <rect x="-191.96" y="0" width="896" height="168.16" style="fill:rgb(35,159,64);"/>
            <g>
                <path d="M300.692,350.958L349.762,350.958L349.762,354.335L300.692,354.335L300.692,350.958ZM308.008,367.842L311.385,367.842L311.385,371.122L308.008,371.122L308.008,367.842ZM349.89,367.736L349.89,371.113L340.083,371.113L340.083,367.736L349.89,367.736ZM355.164,350.958L358.541,350.958L358.541,371.118L355.164,371.118L355.164,350.958Z" style="fill:white;"/>
                <path d="M374.699,367.736L374.699,371.113L356.114,371.113L356.114,367.736L374.699,367.736ZM340.083,359.849L343.46,359.849L343.46,371.119L340.083,371.119L340.083,359.849Z" style="fill:white;"/>
                <path d="M371.934,350.958L375.311,350.958L375.311,371.118L371.934,371.118L371.934,350.958ZM363.492,350.958L366.869,350.958L366.869,371.118L363.492,371.118L363.492,350.958ZM318.693,358.982L318.693,362.359L300.783,362.359L300.783,358.982L318.693,358.982ZM357.993,358.982L357.993,362.359L340.083,362.359L340.083,358.982L357.993,358.982Z" style="fill:white;"/>
                <rect x="340.083" y="359.849" width="3.377" height="11.27" style="fill:white;"/>
                <rect x="340.083" y="359.849" width="3.377" height="11.27" style="fill:white;"/>
                <path d="M340.083,359.849L343.46,359.849L343.46,371.119L340.083,371.119L340.083,359.849ZM300.783,359.849L304.16,359.849L304.16,371.119L300.783,371.119L300.783,359.849ZM329.59,359.849L332.966,359.849L332.966,371.119L329.589,371.119L329.59,359.849ZM315.318,359.849L318.695,359.849L318.695,371.119L315.318,371.119L315.318,359.849Z" style="fill:white;"/>
                <path d="M331.959,367.736L331.959,371.113L316.819,371.113L316.819,367.736L331.959,367.736ZM332.966,358.982L332.966,362.359L323.368,362.359L323.368,358.982L332.966,358.982Z" style="fill:white;"/>
            </g>
            <g>
                <path d="M381.422,350.958L430.492,350.958L430.492,354.335L381.422,354.335L381.422,350.958ZM388.738,367.842L392.115,367.842L392.115,371.122L388.738,371.122L388.738,367.842ZM430.62,367.736L430.62,371.113L420.813,371.113L420.813,367.736L430.62,367.736ZM435.894,350.958L439.271,350.958L439.271,371.118L435.894,371.118L435.894,350.958Z" style="fill:white;"/>
                <path d="M455.429,367.736L455.429,371.113L436.844,371.113L436.844,367.736L455.429,367.736ZM420.813,359.849L424.19,359.849L424.19,371.119L420.813,371.119L420.813,359.849Z" style="fill:white;"/>
                <path d="M452.664,350.958L456.041,350.958L456.041,371.118L452.664,371.118L452.664,350.958ZM444.222,350.958L447.599,350.958L447.599,371.118L444.222,371.118L444.222,350.958ZM399.423,358.982L399.423,362.359L381.513,362.359L381.513,358.982L399.423,358.982ZM438.723,358.982L438.723,362.359L420.813,362.359L420.813,358.982L438.723,358.982Z" style="fill:white;"/>
                <rect x="420.813" y="359.849" width="3.377" height="11.27" style="fill:white;"/>
                <rect x="420.813" y="359.849" width="3.377" height="11.27" style="fill:white;"/>
                <path d="M420.813,359.849L424.19,359.849L424.19,371.119L420.813,371.119L420.813,359.849ZM381.513,359.849L384.89,359.849L384.89,371.119L381.513,371.119L381.513,359.849ZM410.32,359.849L413.696,359.849L413.696,371.119L410.319,371.119L410.32,359.849ZM396.048,359.849L399.425,359.849L399.425,371.119L396.048,371.119L396.048,359.849Z" style="fill:white;"/>
                <path d="M412.689,367.736L412.689,371.113L397.549,371.113L397.549,367.736L412.689,367.736ZM413.696,358.982L413.696,362.359L404.098,362.359L404.098,358.982L413.696,358.982Z" style="fill:white;"/>
            </g>
            <g>
                <path d="M462.162,350.958L511.232,350.958L511.232,354.335L462.162,354.335L462.162,350.958ZM469.478,367.842L472.855,367.842L472.855,371.122L469.478,371.122L469.478,367.842ZM511.36,367.736L511.36,371.113L501.553,371.113L501.553,367.736L511.36,367.736ZM516.634,350.958L520.011,350.958L520.011,371.118L516.634,371.118L516.634,350.958Z" style="fill:white;"/>
                <path d="M536.169,367.736L536.169,371.113L517.584,371.113L517.584,367.736L536.169,367.736ZM501.553,359.849L504.93,359.849L504.93,371.119L501.553,371.119L501.553,359.849Z" style="fill:white;"/>
                <path d="M533.404,350.958L536.781,350.958L536.781,371.118L533.404,371.118L533.404,350.958ZM524.962,350.958L528.339,350.958L528.339,371.118L524.962,371.118L524.962,350.958ZM480.163,358.982L480.163,362.359L462.253,362.359L462.253,358.982L480.163,358.982ZM519.463,358.982L519.463,362.359L501.553,362.359L501.553,358.982L519.463,358.982Z" style="fill:white;"/>
                <rect x="501.553" y="359.849" width="3.377" height="11.27" style="fill:white;"/>
                <rect x="501.553" y="359.849" width="3.377" height="11.27" style="fill:white;"/>
                <path d="M501.553,359.849L504.93,359.849L504.93,371.119L501.553,371.119L501.553,359.849ZM462.253,359.849L465.63,359.849L465.63,371.119L462.253,371.119L462.253,359.849ZM491.06,359.849L494.436,359.849L494.436,371.119L491.059,371.119L491.06,359.849ZM476.788,359.849L480.165,359.849L480.165,371.119L476.788,371.119L476.788,359.849Z" style="fill:white;"/>
                <path d="M493.429,367.736L493.429,371.113L478.289,371.113L478.289,367.736L493.429,367.736ZM494.436,358.982L494.436,362.359L484.838,362.359L484.838,358.982L494.436,358.982Z" style="fill:white;"/>
            </g>
            <g>
                <path d="M543.372,350.958L592.442,350.958L592.442,354.335L543.372,354.335L543.372,350.958ZM550.688,367.842L554.065,367.842L554.065,371.122L550.688,371.122L550.688,367.842ZM592.57,367.736L592.57,371.113L582.763,371.113L582.763,367.736L592.57,367.736ZM597.844,350.958L601.221,350.958L601.221,371.118L597.844,371.118L597.844,350.958Z" style="fill:white;"/>
                <path d="M617.379,367.736L617.379,371.113L598.794,371.113L598.794,367.736L617.379,367.736ZM582.763,359.849L586.14,359.849L586.14,371.119L582.763,371.119L582.763,359.849Z" style="fill:white;"/>
                <path d="M614.614,350.958L617.991,350.958L617.991,371.118L614.614,371.118L614.614,350.958ZM606.172,350.958L609.549,350.958L609.549,371.118L606.172,371.118L606.172,350.958ZM561.373,358.982L561.373,362.359L543.463,362.359L543.463,358.982L561.373,358.982ZM600.673,358.982L600.673,362.359L582.763,362.359L582.763,358.982L600.673,358.982Z" style="fill:white;"/>
                <rect x="582.763" y="359.849" width="3.377" height="11.27" style="fill:white;"/>
                <rect x="582.763" y="359.849" width="3.377" height="11.27" style="fill:white;"/>
                <path d="M582.763,359.849L586.14,359.849L586.14,371.119L582.763,371.119L582.763,359.849ZM543.463,359.849L546.84,359.849L546.84,371.119L543.463,371.119L543.463,359.849ZM572.27,359.849L575.646,359.849L575.646,371.119L572.269,371.119L572.27,359.849ZM557.998,359.849L561.375,359.849L561.375,371.119L557.998,371.119L557.998,359.849Z" style="fill:white;"/>
                <path d="M574.639,367.736L574.639,371.113L559.499,371.113L559.499,367.736L574.639,367.736ZM575.646,358.982L575.646,362.359L566.048,362.359L566.048,358.982L575.646,358.982Z" style="fill:white;"/>
            </g>
            <g>
                <path d="M-21.628,143.442L27.442,143.442L27.442,146.819L-21.628,146.819L-21.628,143.442ZM-14.312,160.326L-10.935,160.326L-10.935,163.606L-14.312,163.606L-14.312,160.326ZM27.57,160.22L27.57,163.597L17.763,163.597L17.763,160.22L27.57,160.22ZM32.844,143.442L36.221,143.442L36.221,163.602L32.844,163.602L32.844,143.442Z" style="fill:white;"/>
                <path d="M52.379,160.22L52.379,163.597L33.794,163.597L33.794,160.22L52.379,160.22ZM17.763,152.333L21.14,152.333L21.14,163.603L17.763,163.603L17.763,152.333Z" style="fill:white;"/>
                <path d="M49.614,143.442L52.991,143.442L52.991,163.602L49.614,163.602L49.614,143.442ZM41.172,143.442L44.549,143.442L44.549,163.602L41.172,163.602L41.172,143.442ZM-3.627,151.466L-3.627,154.843L-21.537,154.843L-21.537,151.466L-3.627,151.466ZM35.673,151.466L35.673,154.843L17.763,154.843L17.763,151.466L35.673,151.466Z" style="fill:white;"/>
                <rect x="17.763" y="152.333" width="3.377" height="11.27" style="fill:white;"/>
                <rect x="17.763" y="152.333" width="3.377" height="11.27" style="fill:white;"/>
                <path d="M17.763,152.333L21.14,152.333L21.14,163.603L17.763,163.603L17.763,152.333ZM-21.537,152.333L-18.16,152.333L-18.16,163.603L-21.537,163.603L-21.537,152.333ZM7.27,152.333L10.646,152.333L10.646,163.603L7.27,163.603L7.27,152.333ZM-7.002,152.333L-3.625,152.333L-3.625,163.603L-7.002,163.603L-7.002,152.333Z" style="fill:white;"/>
                <path d="M9.639,160.22L9.639,163.597L-5.501,163.597L-5.501,160.22L9.639,160.22ZM10.646,151.466L10.646,154.843L1.048,154.843L1.048,151.466L10.646,151.466Z" style="fill:white;"/>
            </g>
            <g>
                <path d="M-102.228,143.442L-53.158,143.442L-53.158,146.819L-102.228,146.819L-102.228,143.442ZM-94.912,160.326L-91.535,160.326L-91.535,163.606L-94.912,163.606L-94.912,160.326ZM-53.03,160.22L-53.03,163.597L-62.837,163.597L-62.837,160.22L-53.03,160.22ZM-47.756,143.442L-44.379,143.442L-44.379,163.602L-47.756,163.602L-47.756,143.442Z" style="fill:white;"/>
                <path d="M-28.221,160.22L-28.221,163.597L-46.806,163.597L-46.806,160.22L-28.221,160.22ZM-62.837,152.333L-59.46,152.333L-59.46,163.603L-62.837,163.603L-62.837,152.333Z" style="fill:white;"/>
                <path d="M-30.986,143.442L-27.609,143.442L-27.609,163.602L-30.986,163.602L-30.986,143.442ZM-39.428,143.442L-36.051,143.442L-36.051,163.602L-39.428,163.602L-39.428,143.442ZM-84.227,151.466L-84.227,154.843L-102.137,154.843L-102.137,151.466L-84.227,151.466ZM-44.927,151.466L-44.927,154.843L-62.837,154.843L-62.837,151.466L-44.927,151.466Z" style="fill:white;"/>
                <rect x="-62.837" y="152.333" width="3.377" height="11.27" style="fill:white;"/>
                <rect x="-62.837" y="152.333" width="3.377" height="11.27" style="fill:white;"/>
                <path d="M-62.837,152.333L-59.46,152.333L-59.46,163.603L-62.837,163.603L-62.837,152.333ZM-102.137,152.333L-98.76,152.333L-98.76,163.603L-102.137,163.603L-102.137,152.333ZM-73.33,152.333L-69.954,152.333L-69.954,163.603L-73.331,163.603L-73.33,152.333ZM-87.602,152.333L-84.225,152.333L-84.225,163.603L-87.602,163.603L-87.602,152.333Z" style="fill:white;"/>
                <path d="M-70.961,160.22L-70.961,163.597L-86.101,163.597L-86.101,160.22L-70.961,160.22ZM-69.954,151.466L-69.954,154.843L-79.552,154.843L-79.552,151.466L-69.954,151.466Z" style="fill:white;"/>
            </g>
            <g>
                <path d="M58.297,143.442L107.367,143.442L107.367,146.819L58.297,146.819L58.297,143.442ZM65.613,160.326L68.989,160.326L68.989,163.606L65.613,163.606L65.613,160.326ZM107.494,160.22L107.494,163.597L97.687,163.597L97.687,160.22L107.494,160.22ZM112.769,143.442L116.146,143.442L116.146,163.602L112.769,163.602L112.769,143.442Z" style="fill:white;"/>
                <path d="M132.303,160.22L132.303,163.597L113.72,163.597L113.72,160.22L132.303,160.22ZM97.687,152.333L101.064,152.333L101.064,163.603L97.687,163.603L97.687,152.333Z" style="fill:white;"/>
                <path d="M129.539,143.442L132.916,143.442L132.916,163.602L129.539,163.602L129.539,143.442ZM121.097,143.442L124.474,143.442L124.474,163.602L121.097,163.602L121.097,143.442ZM76.298,151.466L76.298,154.843L58.388,154.843L58.388,151.466L76.298,151.466ZM115.597,151.466L115.597,154.843L97.687,154.843L97.687,151.466L115.597,151.466Z" style="fill:white;"/>
                <rect x="97.687" y="152.333" width="3.377" height="11.27" style="fill:white;"/>
                <rect x="97.687" y="152.333" width="3.377" height="11.27" style="fill:white;"/>
                <path d="M97.687,152.333L101.064,152.333L101.064,163.603L97.687,163.603L97.687,152.333ZM58.388,152.333L61.765,152.333L61.765,163.603L58.388,163.603L58.388,152.333ZM87.194,152.333L90.571,152.333L90.571,163.603L87.194,163.603L87.194,152.333ZM72.922,152.333L76.3,152.333L76.3,163.603L72.923,163.603L72.922,152.333Z" style="fill:white;"/>
                <path d="M89.563,160.22L89.563,163.597L74.423,163.597L74.423,160.22L89.563,160.22ZM90.57,151.466L90.57,154.843L80.972,154.843L80.972,151.466L90.57,151.466Z" style="fill:white;"/>
            </g>
            <g>
                <path d="M138.742,143.442L187.812,143.442L187.812,146.819L138.742,146.819L138.742,143.442ZM146.058,160.326L149.435,160.326L149.435,163.606L146.058,163.606L146.058,160.326ZM187.94,160.22L187.94,163.597L178.133,163.597L178.133,160.22L187.94,160.22ZM193.214,143.442L196.591,143.442L196.591,163.602L193.214,163.602L193.214,143.442Z" style="fill:white;"/>
                <path d="M212.749,160.22L212.749,163.597L194.164,163.597L194.164,160.22L212.749,160.22ZM178.133,152.333L181.51,152.333L181.51,163.603L178.133,163.603L178.133,152.333Z" style="fill:white;"/>
                <path d="M209.984,143.442L213.361,143.442L213.361,163.602L209.984,163.602L209.984,143.442ZM201.542,143.442L204.919,143.442L204.919,163.602L201.542,163.602L201.542,143.442ZM156.743,151.466L156.743,154.843L138.833,154.843L138.833,151.466L156.743,151.466ZM196.043,151.466L196.043,154.843L178.133,154.843L178.133,151.466L196.043,151.466Z" style="fill:white;"/>
                <rect x="178.133" y="152.333" width="3.377" height="11.27" style="fill:white;"/>
                <rect x="178.133" y="152.333" width="3.377" height="11.27" style="fill:white;"/>
                <path d="M178.133,152.333L181.51,152.333L181.51,163.603L178.133,163.603L178.133,152.333ZM138.833,152.333L142.21,152.333L142.21,163.603L138.833,163.603L138.833,152.333ZM167.64,152.333L171.016,152.333L171.016,163.603L167.639,163.603L167.64,152.333ZM153.368,152.333L156.745,152.333L156.745,163.603L153.368,163.603L153.368,152.333Z" style="fill:white;"/>
                <path d="M170.009,160.22L170.009,163.597L154.869,163.597L154.869,160.22L170.009,160.22ZM171.016,151.466L171.016,154.843L161.418,154.843L161.418,151.466L171.016,151.466Z" style="fill:white;"/>
            </g>
            <g>
                <path d="M219.482,143.442L268.552,143.442L268.552,146.819L219.482,146.819L219.482,143.442ZM226.798,160.326L230.175,160.326L230.175,163.606L226.798,163.606L226.798,160.326ZM268.68,160.22L268.68,163.597L258.873,163.597L258.873,160.22L268.68,160.22ZM273.954,143.442L277.331,143.442L277.331,163.602L273.954,163.602L273.954,143.442Z" style="fill:white;"/>
                <path d="M293.489,160.22L293.489,163.597L274.904,163.597L274.904,160.22L293.489,160.22ZM258.873,152.333L262.25,152.333L262.25,163.603L258.873,163.603L258.873,152.333Z" style="fill:white;"/>
                <path d="M290.724,143.442L294.101,143.442L294.101,163.602L290.724,163.602L290.724,143.442ZM282.282,143.442L285.659,143.442L285.659,163.602L282.282,163.602L282.282,143.442ZM237.483,151.466L237.483,154.843L219.573,154.843L219.573,151.466L237.483,151.466ZM276.783,151.466L276.783,154.843L258.873,154.843L258.873,151.466L276.783,151.466Z" style="fill:white;"/>
                <rect x="258.873" y="152.333" width="3.377" height="11.27" style="fill:white;"/>
                <rect x="258.873" y="152.333" width="3.377" height="11.27" style="fill:white;"/>
                <path d="M258.873,152.333L262.25,152.333L262.25,163.603L258.873,163.603L258.873,152.333ZM219.573,152.333L222.95,152.333L222.95,163.603L219.573,163.603L219.573,152.333ZM248.38,152.333L251.756,152.333L251.756,163.603L248.379,163.603L248.38,152.333ZM234.108,152.333L237.485,152.333L237.485,163.603L234.108,163.603L234.108,152.333Z" style="fill:white;"/>
                <path d="M250.749,160.22L250.749,163.597L235.609,163.597L235.609,160.22L250.749,160.22ZM251.756,151.466L251.756,154.843L242.158,154.843L242.158,151.466L251.756,151.466Z" style="fill:white;"/>
            </g>
            <g>
                <path d="M300.692,143.442L349.762,143.442L349.762,146.819L300.692,146.819L300.692,143.442ZM308.008,160.326L311.385,160.326L311.385,163.606L308.008,163.606L308.008,160.326ZM349.89,160.22L349.89,163.597L340.083,163.597L340.083,160.22L349.89,160.22ZM355.164,143.442L358.541,143.442L358.541,163.602L355.164,163.602L355.164,143.442Z" style="fill:white;"/>
                <path d="M374.699,160.22L374.699,163.597L356.114,163.597L356.114,160.22L374.699,160.22ZM340.083,152.333L343.46,152.333L343.46,163.603L340.083,163.603L340.083,152.333Z" style="fill:white;"/>
                <path d="M371.934,143.442L375.311,143.442L375.311,163.602L371.934,163.602L371.934,143.442ZM363.492,143.442L366.869,143.442L366.869,163.602L363.492,163.602L363.492,143.442ZM318.693,151.466L318.693,154.843L300.783,154.843L300.783,151.466L318.693,151.466ZM357.993,151.466L357.993,154.843L340.083,154.843L340.083,151.466L357.993,151.466Z" style="fill:white;"/>
                <rect x="340.083" y="152.333" width="3.377" height="11.27" style="fill:white;"/>
                <rect x="340.083" y="152.333" width="3.377" height="11.27" style="fill:white;"/>
                <path d="M340.083,152.333L343.46,152.333L343.46,163.603L340.083,163.603L340.083,152.333ZM300.783,152.333L304.16,152.333L304.16,163.603L300.783,163.603L300.783,152.333ZM329.59,152.333L332.966,152.333L332.966,163.603L329.589,163.603L329.59,152.333ZM315.318,152.333L318.695,152.333L318.695,163.603L315.318,163.603L315.318,152.333Z" style="fill:white;"/>
                <path d="M331.959,160.22L331.959,163.597L316.819,163.597L316.819,160.22L331.959,160.22ZM332.966,151.466L332.966,154.843L323.368,154.843L323.368,151.466L332.966,151.466Z" style="fill:white;"/>
            </g>
            <g>
                <path d="M381.422,143.442L430.492,143.442L430.492,146.819L381.422,146.819L381.422,143.442ZM388.738,160.326L392.115,160.326L392.115,163.606L388.738,163.606L388.738,160.326ZM430.62,160.22L430.62,163.597L420.813,163.597L420.813,160.22L430.62,160.22ZM435.894,143.442L439.271,143.442L439.271,163.602L435.894,163.602L435.894,143.442Z" style="fill:white;"/>
                <path d="M455.429,160.22L455.429,163.597L436.844,163.597L436.844,160.22L455.429,160.22ZM420.813,152.333L424.19,152.333L424.19,163.603L420.813,163.603L420.813,152.333Z" style="fill:white;"/>
                <path d="M452.664,143.442L456.041,143.442L456.041,163.602L452.664,163.602L452.664,143.442ZM444.222,143.442L447.599,143.442L447.599,163.602L444.222,163.602L444.222,143.442ZM399.423,151.466L399.423,154.843L381.513,154.843L381.513,151.466L399.423,151.466ZM438.723,151.466L438.723,154.843L420.813,154.843L420.813,151.466L438.723,151.466Z" style="fill:white;"/>
                <rect x="420.813" y="152.333" width="3.377" height="11.27" style="fill:white;"/>
                <rect x="420.813" y="152.333" width="3.377" height="11.27" style="fill:white;"/>
                <path d="M420.813,152.333L424.19,152.333L424.19,163.603L420.813,163.603L420.813,152.333ZM381.513,152.333L384.89,152.333L384.89,163.603L381.513,163.603L381.513,152.333ZM410.32,152.333L413.696,152.333L413.696,163.603L410.319,163.603L410.32,152.333ZM396.048,152.333L399.425,152.333L399.425,163.603L396.048,163.603L396.048,152.333Z" style="fill:white;"/>
                <path d="M412.689,160.22L412.689,163.597L397.549,163.597L397.549,160.22L412.689,160.22ZM413.696,151.466L413.696,154.843L404.098,154.843L404.098,151.466L413.696,151.466Z" style="fill:white;"/>
            </g>
            <g>
                <path d="M462.162,143.442L511.232,143.442L511.232,146.819L462.162,146.819L462.162,143.442ZM469.478,160.326L472.855,160.326L472.855,163.606L469.478,163.606L469.478,160.326ZM511.36,160.22L511.36,163.597L501.553,163.597L501.553,160.22L511.36,160.22ZM516.634,143.442L520.011,143.442L520.011,163.602L516.634,163.602L516.634,143.442Z" style="fill:white;"/>
                <path d="M536.169,160.22L536.169,163.597L517.584,163.597L517.584,160.22L536.169,160.22ZM501.553,152.333L504.93,152.333L504.93,163.603L501.553,163.603L501.553,152.333Z" style="fill:white;"/>
                <path d="M533.404,143.442L536.781,143.442L536.781,163.602L533.404,163.602L533.404,143.442ZM524.962,143.442L528.339,143.442L528.339,163.602L524.962,163.602L524.962,143.442ZM480.163,151.466L480.163,154.843L462.253,154.843L462.253,151.466L480.163,151.466ZM519.463,151.466L519.463,154.843L501.553,154.843L501.553,151.466L519.463,151.466Z" style="fill:white;"/>
                <rect x="501.553" y="152.333" width="3.377" height="11.27" style="fill:white;"/>
                <rect x="501.553" y="152.333" width="3.377" height="11.27" style="fill:white;"/>
                <path d="M501.553,152.333L504.93,152.333L504.93,163.603L501.553,163.603L501.553,152.333ZM462.253,152.333L465.63,152.333L465.63,163.603L462.253,163.603L462.253,152.333ZM491.06,152.333L494.436,152.333L494.436,163.603L491.059,163.603L491.06,152.333ZM476.788,152.333L480.165,152.333L480.165,163.603L476.788,163.603L476.788,152.333Z" style="fill:white;"/>
                <path d="M493.429,160.22L493.429,163.597L478.289,163.597L478.289,160.22L493.429,160.22ZM494.436,151.466L494.436,154.843L484.838,154.843L484.838,151.466L494.436,151.466Z" style="fill:white;"/>
            </g>
            <g>
                <path d="M543.372,143.442L592.442,143.442L592.442,146.819L543.372,146.819L543.372,143.442ZM550.688,160.326L554.065,160.326L554.065,163.606L550.688,163.606L550.688,160.326ZM592.57,160.22L592.57,163.597L582.763,163.597L582.763,160.22L592.57,160.22ZM597.844,143.442L601.221,143.442L601.221,163.602L597.844,163.602L597.844,143.442Z" style="fill:white;"/>
                <path d="M617.379,160.22L617.379,163.597L598.794,163.597L598.794,160.22L617.379,160.22ZM582.763,152.333L586.14,152.333L586.14,163.603L582.763,163.603L582.763,152.333Z" style="fill:white;"/>
                <path d="M614.614,143.442L617.991,143.442L617.991,163.602L614.614,163.602L614.614,143.442ZM606.172,143.442L609.549,143.442L609.549,163.602L606.172,163.602L606.172,143.442ZM561.373,151.466L561.373,154.843L543.463,154.843L543.463,151.466L561.373,151.466ZM600.673,151.466L600.673,154.843L582.763,154.843L582.763,151.466L600.673,151.466Z" style="fill:white;"/>
                <rect x="582.763" y="152.333" width="3.377" height="11.27" style="fill:white;"/>
                <rect x="582.763" y="152.333" width="3.377" height="11.27" style="fill:white;"/>
                <path d="M582.763,152.333L586.14,152.333L586.14,163.603L582.763,163.603L582.763,152.333ZM543.463,152.333L546.84,152.333L546.84,163.603L543.463,163.603L543.463,152.333ZM572.27,152.333L575.646,152.333L575.646,163.603L572.269,163.603L572.27,152.333ZM557.998,152.333L561.375,152.333L561.375,163.603L557.998,163.603L557.998,152.333Z" style="fill:white;"/>
                <path d="M574.639,160.22L574.639,163.597L559.499,163.597L559.499,160.22L574.639,160.22ZM575.646,151.466L575.646,154.843L566.048,154.843L566.048,151.466L575.646,151.466Z" style="fill:white;"/>
            </g>
            <g>
                <path d="M-68.83,339.507L-62.782,339.507L-62.782,350.012L-68.83,350.012L-68.83,339.507ZM91.702,339.507L97.75,339.507L97.75,350.012L91.702,350.012L91.702,339.507ZM-192.003,339.507L-185.955,339.507L-185.955,350.012L-192.003,350.012L-192.003,339.507ZM-110.528,339.507L-104.48,339.507L-104.48,350.012L-110.528,350.012L-110.528,339.507ZM-29.633,339.507L-23.585,339.507L-23.585,350.012L-29.633,350.012L-29.633,339.507ZM10.391,339.507L16.44,339.507L16.44,350.012L10.39,350.012L10.391,339.507ZM51.252,339.507L57.3,339.507L57.3,350.012L51.252,350.012L51.252,339.507ZM131.727,339.507L137.775,339.507L137.775,350.012L131.727,350.012L131.727,339.507ZM334.783,339.507L340.831,339.507L340.831,350.012L334.783,350.012L334.783,339.507ZM172.586,339.507L178.634,339.507L178.634,350.012L172.586,350.012L172.586,339.507ZM212.621,339.507L218.669,339.507L218.669,350.012L212.621,350.012L212.621,339.507ZM253.059,339.507L259.107,339.507L259.107,350.012L253.059,350.012L253.059,339.507ZM293.507,339.507L299.555,339.507L299.555,350.012L293.507,350.012L293.507,339.507ZM616.65,339.507L622.697,339.507L622.697,350.012L616.649,350.012L616.65,339.507ZM373.98,339.507L380.028,339.507L380.028,350.012L373.98,350.012L373.98,339.507ZM414.84,339.507L420.889,339.507L420.889,350.012L414.84,350.012L414.84,339.507ZM456.124,339.507L462.173,339.507L462.173,350.012L456.124,350.012L456.124,339.507ZM494.9,339.507L500.949,339.507L500.949,350.012L494.9,350.012L494.9,339.507ZM536.174,339.507L542.222,339.507L542.222,350.012L536.174,350.012L536.174,339.507ZM576.622,339.507L582.67,339.507L582.67,350.012L576.622,350.012L576.622,339.507ZM696.296,339.507L702.344,339.507L702.344,350.012L696.296,350.012L696.296,339.507ZM657.518,339.507L663.566,339.507L663.566,350.012L657.518,350.012L657.518,339.507ZM-151.39,339.507L-145.342,339.507L-145.342,350.012L-151.39,350.012L-151.39,339.507Z" style="fill:rgb(217,0,0);"/>
            </g>
            <g>
                <path d="M-68.83,162.607L-62.782,162.607L-62.782,173.112L-68.83,173.112L-68.83,162.607ZM91.702,162.607L97.75,162.607L97.75,173.112L91.702,173.112L91.702,162.607ZM-192.003,162.607L-185.955,162.607L-185.955,173.112L-192.003,173.112L-192.003,162.607ZM-110.528,162.607L-104.48,162.607L-104.48,173.112L-110.528,173.112L-110.528,162.607ZM-29.633,162.607L-23.585,162.607L-23.585,173.112L-29.633,173.112L-29.633,162.607ZM10.391,162.607L16.44,162.607L16.44,173.112L10.39,173.112L10.391,162.607ZM51.252,162.607L57.3,162.607L57.3,173.112L51.252,173.112L51.252,162.607ZM131.727,162.607L137.775,162.607L137.775,173.112L131.727,173.112L131.727,162.607ZM334.783,162.607L340.831,162.607L340.831,173.112L334.783,173.112L334.783,162.607ZM172.586,162.607L178.634,162.607L178.634,173.112L172.586,173.112L172.586,162.607ZM212.621,162.607L218.669,162.607L218.669,173.112L212.621,173.112L212.621,162.607ZM253.059,162.607L259.107,162.607L259.107,173.112L253.059,173.112L253.059,162.607ZM293.507,162.607L299.555,162.607L299.555,173.112L293.507,173.112L293.507,162.607ZM616.65,162.607L622.697,162.607L622.697,173.112L616.649,173.112L616.65,162.607ZM373.98,162.607L380.028,162.607L380.028,173.112L373.98,173.112L373.98,162.607ZM414.84,162.607L420.889,162.607L420.889,173.112L414.84,173.112L414.84,162.607ZM456.124,162.607L462.173,162.607L462.173,173.112L456.124,173.112L456.124,162.607ZM494.9,162.607L500.949,162.607L500.949,173.112L494.9,173.112L494.9,162.607ZM536.174,162.607L542.222,162.607L542.222,173.112L536.174,173.112L536.174,162.607ZM576.622,162.607L582.67,162.607L582.67,173.112L576.622,173.112L576.622,162.607ZM696.296,162.607L702.344,162.607L702.344,173.112L696.296,173.112L696.296,162.607ZM657.518,162.607L663.566,162.607L663.566,173.112L657.518,173.112L657.518,162.607ZM-151.39,162.607L-145.342,162.607L-145.342,173.112L-151.39,173.112L-151.39,162.607Z" style="fill:rgb(35,158,63);"/>
            </g>
            <g>
                <path d="M279.8,197.489C288.253,207.849 314.311,265.141 264.07,302.669C240.45,320.446 255.076,321.344 255.774,324.332C293.74,304.165 306.14,276.842 305.852,252.366C305.562,227.89 292.586,206.264 279.8,197.493L279.8,197.489Z" style="fill:rgb(218,0,0);"/>
                <path d="M284.826,194.826C303.576,204.426 344.379,252.705 300.461,307.17C327.749,301.114 362.441,220.753 284.826,194.826ZM227.245,194.826C208.496,204.426 167.692,252.705 211.61,307.17C184.322,301.114 149.63,220.753 227.245,194.826Z" style="fill:rgb(218,0,0);"/>
                <path d="M232.2,197.489C223.746,207.849 197.688,265.141 247.93,302.669C271.548,320.446 256.923,321.344 256.224,324.332C218.259,304.165 205.859,276.842 206.147,252.366C206.436,227.89 219.412,206.264 232.199,197.493L232.2,197.489Z" style="fill:rgb(218,0,0);"/>
                <path d="M304.198,319.111C289.338,319.347 270.605,317.064 256.712,309.844C259,314.294 260.901,317.096 263.189,321.545C276.439,322.767 294.724,324.279 304.199,319.111L304.198,319.111ZM209.225,319.111C224.085,319.347 242.818,317.064 256.712,309.844C254.423,314.294 252.522,317.096 250.234,321.545C236.984,322.767 218.699,324.279 209.224,319.111L209.225,319.111ZM236.482,180.397C239.493,188.399 247.392,189.562 255.847,184.851C262.008,188.548 271.537,188.781 274.823,180.784C277.322,200.568 256.518,195.888 255.743,192.015C247.998,199.502 233.578,195.178 236.483,180.397L236.482,180.397Z" style="fill:rgb(218,0,0);"/>
                <path d="M256.402,331.569L264.215,322.639L265.332,202.461L256.03,194.276L246.73,202.089L248.589,323.009L256.402,331.567L256.402,331.569Z" style="fill:rgb(218,0,0);"/>
            </g>
        </g>
    </g>
</svg>
