<?xml version="1.0" encoding="UTF-8" standalone="no"?>
<!DOCTYPE svg PUBLIC "-//W3C//DTD SVG 1.1//EN" "http://www.w3.org/Graphics/SVG/1.1/DTD/svg11.dtd">
<svg width="100%" height="100%" viewBox="0 0 640 480" version="1.1" xmlns="http://www.w3.org/2000/svg" xmlns:xlink="http://www.w3.org/1999/xlink" xml:space="preserve" xmlns:serif="http://www.serif.com/" style="fill-rule:evenodd;clip-rule:evenodd;stroke-linejoin:round;stroke-miterlimit:2;">
    <rect x="0" y="0" width="640" height="160" style="fill:rgb(255,153,51);fill-rule:nonzero;"/>
    <rect x="0" y="160" width="640" height="160" style="fill:white;fill-rule:nonzero;"/>
    <rect x="0" y="320" width="640" height="160" style="fill:rgb(18,136,7);fill-rule:nonzero;"/>
    <g transform="matrix(3.2,0,0,3.2,320,240)">
        <circle cx="0" cy="0" r="20" style="fill:rgb(0,0,136);"/>
        <circle cx="0" cy="0" r="17.5" style="fill:white;"/>
        <circle cx="0" cy="0" r="3.5" style="fill:rgb(0,0,136);"/>
        <g id="d">
            <g id="c">
                <g id="b">
                    <g id="a">
                        <g transform="matrix(0.991445,0.130526,-0.130526,0.991445,17.3504,2.28422)">
                            <circle cx="0" cy="0" r="0.875" style="fill:rgb(0,0,136);"/>
                        </g>
                        <path d="M0,17.5L0.6,7L0,2L-0.6,7L0,17.5Z" style="fill:rgb(0,0,136);fill-rule:nonzero;"/>
                    </g>
                    <g id="a1" serif:id="a" transform="matrix(0.965926,0.258819,-0.258819,0.965926,0,0)">
                        <g transform="matrix(0.991445,0.130526,-0.130526,0.991445,17.3504,2.28422)">
                            <circle cx="0" cy="0" r="0.875" style="fill:rgb(0,0,136);"/>
                        </g>
                        <path d="M0,17.5L0.6,7L0,2L-0.6,7L0,17.5Z" style="fill:rgb(0,0,136);fill-rule:nonzero;"/>
                    </g>
                </g>
                <g id="b1" serif:id="b" transform="matrix(0.866025,0.5,-0.5,0.866025,0,0)">
                    <g id="a2" serif:id="a">
                        <g transform="matrix(0.991445,0.130526,-0.130526,0.991445,17.3504,2.28422)">
                            <circle cx="0" cy="0" r="0.875" style="fill:rgb(0,0,136);"/>
                        </g>
                        <path d="M0,17.5L0.6,7L0,2L-0.6,7L0,17.5Z" style="fill:rgb(0,0,136);fill-rule:nonzero;"/>
                    </g>
                    <g id="a3" serif:id="a" transform="matrix(0.965926,0.258819,-0.258819,0.965926,0,0)">
                        <g transform="matrix(0.991445,0.130526,-0.130526,0.991445,17.3504,2.28422)">
                            <circle cx="0" cy="0" r="0.875" style="fill:rgb(0,0,136);"/>
                        </g>
                        <path d="M0,17.5L0.6,7L0,2L-0.6,7L0,17.5Z" style="fill:rgb(0,0,136);fill-rule:nonzero;"/>
                    </g>
                </g>
            </g>
            <g id="c1" serif:id="c" transform="matrix(0.5,0.866025,-0.866025,0.5,0,0)">
                <g id="b2" serif:id="b">
                    <g id="a4" serif:id="a">
                        <g transform="matrix(0.991445,0.130526,-0.130526,0.991445,17.3504,2.28422)">
                            <circle cx="0" cy="0" r="0.875" style="fill:rgb(0,0,136);"/>
                        </g>
                        <path d="M0,17.5L0.6,7L0,2L-0.6,7L0,17.5Z" style="fill:rgb(0,0,136);fill-rule:nonzero;"/>
                    </g>
                    <g id="a5" serif:id="a" transform="matrix(0.965926,0.258819,-0.258819,0.965926,0,0)">
                        <g transform="matrix(0.991445,0.130526,-0.130526,0.991445,17.3504,2.28422)">
                            <circle cx="0" cy="0" r="0.875" style="fill:rgb(0,0,136);"/>
                        </g>
                        <path d="M0,17.5L0.6,7L0,2L-0.6,7L0,17.5Z" style="fill:rgb(0,0,136);fill-rule:nonzero;"/>
                    </g>
                </g>
                <g id="b3" serif:id="b" transform="matrix(0.866025,0.5,-0.5,0.866025,0,0)">
                    <g id="a6" serif:id="a">
                        <g transform="matrix(0.991445,0.130526,-0.130526,0.991445,17.3504,2.28422)">
                            <circle cx="0" cy="0" r="0.875" style="fill:rgb(0,0,136);"/>
                        </g>
                        <path d="M0,17.5L0.6,7L0,2L-0.6,7L0,17.5Z" style="fill:rgb(0,0,136);fill-rule:nonzero;"/>
                    </g>
                    <g id="a7" serif:id="a" transform="matrix(0.965926,0.258819,-0.258819,0.965926,0,0)">
                        <g transform="matrix(0.991445,0.130526,-0.130526,0.991445,17.3504,2.28422)">
                            <circle cx="0" cy="0" r="0.875" style="fill:rgb(0,0,136);"/>
                        </g>
                        <path d="M0,17.5L0.6,7L0,2L-0.6,7L0,17.5Z" style="fill:rgb(0,0,136);fill-rule:nonzero;"/>
                    </g>
                </g>
            </g>
        </g>
        <g id="d1" serif:id="d" transform="matrix(-0.5,0.866025,-0.866025,-0.5,0,0)">
            <g id="c2" serif:id="c">
                <g id="b4" serif:id="b">
                    <g id="a8" serif:id="a">
                        <g transform="matrix(0.991445,0.130526,-0.130526,0.991445,17.3504,2.28422)">
                            <circle cx="0" cy="0" r="0.875" style="fill:rgb(0,0,136);"/>
                        </g>
                        <path d="M0,17.5L0.6,7L0,2L-0.6,7L0,17.5Z" style="fill:rgb(0,0,136);fill-rule:nonzero;"/>
                    </g>
                    <g id="a9" serif:id="a" transform="matrix(0.965926,0.258819,-0.258819,0.965926,0,0)">
                        <g transform="matrix(0.991445,0.130526,-0.130526,0.991445,17.3504,2.28422)">
                            <circle cx="0" cy="0" r="0.875" style="fill:rgb(0,0,136);"/>
                        </g>
                        <path d="M0,17.5L0.6,7L0,2L-0.6,7L0,17.5Z" style="fill:rgb(0,0,136);fill-rule:nonzero;"/>
                    </g>
                </g>
                <g id="b5" serif:id="b" transform="matrix(0.866025,0.5,-0.5,0.866025,0,0)">
                    <g id="a10" serif:id="a">
                        <g transform="matrix(0.991445,0.130526,-0.130526,0.991445,17.3504,2.28422)">
                            <circle cx="0" cy="0" r="0.875" style="fill:rgb(0,0,136);"/>
                        </g>
                        <path d="M0,17.5L0.6,7L0,2L-0.6,7L0,17.5Z" style="fill:rgb(0,0,136);fill-rule:nonzero;"/>
                    </g>
                    <g id="a11" serif:id="a" transform="matrix(0.965926,0.258819,-0.258819,0.965926,0,0)">
                        <g transform="matrix(0.991445,0.130526,-0.130526,0.991445,17.3504,2.28422)">
                            <circle cx="0" cy="0" r="0.875" style="fill:rgb(0,0,136);"/>
                        </g>
                        <path d="M0,17.5L0.6,7L0,2L-0.6,7L0,17.5Z" style="fill:rgb(0,0,136);fill-rule:nonzero;"/>
                    </g>
                </g>
            </g>
            <g id="c3" serif:id="c" transform="matrix(0.5,0.866025,-0.866025,0.5,0,0)">
                <g id="b6" serif:id="b">
                    <g id="a12" serif:id="a">
                        <g transform="matrix(0.991445,0.130526,-0.130526,0.991445,17.3504,2.28422)">
                            <circle cx="0" cy="0" r="0.875" style="fill:rgb(0,0,136);"/>
                        </g>
                        <path d="M0,17.5L0.6,7L0,2L-0.6,7L0,17.5Z" style="fill:rgb(0,0,136);fill-rule:nonzero;"/>
                    </g>
                    <g id="a13" serif:id="a" transform="matrix(0.965926,0.258819,-0.258819,0.965926,0,0)">
                        <g transform="matrix(0.991445,0.130526,-0.130526,0.991445,17.3504,2.28422)">
                            <circle cx="0" cy="0" r="0.875" style="fill:rgb(0,0,136);"/>
                        </g>
                        <path d="M0,17.5L0.6,7L0,2L-0.6,7L0,17.5Z" style="fill:rgb(0,0,136);fill-rule:nonzero;"/>
                    </g>
                </g>
                <g id="b7" serif:id="b" transform="matrix(0.866025,0.5,-0.5,0.866025,0,0)">
                    <g id="a14" serif:id="a">
                        <g transform="matrix(0.991445,0.130526,-0.130526,0.991445,17.3504,2.28422)">
                            <circle cx="0" cy="0" r="0.875" style="fill:rgb(0,0,136);"/>
                        </g>
                        <path d="M0,17.5L0.6,7L0,2L-0.6,7L0,17.5Z" style="fill:rgb(0,0,136);fill-rule:nonzero;"/>
                    </g>
                    <g id="a15" serif:id="a" transform="matrix(0.965926,0.258819,-0.258819,0.965926,0,0)">
                        <g transform="matrix(0.991445,0.130526,-0.130526,0.991445,17.3504,2.28422)">
                            <circle cx="0" cy="0" r="0.875" style="fill:rgb(0,0,136);"/>
                        </g>
                        <path d="M0,17.5L0.6,7L0,2L-0.6,7L0,17.5Z" style="fill:rgb(0,0,136);fill-rule:nonzero;"/>
                    </g>
                </g>
            </g>
        </g>
        <g id="d2" serif:id="d" transform="matrix(-0.5,-0.866025,0.866025,-0.5,0,0)">
            <g id="c4" serif:id="c">
                <g id="b8" serif:id="b">
                    <g id="a16" serif:id="a">
                        <g transform="matrix(0.991445,0.130526,-0.130526,0.991445,17.3504,2.28422)">
                            <circle cx="0" cy="0" r="0.875" style="fill:rgb(0,0,136);"/>
                        </g>
                        <path d="M0,17.5L0.6,7L0,2L-0.6,7L0,17.5Z" style="fill:rgb(0,0,136);fill-rule:nonzero;"/>
                    </g>
                    <g id="a17" serif:id="a" transform="matrix(0.965926,0.258819,-0.258819,0.965926,0,0)">
                        <g transform="matrix(0.991445,0.130526,-0.130526,0.991445,17.3504,2.28422)">
                            <circle cx="0" cy="0" r="0.875" style="fill:rgb(0,0,136);"/>
                        </g>
                        <path d="M0,17.5L0.6,7L0,2L-0.6,7L0,17.5Z" style="fill:rgb(0,0,136);fill-rule:nonzero;"/>
                    </g>
                </g>
                <g id="b9" serif:id="b" transform="matrix(0.866025,0.5,-0.5,0.866025,0,0)">
                    <g id="a18" serif:id="a">
                        <g transform="matrix(0.991445,0.130526,-0.130526,0.991445,17.3504,2.28422)">
                            <circle cx="0" cy="0" r="0.875" style="fill:rgb(0,0,136);"/>
                        </g>
                        <path d="M0,17.5L0.6,7L0,2L-0.6,7L0,17.5Z" style="fill:rgb(0,0,136);fill-rule:nonzero;"/>
                    </g>
                    <g id="a19" serif:id="a" transform="matrix(0.965926,0.258819,-0.258819,0.965926,0,0)">
                        <g transform="matrix(0.991445,0.130526,-0.130526,0.991445,17.3504,2.28422)">
                            <circle cx="0" cy="0" r="0.875" style="fill:rgb(0,0,136);"/>
                        </g>
                        <path d="M0,17.5L0.6,7L0,2L-0.6,7L0,17.5Z" style="fill:rgb(0,0,136);fill-rule:nonzero;"/>
                    </g>
                </g>
            </g>
            <g id="c5" serif:id="c" transform="matrix(0.5,0.866025,-0.866025,0.5,0,0)">
                <g id="b10" serif:id="b">
                    <g id="a20" serif:id="a">
                        <g transform="matrix(0.991445,0.130526,-0.130526,0.991445,17.3504,2.28422)">
                            <circle cx="0" cy="0" r="0.875" style="fill:rgb(0,0,136);"/>
                        </g>
                        <path d="M0,17.5L0.6,7L0,2L-0.6,7L0,17.5Z" style="fill:rgb(0,0,136);fill-rule:nonzero;"/>
                    </g>
                    <g id="a21" serif:id="a" transform="matrix(0.965926,0.258819,-0.258819,0.965926,0,0)">
                        <g transform="matrix(0.991445,0.130526,-0.130526,0.991445,17.3504,2.28422)">
                            <circle cx="0" cy="0" r="0.875" style="fill:rgb(0,0,136);"/>
                        </g>
                        <path d="M0,17.5L0.6,7L0,2L-0.6,7L0,17.5Z" style="fill:rgb(0,0,136);fill-rule:nonzero;"/>
                    </g>
                </g>
                <g id="b11" serif:id="b" transform="matrix(0.866025,0.5,-0.5,0.866025,0,0)">
                    <g id="a22" serif:id="a">
                        <g transform="matrix(0.991445,0.130526,-0.130526,0.991445,17.3504,2.28422)">
                            <circle cx="0" cy="0" r="0.875" style="fill:rgb(0,0,136);"/>
                        </g>
                        <path d="M0,17.5L0.6,7L0,2L-0.6,7L0,17.5Z" style="fill:rgb(0,0,136);fill-rule:nonzero;"/>
                    </g>
                    <g id="a23" serif:id="a" transform="matrix(0.965926,0.258819,-0.258819,0.965926,0,0)">
                        <g transform="matrix(0.991445,0.130526,-0.130526,0.991445,17.3504,2.28422)">
                            <circle cx="0" cy="0" r="0.875" style="fill:rgb(0,0,136);"/>
                        </g>
                        <path d="M0,17.5L0.6,7L0,2L-0.6,7L0,17.5Z" style="fill:rgb(0,0,136);fill-rule:nonzero;"/>
                    </g>
                </g>
            </g>
        </g>
    </g>
</svg>
