<?xml version="1.0" encoding="UTF-8" standalone="no"?>
<!DOCTYPE svg PUBLIC "-//W3C//DTD SVG 1.1//EN" "http://www.w3.org/Graphics/SVG/1.1/DTD/svg11.dtd">
<svg width="100%" height="100%" viewBox="0 0 640 480" version="1.1" xmlns="http://www.w3.org/2000/svg" xmlns:xlink="http://www.w3.org/1999/xlink" xml:space="preserve" xmlns:serif="http://www.serif.com/" style="fill-rule:evenodd;clip-rule:evenodd;stroke-linejoin:round;stroke-miterlimit:2;">
    <g transform="matrix(5.33,0,0,5.33,0,0)">
        <clipPath id="_clip1">
            <rect x="0" y="0" width="120" height="90"/>
        </clipPath>
        <g clip-path="url(#_clip1)">
            <rect x="0" y="0" width="135" height="10" style="fill:rgb(13,94,175);"/>
            <rect x="0" y="10" width="135" height="10" style="fill:white;"/>
            <rect x="0" y="20" width="135" height="10" style="fill:rgb(13,94,175);"/>
            <rect x="0" y="30" width="135" height="10" style="fill:white;"/>
            <rect x="0" y="40" width="135" height="10" style="fill:rgb(13,94,175);"/>
            <rect x="0" y="50" width="135" height="10" style="fill:white;"/>
            <rect x="0" y="60" width="135" height="10" style="fill:rgb(13,94,175);"/>
            <rect x="0" y="70" width="135" height="10" style="fill:white;"/>
            <path d="M0,80L135,80L135,90L0,90L0,80ZM0,0L50,0L50,50L0,50L0,0Z" style="fill:rgb(13,94,175);"/>
            <g>
                <rect x="20" y="0" width="10" height="50" style="fill:white;"/>
                <rect x="0" y="20" width="50" height="10" style="fill:white;"/>
            </g>
        </g>
    </g>
</svg>
