<?xml version="1.0" encoding="UTF-8" standalone="no"?>
<!DOCTYPE svg PUBLIC "-//W3C//DTD SVG 1.1//EN" "http://www.w3.org/Graphics/SVG/1.1/DTD/svg11.dtd">
<svg width="100%" height="100%" viewBox="0 0 640 480" version="1.1" xmlns="http://www.w3.org/2000/svg" xmlns:xlink="http://www.w3.org/1999/xlink" xml:space="preserve" xmlns:serif="http://www.serif.com/" style="fill-rule:evenodd;clip-rule:evenodd;stroke-linejoin:bevel;">
    <rect x="0" y="0" width="640" height="480" style="fill:rgb(3,46,161);fill-rule:nonzero;"/>
    <rect x="0" y="120" width="640" height="240" style="fill:rgb(224,0,37);fill-rule:nonzero;"/>
    <g transform="matrix(1.2,0,0,1.2,85.571,-521.92)">
        <g>
            <rect x="139.02" y="623.46" width="113.8" height="43.788" style="fill:white;fill-rule:nonzero;stroke:black;stroke-width:0.96px;"/>
            <path d="M246.95,647.64L250.536,647.64L250.536,664.135L246.95,664.135L246.95,647.64ZM139.02,639.49L252.82,639.49L252.82,644.58L139.02,644.58L139.02,639.49ZM139.02,632.59L252.82,632.59L252.82,637.079L139.02,637.079L139.02,632.59Z" style="fill:white;fill-rule:nonzero;stroke:black;stroke-width:0.96px;"/>
            <rect x="139.02" y="625.7" width="113.8" height="4.354" style="fill:white;fill-rule:nonzero;stroke:black;stroke-width:0.95px;"/>
            <path d="M168.98,647.64L172.566,647.64L172.566,664.135L168.98,664.135L168.98,647.64ZM217.97,647.64L221.556,647.64L221.556,664.135L217.97,664.135L217.97,647.64ZM139.92,647.64L143.506,647.64L143.506,664.135L139.92,664.135L139.92,647.64ZM146.95,647.64L150.536,647.64L150.536,664.135L146.95,664.135L146.95,647.64ZM154.45,647.64L158.036,647.64L158.036,664.135L154.45,664.135L154.45,647.64ZM161.95,647.64L165.536,647.64L165.536,664.135L161.95,664.135L161.95,647.64ZM224.77,647.64L228.356,647.64L228.356,664.135L224.77,664.135L224.77,647.64ZM232.27,647.64L235.856,647.64L235.856,664.135L232.27,664.135L232.27,647.64ZM239.77,647.64L243.356,647.64L243.356,664.135L239.77,664.135L239.77,647.64Z" style="fill:white;fill-rule:nonzero;stroke:black;stroke-width:0.96px;"/>
            <path d="M94.509,669.55C96.269,668.653 98.277,666.566 98.934,664.231L292.004,664.231C292.661,666.566 294.669,668.653 296.429,669.55L94.509,669.55Z" style="fill:white;fill-rule:nonzero;stroke:black;stroke-width:0.96px;stroke-linejoin:miter;"/>
        </g>
        <path d="M193,556.8C193,556.8 192.856,552.688 195.25,552.643C197.646,552.687 197.501,556.8 197.501,556.8L193,556.8ZM180.51,611.34L180.51,605.804C180.431,603.036 177.75,602.836 177.672,600.818C177.672,600.818 177.326,597.791 178.124,596.41C179.208,600.457 181.18,599.714 181.18,598.05C181.18,596.597 180.063,595.246 177.772,591.72C177.04,590.592 177.492,587.06 178.519,585.797C178.917,588.867 179.372,590.337 180.69,590.337C181.495,590.337 182.152,589.813 182.152,588.275C182.152,586.318 180.827,585.33 180.175,583.55C179.415,581.472 179.939,579.354 181.201,578.17C181.742,581.2 181.581,582.407 182.927,582.407C185.64,581.549 182.927,577.621 182.347,576.63C181.681,575.475 183.244,573.17 183.244,573.17C184.107,575.86 184.384,576.08 185.314,575.83C186.488,575.515 186.337,573.774 184.904,572.367C184,571.478 184.096,570.155 185.067,569.093C186.042,570.998 187.29,570.883 187.41,569.751L186.626,565.358L203.881,565.358L203.024,569.607C202.779,570.823 204.42,571.087 205.44,569.093C206.412,570.155 206.507,571.478 205.603,572.367C204.171,573.774 204.019,575.515 205.193,575.83C206.123,576.08 206.401,575.86 207.263,573.17C207.263,573.17 208.666,574.741 208.16,576.63C207.58,577.62 204.867,581.549 207.58,582.407C208.926,582.407 208.765,581.199 209.306,578.17C210.569,579.354 211.092,581.472 210.332,583.55C209.681,585.33 208.356,586.318 208.356,588.275C208.356,589.813 209.013,590.337 209.817,590.337C211.136,590.337 211.591,588.867 211.989,585.797C213.015,587.06 213.468,590.592 212.736,591.719C210.445,595.246 209.328,596.597 209.328,598.049C209.328,599.714 211.299,600.457 212.384,596.409C213.181,597.791 212.835,600.819 212.835,600.819C212.756,602.836 210.076,603.036 209.997,605.804L209.997,611.34L180.51,611.34ZM187.73,565.32L187.333,562.195L203.171,562.195L202.774,565.32L187.73,565.32ZM188.79,562.13L188.449,559.561L202.053,559.561L201.712,562.13L188.79,562.13ZM190.95,559.47L190.723,556.901L199.781,556.901L199.554,559.47L190.95,559.47ZM223.97,669.55C221.943,668.769 218.993,666.631 218.993,664.48L218.993,640.183L221.631,636.825L168.855,636.825L171.385,640.184L171.385,664.481C171.385,666.631 169.358,668.769 167.332,669.551L223.97,669.55Z" style="fill:white;fill-rule:nonzero;stroke:black;stroke-width:0.96px;stroke-linejoin:miter;"/>
        <path d="M178.24,647.64L181.826,647.64L181.826,664.135L178.24,664.135L178.24,647.64ZM208.56,647.64L212.146,647.64L212.146,664.135L208.56,664.135L208.56,647.64Z" style="fill:white;fill-rule:nonzero;stroke:black;stroke-width:0.96px;"/>
        <path d="M167.91,609.169L167.91,636.826L221.933,636.826L221.933,630.869L222.011,609.169C219.801,610.038 219.414,612.041 219.414,612.041L219.414,623.818L170.664,623.818L170.664,612.04C170.664,612.04 170.12,610.037 167.91,609.169Z" style="fill:white;fill-rule:nonzero;stroke:black;stroke-width:0.96px;stroke-linejoin:miter;"/>
        <path d="M214.6,669.55C212.834,668.769 208.988,666.631 208.988,664.48L208.988,637.288C209.366,635.77 211.424,634.874 212.749,633.93L176.926,633.93C178.631,634.832 180.532,635.582 181.211,637.289L181.211,664.481C181.211,666.631 178.17,668.769 176.404,669.55L214.6,669.55Z" style="fill:white;fill-rule:nonzero;stroke:black;stroke-width:0.96px;stroke-linejoin:miter;"/>
        <path d="M219.41,634.22L219.41,614.633L214.5,614.633L214.5,612.724L175.66,612.724L175.66,614.633L170.75,614.633L170.75,634.22L219.41,634.22ZM206.86,669.55C205.13,668.769 202.611,666.631 202.611,664.48L202.611,641.266L204.031,639.156L186.341,639.156L187.761,641.266L187.761,664.481C187.761,666.631 185.242,668.769 183.512,669.551L206.86,669.55Z" style="fill:white;fill-rule:nonzero;stroke:black;stroke-width:0.96px;stroke-linejoin:miter;"/>
        <rect x="190.71" y="639.16" width="8.966" height="30.377" style="fill:white;fill-rule:nonzero;stroke:black;stroke-width:0.98px;stroke-linejoin:miter;"/>
        <path d="M204.38,632.48C204.401,630.479 210.218,630.389 213.212,628.685L177.26,628.685C180.254,630.389 185.935,630.529 185.935,632.48L187.152,636.362L202.035,636.96L204.38,632.48Z" style="fill:white;fill-rule:nonzero;stroke:black;stroke-width:0.96px;"/>
        <path d="M211.41,611.34C211.41,606.441 211.615,604.554 213.12,604.554L213.12,620.134C209.43,621.474 206.795,626.184 206.795,626.184L183.584,626.184C183.584,626.184 180.95,621.474 177.259,620.134L177.259,604.554C179.115,604.554 179.127,606.526 179.127,611.34L211.41,611.34ZM213.12,609.33C213.12,603.712 217.971,603.08 217.971,603.08L217.971,608.08C216.125,608 215.234,609.658 215.234,612.124C215.234,614.59 216.721,614.63 216.721,614.63L216.721,628.82L213.12,628.82L213.12,609.33Z" style="fill:white;fill-rule:nonzero;stroke:black;stroke-width:0.96px;stroke-linejoin:miter;"/>
        <path d="M177.28,609.33C177.28,603.712 172.429,603.08 172.429,603.08L172.429,608.08C174.275,608 175.166,609.658 175.166,612.124C175.166,614.59 173.679,614.63 173.679,614.63L173.679,628.82L177.28,628.82L177.28,609.33Z" style="fill:white;fill-rule:nonzero;stroke:black;stroke-width:0.96px;stroke-linejoin:miter;"/>
        <g>
            <path d="M186.84,570.62L203.968,570.62M184.81,575.97L205.731,575.97M182.78,582.46L207.684,582.46M180.66,590.39L210.196,590.39M179.98,599.43L210.406,599.43" style="fill:none;fill-rule:nonzero;stroke:black;stroke-width:0.8px;stroke-linejoin:miter;"/>
            <path d="M170.75,628.92L219.411,628.92M186.19,628.93L204.226,628.93L204.226,635.559L186.19,635.559L186.19,628.93Z" style="fill:none;fill-rule:nonzero;stroke:black;stroke-width:0.96px;stroke-linejoin:miter;"/>
        </g>
        <g>
            <path d="M183.93,614.24C186.92,617.83 186.643,623.92 186.609,627.51L203.952,627.51C203.917,623.92 203.64,617.83 206.63,614.24L183.93,614.24ZM193.68,573.11L191.304,571.886L191.304,568.389C192.275,568.681 193.366,568.8 193.472,570.349C193.81,568.139 194.42,568.246 195.379,567.385C196.337,568.246 196.947,568.138 197.285,570.348C197.392,568.8 198.482,568.681 199.454,568.388L199.454,571.886L197.077,573.11L193.68,573.11Z" style="fill:white;fill-rule:nonzero;stroke:black;stroke-width:0.96px;stroke-linejoin:miter;"/>
            <path d="M193.52,578.85L189.574,576.137L189.574,572.914C190.957,573.234 192.51,573.365 192.662,575.063C193.144,572.64 194.012,571.388 195.377,570.443C196.742,571.388 197.61,572.64 198.092,575.063C198.244,573.365 199.797,573.235 201.181,572.914L201.181,576.137L197.234,578.85L193.52,578.85Z" style="fill:white;fill-rule:nonzero;stroke:black;stroke-width:0.96px;stroke-linejoin:miter;"/>
            <path d="M193.24,587.8L188.702,583.815L188.702,579.079C190.293,579.55 192.079,579.742 192.254,582.236C192.807,578.676 193.806,576.836 195.375,575.449C196.945,576.837 197.943,578.676 198.497,582.236C198.672,579.742 200.457,579.55 202.048,579.079L202.048,583.815L197.511,587.8L193.24,587.8ZM201.61,593.09L197.506,598.766L192.86,598.766L188.756,593.09L201.61,593.09ZM186.39,602.62C188.443,603.742 189.2,605.977 189.42,610.173L200.97,610.173C201.19,605.977 201.947,603.742 204,602.62L186.39,602.62Z" style="fill:white;fill-rule:nonzero;stroke:black;stroke-width:0.96px;stroke-linejoin:miter;"/>
            <path d="M204.17,593.09L204.17,587.388C202.22,587.925 200.957,589.079 200.394,590.646C200.394,588.753 197.904,584.389 195.187,582.216C192.463,584.648 189.93,588.596 189.981,590.646C189.517,589.154 188.155,587.925 186.205,587.388L186.205,593.09L204.17,593.09Z" style="fill:white;fill-rule:nonzero;stroke:black;stroke-width:0.96px;"/>
            <path d="M205.04,602.62L205.04,596.918C202.902,597.455 201.518,598.609 200.901,600.176C200.901,598.283 198.171,593.918 195.193,591.746C192.207,594.178 189.43,598.126 189.486,600.176C188.978,598.684 187.484,597.455 185.347,596.918L185.347,602.62L205.04,602.62Z" style="fill:white;fill-rule:nonzero;stroke:black;stroke-width:0.96px;"/>
            <path d="M207.44,614.32L207.44,607.743C204.78,608.43 203.128,610.396 202.29,611.543C202.29,607.982 198.27,602.553 195.19,600.775C192.03,602.6 188.089,608.21 188.089,611.543C187.229,610.403 185.599,608.43 182.939,607.743L182.939,614.32L207.44,614.32Z" style="fill:white;fill-rule:nonzero;stroke:black;stroke-width:0.96px;"/>
            <path d="M206,628.92L206,622.158C203.654,623.078 202.952,625.338 202.214,626.875C202.504,620.016 198.352,612.645 195.19,610.775C192.027,612.645 187.797,620.175 188.166,626.875C187.408,625.348 186.726,623.078 184.38,622.158L184.38,628.92L206,628.92Z" style="fill:white;fill-rule:nonzero;stroke:black;stroke-width:0.96px;"/>
            <path d="M204.36,639.16L204.36,632.398C201.902,632.983 201.75,633.889 200.968,635.404C201.258,631.307 198.357,626.634 195.195,624.764C192.032,626.634 189.131,631.308 189.421,635.404C188.639,633.889 188.543,632.983 186.029,632.398L186.029,639.16L204.36,639.16Z" style="fill:white;fill-rule:nonzero;stroke:black;stroke-width:0.96px;stroke-linejoin:miter;"/>
        </g>
        <g id="a">
            <path d="M98.935,664.23L98.935,643.79C98.265,641.187 96.055,638.885 94.395,638.424L94.395,620.43L98.136,622.453L102.407,641.263L102.407,664.229L98.935,664.23Z" style="fill:white;fill-rule:nonzero;stroke:black;stroke-width:0.96px;stroke-linejoin:miter;"/>
            <path d="M98.935,664.31L98.935,643.791C98.265,641.188 96.055,638.886 94.395,638.425L94.395,619.182C96.906,619.182 98.136,622.455 98.136,622.455L102.407,641.265L102.407,664.152L98.935,664.31Z" style="fill:white;fill-rule:nonzero;stroke:black;stroke-width:0.96px;stroke-linejoin:miter;"/>
            <path d="M96.275,669.55C98.005,668.769 100.524,666.631 100.524,664.48L100.524,638.933L99.339,636.825L142.861,636.825L141.162,638.933L141.162,664.48C141.162,666.631 142.892,668.769 144.622,669.55L96.275,669.55Z" style="fill:white;fill-rule:nonzero;stroke:black;stroke-width:0.96px;stroke-linejoin:miter;"/>
            <path d="M135.84,669.55C134.11,668.769 131.591,666.631 131.591,664.48L131.591,640.183L135.211,636.824L105.622,636.824L109.242,640.184L109.242,664.48C109.242,666.631 106.722,668.769 104.992,669.55L135.84,669.55Z" style="fill:white;fill-rule:nonzero;stroke:black;stroke-width:0.96px;stroke-linejoin:miter;"/>
            <path d="M131.69,669.55C129.96,668.769 127.441,666.631 127.441,664.48L127.441,642.515L129.811,639.156L111.012,639.156L113.382,642.516L113.382,664.481C113.382,666.631 110.862,668.769 109.132,669.55L131.69,669.55Z" style="fill:white;fill-rule:nonzero;stroke:black;stroke-width:0.96px;stroke-linejoin:miter;"/>
            <rect x="115.92" y="639.16" width="8.982" height="30.393" style="fill:white;fill-rule:nonzero;stroke:black;stroke-width:0.96px;stroke-linejoin:miter;"/>
            <path d="M103.7,647.64L107.286,647.64L107.286,664.135L103.7,664.135L103.7,647.64ZM134.45,647.64L138.036,647.64L138.036,664.135L134.45,664.135L134.45,647.64ZM100.64,619.82L104.96,619.82L104.96,636.729L100.64,636.729L100.64,619.82ZM100.64,616.64L104.935,616.64L104.935,619.779L100.64,619.779L100.64,616.64Z" style="fill:white;fill-rule:nonzero;stroke:black;stroke-width:0.96px;"/>
            <rect x="136.17" y="623.46" width="6.16" height="13.054" style="fill:white;fill-rule:nonzero;stroke:black;stroke-width:1.03px;"/>
            <path d="M104.89,636.6L104.89,607.659C106.122,607.659 106.312,611.901 109.139,611.901C110.611,611.901 110.454,610.144 109.628,608.713C108.896,607.445 107.991,605.695 109.221,602.434C110.064,604.929 112.333,605.721 111.914,604.156C111.194,601.468 109.119,601.026 110.675,596.854C111.215,600.334 113.448,600.181 112.906,598.158C112.296,595.878 111.033,594.944 112.59,591.73C113.463,595.38 114.642,595.165 114.642,592.901C114.642,589.554 114.514,585.944 118.845,584.605C118.845,584.605 119.095,581.537 120.657,581.537C122.22,581.537 122.47,584.605 122.47,584.605C126.8,585.945 126.672,589.555 126.672,592.901C126.672,595.165 127.852,595.379 128.724,591.731C130.282,594.944 129.019,595.878 128.409,598.158C127.866,600.181 130.099,600.335 130.639,596.854C132.196,601.026 130.122,601.468 129.401,604.156C128.981,605.721 131.251,604.929 132.094,602.434C133.324,605.694 132.419,607.445 131.687,608.713C130.861,610.143 130.704,611.901 132.176,611.901C135.003,611.901 135.193,607.659 136.425,607.659L136.425,636.6L104.89,636.6ZM98.124,614.74L98.124,636.819L100.635,636.819L100.635,614.684C99.73,614.227 98.88,614.157 98.124,614.74Z" style="fill:white;fill-rule:nonzero;stroke:black;stroke-width:0.96px;stroke-linejoin:miter;"/>
            <path d="M98.203,629.03C101.315,630.621 104.398,632.463 105.178,636.823L98.203,636.823L98.203,629.03ZM141.37,622.42L141.37,636.827L143.405,636.827L143.405,622.384C142.77,622.086 141.902,622.04 141.37,622.42Z" style="fill:white;fill-rule:nonzero;stroke:black;stroke-width:0.96px;stroke-linejoin:miter;"/>
            <path d="M143.41,628.92C140.298,630.511 137.215,632.353 136.435,636.713L143.41,636.713L143.41,628.92Z" style="fill:white;fill-rule:nonzero;stroke:black;stroke-width:0.96px;stroke-linejoin:miter;"/>
            <g>
                <path d="M122.83,595.27L124.644,593.745L124.644,591.792C123.98,591.857 123.618,592.085 123.128,592.728C122.711,591.433 121.794,590.423 120.566,589.795C119.337,590.423 118.42,591.388 118.003,592.682C117.513,592.039 117.151,591.857 116.487,591.792L116.487,593.745L118.302,595.27L122.83,595.27Z" style="fill:white;fill-rule:nonzero;stroke:black;stroke-width:0.96px;stroke-linejoin:miter;"/>
                <path d="M123.8,600.16L124.643,598.335L124.643,595.796C123.979,595.862 123.617,596.093 123.127,596.745C122.71,595.432 121.793,594.407 120.565,593.771C119.336,594.407 118.419,595.386 118.002,596.698C117.512,596.047 117.15,595.862 116.486,595.796L116.486,598.335L117.33,600.16L123.8,600.16Z" style="fill:white;fill-rule:nonzero;stroke:black;stroke-width:0.96px;stroke-linejoin:miter;"/>
                <path d="M123.93,606.79L126.625,603.503L126.625,600.26C125.639,600.371 125.101,600.763 124.373,601.866C123.753,599.644 122.392,599.158 120.567,598.08C118.742,599.158 117.38,599.565 116.761,601.787C116.032,600.684 115.494,600.371 114.509,600.26L114.509,603.503L117.203,606.79L123.93,606.79Z" style="fill:white;fill-rule:nonzero;stroke:black;stroke-width:0.96px;stroke-linejoin:miter;"/>
                <path d="M124.72,613.3C124.72,613.3 127.86,610.56 128.047,609.056L128.047,605.589C126.83,605.732 125.679,606.048 124.78,607.472C124.015,604.602 122.821,603.802 120.568,602.41C118.315,603.802 117.121,604.602 116.356,607.472C115.457,606.047 114.306,605.732 113.089,605.589L113.089,609.056C113.486,610.56 116.416,613.3 116.416,613.3L124.72,613.3Z" style="fill:white;fill-rule:nonzero;stroke:black;stroke-width:0.96px;stroke-linejoin:miter;"/>
                <path d="M126.06,625.32C126.06,625.32 130.361,620.559 130.46,618.704L130.46,613.298C128.85,613.521 127.328,614.628 126.139,616.849C125.128,612.374 123.549,609.254 120.569,607.084C117.589,609.254 116.009,612.374 114.999,616.849C113.809,614.628 112.287,613.52 110.678,613.298L110.678,618.704C110.986,620.559 115.078,625.32 115.078,625.32L126.06,625.32Z" style="fill:white;fill-rule:nonzero;stroke:black;stroke-width:0.96px;stroke-linejoin:miter;"/>
                <path d="M126.06,632.43C126.06,632.43 129.736,628.688 130.46,627.064L130.46,621.658C128.85,621.881 127.328,622.988 126.139,625.209C125.128,620.734 123.549,618.172 120.569,616.002C117.589,618.172 116.009,620.734 114.999,625.209C113.809,622.988 112.287,621.88 110.678,621.658L110.678,627.064C111.611,628.688 115.078,632.43 115.078,632.43L126.06,632.43Z" style="fill:white;fill-rule:nonzero;stroke:black;stroke-width:0.96px;stroke-linejoin:miter;"/>
                <path d="M127.54,636.56C126.467,631.892 125.544,628.43 120.377,624.919C115.21,628.429 114.287,631.892 113.214,636.56L127.54,636.56Z" style="fill:white;fill-rule:nonzero;stroke:black;stroke-width:0.96px;stroke-linejoin:miter;"/>
                <path d="M130.2,639.16L130.2,632.398C127.854,633.318 125.733,634.678 124.951,636.193C124.078,632.439 122.394,630.785 120.298,628.514C118.201,630.785 116.797,632.439 115.923,636.193C115.141,634.678 113.021,633.318 110.674,632.398L110.674,639.16L130.2,639.16Z" style="fill:white;fill-rule:nonzero;stroke:black;stroke-width:0.96px;stroke-linejoin:miter;"/>
            </g>
        </g>
        <g id="a1" serif:id="a" transform="matrix(-1,0,0,1,390.74,0)">
            <path d="M98.935,664.23L98.935,643.79C98.265,641.187 96.055,638.885 94.395,638.424L94.395,620.43L98.136,622.453L102.407,641.263L102.407,664.229L98.935,664.23Z" style="fill:white;fill-rule:nonzero;stroke:black;stroke-width:0.96px;stroke-linejoin:miter;"/>
            <path d="M98.935,664.31L98.935,643.791C98.265,641.188 96.055,638.886 94.395,638.425L94.395,619.182C96.906,619.182 98.136,622.455 98.136,622.455L102.407,641.265L102.407,664.152L98.935,664.31Z" style="fill:white;fill-rule:nonzero;stroke:black;stroke-width:0.96px;stroke-linejoin:miter;"/>
            <path d="M96.275,669.55C98.005,668.769 100.524,666.631 100.524,664.48L100.524,638.933L99.339,636.825L142.861,636.825L141.162,638.933L141.162,664.48C141.162,666.631 142.892,668.769 144.622,669.55L96.275,669.55Z" style="fill:white;fill-rule:nonzero;stroke:black;stroke-width:0.96px;stroke-linejoin:miter;"/>
            <path d="M135.84,669.55C134.11,668.769 131.591,666.631 131.591,664.48L131.591,640.183L135.211,636.824L105.622,636.824L109.242,640.184L109.242,664.48C109.242,666.631 106.722,668.769 104.992,669.55L135.84,669.55Z" style="fill:white;fill-rule:nonzero;stroke:black;stroke-width:0.96px;stroke-linejoin:miter;"/>
            <path d="M131.69,669.55C129.96,668.769 127.441,666.631 127.441,664.48L127.441,642.515L129.811,639.156L111.012,639.156L113.382,642.516L113.382,664.481C113.382,666.631 110.862,668.769 109.132,669.55L131.69,669.55Z" style="fill:white;fill-rule:nonzero;stroke:black;stroke-width:0.96px;stroke-linejoin:miter;"/>
            <rect x="115.92" y="639.16" width="8.982" height="30.393" style="fill:white;fill-rule:nonzero;stroke:black;stroke-width:0.96px;stroke-linejoin:miter;"/>
            <path d="M103.7,647.64L107.286,647.64L107.286,664.135L103.7,664.135L103.7,647.64ZM134.45,647.64L138.036,647.64L138.036,664.135L134.45,664.135L134.45,647.64ZM100.64,619.82L104.96,619.82L104.96,636.729L100.64,636.729L100.64,619.82ZM100.64,616.64L104.935,616.64L104.935,619.779L100.64,619.779L100.64,616.64Z" style="fill:white;fill-rule:nonzero;stroke:black;stroke-width:0.96px;"/>
            <rect x="136.17" y="623.46" width="6.16" height="13.054" style="fill:white;fill-rule:nonzero;stroke:black;stroke-width:1.03px;"/>
            <path d="M104.89,636.6L104.89,607.659C106.122,607.659 106.312,611.901 109.139,611.901C110.611,611.901 110.454,610.144 109.628,608.713C108.896,607.445 107.991,605.695 109.221,602.434C110.064,604.929 112.333,605.721 111.914,604.156C111.194,601.468 109.119,601.026 110.675,596.854C111.215,600.334 113.448,600.181 112.906,598.158C112.296,595.878 111.033,594.944 112.59,591.73C113.463,595.38 114.642,595.165 114.642,592.901C114.642,589.554 114.514,585.944 118.845,584.605C118.845,584.605 119.095,581.537 120.657,581.537C122.22,581.537 122.47,584.605 122.47,584.605C126.8,585.945 126.672,589.555 126.672,592.901C126.672,595.165 127.852,595.379 128.724,591.731C130.282,594.944 129.019,595.878 128.409,598.158C127.866,600.181 130.099,600.335 130.639,596.854C132.196,601.026 130.122,601.468 129.401,604.156C128.981,605.721 131.251,604.929 132.094,602.434C133.324,605.694 132.419,607.445 131.687,608.713C130.861,610.143 130.704,611.901 132.176,611.901C135.003,611.901 135.193,607.659 136.425,607.659L136.425,636.6L104.89,636.6ZM98.124,614.74L98.124,636.819L100.635,636.819L100.635,614.684C99.73,614.227 98.88,614.157 98.124,614.74Z" style="fill:white;fill-rule:nonzero;stroke:black;stroke-width:0.96px;stroke-linejoin:miter;"/>
            <path d="M98.203,629.03C101.315,630.621 104.398,632.463 105.178,636.823L98.203,636.823L98.203,629.03ZM141.37,622.42L141.37,636.827L143.405,636.827L143.405,622.384C142.77,622.086 141.902,622.04 141.37,622.42Z" style="fill:white;fill-rule:nonzero;stroke:black;stroke-width:0.96px;stroke-linejoin:miter;"/>
            <path d="M143.41,628.92C140.298,630.511 137.215,632.353 136.435,636.713L143.41,636.713L143.41,628.92Z" style="fill:white;fill-rule:nonzero;stroke:black;stroke-width:0.96px;stroke-linejoin:miter;"/>
            <g>
                <path d="M122.83,595.27L124.644,593.745L124.644,591.792C123.98,591.857 123.618,592.085 123.128,592.728C122.711,591.433 121.794,590.423 120.566,589.795C119.337,590.423 118.42,591.388 118.003,592.682C117.513,592.039 117.151,591.857 116.487,591.792L116.487,593.745L118.302,595.27L122.83,595.27Z" style="fill:white;fill-rule:nonzero;stroke:black;stroke-width:0.96px;stroke-linejoin:miter;"/>
                <path d="M123.8,600.16L124.643,598.335L124.643,595.796C123.979,595.862 123.617,596.093 123.127,596.745C122.71,595.432 121.793,594.407 120.565,593.771C119.336,594.407 118.419,595.386 118.002,596.698C117.512,596.047 117.15,595.862 116.486,595.796L116.486,598.335L117.33,600.16L123.8,600.16Z" style="fill:white;fill-rule:nonzero;stroke:black;stroke-width:0.96px;stroke-linejoin:miter;"/>
                <path d="M123.93,606.79L126.625,603.503L126.625,600.26C125.639,600.371 125.101,600.763 124.373,601.866C123.753,599.644 122.392,599.158 120.567,598.08C118.742,599.158 117.38,599.565 116.761,601.787C116.032,600.684 115.494,600.371 114.509,600.26L114.509,603.503L117.203,606.79L123.93,606.79Z" style="fill:white;fill-rule:nonzero;stroke:black;stroke-width:0.96px;stroke-linejoin:miter;"/>
                <path d="M124.72,613.3C124.72,613.3 127.86,610.56 128.047,609.056L128.047,605.589C126.83,605.732 125.679,606.048 124.78,607.472C124.015,604.602 122.821,603.802 120.568,602.41C118.315,603.802 117.121,604.602 116.356,607.472C115.457,606.047 114.306,605.732 113.089,605.589L113.089,609.056C113.486,610.56 116.416,613.3 116.416,613.3L124.72,613.3Z" style="fill:white;fill-rule:nonzero;stroke:black;stroke-width:0.96px;stroke-linejoin:miter;"/>
                <path d="M126.06,625.32C126.06,625.32 130.361,620.559 130.46,618.704L130.46,613.298C128.85,613.521 127.328,614.628 126.139,616.849C125.128,612.374 123.549,609.254 120.569,607.084C117.589,609.254 116.009,612.374 114.999,616.849C113.809,614.628 112.287,613.52 110.678,613.298L110.678,618.704C110.986,620.559 115.078,625.32 115.078,625.32L126.06,625.32Z" style="fill:white;fill-rule:nonzero;stroke:black;stroke-width:0.96px;stroke-linejoin:miter;"/>
                <path d="M126.06,632.43C126.06,632.43 129.736,628.688 130.46,627.064L130.46,621.658C128.85,621.881 127.328,622.988 126.139,625.209C125.128,620.734 123.549,618.172 120.569,616.002C117.589,618.172 116.009,620.734 114.999,625.209C113.809,622.988 112.287,621.88 110.678,621.658L110.678,627.064C111.611,628.688 115.078,632.43 115.078,632.43L126.06,632.43Z" style="fill:white;fill-rule:nonzero;stroke:black;stroke-width:0.96px;stroke-linejoin:miter;"/>
                <path d="M127.54,636.56C126.467,631.892 125.544,628.43 120.377,624.919C115.21,628.429 114.287,631.892 113.214,636.56L127.54,636.56Z" style="fill:white;fill-rule:nonzero;stroke:black;stroke-width:0.96px;stroke-linejoin:miter;"/>
                <path d="M130.2,639.16L130.2,632.398C127.854,633.318 125.733,634.678 124.951,636.193C124.078,632.439 122.394,630.785 120.298,628.514C118.201,630.785 116.797,632.439 115.923,636.193C115.141,634.678 113.021,633.318 110.674,632.398L110.674,639.16L130.2,639.16Z" style="fill:white;fill-rule:nonzero;stroke:black;stroke-width:0.96px;stroke-linejoin:miter;"/>
            </g>
        </g>
        <g>
            <rect x="72.694" y="694.25" width="245.33" height="12.531" style="fill:white;fill-rule:nonzero;stroke:black;stroke-width:0.96px;stroke-linejoin:miter;"/>
            <path d="M66.228,706.76L324.488,706.76L324.488,719.272L66.228,719.272L66.228,706.76ZM85.576,675.51L305.136,675.51L305.136,683.62L85.576,683.62L85.576,675.51Z" style="fill:white;fill-rule:nonzero;stroke:black;stroke-width:0.96px;stroke-linejoin:miter;"/>
            <path d="M79.157,683.56L311.557,683.56L311.557,694.182L79.157,694.182L79.157,683.56ZM89.412,669.28L301.302,669.28L301.302,675.454L89.412,675.454L89.412,669.28Z" style="fill:white;fill-rule:nonzero;stroke:black;stroke-width:0.96px;stroke-linejoin:miter;"/>
            <rect x="112.41" y="669.31" width="16.005" height="49.935" style="fill:white;fill-rule:nonzero;stroke:black;stroke-width:1.05px;stroke-linejoin:miter;"/>
            <rect x="115.95" y="669.31" width="8.917" height="49.936" style="fill:white;fill-rule:nonzero;stroke:black;stroke-width:1.04px;stroke-linejoin:miter;"/>
            <path d="M187.08,669.31L203.086,669.31L203.086,719.245L187.081,719.245L187.08,669.31Z" style="fill:white;fill-rule:nonzero;stroke:black;stroke-width:1.05px;stroke-linejoin:miter;"/>
            <rect x="190.73" y="669.31" width="8.917" height="49.936" style="fill:white;fill-rule:nonzero;stroke:black;stroke-width:1.04px;stroke-linejoin:miter;"/>
            <rect x="262.19" y="669.31" width="16.005" height="49.935" style="fill:white;fill-rule:nonzero;stroke:black;stroke-width:1.05px;stroke-linejoin:miter;"/>
            <rect x="265.73" y="669.31" width="8.917" height="49.936" style="fill:white;fill-rule:nonzero;stroke:black;stroke-width:1.04px;stroke-linejoin:miter;"/>
        </g>
        <g>
            <path d="M98.935,664.23L292.005,664.23M115.79,712.97L125.034,712.97M115.79,706.72L125.034,706.72M115.79,700.47L125.034,700.47M115.79,694.22L125.034,694.22M115.79,687.97L125.034,687.97M115.79,681.72L125.034,681.72M115.79,675.47L125.034,675.47M190.77,712.98L199.377,712.98M190.77,706.727L199.377,706.727M190.77,700.473L199.377,700.473M190.77,694.22L199.377,694.22M190.77,687.967L199.377,687.967M190.77,681.714L199.377,681.714M190.77,675.46L199.377,675.46M265.57,712.97L274.814,712.97M265.57,706.72L274.814,706.72M265.57,700.47L274.814,700.47M265.57,694.22L274.814,694.22M265.57,687.97L274.814,687.97M265.57,681.72L274.814,681.72M265.57,675.47L274.814,675.47" style="fill:none;fill-rule:nonzero;stroke:black;stroke-width:0.96px;stroke-linejoin:miter;"/>
        </g>
    </g>
</svg>
