<?xml version="1.0" encoding="UTF-8" standalone="no"?>
<!DOCTYPE svg PUBLIC "-//W3C//DTD SVG 1.1//EN" "http://www.w3.org/Graphics/SVG/1.1/DTD/svg11.dtd">
<svg width="100%" height="100%" viewBox="0 0 640 480" version="1.1" xmlns="http://www.w3.org/2000/svg" xmlns:xlink="http://www.w3.org/1999/xlink" xml:space="preserve" xmlns:serif="http://www.serif.com/" style="fill-rule:evenodd;clip-rule:evenodd;">
    <g>
        <rect x="0" y="0" width="213.337" height="480" style="fill:rgb(0,49,156);"/>
        <rect x="213.337" y="0" width="213.338" height="480" style="fill:rgb(255,222,0);"/>
        <rect x="426.662" y="0" width="213.338" height="480" style="fill:rgb(222,33,16);"/>
    </g>
    <path d="M360.376,320.377L384.643,355.389C385.991,357.334 387.339,359.279 385.303,360.567C383.268,361.856 383.929,367.034 385.277,368.979C387.973,372.869 391.357,373.526 393.393,372.238L411.712,360.644C413.748,359.356 414.435,356.122 411.739,352.232C410.191,350.272 405.659,347.685 403.623,348.973C401.587,350.262 400.239,348.317 398.891,346.371L374.624,311.359" style="fill:rgb(255,25,0);stroke:black;stroke-width:0.73px;"/>
    <g transform="matrix(0.52728,-0.42386,0.44358,0.50386,-32.42,19.918)">
        <path d="M177.17,696.26C177.17,720.721 167.652,740.551 155.91,740.551C144.169,740.551 134.65,720.721 134.65,696.26C134.65,671.799 144.168,651.969 155.91,651.969C167.651,651.969 177.17,671.799 177.17,696.26Z" style="fill:rgb(167,123,59);stroke:black;stroke-width:2.54px;"/>
    </g>
    <path d="M261.952,306.142L240.53,342.81C239.34,344.847 238.15,346.884 236.018,345.747C233.886,344.609 229.373,347.547 228.183,349.583C225.803,353.658 226.744,356.832 228.876,357.969L248.062,368.205C250.194,369.342 253.516,368.443 255.896,364.368C257.01,362.155 257.336,357.12 255.203,355.982C253.071,354.845 254.262,352.808 255.452,350.771L276.875,314.104" style="fill:rgb(255,25,0);stroke:black;stroke-width:0.73px;"/>
    <path d="M331.171,280.577L311.637,280.577C310.991,281.194 305.437,316.175 299.429,329.57C292.105,345.9 270.169,360.311 270.169,360.311C270.169,360.311 283.311,364.291 287.222,366.897C288.194,366.624 309.158,362.232 311.599,336.568C314.041,362.232 296.989,373.897 296.989,373.897C296.989,373.897 321.404,380.896 321.404,397.227C321.404,380.896 345.819,373.897 345.819,373.897C345.819,373.897 333.573,362.232 331.132,336.568C336.014,362.232 354.612,366.624 355.585,366.898C359.495,364.291 372.638,360.311 372.638,360.311C372.638,360.311 350.702,345.901 343.378,329.57C337.371,316.175 331.816,281.194 331.171,280.577ZM248.124,163.907L284.747,175.572C296.954,175.572 309.162,163.92 309.162,152.254C309.568,126.304 299.396,117.247 296.954,117.247L301.838,112.581L294.513,105.581C294.513,105.581 296.962,93.479 321.369,93.929C345.776,94.379 345.785,105.594 345.785,117.259C345.785,128.924 333.577,128.924 333.577,152.255C333.577,163.92 345.785,175.585 357.993,175.585L394.616,163.92L394.616,280.571L248.124,280.571L248.124,163.907Z" style="fill:rgb(167,123,59);stroke:black;stroke-width:1.71px;"/>
    <g>
        <g transform="matrix(0.16672,0,0,0.46773,253.9,31.899)">
            <path d="M302.16,292.24L316.805,307.204L331.449,292.24L346.094,307.204L375.384,292.24L389.645,308.049L404.673,292.24L426.278,308.049L448.607,292.24L463.252,307.204L477.897,292.24" style="fill:none;fill-rule:nonzero;stroke:black;stroke-width:0.49px;"/>
        </g>
        <g transform="matrix(0.68905,0,0,0.65843,16.176,-144.034)">
            <path d="M432.28,435.83L425.194,474.806M435.83,435.83L435.83,474.806M442.91,435.83L442.91,474.806M450,435.83L453.543,474.806M457.09,435.83L460.633,474.806" style="fill:none;fill-rule:nonzero;stroke:black;stroke-width:0.2px;"/>
        </g>
    </g>
    <g>
        <g transform="matrix(-0.68905,0,0,0.65843,443.445,-144.034)">
            <path d="M318.9,361.42C354.333,379.137 354.333,414.569 354.333,432.286C353.082,448.403 354.333,786.616 354.333,786.616C354.333,786.616 352.027,766.594 336.616,751.183L301.183,715.75C288.232,703.976 283.467,680.317 283.467,662.6L283.467,414.57C283.467,414.57 283.467,396.853 318.9,361.42Z" style="fill:rgb(167,123,59);stroke:black;stroke-width:2.54px;"/>
        </g>
        <g transform="matrix(-0.68905,0,0,0.65843,443.445,-237.354)">
            <path d="M283.46,574.02C283.877,574.02 301.176,556.303 301.176,556.303L318.893,574.02L336.609,556.303L354.326,574.02" style="fill:none;fill-rule:nonzero;stroke:black;stroke-width:2.54px;"/>
        </g>
        <g transform="matrix(-0.68905,0,0,-0.65843,443.445,530.2)">
            <path d="M283.46,574.02C283.877,574.02 301.176,556.303 301.176,556.303L318.893,574.02L336.609,556.303L354.326,574.02" style="fill:none;fill-rule:nonzero;stroke:black;stroke-width:2.54px;"/>
        </g>
        <g transform="matrix(-0.68905,0,0,0.65843,443.445,-190.695)">
            <path d="M283.46,574.02C283.877,574.02 301.176,556.303 301.176,556.303L318.893,574.02L336.609,556.303L354.326,574.02" style="fill:none;fill-rule:nonzero;stroke:black;stroke-width:2.54px;"/>
        </g>
        <g transform="matrix(-0.68905,0,0,1.24911,443.445,-566.794)">
            <path d="M301.39,556.99L301.182,715.75" style="fill:none;fill-rule:nonzero;stroke:black;stroke-width:2.54px;"/>
        </g>
        <g transform="matrix(-0.68905,0,0,1.12111,431.38,-463.993)">
            <path d="M301.39,539.27L301.182,715.75" style="fill:none;fill-rule:nonzero;stroke:black;stroke-width:2.54px;"/>
        </g>
        <g transform="matrix(-0.68905,0,0,1.2559,419.17,-548.331)">
            <path d="M301.39,539.27L301.182,715.75" style="fill:none;fill-rule:nonzero;stroke:black;stroke-width:2.54px;"/>
        </g>
    </g>
    <g>
        <g transform="matrix(0.68905,0,0,0.65843,199.292,-144.034)">
            <path d="M318.9,361.42C354.333,379.137 354.333,414.569 354.333,432.286C353.082,448.403 354.333,786.616 354.333,786.616C354.333,786.616 352.027,766.594 336.616,751.183L301.183,715.75C288.232,703.976 283.467,680.317 283.467,662.6L283.467,414.57C283.467,414.57 283.467,396.853 318.9,361.42Z" style="fill:rgb(167,123,59);stroke:black;stroke-width:2.54px;"/>
        </g>
        <g transform="matrix(0.68905,0,0,0.65843,199.292,-237.354)">
            <path d="M283.46,574.02C283.877,574.02 301.176,556.303 301.176,556.303L318.893,574.02L336.609,556.303L354.326,574.02" style="fill:none;fill-rule:nonzero;stroke:black;stroke-width:2.54px;"/>
        </g>
        <g transform="matrix(0.68905,0,0,-0.65843,199.292,530.2)">
            <path d="M283.46,574.02C283.877,574.02 301.176,556.303 301.176,556.303L318.893,574.02L336.609,556.303L354.326,574.02" style="fill:none;fill-rule:nonzero;stroke:black;stroke-width:2.54px;"/>
        </g>
        <g transform="matrix(0.68905,0,0,0.65843,199.292,-190.695)">
            <path d="M283.46,574.02C283.877,574.02 301.176,556.303 301.176,556.303L318.893,574.02L336.609,556.303L354.326,574.02" style="fill:none;fill-rule:nonzero;stroke:black;stroke-width:2.54px;"/>
        </g>
        <g transform="matrix(0.68905,0,0,1.24911,199.292,-566.794)">
            <path d="M301.39,556.99L301.182,715.75" style="fill:none;fill-rule:nonzero;stroke:black;stroke-width:2.54px;"/>
        </g>
        <g transform="matrix(0.68905,0,0,1.12111,211.358,-463.993)">
            <path d="M301.39,539.27L301.182,715.75" style="fill:none;fill-rule:nonzero;stroke:black;stroke-width:2.54px;"/>
        </g>
        <g transform="matrix(0.68905,0,0,1.2559,223.56,-548.331)">
            <path d="M301.39,539.27L301.182,715.75" style="fill:none;fill-rule:nonzero;stroke:black;stroke-width:2.54px;"/>
        </g>
    </g>
    <g transform="matrix(0.63605,0.25323,-0.26502,0.60778,361.151,-165.211)">
        <path d="M177.17,696.26C177.17,720.721 167.652,740.551 155.91,740.551C144.169,740.551 134.65,720.721 134.65,696.26C134.65,671.799 144.168,651.969 155.91,651.969C167.651,651.969 177.17,671.799 177.17,696.26Z" style="fill:rgb(167,123,59);stroke:black;stroke-width:2.54px;"/>
    </g>
    <rect x="248.119" y="175.588" width="146.493" height="69.991" style="fill:rgb(255,0,0);"/>
    <path d="M248.119,245.58L394.612,245.58L394.612,280.576C394.612,303.906 357.989,303.906 321.366,327.236C284.742,303.906 248.119,303.906 248.119,280.576L248.119,245.58Z" style="fill:rgb(86,77,255);"/>
    <g transform="matrix(0.68905,0,0,0.65843,16.177,-144.034)">
        <path d="M336.61,485.43L549.21,485.43L549.21,644.88C549.21,680.313 496.06,680.313 442.91,715.746C389.761,680.313 336.61,680.313 336.61,644.88L336.61,485.43Z" style="fill:none;fill-rule:nonzero;stroke:rgb(255,255,0);stroke-width:2.03px;"/>
    </g>
    <g transform="matrix(0.48234,0,0,0.30917,108.523,140.092)">
        <path d="M385.59,129.9C385.59,129.9 334.972,185.347 334.972,238.5C334.972,291.649 388.121,309.366 388.121,309.366C388.121,309.366 370.404,309.366 370.404,380.232C370.404,415.665 423.554,397.949 423.554,415.665C423.554,433.382 422.803,476.243 423.554,504.248C423.554,521.964 388.121,504.248 388.121,521.964C388.121,530.823 414.696,575.114 441.271,575.114C467.845,575.114 494.42,530.823 494.42,521.964C494.42,504.248 458.987,521.964 458.987,504.248L458.987,415.665C458.987,397.949 512.137,415.665 512.137,380.232C512.137,309.366 494.42,309.366 494.42,309.366C494.42,309.366 547.57,291.649 547.57,238.5C547.57,185.351 496.951,129.9 496.951,129.9C496.951,129.899 525.424,203.063 525.424,238.5C525.424,256.217 512.137,291.649 476.704,291.649C476.704,291.649 467.743,273.933 458.987,291.649C458.987,291.649 448.798,273.933 441.271,291.649C438.673,297.764 434.064,273.933 423.554,291.649C419.089,296.346 415.57,273.933 405.837,291.649C388.121,291.649 352.689,273.933 352.688,238.5C352.688,203.067 385.59,129.9 385.59,129.9Z" style="fill:rgb(255,255,0);stroke:black;stroke-width:2.45px;"/>
    </g>
    <g transform="matrix(0.48234,0,0,0.30917,110.363,201.59)">
        <path d="M382.68,248.03C379.137,251.573 387.261,309.304 389.767,311.809C393.31,315.352 414.57,315.352 418.113,311.809C420.638,309.284 418.113,255.116 414.57,251.573C411.027,248.029 385.186,245.524 382.68,248.03Z" style="fill:rgb(255,255,0);stroke:black;stroke-width:2.45px;"/>
    </g>
    <g transform="matrix(-0.48234,0,0,0.30917,532.374,201.59)">
        <path d="M382.68,248.03C379.137,251.573 387.261,309.304 389.767,311.809C393.31,315.352 414.57,315.352 418.113,311.809C420.638,309.284 418.113,255.116 414.57,251.573C411.027,248.029 385.186,245.524 382.68,248.03Z" style="fill:rgb(255,255,0);stroke:black;stroke-width:2.45px;"/>
    </g>
    <g transform="matrix(0.5544,0,0,0.38542,82.69,183.727)">
        <path d="M414.57,228.54C414.57,237.346 407.431,244.485 398.625,244.485C389.819,244.485 382.68,237.346 382.68,228.54C382.68,219.734 389.819,212.595 398.625,212.595C407.431,212.595 414.57,219.734 414.57,228.54Z" style="fill:rgb(255,255,0);stroke:black;stroke-width:2.45px;"/>
    </g>
    <g transform="matrix(0.55441,0,0,0.38543,118.046,183.727)">
        <path d="M414.57,228.54C414.57,237.346 407.431,244.485 398.625,244.485C389.819,244.485 382.68,237.346 382.68,228.54C382.68,219.734 389.819,212.595 398.625,212.595C407.431,212.595 414.57,219.734 414.57,228.54Z" style="fill:rgb(255,255,0);stroke:black;stroke-width:2.45px;"/>
    </g>
    <path d="M336.753,307.498C336.753,309.011 334.84,310.237 332.48,310.237C330.12,310.237 328.208,309.011 328.208,307.498C328.208,305.985 330.121,304.759 332.48,304.759C334.84,304.759 336.753,305.985 336.753,307.498ZM314.531,307.498C314.531,309.011 312.618,310.237 310.258,310.237C307.898,310.237 305.986,309.011 305.986,307.498C305.986,305.985 307.899,304.759 310.258,304.759C312.618,304.759 314.531,305.985 314.531,307.498Z"/>
    <g transform="matrix(0.67225,0,0,0.64237,26.002,-133.336)">
        <path d="M439.37,549.92L431.59,539.66L418.82,541.41L420.58,528.65L410.32,520.87L420.58,513.08L418.82,500.32L431.59,502.08L439.37,491.81L447.15,502.08L459.92,500.32L458.16,513.08L468.42,520.87L458.16,528.65L459.92,541.41L447.15,539.66L439.37,549.92Z" style="fill:rgb(255,255,0);stroke:black;stroke-width:1.08px;"/>
    </g>
    <g transform="matrix(0.68905,0,0,0.65843,16.176,-144.034)">
        <path d="M496.06,591.73L517.32,602.36L538.58,591.73L517.32,581.1L496.06,591.73Z" style="fill:rgb(255,255,0);stroke:black;stroke-width:1.08px;"/>
    </g>
    <g transform="matrix(0.68905,0,0,0.65843,-88.808,-144.034)">
        <path d="M496.06,591.73L517.32,602.36L538.58,591.73L517.32,581.1L496.06,591.73Z" style="fill:rgb(255,255,0);stroke:black;stroke-width:1.08px;"/>
    </g>
    <g transform="matrix(0.59753,-0.3279,0.34316,0.57097,-165.149,86.49)">
        <path d="M535.04,659.06C531.497,651.974 520.867,648.43 513.781,648.43C506.694,648.43 499.607,648.43 492.521,659.06C492.521,644.887 503.023,637.8 513.781,637.8C524.537,637.8 535.04,648.303 535.04,659.06Z" style="fill:rgb(255,255,0);stroke:black;stroke-width:1.08px;"/>
    </g>
    <g transform="matrix(0.68905,0,0,0.65843,13.735,-155.7)">
        <path d="M386.22,651.97C386.22,651.998 386.221,652.026 386.221,652.054C386.221,655.942 383.021,659.141 379.134,659.141C375.246,659.141 372.047,655.942 372.047,652.054C372.047,652.026 372.047,651.998 372.047,651.97C372.093,648.114 375.277,644.967 379.134,644.967C382.99,644.967 386.174,648.114 386.22,651.97Z" style="fill:rgb(255,255,0);stroke:black;stroke-width:1.08px;"/>
    </g>
    <g transform="matrix(0.68905,0,0,0.65843,8.851,-139.368)">
        <path d="M386.22,651.97C386.22,651.998 386.221,652.026 386.221,652.054C386.221,655.942 383.021,659.141 379.134,659.141C375.246,659.141 372.047,655.942 372.047,652.054C372.047,652.026 372.047,651.998 372.047,651.97C372.093,648.114 375.277,644.967 379.134,644.967C382.99,644.967 386.174,648.114 386.22,651.97Z" style="fill:rgb(255,255,0);stroke:black;stroke-width:1.08px;"/>
    </g>
    <g transform="matrix(0.68905,0,0,0.65843,6.41,-148.7)">
        <path d="M386.22,651.97C386.22,651.998 386.221,652.026 386.221,652.054C386.221,655.942 383.021,659.141 379.134,659.141C375.246,659.141 372.047,655.942 372.047,652.054C372.047,652.026 372.047,651.998 372.047,651.97C372.093,648.114 375.277,644.967 379.134,644.967C382.99,644.967 386.174,648.114 386.22,651.97Z" style="fill:rgb(255,255,0);stroke:black;stroke-width:1.08px;"/>
    </g>
    <g transform="matrix(0.68905,0,0,0.65843,18.618,-139.368)">
        <path d="M386.22,651.97C386.22,651.998 386.221,652.026 386.221,652.054C386.221,655.942 383.021,659.141 379.134,659.141C375.246,659.141 372.047,655.942 372.047,652.054C372.047,652.026 372.047,651.998 372.047,651.97C372.093,648.114 375.277,644.967 379.134,644.967C382.99,644.967 386.174,648.114 386.22,651.97Z" style="fill:rgb(255,255,0);stroke:black;stroke-width:1.08px;"/>
    </g>
    <g transform="matrix(0.68905,0,0,0.65843,21.06,-148.7)">
        <path d="M386.22,651.97C386.22,651.998 386.221,652.026 386.221,652.054C386.221,655.942 383.021,659.141 379.134,659.141C375.246,659.141 372.047,655.942 372.047,652.054C372.047,652.026 372.047,651.998 372.047,651.97C372.093,648.114 375.277,644.967 379.134,644.967C382.99,644.967 386.174,648.114 386.22,651.97Z" style="fill:rgb(255,255,0);stroke:black;stroke-width:1.08px;"/>
    </g>
    <g transform="matrix(0.68905,0,0,0.65843,13.735,-146.367)">
        <path d="M386.22,651.97C386.22,651.998 386.221,652.026 386.221,652.054C386.221,655.942 383.021,659.141 379.134,659.141C375.246,659.141 372.047,655.942 372.047,652.054C372.047,652.026 372.047,651.998 372.047,651.97C372.093,648.114 375.277,644.967 379.134,644.967C382.99,644.967 386.174,648.114 386.22,651.97Z" style="fill:rgb(255,255,0);stroke:black;stroke-width:1.08px;"/>
    </g>
    <g>
        <path d="M297.774,120.38C285.451,120.38 283.822,122.325 278.241,124.27C278.241,118.904 291.963,112.604 304.285,112.604C304.285,116.493 301.029,120.382 297.774,120.381L297.774,120.38Z" style="fill:rgb(218,69,0);"/>
        <path d="M316.484,107.932C316.484,110.509 314.298,112.598 311.601,112.598C308.904,112.598 306.718,110.509 306.718,107.932C306.718,105.355 308.904,103.266 311.601,103.266C314.298,103.266 316.484,105.356 316.484,107.932Z" style="fill:rgb(202,201,199);"/>
        <g transform="matrix(0.68905,0,0,0.65843,16.176,-144.034)">
            <path d="M361.42,357.87L361.42,368.5L379.137,368.5L379.137,421.65L389.767,421.65L389.767,368.5L407.483,368.5L407.483,357.87L389.767,357.87L389.767,343.697L379.137,343.697L379.137,357.87L361.42,357.87Z" style="fill:rgb(255,255,0);stroke:black;stroke-width:1.08px;"/>
        </g>
        <path d="M304.263,112.607C289.888,112.607 281.476,113.901 274.965,116.494C274.965,109.339 283.377,100.941 297.752,100.941C301.007,100.941 304.262,108.717 304.262,112.607L304.263,112.607Z" style="fill:rgb(218,69,0);"/>
    </g>
    <g>
        <g transform="matrix(0.38821,0.29653,-0.14073,0.23692,237.452,71.286)">
            <path d="M67.323,612.99C53.15,598.82 50.689,591.63 70.866,602.89L354.616,850.39L351.25,857.358L67.32,612.988L67.323,612.99Z" style="fill:rgb(0,133,0);stroke:black;stroke-width:0.71px;"/>
        </g>
        <path d="M228.398,330.405C229.168,319.82 209.788,308.369 209.021,309.113C208.254,309.857 210.199,316.02 213.875,319.232C206.837,315.606 199.465,313.373 199.311,314.947C198.737,317.069 210.248,322.137 211.204,324.095C211.36,325.494 202.75,325.311 202.907,326.71C203.063,328.11 227.157,340.283 228.397,330.404L228.398,330.405ZM209.035,299.57C209.804,288.986 190.424,277.535 189.657,278.28C188.89,279.023 190.835,285.186 194.511,288.397C187.473,284.772 180.101,282.539 179.947,284.113C179.373,286.235 190.885,291.303 191.84,293.26C191.996,294.66 183.387,294.477 183.543,295.876C183.699,297.275 207.793,309.449 209.034,299.57L209.035,299.57ZM194.217,271.574C194.987,260.989 175.606,249.539 174.84,250.283C174.073,251.026 176.018,257.189 179.693,260.401C172.655,256.775 165.284,254.542 165.13,256.116C164.556,258.239 176.067,263.306 177.023,265.264C177.179,266.663 168.569,266.48 168.725,267.879C168.882,269.279 192.975,281.452 194.217,271.574ZM179.568,241.24C180.337,230.655 160.957,219.205 160.19,219.949C159.423,220.692 161.369,226.855 165.044,230.067C158.006,226.441 150.634,224.208 150.48,225.782C149.906,227.905 161.418,232.972 162.374,234.93C162.53,236.329 153.92,236.146 154.076,237.545C154.232,238.945 178.326,251.118 179.567,241.24L179.568,241.24Z" style="fill:rgb(0,143,0);"/>
        <path d="M184.603,239.866C193.98,234.184 192.143,212.481 191.063,212.333C189.981,212.183 185.939,217.333 185.411,222.066C184.295,214.501 181.808,207.504 180.389,208.318C178.26,209.134 180.812,220.998 179.729,222.893C178.642,223.843 173.693,217.109 172.606,218.058C171.52,219.008 175.541,244.767 184.603,239.866ZM198.185,266.497C209.01,264.132 214.861,243.089 213.894,242.604C212.927,242.118 207.318,245.684 205.166,249.976C206.758,242.489 206.858,235.1 205.236,235.415C202.945,235.505 201.206,247.502 199.522,248.943C198.166,249.492 195.853,241.565 194.497,242.113C193.141,242.662 187.932,268.225 198.186,266.497L198.185,266.497ZM214.41,293.739C224.282,288.882 224.488,267.109 223.425,266.869C222.362,266.628 217.855,271.411 216.885,276.079C216.482,268.449 214.661,261.267 213.172,261.957C210.975,262.587 212.405,274.622 211.148,276.417C209.977,277.27 205.678,270.139 204.508,270.991C203.336,271.844 204.926,297.844 214.41,293.738L214.41,293.739ZM231.972,329.307C242.308,325.429 244.817,303.788 243.785,303.446C242.753,303.103 237.762,307.426 236.303,311.976C236.711,304.346 235.659,297.026 234.105,297.568C231.852,297.983 232,310.094 230.56,311.758C229.305,312.493 225.784,304.983 224.528,305.718C223.273,306.454 222.102,332.474 231.972,329.306L231.972,329.307Z" style="fill:rgb(0,143,0);"/>
    </g>
    <g transform="matrix(0.60164,0.32097,-0.3359,0.5749,389.583,-146.809)">
        <path d="M209.06,775.98C209.06,783.808 198.748,790.153 186.029,790.153C173.309,790.153 162.998,783.807 162.998,775.98C162.998,768.152 173.31,761.807 186.029,761.807C198.749,761.807 209.06,768.153 209.06,775.98Z" style="fill:rgb(255,25,0);stroke:black;stroke-width:1.08px;"/>
    </g>
    <g>
        <g transform="matrix(0.49887,0.1571,-0.1826,0.4713,451.443,-3.726)">
            <path d="M155.91,414.57L155.91,407.483L162.996,407.483L162.996,400.397L170.083,400.397L170.083,407.483L177.169,407.483L177.169,414.57L170.083,414.57L170.083,432.286L162.996,432.286L162.996,414.57L155.91,414.57Z" style="fill:rgb(255,255,0);stroke:black;stroke-width:0.51px;"/>
        </g>
        <g transform="matrix(0.49887,0.1571,-0.1826,0.4713,451.443,-3.726)">
            <rect x="162.99" y="474.8" width="7.087" height="205.51" style="fill:rgb(255,255,0);stroke:black;stroke-width:0.51px;"/>
        </g>
        <g transform="matrix(0.49887,0.1571,-0.1826,0.4713,451.443,-3.726)">
            <path d="M159.45,676.77L173.623,676.77L173.623,733.463L159.45,733.463L159.45,676.77ZM155.91,439.37L177.169,439.37C191.343,439.37 173.626,478.346 173.626,478.346L159.453,478.346C159.453,478.346 141.736,439.37 155.91,439.37Z" style="fill:rgb(255,255,0);stroke:black;stroke-width:0.51px;"/>
        </g>
        <g transform="matrix(0.49887,0.1571,-0.1826,0.4713,451.443,-3.726)">
            <path d="M173.62,434.06C173.62,436.995 170.447,439.375 166.533,439.375C162.619,439.375 159.447,436.995 159.447,434.06C159.447,431.125 162.62,428.745 166.533,428.745C170.446,428.745 173.62,431.125 173.62,434.06Z" style="fill:rgb(255,255,0);stroke:black;stroke-width:0.51px;"/>
        </g>
    </g>
    <g transform="matrix(0.57449,-0.36357,0.38048,0.54895,-2.259,4.212)">
        <path d="M209.06,775.98C209.06,783.808 198.748,790.153 186.029,790.153C173.309,790.153 162.998,783.807 162.998,775.98C162.998,768.152 173.31,761.807 186.029,761.807C198.749,761.807 209.06,768.153 209.06,775.98Z" style="fill:rgb(255,25,0);stroke:black;stroke-width:1.08px;"/>
    </g>
</svg>
