<?xml version="1.0" encoding="UTF-8" standalone="no"?>
<!DOCTYPE svg PUBLIC "-//W3C//DTD SVG 1.1//EN" "http://www.w3.org/Graphics/SVG/1.1/DTD/svg11.dtd">
<svg width="100%" height="100%" viewBox="0 0 640 480" version="1.1" xmlns="http://www.w3.org/2000/svg" xmlns:xlink="http://www.w3.org/1999/xlink" xml:space="preserve" xmlns:serif="http://www.serif.com/" style="fill-rule:evenodd;clip-rule:evenodd;">
    <g transform="matrix(2.2222,0,0,2.2222,0,0)">
        <clipPath id="_clip1">
            <rect x="0" y="0" width="288" height="216"/>
        </clipPath>
        <g clip-path="url(#_clip1)">
            <rect x="0" y="0" width="324" height="216" style="fill:rgb(51,153,204);fill-rule:nonzero;"/>
            <path d="M0,144L0,156L324,156L324,144L0,144ZM0,168L0,180L324,180L324,168L0,168Z" style="fill:rgb(255,255,0);fill-rule:nonzero;"/>
        </g>
    </g>
    <path d="M142.646,28.066L145.599,31.019L142.646,28.066ZM139.695,33.97L142.647,36.923L139.695,33.971M145.599,33.971L148.549,36.924L145.599,33.972L145.599,33.971Z" style="fill:rgb(153,204,204);fill-rule:nonzero;"/>
    <path d="M139.695,36.923L142.647,39.875L139.695,36.923M145.599,36.923L148.549,39.875L145.599,36.923Z" style="fill:rgb(204,204,255);fill-rule:nonzero;"/>
    <path d="M136.743,42.827L139.695,45.779L136.743,42.826L136.743,42.827Z" style="fill:rgb(102,204,204);fill-rule:nonzero;"/>
    <path d="M142.646,42.826L145.599,45.779L142.646,42.826Z" style="fill:rgb(204,102,102);fill-rule:nonzero;"/>
    <path d="M148.55,42.827L151.503,45.779L148.551,42.826L148.55,42.827Z" style="fill:rgb(102,204,204);fill-rule:nonzero;"/>
    <path d="M136.743,45.78L139.695,48.73L136.743,45.78ZM148.55,45.78L151.503,48.73L148.551,45.78L148.55,45.78Z" style="fill:rgb(204,204,255);fill-rule:nonzero;"/>
    <path d="M139.695,48.73L142.647,51.684L139.695,48.731M145.599,48.731L148.549,51.685L145.599,48.732L145.599,48.731Z" style="fill:rgb(255,204,204);fill-rule:nonzero;"/>
    <path d="M133.79,51.684L136.743,54.636L133.791,51.684L133.79,51.684Z" style="fill:rgb(102,204,204);fill-rule:nonzero;"/>
    <path d="M142.16,34.065L121.465,112.515L42.785,133.882L121.238,154.358L142.16,232.808L163.078,154.358L241.53,133.436L163.078,112.514L142.16,34.064L142.16,34.065Z" style="fill:rgb(204,0,0);fill-rule:nonzero;stroke:white;stroke-width:3.69px;"/>
    <path d="M151.503,51.684L154.455,54.636L151.503,51.684Z" style="fill:rgb(102,204,204);fill-rule:nonzero;"/>
    <path d="M133.79,54.636L136.743,57.588L133.791,54.636M151.504,54.636L154.456,57.588L151.504,54.636Z" style="fill:rgb(153,204,255);fill-rule:nonzero;"/>
    <path d="M136.743,57.588L139.695,60.54L136.743,57.588M148.551,57.588L151.504,60.54L148.552,57.588L148.551,57.588Z" style="fill:rgb(255,204,204);fill-rule:nonzero;"/>
    <path d="M130.838,60.54L133.791,63.492L130.839,60.54L130.838,60.54Z" style="fill:rgb(102,153,204);fill-rule:nonzero;"/>
    <path d="M137.726,62.51L138.71,64.477L137.726,62.509M149.534,62.509L150.518,64.476L149.534,62.508L149.534,62.509Z" style="fill:rgb(204,51,51);fill-rule:nonzero;"/>
    <path d="M154.455,60.54L157.407,63.492L154.455,60.54Z" style="fill:rgb(102,153,204);fill-rule:nonzero;"/>
    <path d="M130.838,63.492L133.791,66.444L130.839,63.492M154.456,63.492L157.408,66.444L154.456,63.492Z" style="fill:rgb(153,204,255);fill-rule:nonzero;"/>
    <path d="M133.79,66.444L136.743,69.396L133.791,66.444M151.504,66.444L154.456,69.396L151.504,66.444Z" style="fill:rgb(255,204,204);fill-rule:nonzero;"/>
    <path d="M127.886,69.396L130.838,72.348L127.886,69.396ZM157.407,69.396L160.359,72.348L157.406,69.396L157.407,69.396Z" style="fill:rgb(102,153,204);fill-rule:nonzero;"/>
    <path d="M127.886,72.348L130.838,75.3L127.886,72.348M157.406,72.348L160.359,75.3L157.406,72.348Z" style="fill:rgb(153,204,204);fill-rule:nonzero;"/>
    <path d="M127.886,75.3L130.838,78.252L127.886,75.3M157.406,75.3L160.359,78.252L157.406,75.3Z" style="fill:rgb(204,255,255);fill-rule:nonzero;"/>
    <path d="M124.934,78.252L127.886,81.204L124.934,78.252Z" style="fill:rgb(102,153,204);fill-rule:nonzero;"/>
    <path d="M130.838,78.252L133.791,81.204L130.839,78.252M154.456,78.252L157.408,81.204L154.456,78.252Z" style="fill:rgb(255,204,204);fill-rule:nonzero;"/>
    <path d="M160.36,78.252L163.31,81.204L160.36,78.252Z" style="fill:rgb(102,153,204);fill-rule:nonzero;"/>
    <path d="M124.934,81.204L127.886,84.157L124.934,81.205L124.934,81.204Z" style="fill:rgb(153,204,204);fill-rule:nonzero;"/>
    <path d="M131.82,83.174L132.806,85.141L131.821,83.175M155.439,83.175L156.423,85.142L155.439,83.176L155.439,83.175Z" style="fill:rgb(204,51,51);fill-rule:nonzero;"/>
    <path d="M160.36,81.204L163.31,84.157L160.36,81.205L160.36,81.204Z" style="fill:rgb(153,204,204);fill-rule:nonzero;"/>
    <path d="M124.934,84.157L127.886,87.109L124.934,84.156M160.359,84.156L163.309,87.108L160.359,84.155L160.359,84.156Z" style="fill:rgb(204,255,255);fill-rule:nonzero;"/>
    <path d="M127.886,87.11L130.838,90.06L127.886,87.11M157.406,87.11L160.359,90.06L157.406,87.11Z" style="fill:rgb(255,204,204);fill-rule:nonzero;"/>
    <path d="M121.982,90.06L124.934,93.013L121.982,90.061L121.982,90.06Z" style="fill:rgb(153,204,204);fill-rule:nonzero;"/>
    <path d="M128.87,92.03L129.854,93.998L128.869,92.03M158.389,92.03L159.374,93.998L158.389,92.03Z" style="fill:rgb(204,51,51);fill-rule:nonzero;"/>
    <path d="M163.31,90.06L166.264,93.013L163.31,90.06Z" style="fill:rgb(153,204,204);fill-rule:nonzero;"/>
    <path d="M121.982,93.013L124.934,95.965L121.982,93.013M163.312,93.013L166.264,95.965L163.311,93.013L163.312,93.013Z" style="fill:rgb(204,204,255);fill-rule:nonzero;"/>
    <path d="M124.934,95.965L127.886,98.917L124.934,95.965M160.359,95.965L163.309,98.917L160.359,95.965Z" style="fill:rgb(255,204,204);fill-rule:nonzero;"/>
    <path d="M119.03,98.917L121.982,101.869L119.03,98.916L119.03,98.917Z" style="fill:rgb(153,204,204);fill-rule:nonzero;"/>
    <path d="M125.917,100.886L126.901,102.854L125.918,100.886M161.343,100.886L162.328,102.854L161.343,100.886Z" style="fill:rgb(204,51,51);fill-rule:nonzero;"/>
    <path d="M166.264,98.917L169.216,101.869L166.264,98.916L166.264,98.917Z" style="fill:rgb(153,204,204);fill-rule:nonzero;"/>
    <path d="M119.03,101.87L121.982,104.82L119.03,101.87M166.264,101.87L169.216,104.82L166.264,101.87Z" style="fill:rgb(204,204,255);fill-rule:nonzero;"/>
    <path d="M121.982,104.82L124.934,107.773L121.982,104.821M163.312,104.821L166.264,107.774L163.311,104.822L163.312,104.821Z" style="fill:rgb(255,204,204);fill-rule:nonzero;"/>
    <path d="M116.078,107.773L119.03,110.725L116.078,107.773Z" style="fill:rgb(153,204,204);fill-rule:nonzero;"/>
    <path d="M121.982,107.773L124.934,110.725L121.982,107.773M163.312,107.773L166.264,110.725L163.311,107.773L163.312,107.773Z" style="fill:rgb(204,51,51);fill-rule:nonzero;"/>
    <path d="M169.216,107.773L172.168,110.725L169.216,107.773M107.222,110.725L110.174,113.678L107.222,110.726L107.222,110.725Z" style="fill:rgb(153,204,204);fill-rule:nonzero;"/>
    <path d="M110.174,110.725L113.126,113.678L110.174,110.726M175.12,110.726L178.072,113.678L175.12,110.726Z" style="fill:rgb(204,204,255);fill-rule:nonzero;"/>
    <path d="M178.072,110.725L181.024,113.678L178.072,110.726M98.365,113.678L101.317,116.63L98.365,113.678Z" style="fill:rgb(153,204,204);fill-rule:nonzero;"/>
    <path d="M101.317,113.678L104.27,116.63L101.317,113.678Z" style="fill:rgb(204,204,255);fill-rule:nonzero;"/>
    <path d="M113.126,113.678L116.078,116.63L113.126,113.678Z" style="fill:rgb(255,204,204);fill-rule:nonzero;"/>
    <path d="M116.078,113.678L119.03,116.63L116.078,113.678M169.216,113.678L172.168,116.63L169.216,113.678Z" style="fill:rgb(204,51,51);fill-rule:nonzero;"/>
    <path d="M172.168,113.678L175.12,116.63L172.168,113.678Z" style="fill:rgb(255,204,204);fill-rule:nonzero;"/>
    <path d="M183.976,113.678L186.928,116.63L183.976,113.678Z" style="fill:rgb(204,204,255);fill-rule:nonzero;"/>
    <path d="M186.928,113.678L189.88,116.63L186.928,113.678Z" style="fill:rgb(153,204,204);fill-rule:nonzero;"/>
    <path d="M86.557,116.63L89.509,119.582L86.556,116.63L86.557,116.63Z" style="fill:rgb(102,153,204);fill-rule:nonzero;"/>
    <path d="M89.51,116.63L92.46,119.582L89.51,116.63Z" style="fill:rgb(153,204,204);fill-rule:nonzero;"/>
    <path d="M92.46,116.63L95.413,119.582L92.461,116.63L92.46,116.63Z" style="fill:rgb(204,255,255);fill-rule:nonzero;"/>
    <path d="M104.27,116.63L107.222,119.582L104.27,116.63Z" style="fill:rgb(255,204,204);fill-rule:nonzero;"/>
    <path d="M109.19,117.613L111.16,118.597L109.19,117.613M177.09,117.613L179.057,118.597L177.089,117.613L177.09,117.613Z" style="fill:rgb(204,51,51);fill-rule:nonzero;"/>
    <path d="M181.024,116.63L183.976,119.582L181.024,116.63Z" style="fill:rgb(255,204,204);fill-rule:nonzero;"/>
    <path d="M192.833,116.63L195.785,119.582L192.833,116.63Z" style="fill:rgb(204,255,255);fill-rule:nonzero;"/>
    <path d="M195.785,116.63L198.737,119.582L195.785,116.63Z" style="fill:rgb(153,204,204);fill-rule:nonzero;"/>
    <path d="M198.737,116.63L201.689,119.582L198.736,116.63M77.7,119.582L80.653,122.534L77.701,119.582L77.7,119.582Z" style="fill:rgb(102,153,204);fill-rule:nonzero;"/>
    <path d="M80.653,119.582L83.605,122.534L80.653,119.582Z" style="fill:rgb(153,204,204);fill-rule:nonzero;"/>
    <path d="M83.605,119.582L86.557,122.534L83.605,119.582Z" style="fill:rgb(204,255,255);fill-rule:nonzero;"/>
    <path d="M95.413,119.582L98.365,122.534L95.413,119.582Z" style="fill:rgb(255,204,204);fill-rule:nonzero;"/>
    <path d="M100.334,120.565L102.302,121.549L100.334,120.564M185.944,120.564L187.914,121.548L185.944,120.563L185.944,120.564Z" style="fill:rgb(204,51,51);fill-rule:nonzero;"/>
    <path d="M189.88,119.582L192.833,122.534L189.88,119.582Z" style="fill:rgb(255,204,204);fill-rule:nonzero;"/>
    <path d="M201.69,119.582L204.64,122.534L201.69,119.582Z" style="fill:rgb(204,255,255);fill-rule:nonzero;"/>
    <path d="M204.64,119.582L207.593,122.534L204.641,119.582L204.64,119.582Z" style="fill:rgb(153,204,204);fill-rule:nonzero;"/>
    <path d="M207.593,119.582L210.545,122.534L207.593,119.582M68.843,122.534L71.796,125.486L68.844,122.534L68.843,122.534Z" style="fill:rgb(102,153,204);fill-rule:nonzero;"/>
    <path d="M71.796,122.534L74.748,125.486L71.796,122.534Z" style="fill:rgb(153,204,255);fill-rule:nonzero;"/>
    <path d="M86.557,122.534L89.509,125.486L86.556,122.534L86.557,122.534Z" style="fill:rgb(255,204,204);fill-rule:nonzero;"/>
    <path d="M91.478,123.517L93.446,124.501L91.478,123.518M194.802,123.518L196.769,124.502L194.801,123.519L194.802,123.518Z" style="fill:rgb(204,51,51);fill-rule:nonzero;"/>
    <path d="M198.737,122.534L201.689,125.486L198.736,122.534L198.737,122.534Z" style="fill:rgb(255,204,204);fill-rule:nonzero;"/>
    <path d="M213.497,122.534L216.449,125.486L213.496,122.534L213.497,122.534Z" style="fill:rgb(153,204,255);fill-rule:nonzero;"/>
    <path d="M216.45,122.534L219.4,125.486L216.45,122.534Z" style="fill:rgb(102,153,204);fill-rule:nonzero;"/>
    <path d="M59.988,125.486L62.94,128.438L59.988,125.486Z" style="fill:rgb(102,204,204);fill-rule:nonzero;"/>
    <path d="M62.94,125.486L65.892,128.438L62.94,125.486Z" style="fill:rgb(153,204,255);fill-rule:nonzero;"/>
    <path d="M74.75,125.486L77.7,128.438L74.75,125.486ZM210.545,125.486L213.497,128.438L210.545,125.486Z" style="fill:rgb(255,204,204);fill-rule:nonzero;"/>
    <path d="M222.353,125.486L225.306,128.438L222.353,125.486Z" style="fill:rgb(153,204,255);fill-rule:nonzero;"/>
    <path d="M225.306,125.486L228.258,128.438L225.306,125.486M51.132,128.438L54.084,131.39L51.132,128.438Z" style="fill:rgb(102,204,204);fill-rule:nonzero;"/>
    <path d="M54.084,128.438L57.036,131.39L54.084,128.438Z" style="fill:rgb(204,204,255);fill-rule:nonzero;"/>
    <path d="M65.892,128.438L68.844,131.39L65.892,128.438Z" style="fill:rgb(255,204,204);fill-rule:nonzero;"/>
    <path d="M70.813,129.42L72.781,130.405L70.814,129.421M215.467,129.421L217.435,130.406L215.467,129.422L215.467,129.421Z" style="fill:rgb(204,51,51);fill-rule:nonzero;"/>
    <path d="M219.4,128.438L222.354,131.39L219.401,128.438L219.4,128.438Z" style="fill:rgb(255,204,204);fill-rule:nonzero;"/>
    <path d="M231.21,128.438L234.162,131.39L231.21,128.438Z" style="fill:rgb(204,204,255);fill-rule:nonzero;"/>
    <path d="M234.162,128.438L237.114,131.39L234.162,128.438Z" style="fill:rgb(102,204,204);fill-rule:nonzero;"/>
    <path d="M42.275,131.39L45.227,134.342L42.275,131.39Z" style="fill:rgb(153,204,204);fill-rule:nonzero;"/>
    <path d="M45.227,131.39L48.18,134.342L45.228,131.39L45.227,131.39Z" style="fill:rgb(204,204,255);fill-rule:nonzero;"/>
    <path d="M57.036,131.39L59.988,134.342L57.036,131.39ZM228.258,131.39L231.21,134.342L228.258,131.39Z" style="fill:rgb(255,204,204);fill-rule:nonzero;"/>
    <path d="M240.066,131.39L243.018,134.342L240.066,131.39Z" style="fill:rgb(204,204,255);fill-rule:nonzero;"/>
    <path d="M243.018,131.39L245.97,134.342L243.018,131.39M36.37,134.342L39.323,137.294L36.371,134.342L36.37,134.342Z" style="fill:rgb(153,204,204);fill-rule:nonzero;"/>
    <path d="M51.132,134.342L54.084,137.294L51.132,134.342ZM234.162,134.342L237.114,137.294L234.162,134.342Z" style="fill:rgb(204,102,102);fill-rule:nonzero;"/>
    <path d="M248.922,134.342L251.875,137.294L248.922,134.342M42.275,137.294L45.227,140.247L42.275,137.294Z" style="fill:rgb(153,204,204);fill-rule:nonzero;"/>
    <path d="M45.227,137.294L48.18,140.247L45.228,137.294L45.227,137.294Z" style="fill:rgb(204,204,255);fill-rule:nonzero;"/>
    <path d="M57.036,137.294L59.988,140.247L57.036,137.294M228.258,137.294L231.21,140.247L228.258,137.294Z" style="fill:rgb(255,204,204);fill-rule:nonzero;"/>
    <path d="M240.066,137.294L243.018,140.247L240.066,137.294Z" style="fill:rgb(204,204,255);fill-rule:nonzero;"/>
    <path d="M243.018,137.294L245.97,140.247L243.018,137.294Z" style="fill:rgb(153,204,204);fill-rule:nonzero;"/>
    <path d="M51.132,140.247L54.084,143.199L51.132,140.246L51.132,140.247Z" style="fill:rgb(102,204,204);fill-rule:nonzero;"/>
    <path d="M54.084,140.247L57.036,143.199L54.084,140.246L54.084,140.247Z" style="fill:rgb(204,204,255);fill-rule:nonzero;"/>
    <path d="M65.892,140.247L68.844,143.199L65.892,140.246L65.892,140.247Z" style="fill:rgb(255,204,204);fill-rule:nonzero;"/>
    <path d="M70.813,141.23L72.781,142.214L70.814,141.23M215.467,141.23L217.435,142.214L215.467,141.23Z" style="fill:rgb(204,51,51);fill-rule:nonzero;"/>
    <path d="M219.4,140.247L222.354,143.199L219.401,140.246L219.4,140.247Z" style="fill:rgb(255,204,204);fill-rule:nonzero;"/>
    <path d="M231.21,140.247L234.162,143.199L231.21,140.246L231.21,140.247Z" style="fill:rgb(204,204,255);fill-rule:nonzero;"/>
    <path d="M234.162,140.247L237.114,143.199L234.162,140.246M59.988,143.2L62.94,146.15L59.988,143.2Z" style="fill:rgb(102,204,204);fill-rule:nonzero;"/>
    <path d="M62.94,143.2L65.892,146.15L62.94,143.2Z" style="fill:rgb(153,204,255);fill-rule:nonzero;"/>
    <path d="M74.75,143.2L77.7,146.15L74.75,143.2ZM210.545,143.2L213.497,146.15L210.545,143.2Z" style="fill:rgb(255,204,204);fill-rule:nonzero;"/>
    <path d="M222.353,143.2L225.306,146.15L222.353,143.2Z" style="fill:rgb(153,204,255);fill-rule:nonzero;"/>
    <path d="M225.306,143.2L228.258,146.15L225.306,143.2Z" style="fill:rgb(102,204,204);fill-rule:nonzero;"/>
    <path d="M68.844,146.15L71.796,149.103L68.844,146.151L68.844,146.15Z" style="fill:rgb(102,153,204);fill-rule:nonzero;"/>
    <path d="M71.796,146.15L74.748,149.103L71.796,146.151L71.796,146.15Z" style="fill:rgb(153,204,255);fill-rule:nonzero;"/>
    <path d="M86.557,146.15L89.509,149.103L86.556,146.151L86.557,146.15Z" style="fill:rgb(255,204,204);fill-rule:nonzero;"/>
    <path d="M91.478,147.134L93.446,148.118L91.478,147.134M194.802,147.134L196.769,148.118L194.801,147.134L194.802,147.134Z" style="fill:rgb(204,51,51);fill-rule:nonzero;"/>
    <path d="M198.737,146.15L201.689,149.103L198.736,146.151L198.737,146.15Z" style="fill:rgb(255,204,204);fill-rule:nonzero;"/>
    <path d="M213.497,146.15L216.449,149.103L213.496,146.151L213.497,146.15Z" style="fill:rgb(153,204,255);fill-rule:nonzero;"/>
    <path d="M216.45,146.15L219.4,149.103L216.45,146.151M77.7,149.104L80.653,152.056L77.701,149.104L77.7,149.104Z" style="fill:rgb(102,153,204);fill-rule:nonzero;"/>
    <path d="M80.653,149.103L83.605,152.055L80.653,149.103Z" style="fill:rgb(153,204,204);fill-rule:nonzero;"/>
    <path d="M83.605,149.103L86.557,152.055L83.605,149.103Z" style="fill:rgb(204,255,255);fill-rule:nonzero;"/>
    <path d="M95.413,149.103L98.365,152.055L95.413,149.103Z" style="fill:rgb(255,204,204);fill-rule:nonzero;"/>
    <path d="M100.334,150.086L102.302,151.07L100.334,150.086M185.944,150.086L187.914,151.07L185.944,150.086Z" style="fill:rgb(204,51,51);fill-rule:nonzero;"/>
    <path d="M189.88,149.103L192.833,152.055L189.88,149.103Z" style="fill:rgb(255,204,204);fill-rule:nonzero;"/>
    <path d="M201.69,149.103L204.64,152.055L201.69,149.103Z" style="fill:rgb(204,255,255);fill-rule:nonzero;"/>
    <path d="M204.64,149.103L207.593,152.055L204.641,149.103L204.64,149.103Z" style="fill:rgb(153,204,204);fill-rule:nonzero;"/>
    <path d="M207.593,149.103L210.545,152.055L207.593,149.103M86.557,152.055L89.509,155.007L86.556,152.055L86.557,152.055Z" style="fill:rgb(102,153,204);fill-rule:nonzero;"/>
    <path d="M89.51,152.055L92.46,155.007L89.51,152.055Z" style="fill:rgb(153,204,204);fill-rule:nonzero;"/>
    <path d="M92.46,152.055L95.413,155.007L92.461,152.055L92.46,152.055Z" style="fill:rgb(204,255,255);fill-rule:nonzero;"/>
    <path d="M104.27,152.055L107.222,155.007L104.27,152.055Z" style="fill:rgb(255,204,204);fill-rule:nonzero;"/>
    <path d="M109.19,153.038L111.16,154.022L109.19,153.038M177.09,153.038L179.057,154.022L177.089,153.038L177.09,153.038Z" style="fill:rgb(204,51,51);fill-rule:nonzero;"/>
    <path d="M181.024,152.055L183.976,155.007L181.024,152.055Z" style="fill:rgb(255,204,204);fill-rule:nonzero;"/>
    <path d="M192.833,152.055L195.785,155.007L192.833,152.055Z" style="fill:rgb(204,255,255);fill-rule:nonzero;"/>
    <path d="M195.785,152.055L198.737,155.007L195.785,152.055Z" style="fill:rgb(153,204,204);fill-rule:nonzero;"/>
    <path d="M198.737,152.055L201.689,155.007L198.736,152.055L198.737,152.055Z" style="fill:rgb(102,153,204);fill-rule:nonzero;"/>
    <path d="M98.365,155.007L101.317,157.959L98.365,155.006L98.365,155.007Z" style="fill:rgb(153,204,204);fill-rule:nonzero;"/>
    <path d="M101.317,155.007L104.27,157.959L101.317,155.006L101.317,155.007Z" style="fill:rgb(204,204,255);fill-rule:nonzero;"/>
    <path d="M113.126,155.007L116.078,157.959L113.126,155.006L113.126,155.007Z" style="fill:rgb(255,204,204);fill-rule:nonzero;"/>
    <path d="M116.078,155.007L119.03,157.959L116.078,155.006M169.216,155.006L172.168,157.958L169.216,155.005L169.216,155.006Z" style="fill:rgb(204,51,51);fill-rule:nonzero;"/>
    <path d="M172.168,155.007L175.12,157.959L172.168,155.006L172.168,155.007Z" style="fill:rgb(255,204,204);fill-rule:nonzero;"/>
    <path d="M183.976,155.007L186.928,157.959L183.976,155.006L183.976,155.007Z" style="fill:rgb(204,204,255);fill-rule:nonzero;"/>
    <path d="M186.928,155.007L189.88,157.959L186.928,155.006M107.222,157.958L110.174,160.908L107.222,157.958Z" style="fill:rgb(153,204,204);fill-rule:nonzero;"/>
    <path d="M110.174,157.96L113.126,160.91L110.174,157.96M175.12,157.96L178.072,160.91L175.12,157.96Z" style="fill:rgb(204,204,255);fill-rule:nonzero;"/>
    <path d="M178.072,157.96L181.024,160.91L178.072,157.96M116.078,160.91L119.03,163.863L116.078,160.911L116.078,160.91Z" style="fill:rgb(153,204,204);fill-rule:nonzero;"/>
    <path d="M121.982,160.91L124.934,163.863L121.982,160.911M163.312,160.911L166.264,163.864L163.311,160.912L163.312,160.911Z" style="fill:rgb(204,51,51);fill-rule:nonzero;"/>
    <path d="M169.216,160.91L172.168,163.863L169.216,160.911L169.216,160.91Z" style="fill:rgb(153,204,204);fill-rule:nonzero;"/>
    <path d="M121.982,163.863L124.934,166.815L121.982,163.863M163.312,163.863L166.264,166.815L163.311,163.863L163.312,163.863Z" style="fill:rgb(255,204,204);fill-rule:nonzero;"/>
    <path d="M119.03,166.815L121.982,169.768L119.03,166.815Z" style="fill:rgb(204,204,255);fill-rule:nonzero;"/>
    <path d="M125.917,168.784L126.901,170.752L125.918,168.784M161.343,168.784L162.328,170.752L161.343,168.784Z" style="fill:rgb(204,51,51);fill-rule:nonzero;"/>
    <path d="M166.264,166.815L169.216,169.768L166.264,166.815Z" style="fill:rgb(204,204,255);fill-rule:nonzero;"/>
    <path d="M119.03,169.768L121.982,172.72L119.03,169.768M166.264,169.768L169.216,172.72L166.264,169.768Z" style="fill:rgb(153,204,204);fill-rule:nonzero;"/>
    <path d="M124.934,172.72L127.886,175.672L124.934,172.72M160.359,172.72L163.309,175.672L160.359,172.72Z" style="fill:rgb(255,204,204);fill-rule:nonzero;"/>
    <path d="M121.982,175.672L124.934,178.624L121.982,175.672Z" style="fill:rgb(204,204,255);fill-rule:nonzero;"/>
    <path d="M128.87,177.64L129.854,179.61L128.869,177.64M158.389,177.64L159.374,179.61L158.389,177.64Z" style="fill:rgb(204,51,51);fill-rule:nonzero;"/>
    <path d="M163.31,175.672L166.264,178.624L163.311,175.672L163.31,175.672Z" style="fill:rgb(204,204,255);fill-rule:nonzero;"/>
    <path d="M121.982,178.624L124.934,181.576L121.982,178.624M163.312,178.624L166.264,181.576L163.311,178.624L163.312,178.624Z" style="fill:rgb(153,204,204);fill-rule:nonzero;"/>
    <path d="M127.886,181.576L130.838,184.528L127.886,181.576M157.406,181.576L160.359,184.528L157.406,181.576Z" style="fill:rgb(255,204,204);fill-rule:nonzero;"/>
    <path d="M124.934,184.528L127.886,187.48L124.934,184.528Z" style="fill:rgb(204,255,255);fill-rule:nonzero;"/>
    <path d="M131.82,186.497L132.806,188.465L131.821,186.497M155.439,186.497L156.423,188.465L155.439,186.497Z" style="fill:rgb(204,51,51);fill-rule:nonzero;"/>
    <path d="M160.36,184.528L163.31,187.48L160.36,184.528Z" style="fill:rgb(204,255,255);fill-rule:nonzero;"/>
    <path d="M124.934,187.48L127.886,190.432L124.934,187.48M160.359,187.48L163.309,190.432L160.359,187.48Z" style="fill:rgb(153,204,204);fill-rule:nonzero;"/>
    <path d="M124.934,190.432L127.886,193.384L124.934,190.432Z" style="fill:rgb(102,153,204);fill-rule:nonzero;"/>
    <path d="M130.838,190.432L133.791,193.384L130.839,190.432M154.456,190.432L157.408,193.384L154.456,190.432Z" style="fill:rgb(255,204,204);fill-rule:nonzero;"/>
    <path d="M160.36,190.432L163.31,193.384L160.36,190.432Z" style="fill:rgb(102,153,204);fill-rule:nonzero;"/>
    <path d="M127.886,193.384L130.838,196.336L127.886,193.384ZM157.407,193.384L160.359,196.336L157.406,193.384L157.407,193.384Z" style="fill:rgb(204,255,255);fill-rule:nonzero;"/>
    <path d="M127.886,196.336L130.838,199.289L127.886,196.335M157.406,196.335L160.359,199.288L157.406,196.334L157.406,196.335Z" style="fill:rgb(153,204,204);fill-rule:nonzero;"/>
    <path d="M127.886,199.29L130.838,202.24L127.886,199.29M157.406,199.29L160.359,202.24L157.406,199.29Z" style="fill:rgb(102,153,204);fill-rule:nonzero;"/>
    <path d="M133.79,202.24L136.743,205.193L133.791,202.241M151.504,202.241L154.456,205.194L151.504,202.242L151.504,202.241Z" style="fill:rgb(255,204,204);fill-rule:nonzero;"/>
    <path d="M130.838,205.193L133.791,208.145L130.839,205.193L130.838,205.193Z" style="fill:rgb(153,204,255);fill-rule:nonzero;"/>
    <path d="M137.726,207.162L138.71,209.13L137.726,207.162M149.534,207.162L150.518,209.13L149.534,207.162Z" style="fill:rgb(204,51,51);fill-rule:nonzero;"/>
    <path d="M154.455,205.193L157.407,208.145L154.455,205.193Z" style="fill:rgb(153,204,255);fill-rule:nonzero;"/>
    <path d="M130.838,208.145L133.791,211.097L130.839,208.145M154.456,208.145L157.408,211.097L154.456,208.145Z" style="fill:rgb(102,153,204);fill-rule:nonzero;"/>
    <path d="M136.743,211.097L139.695,214.049L136.743,211.096M148.551,211.096L151.504,214.048L148.552,211.095L148.551,211.096Z" style="fill:rgb(255,204,204);fill-rule:nonzero;"/>
    <path d="M133.79,214.05L136.743,217L133.791,214.05L133.79,214.05ZM151.503,214.05L154.455,217L151.503,214.05Z" style="fill:rgb(153,204,255);fill-rule:nonzero;"/>
    <path d="M133.79,217L136.743,219.953L133.79,217M151.503,217L154.455,219.953L151.503,217.001L151.503,217Z" style="fill:rgb(102,204,204);fill-rule:nonzero;"/>
    <path d="M139.695,219.953L142.647,222.905L139.695,219.953M145.599,219.953L148.549,222.905L145.599,219.953Z" style="fill:rgb(255,204,204);fill-rule:nonzero;"/>
    <path d="M136.743,222.905L139.695,225.857L136.743,222.905M148.551,222.905L151.504,225.857L148.552,222.905L148.551,222.905Z" style="fill:rgb(204,204,255);fill-rule:nonzero;"/>
    <path d="M136.743,225.857L139.695,228.81L136.743,225.857Z" style="fill:rgb(102,204,204);fill-rule:nonzero;"/>
    <path d="M142.647,225.857L145.599,228.81L142.646,225.857L142.647,225.857Z" style="fill:rgb(204,102,102);fill-rule:nonzero;"/>
    <path d="M148.55,225.857L151.503,228.81L148.551,225.857L148.55,225.857Z" style="fill:rgb(102,204,204);fill-rule:nonzero;"/>
    <path d="M139.695,231.762L142.647,234.714L139.695,231.762M145.599,231.762L148.549,234.714L145.599,231.762Z" style="fill:rgb(204,204,255);fill-rule:nonzero;"/>
    <path d="M139.695,234.714L142.647,237.666L139.695,234.714M145.599,234.714L148.549,237.666L145.599,234.714M142.646,240.618L145.598,243.57L142.645,240.618L142.646,240.618Z" style="fill:rgb(153,204,204);fill-rule:nonzero;"/>
</svg>
